<svg width="42" height="36" viewBox="0 0 42 36" fill="none" xmlns="http://www.w3.org/2000/svg">
<path d="M7.93359 27.406L8.2613 27.4276C8.69617 28.2022 8.37335 29.7865 8.44988 30.6814L8.41612 30.8267L7.96194 30.9346L7.93359 27.406Z" fill="#452B90"/>
<path d="M8.41252 30.8261C8.6444 30.8856 8.86304 30.9411 9.07486 31.0554C10.0397 31.5757 10.3681 32.4502 10.6712 33.429C10.5264 33.9272 10.3904 34.3699 10.0901 34.8028C9.73056 35.3208 9.29792 35.8364 8.63093 35.928C7.9454 36.0225 7.21094 35.6941 6.68847 35.2758C6.11912 34.8203 5.74783 34.1377 5.6926 33.4138C5.64783 32.8246 5.76448 32.2291 6.16654 31.7764C6.58283 31.308 7.33664 30.9632 7.95834 30.9341L8.41252 30.8261Z" fill="#91DBF4"/>
<path d="M16.7659 30.7776L17.2164 30.8284C17.4835 30.8272 17.6964 30.9153 17.9311 31.0348C18.5858 31.3685 19.1282 32.0475 19.3305 32.7475C19.5152 33.3851 19.4017 34.0519 19.0582 34.6171C18.6852 35.2314 18.0505 35.6817 17.3411 35.8235C16.6823 35.9553 15.9919 35.8235 15.441 35.4367C14.8105 34.9934 14.3554 34.1545 14.2558 33.4009C14.1827 32.8479 14.3722 32.3211 14.7122 31.8871C15.2566 31.1918 15.9065 30.8978 16.7659 30.7776Z" fill="#62C9AF"/>
<path d="M26.0511 30.8307C26.6252 30.8412 27.2382 31.1025 27.6523 31.5021C28.1311 31.9647 28.3234 32.618 28.3123 33.269C28.2987 34.0198 27.9646 34.7554 27.4181 35.2746C26.8911 35.7751 26.1958 36.0533 25.4629 35.9915C24.6658 35.9238 23.8511 35.5021 23.3711 34.8627C22.9294 34.2741 22.7253 33.4948 22.8511 32.7697C22.9482 32.2103 23.2347 31.68 23.7164 31.358C24.1829 31.0465 24.8488 30.8884 25.3988 31.0109C25.544 31.0891 25.6335 31.1008 25.7946 31.1241L26.0511 30.8307Z" fill="#F3A815"/>
<path d="M12.5561 6.6957C13.2195 5.62761 13.8874 4.65051 14.7904 3.76267C17.1922 1.40191 20.471 -0.0296173 23.8669 0.000717163C26.9657 0.0281334 29.8074 1.31382 31.9621 3.50425C34.0691 5.64685 35.335 8.64753 35.2997 11.65C37.3691 12.3295 39.1155 13.2151 40.432 14.9977C41.702 16.7174 42.2449 18.8816 41.8967 20.9869C41.5449 23.1184 40.4002 25.0055 38.6085 26.2457C37.6967 26.8762 36.4832 27.4263 35.355 27.2332L35.3485 30.8809C36.2438 31.2425 36.8897 31.6474 37.2714 32.5632C37.5208 33.1611 37.5585 33.8156 37.285 34.413C37.0097 35.0156 36.4697 35.481 35.8479 35.7103C35.1703 35.9605 34.4038 35.9314 33.7515 35.6176C33.1679 35.3364 32.7615 34.8487 32.585 34.2304C32.3944 33.563 32.4203 32.7009 32.7968 32.0983C33.2332 31.4006 33.9291 31.0838 34.6991 30.8797C34.7044 29.685 34.6968 28.4927 34.6756 27.298C31.7803 27.3534 28.8827 27.3301 25.9868 27.3271L25.9733 29.6809C25.9945 30.0601 25.9962 30.455 26.0492 30.8307L25.7927 31.1241C25.6315 31.1008 25.5421 31.0891 25.3968 31.0109L25.4304 29.825L25.4051 27.3231L17.2422 27.3085L17.2193 30.8278L16.7687 30.777C16.734 29.6238 16.7663 28.4658 16.7781 27.3126L8.48518 27.3231C8.49106 28.4437 8.4937 29.5607 8.44653 30.6813C8.37 29.7865 8.69282 28.2022 8.25794 27.4275L7.93024 27.4059C7.73213 27.3231 7.82748 27.3464 7.5966 27.326C7.33566 27.3027 7.07395 27.2857 6.81495 27.2432C4.60298 26.8809 2.6757 25.7918 1.39577 23.9473C0.223608 22.2585 -0.254564 20.2402 0.131079 18.2149C0.524135 16.151 1.73595 14.4401 3.46958 13.2623C3.57899 12.3447 3.68569 11.4411 3.98863 10.5632C4.57998 8.84821 5.84226 7.44994 7.50218 6.69043C9.25558 5.88776 10.8082 6.07211 12.5561 6.6957Z" fill="#58359A"/>
<path d="M25.43 29.8249C25.7594 29.3443 25.4506 28.1461 25.5982 27.5143L25.7318 27.5546C25.9441 28.1618 25.8041 28.8152 25.9241 29.4446C25.9394 29.5233 25.9571 29.6021 25.9729 29.6808C25.9941 30.06 25.9959 30.4549 26.0488 30.8306L25.7924 31.124C25.6312 31.1007 25.5418 31.089 25.3965 31.0108L25.43 29.8249Z" fill="#452B90"/>
<path d="M5.01582 10.5141C7.54227 10.2516 9.48766 10.2347 11.83 11.3057C12.1802 16.5854 12.8892 21.4289 17.0951 25.1156C17.6369 25.5904 18.2575 25.976 18.7863 26.4602C16.6481 26.6311 8.40591 26.7303 6.50869 26.3208C4.66141 25.9218 2.89349 24.7358 1.90903 23.1276C0.964154 21.5835 0.739452 19.6456 1.1728 17.902C1.61991 16.103 2.7599 14.6669 4.34642 13.7341C4.33612 12.6339 4.42342 11.4713 5.01582 10.5141Z" fill="#AD33A0"/>
<path d="M13.0033 8.01499C14.6984 4.79381 16.8514 2.41788 20.4561 1.29379C23.0925 0.471279 26.069 0.726212 28.5142 2.00489C31.0736 3.34365 33.1118 5.69449 33.9524 8.45193C34.3512 9.76035 34.4136 11.0577 34.4389 12.4157C36.5706 12.7517 38.393 13.6699 39.6847 15.4327C40.8553 17.0299 41.3159 19.0296 40.9794 20.9762C40.6712 22.7577 39.6565 24.3747 38.1465 25.3961C37.3577 25.9293 36.4536 26.288 35.5077 26.4216C33.7424 26.6707 31.736 26.4782 29.9448 26.4724L18.7861 26.4584C18.2573 25.9742 17.6367 25.5886 17.0949 25.1138C12.889 21.4271 12.18 16.5836 11.8298 11.3039C9.48746 10.2328 7.54207 10.2498 5.01562 10.5123C5.75103 9.02184 6.85578 7.76942 8.47271 7.19775C9.66893 6.77542 10.9104 6.88275 12.0401 7.44451C12.3744 7.61076 12.6897 7.81374 13.0033 8.01499Z" fill="#CB7CC5"/>
<path d="M21.0726 9.88332C22.3955 9.85473 23.7173 10.238 24.7978 11.0016C26.1543 11.9594 27.1496 13.4994 27.3755 15.1433C27.5884 16.6874 27.0831 18.298 26.1361 19.527C25.0367 20.9545 23.6243 21.574 21.8814 21.8248C20.4649 21.8931 19.0897 21.6568 17.9014 20.8431C16.6062 19.9558 15.7487 18.5237 15.4731 16.9965C15.182 15.3854 15.4973 13.5502 16.4832 12.2149C17.605 10.6959 19.2767 10.1248 21.0726 9.88332Z" fill="white"/>
<path d="M21.3322 11.4564C21.4963 11.4914 21.6598 11.5433 21.8216 11.5882C22.0257 11.8985 21.958 12.0654 21.8781 12.4288C21.8645 12.4889 21.8498 12.549 21.8357 12.6085L22.0257 12.7706C22.3898 12.815 22.7633 12.8517 23.101 13.0034C23.501 13.183 23.6686 13.3656 23.8274 13.7658C23.6257 14.3725 21.111 13.5132 20.2857 14.0359C20.1375 14.3211 20.1587 14.3952 20.1828 14.7207C20.9045 15.2872 22.0198 15.4365 22.8398 15.8734C23.3574 16.1493 23.6916 16.4585 23.8657 17.0185C23.7727 18.2937 22.5886 18.3497 21.8586 19.0765C21.8575 19.3612 21.8845 19.6587 21.7516 19.9194C21.6592 20.1003 21.4333 20.1312 21.2551 20.2041C20.6704 19.7561 21.1051 19.64 21.0251 19.0438C20.4657 18.4827 19.5316 18.6985 18.9234 18.2808C18.7728 18.1776 18.8104 18.1041 18.791 17.9408C18.8616 17.8258 18.8998 17.6829 19.0034 17.5966C19.2792 17.3662 21.4863 18.0638 22.278 17.7792C22.4922 17.5604 22.6033 17.4601 22.6139 17.1305C22.6316 16.5559 19.5945 15.9037 19.0004 15.055C18.8675 14.8654 18.7928 14.5988 18.854 14.3731C19.0851 13.5214 20.2581 12.9894 20.9828 12.5939C21.0557 12.1733 21.1522 11.8443 21.3322 11.4564Z" fill="#EC1796"/>
</svg>
