<svg width="36" height="36" viewBox="0 0 36 36" fill="none" xmlns="http://www.w3.org/2000/svg">
<path d="M4.5173 7.5V6.375H3.62593L3.4221 7.24273L4.5173 7.5ZM17.9961 33.0001L17.7601 34.1001L17.9961 34.1508L18.2322 34.1001L17.9961 33.0001ZM31.4752 7.5L32.5704 7.24273L32.3665 6.375H31.4752V7.5ZM17.9962 1.875C15.0459 1.875 12.744 3.15277 10.7118 4.26265C8.62314 5.40339 6.80586 6.375 4.5173 6.375V8.625C7.46058 8.625 9.75924 7.34661 11.7903 6.23734C13.8778 5.09722 15.6996 4.125 17.9962 4.125V1.875ZM17.9962 4.125C20.3037 4.125 22.1275 5.09776 24.2118 6.23713C26.2404 7.34605 28.5343 8.625 31.4752 8.625V6.375C29.19 6.375 27.3784 5.40394 25.291 4.26286C23.2593 3.15223 20.9568 1.875 17.9962 1.875V4.125ZM33.3675 13.4811C33.3337 11.4733 33.0735 9.38482 32.5704 7.24273L30.3799 7.75727C30.8482 9.75057 31.0869 11.6792 31.1178 13.5189L33.3675 13.4811ZM4.87467 13.5189C4.90557 11.6792 5.14423 9.75057 5.61247 7.75727L3.4221 7.24273C2.91891 9.38482 2.6587 11.4733 2.625 13.4811L4.87467 13.5189ZM18.2322 31.9002C14.4092 31.0798 11.2414 29.0986 8.95183 26.2893L7.20768 27.7107C9.82348 30.9204 13.4417 33.1734 17.7601 34.1001L18.2322 31.9002ZM18.2322 34.1001C22.5507 33.1734 26.1688 30.9204 28.7847 27.7107L27.0405 26.2893C24.7509 29.0986 21.583 31.0798 17.7601 31.9002L18.2322 34.1001Z" fill="white"/>
<path d="M27 18L29.25 20.25M29.25 20.25L31.5 22.5M29.25 20.25L31.5 18M29.25 20.25L27 22.5M19.5 18L21.75 20.25M21.75 20.25L24 22.5M21.75 20.25L24 18M21.75 20.25L19.5 22.5M12 18L14.25 20.25M14.25 20.25L16.5 22.5M14.25 20.25L16.5 18M14.25 20.25L12 22.5M4.5 18L6.75 20.25M6.75 20.25L9 22.5M6.75 20.25L9 18M6.75 20.25L4.5 22.5" stroke="white" stroke-width="1.5" stroke-linejoin="round"/>
</svg>
