<svg width="39" height="36" viewBox="0 0 39 36" fill="none" xmlns="http://www.w3.org/2000/svg">
<path d="M4.0409 13.3707C3.11118 13.3601 2.19208 13.5358 1.26404 13.5269C0.883876 13.5235 0.620003 13.4804 0.346062 13.2129C-0.0810615 11.7569 -0.130827 4.72323 0.297974 3.37024C1.11029 2.90842 3.13746 3.24709 4.08171 3.29132C4.10855 6.64664 4.14432 10.0171 4.0409 13.3707Z" fill="#F14C27"/>
<path d="M4.06717 21.5354C3.97325 25.4796 4.03531 29.4351 4.03979 33.3809C3.14752 33.4056 1.08512 33.6731 0.418721 33.1094C0.102851 32.8424 0.100632 31.5387 0.0928053 31.097C0.0676475 29.6601 -0.201825 22.2598 0.443333 21.592C1.49773 21.2998 2.95967 21.5058 4.06717 21.5354Z" fill="#AD33A0"/>
<path d="M10.2083 0.0688457L30.3607 0.125944C32.4158 0.150015 34.9578 -0.108044 36.9167 0.151693C37.488 0.227821 37.9861 0.462372 38.3791 0.891163C38.6609 1.19792 38.6877 1.50636 38.7408 1.90436C38.9935 3.81208 38.8303 5.92748 38.8426 7.85703C38.8549 9.90246 39.0282 12.066 38.8482 14.0991C38.8353 14.2463 38.8112 14.3857 38.7749 14.529C38.4652 15.1588 38.1605 15.5988 37.474 15.84C36.9379 16.0281 36.3196 16.0751 35.7566 16.1462L7.40297 16.1339C6.97139 16.425 6.63036 16.7211 6.27761 17.1046C5.53967 17.1538 4.77154 17.0738 4.03193 17.0352C4.00118 15.8165 4.03473 14.59 4.04199 13.3703C4.14542 10.0167 4.10964 6.64624 4.08281 3.29093C4.09008 2.45798 4.15491 1.61999 4.19796 0.787603C4.76427 0.797119 5.33004 0.851416 5.89691 0.855333C6.24743 0.858133 6.44086 0.902355 6.69466 0.647097C6.74554 0.492598 6.74554 0.411993 6.87915 0.301718C7.46335 -0.178572 9.46473 0.0548515 10.2083 0.0688457Z" fill="#F3A815"/>
<path d="M32.6316 5.43457C32.8496 5.41777 33.0677 5.40602 33.2863 5.42337C33.7419 5.45976 34.126 5.68031 34.4005 6.04753C34.637 6.36324 34.7275 6.74669 34.6487 7.13406C34.5307 7.71343 34.1824 8.04146 33.7111 8.35774C33.4674 8.407 33.2292 8.43275 32.981 8.40532C32.5841 8.36166 32.195 8.13327 31.959 7.81027C31.7265 7.4912 31.6599 7.07864 31.7181 6.69351C31.8109 6.08391 32.167 5.79507 32.6316 5.43457Z" fill="white"/>
<path d="M27.7183 5.3086C27.9408 5.30804 28.1723 5.30525 28.3897 5.35898C28.8303 5.46702 29.1886 5.77938 29.4078 6.17123C29.6281 6.56643 29.6678 7.02601 29.5179 7.45256C29.3334 7.97931 28.9706 8.23457 28.4915 8.47416C28.2304 8.48032 27.9402 8.49823 27.6859 8.4305C27.3253 8.33366 26.9775 8.04761 26.7819 7.73301C26.5717 7.39491 26.5113 6.98738 26.6035 6.60002C26.7595 5.94451 27.1682 5.63999 27.7183 5.3086Z" fill="white"/>
<path d="M22.5396 5.44583C22.8666 5.40609 23.2183 5.34788 23.5459 5.40721C23.9713 5.48502 24.3867 5.75707 24.6277 6.11645C24.8385 6.43105 24.9089 6.79882 24.8273 7.1694C24.6936 7.77172 24.3275 8.09416 23.836 8.42443C23.6024 8.45801 23.3625 8.4944 23.126 8.48544C22.6631 8.46809 22.2399 8.24641 21.9436 7.89039C21.6635 7.55453 21.5534 7.13469 21.6272 6.70478C21.7284 6.11365 22.0728 5.78226 22.5396 5.44583Z" fill="white"/>
<path d="M17.9706 5.31834C18.2658 5.3133 18.5895 5.29147 18.8746 5.37488C19.3252 5.50699 19.7188 5.85293 19.9379 6.26437C20.1353 6.63438 20.166 7.06318 20.0117 7.45558C19.8049 7.98122 19.4258 8.22696 18.9367 8.46207C18.6733 8.47214 18.3893 8.49397 18.1288 8.44751C17.7129 8.3725 17.2874 8.05959 17.0593 7.70748C16.8474 7.38169 16.7887 6.9932 16.8715 6.61535C17.0129 5.96936 17.4423 5.65645 17.9706 5.31834Z" fill="white"/>
<path d="M6.69466 0.647097C6.74554 0.492598 6.74554 0.411993 6.87915 0.301718C7.46335 -0.178572 9.46473 0.0548515 10.2083 0.0688457L10.0635 14.7193C15.309 14.6667 20.5579 14.6331 25.8034 14.6751C30.1204 14.7098 34.4675 14.8744 38.7749 14.529C38.4652 15.1588 38.1605 15.5988 37.474 15.84C36.9379 16.0281 36.3196 16.0751 35.7566 16.1462L7.40297 16.1339C6.97139 16.425 6.63036 16.7211 6.27761 17.1046C5.53967 17.1538 4.77154 17.0738 4.03193 17.0352C4.00118 15.8165 4.03473 14.59 4.04199 13.3703C4.14542 10.0167 4.10964 6.64624 4.08281 3.29093C4.09008 2.45798 4.15491 1.61999 4.19796 0.787603C4.76427 0.797119 5.33004 0.851416 5.89691 0.855333C6.24743 0.858133 6.44086 0.902355 6.69466 0.647097Z" fill="#F37316"/>
<path d="M6.69648 0.647027C6.75686 0.788091 6.80996 0.903966 6.82729 1.05847C6.93687 2.02353 6.88487 14.9253 6.77977 15.2713C6.53378 15.362 6.51813 15.3536 6.26432 15.2814C5.98479 14.8811 6.05355 2.86375 6.18157 1.69941C6.28444 1.62552 6.38508 1.55947 6.47285 1.46487C6.7071 1.21129 6.69536 0.965541 6.69648 0.647027Z" fill="#E53022"/>
<path d="M6.69475 0.647032C6.69363 0.965546 6.70537 1.21129 6.47112 1.46487C6.38335 1.55948 6.28271 1.62553 6.17984 1.69942C5.85502 1.6983 5.46592 1.63393 5.19869 1.8444C4.85263 2.99475 5.06005 14.1372 5.04999 16.1462C5.82708 16.1333 6.62877 16.0818 7.40307 16.1339C6.97148 16.425 6.63044 16.7211 6.27768 17.1046C5.53971 17.1538 4.77157 17.0738 4.03193 17.0351C4.00118 15.8165 4.03473 14.59 4.04199 13.3703C4.14542 10.0166 4.10964 6.6462 4.08281 3.29088C4.09008 2.45792 4.15492 1.61993 4.19796 0.787539C4.76429 0.797056 5.33008 0.851353 5.89697 0.85527C6.2475 0.858068 6.44093 0.90229 6.69475 0.647032Z" fill="#DC202B"/>
<path d="M7.40294 16.1336L35.7566 16.1459L35.751 18.5972C36.6444 18.558 37.8189 18.3783 38.5217 19.0651C38.8224 19.359 38.8621 19.8751 38.9057 20.2832C39.0751 21.8562 38.9655 23.5288 38.9655 25.113L38.9784 32.8054C38.9767 33.0668 38.9471 33.3137 38.9102 33.5712C38.7906 33.8069 38.7939 33.8796 38.5239 33.9535C37.6445 34.1948 36.4985 33.6053 35.7303 34.1439C35.6811 34.3398 35.6526 34.5155 35.6403 34.7165C35.6733 35.0809 35.7561 35.4414 35.5727 35.775C35.4419 35.8641 35.3479 35.9032 35.1886 35.9122C31.7902 36.1048 28.2738 35.92 24.8653 35.9206L4.07439 35.8988C4.04085 35.0613 4.05036 34.2177 4.03974 33.3798C4.03527 29.4339 3.9732 25.4785 4.06712 21.5343C4.15601 20.5177 4.13029 19.4738 4.1493 18.4527C4.76089 18.4813 5.62127 18.6257 6.1792 18.3721L6.26528 18.0127L6.27758 17.1042C6.63034 16.7208 6.97136 16.4247 7.40294 16.1336Z" fill="#7F53AF"/>
<path d="M33.2282 23.9281C33.3825 23.946 33.5357 23.9617 33.6866 23.9981C34.1261 24.1033 34.4939 24.3468 34.7214 24.7431C34.9585 25.1563 34.9809 25.6343 34.8478 26.086C34.6382 26.7992 34.2764 27.0729 33.6369 27.3993C33.4166 27.3685 33.1874 27.34 32.9738 27.275C32.5283 27.1396 32.128 26.7522 31.9323 26.3351C31.7361 25.9159 31.7327 25.4664 31.9055 25.0376C32.157 24.4134 32.6395 24.1755 33.2282 23.9281Z" fill="white"/>
<path d="M27.9666 23.9478C28.2014 23.9691 28.4429 23.9875 28.6738 24.0385C29.0987 24.132 29.4794 24.4662 29.6841 24.8423C29.8993 25.2381 29.9385 25.6938 29.7942 26.1209C29.5756 26.7669 29.1457 27.0439 28.552 27.3138C28.2495 27.3182 27.8934 27.3261 27.6111 27.2052C27.2018 27.0294 26.8832 26.6913 26.7244 26.2754C26.5617 25.8499 26.5869 25.378 26.7719 24.9644C27.0268 24.3928 27.4064 24.1739 27.9666 23.9478Z" fill="white"/>
<path d="M17.877 23.9322C18.1783 23.9311 18.5232 23.9115 18.8134 24C19.2372 24.1282 19.6089 24.5004 19.8018 24.8911C20.0098 25.3115 20.021 25.7901 19.8493 26.2262C19.6223 26.8011 19.2288 27.0317 18.6904 27.2808C18.3891 27.2814 18.0581 27.2876 17.7685 27.1997C17.3268 27.0659 16.9484 26.7401 16.7393 26.3315C16.5352 25.9329 16.5173 25.4744 16.6755 25.058C16.9042 24.4562 17.319 24.1987 17.877 23.9322Z" fill="white"/>
<path d="M22.9169 23.9318C23.2026 23.924 23.5173 23.9285 23.7935 24.013C24.2368 24.1484 24.6069 24.514 24.7925 24.9321C24.982 25.3576 24.9815 25.8222 24.8088 26.2532C24.5706 26.8466 24.1519 27.1018 23.5799 27.3235C23.2322 27.328 22.8856 27.3319 22.558 27.1964C22.0984 27.0067 21.7216 26.5807 21.5662 26.1105C21.4231 25.6778 21.4689 25.2154 21.6836 24.8146C21.9614 24.2951 22.3785 24.1025 22.9169 23.9318Z" fill="white"/>
<path d="M7.40294 16.1336L35.7566 16.1459L35.751 18.5972C34.8526 18.9336 13.1773 18.7091 10.2513 18.7097L10.2155 33.2734C12.8838 33.2611 15.6081 33.1396 18.2708 33.2639L32.5287 33.2695C34.1868 33.2762 37.2806 33.0758 38.766 33.4189L38.9102 33.5712C38.7906 33.8069 38.7939 33.8796 38.5239 33.9535C37.6445 34.1948 36.4985 33.6053 35.7303 34.1439C35.6811 34.3398 35.6526 34.5155 35.6403 34.7165C35.6733 35.0809 35.7561 35.4414 35.5727 35.775C35.4419 35.8641 35.3479 35.9032 35.1886 35.9122C31.7902 36.1048 28.2738 35.92 24.8653 35.9206L4.07439 35.8988C4.04085 35.0613 4.05036 34.2177 4.03974 33.3798C4.03527 29.4339 3.9732 25.4785 4.06712 21.5343C4.15601 20.5177 4.13029 19.4738 4.1493 18.4527C4.76089 18.4813 5.62127 18.6257 6.1792 18.3721L6.26529 18.0127L6.27758 17.1042C6.63034 16.7208 6.97136 16.4247 7.40294 16.1336Z" fill="#2D2F87"/>
<path d="M6.72241 17.9453C7.78519 18.28 9.36231 17.8048 10.1484 18.6892L7.05169 18.7284C6.78222 18.4116 6.77664 18.3612 6.72241 17.9453Z" fill="#2D2F87"/>
<path d="M5.30786 19.4832C5.60249 19.5039 5.76798 19.4765 6.02235 19.6422C6.19287 21.2784 6.0503 23.0361 6.04583 24.6886L6.02012 34.7064C5.77525 34.6885 5.57845 34.6555 5.34532 34.5771C5.07585 33.7184 5.30675 21.5633 5.30786 19.4832Z" fill="#B1A6DA"/>
<path d="M35.6423 34.7168C34.196 34.2835 31.9692 34.5046 30.415 34.5013C24.9865 34.4895 19.5614 34.6278 14.1335 34.653C12.0571 34.6625 9.2277 34.9541 7.23855 34.4856C7.14463 34.3871 7.1368 34.3916 7.06636 34.2477C6.83379 33.7747 6.83155 19.5557 7.06077 18.7838C7.05238 23.6404 6.86565 28.5547 7.01268 33.4035L14.2162 33.3772C15.5121 33.3767 17.0003 33.492 18.2722 33.2642L32.5305 33.2698C34.1887 33.2765 37.2826 33.0761 38.768 33.4192L38.9122 33.5715C38.7926 33.8071 38.7959 33.8799 38.5259 33.9538C37.6465 34.1951 36.5004 33.6056 35.7323 34.1441C35.6831 34.3401 35.6546 34.5158 35.6423 34.7168Z" fill="#452B90"/>
<path d="M10.1544 18.6894L10.2528 18.7101L10.217 33.2739C12.8854 33.2616 15.6097 33.1401 18.2726 33.2644C17.0007 33.4922 15.5125 33.3769 14.2166 33.3774L7.01304 33.4037C6.866 28.5549 7.05274 23.6406 7.06112 18.784L7.05776 18.7286L10.1544 18.6894Z" fill="#58359A"/>
</svg>
