<svg width="38" height="40" viewBox="0 0 38 40" fill="none" xmlns="http://www.w3.org/2000/svg">
<path d="M0 12.1355C0.601228 10.8319 2.58583 6.41431 3.73408 5.85839C3.87812 6.94627 3.00217 7.77812 2.61075 8.74441C3.58809 10.1813 5.66971 11.6497 7.18378 12.4371C6.91533 12.9545 4.78634 15.9177 4.35401 16.4087C2.96459 14.9367 1.46452 13.5303 0 12.1355Z" fill="#F14C27"/>
<path d="M4.01251 22.6036L4.11131 22.8257C4.78436 24.3737 5.11357 25.7351 6.13764 27.1398C5.49878 27.6911 4.93725 28.261 4.3934 28.9093C4.97719 30.0714 5.70024 31.3429 5.9699 32.6184C5.21025 32.9621 4.4506 33.2509 3.66172 33.5181C2.34101 31.3213 1.17653 28.9602 0.0195312 26.6704C1.20967 25.2394 2.69824 23.9282 4.01251 22.6036Z" fill="#F14C27"/>
<path d="M14.6436 5.59611C14.6505 4.46438 14.3505 1.12941 14.8099 0.260157C14.9146 0.0625725 15.1483 0.0801115 15.3468 0.0315924C15.8072 0.0666666 16.2595 0.104083 16.7215 0.0859613C16.7106 2.41372 16.6934 4.74147 16.7359 7.06922L16.6962 7.19374C16.6042 7.60177 16.5587 7.58715 16.206 7.80519C15.5344 8.21965 14.7305 8.47394 14.0217 8.82585C11.8437 9.90672 10.2474 11.5634 9.14244 13.7339L9.17282 13.1476C8.68018 12.66 7.99661 12.8085 7.39319 12.5355C7.32235 12.5034 7.25249 12.4689 7.1824 12.4361C5.66834 11.6487 3.58672 10.1803 2.60938 8.74343C3.00079 7.77713 3.87674 6.94529 3.73271 5.8574C5.31951 6.8272 7.01443 7.64093 8.66366 8.49615C10.5885 7.08091 12.3545 6.22861 14.6436 5.59611Z" fill="#F37316"/>
<path d="M15.3457 0.0321903C15.8061 0.0672641 16.2584 0.104681 16.7205 0.0865598C16.7095 2.41431 16.6923 4.74206 16.7348 7.06982L16.6951 7.19434C16.5139 7.16043 16.3619 7.10606 16.1893 7.04293C15.0798 5.90419 15.7197 1.73679 15.3457 0.0321903Z" fill="#F28E15"/>
<path d="M6.13866 27.1396C7.26479 26.5498 8.24834 25.7332 9.41515 25.2123C11.11 28.1498 13.0964 30.2636 16.4278 31.1609C17.9256 31.5642 19.3037 31.5175 20.8073 31.1638C20.2785 31.8547 19.7796 32.126 18.9982 32.4685L18.9493 38.5767C18.9481 39.0356 18.9677 39.5032 18.8952 39.9574C17.6391 39.9522 16.326 40.0574 15.0773 39.9551C14.7845 39.9317 14.754 39.9656 14.5539 39.7294C14.2659 38.1324 14.4336 36.2396 14.4264 34.6081C12.1449 33.7207 10.8056 32.8959 8.90983 31.3397C7.91408 31.6881 6.93727 32.1885 5.97092 32.6182C5.70129 31.3427 4.97828 30.0712 4.39453 28.9091C4.93835 28.2608 5.49984 27.6909 6.13866 27.1396Z" fill="#F37316"/>
<path d="M14.5488 39.7294C14.5579 39.3343 14.5869 38.9637 14.6482 38.5732C15.9959 38.3966 17.5887 38.4457 18.9445 38.5767C18.9434 39.0356 18.9629 39.5032 18.8904 39.9574C17.6342 39.9522 16.321 40.0574 15.0723 39.9551C14.7794 39.9317 14.7489 39.9656 14.5488 39.7294Z" fill="#F14C27"/>
<path d="M16.7366 7.06837C17.2861 7.01985 17.8684 6.89767 18.3874 7.1239C18.6285 7.3396 18.7689 7.52024 18.7896 7.85344C18.8374 8.6163 18.762 9.39436 18.8172 10.1654L18.8811 10.764C16.0535 11.2246 13.7421 12.24 12.0195 14.6578C10.5652 16.6991 9.96825 19.2747 10.397 21.7609C10.8272 24.2541 12.2842 26.4532 14.3235 27.8877C16.4408 29.3772 18.7453 29.8238 21.2645 29.3386L21.4152 29.3082C21.4215 29.9933 21.2288 30.5247 20.9376 31.1326L20.8099 31.1636C19.3063 31.5173 17.9282 31.5641 16.4304 31.1607C13.0991 30.2634 11.1126 28.1496 9.41776 25.2122C8.25094 25.733 7.26739 26.5496 6.14126 27.1395C5.11726 25.7348 4.78807 24.3733 4.11507 22.8254L4.01627 22.6032C4.08423 22.4097 4.08469 22.4764 4.07105 22.2952C3.91839 20.2679 3.84209 18.3879 4.35409 16.4068C4.7864 15.9158 6.91524 12.9526 7.18367 12.4353C7.25375 12.468 7.32361 12.5025 7.39444 12.5346C7.99782 12.8076 8.68135 12.6592 9.17395 13.1467L9.14357 13.733C10.2484 11.5625 11.8447 9.90585 14.0225 8.82499C14.7313 8.47308 15.5351 8.2188 16.2066 7.80434C16.5593 7.58629 16.6048 7.60091 16.6969 7.19288L16.7366 7.06837Z" fill="#F06019"/>
<path d="M16.7325 7.06948C17.2821 7.02096 17.8644 6.89879 18.3835 7.12502C18.6246 7.34072 18.765 7.52136 18.7857 7.85456C18.8335 8.61743 18.7581 9.39549 18.8133 10.1665C16.1743 10.3758 13.8075 11.1591 12.0291 13.2455C10.9548 14.5058 10.281 15.9871 9.52398 17.4485C9.00332 17.4643 8.4777 17.4959 7.95703 17.4801C8.22548 16.1683 8.6272 14.9676 9.139 13.7342C10.2439 11.5636 11.8403 9.90698 14.0183 8.82611C14.7271 8.4742 15.531 8.21992 16.2025 7.80546C16.5553 7.58741 16.6007 7.60203 16.6928 7.194L16.7325 7.06948Z" fill="#F3A815"/>
<path d="M18.8818 10.7647C21.5983 10.9973 24.2251 11.9905 26.0342 14.1493C27.6039 16.0205 28.4141 18.4243 28.1994 20.8812C27.9739 23.4667 26.7776 25.4338 25.0767 27.3132C23.9293 28.2742 22.8355 28.8588 21.4159 29.3089L21.2652 29.3393C18.746 29.8245 16.4415 29.3779 14.3242 27.8884C12.2849 26.4539 10.8279 24.2547 10.3977 21.7616C9.96897 19.2754 10.5659 16.6998 12.0202 14.6585C13.7429 12.2407 16.0543 11.2253 18.8818 10.7647Z" fill="white"/>
<path d="M23.1108 24.712C22.3172 25.3264 21.4932 25.7982 20.5074 26.0156C18.9175 26.3664 17.1543 26.0268 15.7957 25.1195C14.5208 24.2678 13.6901 22.9642 13.3896 21.4496C13.0161 19.5661 13.485 17.9328 14.482 16.3527C15.3704 17.2354 14.9895 17.7954 15.2559 18.8903C15.1069 19.607 14.8531 20.5505 15.2116 21.2374C15.3457 21.4934 15.5868 21.6805 15.8665 21.7407C16.2514 21.8231 16.706 21.6963 17.0835 21.6203C17.3379 21.8132 17.4829 21.9283 17.6394 22.2177C18.4203 22.1972 19.1753 22.4042 19.9418 22.2832L20.4516 22.1779C21.0956 22.2545 21.2682 22.2896 21.686 22.8245C22.1734 23.4488 22.5727 24.1298 23.1108 24.712Z" fill="#2D7C74"/>
<path d="M14.4844 16.3521C15.6398 15.0333 16.8983 14.1559 18.6994 14.0682C20.3849 13.9863 22.0082 14.5826 23.2201 15.781C24.3843 16.9314 25.0708 18.5051 25.0547 20.1611C25.0391 21.788 24.3906 23.4517 23.238 24.5928C23.1971 24.6337 23.1545 24.6723 23.1131 24.7114C22.5751 24.1292 22.1757 23.4482 21.6883 22.8239C21.2705 22.289 21.0979 22.2539 20.454 22.1773L19.9441 22.2825C19.1776 22.4035 18.4226 22.1966 17.6417 22.2171C17.4852 21.9277 17.3402 21.8126 17.0859 21.6196C16.7084 21.6956 16.2538 21.8225 15.8688 21.7401C15.5891 21.6799 15.348 21.4928 15.2139 21.2368C14.8554 20.5499 15.1092 19.6064 15.2582 18.8897C14.9918 17.7948 15.3728 17.2348 14.4844 16.3521Z" fill="#4BC196"/>
<path d="M15.2564 18.8919C15.6069 18.6189 15.8687 18.5546 16.2991 18.4756C16.5575 18.5505 16.6755 18.5914 16.7975 18.8702C17.0553 19.4641 16.7958 20.2831 17.0374 20.9764C17.1169 21.2032 17.0996 21.385 17.0841 21.6218C16.7066 21.6978 16.252 21.8246 15.867 21.7422C15.5873 21.682 15.3462 21.4949 15.2121 21.2389C14.8536 20.552 15.1074 19.6085 15.2564 18.8919Z" fill="white"/>
<path d="M17.6368 22.2181C17.6235 21.91 17.505 21.6066 17.5142 21.3021C17.5286 20.7935 17.7099 20.486 17.5654 19.9628C17.5085 19.7588 17.3974 19.4309 17.4187 19.2198C17.4371 19.041 17.4826 18.8831 17.6305 18.7779C17.9734 18.5324 18.6018 18.4973 19 18.592C19.3718 18.6803 19.5035 18.8738 19.7199 19.1637L20.0796 18.9258C20.3673 18.8054 20.5906 18.7528 20.9007 18.7259C21.1487 18.9036 21.1977 19.0579 21.2483 19.3631C21.2989 19.6705 21.2638 19.9698 21.2046 20.2721C21.1275 20.6626 21.1741 21.025 21.3409 21.3845L21.4779 21.2962C21.4767 21.125 21.4629 20.9513 21.4624 20.7812C21.4618 20.2955 21.6592 19.7343 22.0033 19.397C21.8565 19.0714 21.5303 19.1556 21.536 18.8118C21.776 18.5809 21.948 18.5628 22.2801 18.5868C22.4245 18.5973 22.5736 18.6487 22.7117 18.6891C22.9119 19.4268 23.4672 20.8309 23.1283 21.5757C23 21.8574 22.7957 21.948 22.508 21.9925C21.8997 22.086 21.4457 21.8247 20.9865 21.4739C20.8271 21.3518 20.8846 21.3962 20.6533 21.2933C20.5439 21.6049 20.4703 21.844 20.449 22.1783L19.9392 22.2836C19.1727 22.4046 18.4177 22.1976 17.6368 22.2181Z" fill="white"/>
<path d="M19.7281 19.1646L20.0877 18.9266C20.1574 19.2967 20.2051 19.6351 20.2074 20.0128L20.0791 20.1724C19.712 20.1186 19.4058 19.9116 19.0853 19.7328L18.9863 19.5317C19.182 19.3774 19.3368 19.3809 19.5468 19.2809C19.6113 19.2505 19.6677 19.2031 19.7281 19.1646Z" fill="#3BB594"/>
<path d="M19.9463 22.2842L19.7559 21.5845C19.9544 21.2682 20.0419 20.9525 20.1443 20.5971L20.2623 20.5615C20.3215 20.7894 20.3825 20.942 20.5258 21.1256C20.5701 21.1823 20.6156 21.2378 20.6605 21.2939C20.5511 21.6055 20.4775 21.8446 20.4562 22.179L19.9463 22.2842Z" fill="#3BB594"/>
<path d="M16.7219 0.085041C17.8077 0.0827026 22.446 -0.20549 22.9938 0.292561C23.754 0.983521 23.3483 4.51722 23.3725 5.62556C25.7276 6.16161 27.4009 7.39329 29.2048 8.98097C30.5789 8.05327 32.1348 7.02268 33.6752 6.41414C35.1666 8.16609 36.9717 10.9983 37.9999 13.0689C36.5453 14.4601 34.7915 15.6351 33.2022 16.8691C34.1855 18.8502 33.5555 20.4356 33.6314 22.4722C34.4128 23.1415 37.7088 25.4921 37.9108 26.2023C37.8302 26.4946 37.7353 26.7226 37.5879 26.9874C36.5378 28.6902 35.5493 30.4434 34.414 32.0895C34.2207 32.387 34.1896 32.4741 33.876 32.6209C32.4438 32.4876 30.9989 31.2086 29.6692 30.6363C29.6249 30.617 29.5805 30.5994 29.5362 30.5807C28.7347 31.0706 28.0701 31.9328 27.3416 32.5437C26.1649 33.5305 24.5601 34.1197 23.1711 34.7306C23.197 36.3019 23.3984 38.1912 23.0899 39.731C22.8511 39.9911 22.6238 39.9432 22.2786 39.9554C21.156 39.9952 20.0213 39.9595 18.8975 39.9572C18.97 39.503 18.9504 39.0353 18.9516 38.5764L19.0005 32.4683C19.7819 32.1257 20.2808 31.8545 20.8096 31.1635L20.9373 31.1326C21.2285 30.5246 21.4212 29.9932 21.4149 29.3081C22.8344 28.858 23.9283 28.2734 25.0757 27.3124C26.7766 25.433 27.9729 23.466 28.1984 20.8804C28.413 18.4235 27.6029 16.0197 26.0332 14.1485C24.2241 11.9897 21.5973 10.9966 18.8808 10.7639L18.8169 10.1653C18.7617 9.39427 18.8371 8.61621 18.7893 7.85336C18.7686 7.52015 18.6282 7.33952 18.3871 7.12381C17.8681 6.89758 17.2858 7.01976 16.7363 7.06828C16.6937 4.74053 16.7109 2.41279 16.7219 0.085041Z" fill="#F2BE2A"/>
<path d="M18.9506 38.5764C20.2494 38.6542 21.7179 38.4654 22.9793 38.7179C23.0852 39.0686 23.0898 39.3691 23.0892 39.731C22.8504 39.9911 22.6231 39.9432 22.2778 39.9554C21.1551 39.9952 20.0203 39.9595 18.8965 39.9572C18.969 39.503 18.9494 39.0353 18.9506 38.5764Z" fill="#F37316"/>
<path d="M25.0703 27.3131C25.1813 27.7451 25.1341 27.9942 24.9143 28.3847C24.2336 29.5936 22.4054 30.7627 21.0813 31.0982C21.0318 31.1111 20.9817 31.1216 20.9316 31.1333C21.2228 30.5253 21.4156 29.994 21.4093 29.3089C22.8289 28.8587 23.9228 28.2742 25.0703 27.3131Z" fill="#F37316"/>
<path d="M30.3555 29.4563C31.6382 30.2332 33.3415 31.0358 34.4113 32.0892C34.2179 32.3868 34.1869 32.4739 33.8732 32.6206C32.4409 32.4873 30.996 31.2083 29.6661 30.636C29.6218 30.6167 29.5775 30.5992 29.5332 30.5805C29.7427 30.1619 30.0609 29.8153 30.3555 29.4563Z" fill="#F37316"/>
<path d="M33.6329 22.4721C34.4144 23.1414 37.7105 25.492 37.9125 26.2022C37.832 26.4945 37.737 26.7225 37.5897 26.9873C36.0578 26.0432 34.5191 25.1874 33.0488 24.1346C33.2036 23.5594 33.4108 23.0228 33.6329 22.4721Z" fill="#F3A815"/>
</svg>
