<svg width="40" height="40" viewBox="0 0 40 40" fill="none" xmlns="http://www.w3.org/2000/svg">
<path d="M36.667 26.6665C36.667 21.1437 32.1898 16.6665 26.667 16.6665C21.1442 16.6665 16.667 21.1437 16.667 26.6665C16.667 32.1893 21.1442 36.6665 26.667 36.6665C32.1898 36.6665 36.667 32.1893 36.667 26.6665Z" stroke="white" stroke-width="2"/>
<path d="M23.333 27.778C23.333 27.778 24.3747 27.778 25.4163 30.0002C25.4163 30.0002 28.7252 24.4447 31.6663 23.3335" stroke="white" stroke-width="2" stroke-linecap="round" stroke-linejoin="round"/>
<path d="M35.3303 15.2825C35.2628 15.9695 35.7652 16.5812 36.4522 16.6486C37.1392 16.716 37.7508 16.2138 37.8183 15.5267L35.3303 15.2825ZM13.2255 21.2502C13.9159 21.2502 14.4755 20.6905 14.4755 20.0002C14.4755 19.3098 13.9159 18.7502 13.2255 18.7502V21.2502ZM11.6663 4.5835H28.333V2.0835H11.6663V4.5835ZM11.6663 18.7502C10.0856 18.7502 8.98369 18.749 8.12932 18.6715C7.29216 18.5957 6.81617 18.4545 6.45801 18.2478L5.20801 20.4128C6.01009 20.8758 6.89309 21.0697 7.90368 21.1613C8.89706 21.2513 10.1317 21.2502 11.6663 21.2502V18.7502ZM2.08301 11.6668C2.08301 13.2015 2.08181 14.4361 2.17184 15.4295C2.26344 16.4401 2.45726 17.323 2.92034 18.1252L5.08541 16.8752C4.87863 16.517 4.73751 16.041 4.66164 15.2038C4.58421 14.3495 4.58301 13.2475 4.58301 11.6668H2.08301ZM6.45801 18.2478C5.88794 17.9187 5.41454 17.4452 5.08541 16.8752L2.92034 18.1252C3.46891 19.0753 4.25789 19.8643 5.20801 20.4128L6.45801 18.2478ZM28.333 4.5835C29.9137 4.5835 31.0157 4.5847 31.87 4.66213C32.7072 4.738 33.1832 4.87911 33.5413 5.0859L34.7913 2.92083C33.9892 2.45775 33.1062 2.26393 32.0957 2.17233C31.1023 2.0823 29.8677 2.0835 28.333 2.0835V4.5835ZM37.9163 11.6668C37.9163 10.1321 37.9175 8.89755 37.8275 7.90416C37.7358 6.89358 37.542 6.01058 37.079 5.2085L34.914 6.4585C35.1207 6.81666 35.2618 7.29263 35.3377 8.12981C35.4152 8.98418 35.4163 10.0861 35.4163 11.6668H37.9163ZM33.5413 5.0859C34.1113 5.41503 34.5848 5.88843 34.914 6.4585L37.079 5.2085C36.5305 4.25838 35.7415 3.4694 34.7913 2.92083L33.5413 5.0859ZM11.6663 2.0835C10.1317 2.0835 8.89706 2.0823 7.90368 2.17233C6.89309 2.26393 6.01009 2.45775 5.20801 2.92083L6.45801 5.0859C6.81617 4.87911 7.29214 4.738 8.12932 4.66213C8.98369 4.5847 10.0856 4.5835 11.6663 4.5835V2.0835ZM4.58301 11.6668C4.58301 10.0861 4.58421 8.98418 4.66164 8.12981C4.73751 7.29263 4.87863 6.81666 5.08541 6.4585L2.92034 5.2085C2.45726 6.01058 2.26344 6.89358 2.17184 7.90416C2.08181 8.89755 2.08301 10.1321 2.08301 11.6668H4.58301ZM5.20801 2.92083C4.25789 3.4694 3.46891 4.25838 2.92034 5.2085L5.08541 6.4585C5.41454 5.88843 5.88794 5.41503 6.45801 5.0859L5.20801 2.92083ZM35.4163 11.6668C35.4163 13.2997 35.415 14.4203 35.3303 15.2825L37.8183 15.5267C37.9177 14.514 37.9163 13.249 37.9163 11.6668H35.4163ZM13.2255 18.7502H11.6663V21.2502H13.2255V18.7502Z" fill="white"/>
<path d="M28.333 11.6665H28.348" stroke="white" stroke-width="2" stroke-linecap="round" stroke-linejoin="round"/>
<path d="M20 11.6667H20.015" stroke="white" stroke-width="2" stroke-linecap="round" stroke-linejoin="round"/>
<path d="M11.667 11.6665H11.682" stroke="white" stroke-width="2" stroke-linecap="round" stroke-linejoin="round"/>
</svg>
