<svg width="38" height="40" viewBox="0 0 38 40" fill="none" xmlns="http://www.w3.org/2000/svg">
<path d="M0 12.1354C0.601228 10.8318 2.58583 6.41419 3.73408 5.85827C3.87812 6.94615 3.00217 7.778 2.61075 8.74429C3.58809 10.1812 5.66971 11.6496 7.18378 12.437C6.91533 12.9543 4.78634 15.9175 4.35401 16.4086C2.96459 14.9366 1.46452 13.5302 0 12.1354Z" fill="#F14C27"/>
<path d="M4.01251 22.6035L4.11131 22.8256C4.78436 24.3735 5.11357 25.735 6.13764 27.1397C5.49878 27.691 4.93725 28.2609 4.3934 28.9092C4.97719 30.0713 5.70024 31.3428 5.9699 32.6183C5.21025 32.962 4.4506 33.2508 3.66172 33.5179C2.34101 31.3211 1.17653 28.9601 0.0195312 26.6703C1.20967 25.2393 2.69824 23.9281 4.01251 22.6035Z" fill="#F14C27"/>
<path d="M14.6434 5.59611C14.6503 4.46438 14.3502 1.12941 14.8097 0.260157C14.9144 0.0625725 15.148 0.0801115 15.3466 0.0315924C15.8069 0.0666666 16.2592 0.104083 16.7213 0.0859613C16.7104 2.41372 16.6931 4.74147 16.7357 7.06922L16.696 7.19374C16.6039 7.60177 16.5585 7.58715 16.2057 7.80519C15.5342 8.21965 14.7303 8.47394 14.0215 8.82585C11.8435 9.90672 10.2471 11.5634 9.14219 13.7339L9.17258 13.1476C8.67994 12.66 7.99636 12.8085 7.39295 12.5355C7.32211 12.5034 7.25225 12.4689 7.18216 12.4361C5.6681 11.6487 3.58647 10.1803 2.60913 8.74343C3.00055 7.77713 3.8765 6.94529 3.73246 5.8574C5.31926 6.8272 7.01418 7.64093 8.66342 8.49615C10.5883 7.08091 12.3543 6.22861 14.6434 5.59611Z" fill="#F37316"/>
<path d="M15.3467 0.0321903C15.807 0.0672641 16.2593 0.104681 16.7214 0.0865598C16.7105 2.41431 16.6932 4.74206 16.7358 7.06982L16.6961 7.19434C16.5148 7.16043 16.3629 7.10606 16.1903 7.04293C15.0808 5.90419 15.7207 1.73679 15.3467 0.0321903Z" fill="#F28E15"/>
<path d="M6.13841 27.1395C7.26455 26.5497 8.24809 25.733 9.41491 25.2122C11.1097 28.1496 13.0962 30.2634 16.4276 31.1607C17.9254 31.5641 19.3035 31.5173 20.807 31.1637C20.2782 31.8546 19.7794 32.1259 18.9979 32.4684L18.949 38.5766C18.9479 39.0354 18.9674 39.5031 18.8949 39.9573C17.6388 39.952 16.3257 40.0573 15.0771 39.955C14.7842 39.9316 14.7537 39.9655 14.5537 39.7293C14.2656 38.1323 14.4333 36.2395 14.4261 34.6079C12.1447 33.7206 10.8054 32.8957 8.90958 31.3396C7.91384 31.688 6.93702 32.1884 5.97068 32.6181C5.70104 31.3425 4.97804 30.0711 4.39429 28.909C4.93811 28.2607 5.49959 27.6908 6.13841 27.1395Z" fill="#F37316"/>
<path d="M14.5498 39.7293C14.5589 39.3342 14.5879 38.9635 14.6492 38.573C15.9969 38.3965 17.5897 38.4456 18.9455 38.5766C18.9443 39.0354 18.9639 39.5031 18.8914 39.9573C17.6352 39.952 16.322 40.0573 15.0733 39.955C14.7804 39.9316 14.7499 39.9655 14.5498 39.7293Z" fill="#F14C27"/>
<path d="M16.7363 7.06824C17.2858 7.01972 17.8681 6.89755 18.3872 7.12378C18.6283 7.33948 18.7687 7.52012 18.7894 7.85332C18.8371 8.61618 18.7618 9.39424 18.817 10.1653L18.8809 10.7639C16.0533 11.2245 13.7419 12.2399 12.0193 14.6577C10.5649 16.699 9.968 19.2746 10.3967 21.7608C10.8269 24.2539 12.2839 26.4531 14.3233 27.8876C16.4406 29.3771 18.7451 29.8237 21.2642 29.3385L21.415 29.3081C21.4213 29.9932 21.2285 30.5246 20.9374 31.1325L20.8096 31.1635C19.3061 31.5172 17.928 31.5639 16.4302 31.1606C13.0988 30.2633 11.1123 28.1495 9.41751 25.212C8.2507 25.7329 7.26715 26.5495 6.14102 27.1393C5.11702 25.7346 4.78782 24.3732 4.11482 22.8252L4.01603 22.6031C4.08398 22.4096 4.08444 22.4763 4.07081 22.295C3.91815 20.2678 3.84185 18.3878 4.35385 16.4067C4.78615 15.9157 6.91499 12.9525 7.18342 12.4352C7.25351 12.4679 7.32337 12.5024 7.3942 12.5345C7.99757 12.8075 8.6811 12.659 9.17371 13.1466L9.14333 13.7329C10.2482 11.5624 11.8444 9.90573 14.0223 8.82487C14.731 8.47296 15.5349 8.21867 16.2064 7.80421C16.5591 7.58617 16.6045 7.60079 16.6966 7.19276L16.7363 7.06824Z" fill="#F06019"/>
<path d="M16.732 7.06948C17.2816 7.02096 17.8639 6.89879 18.383 7.12502C18.6241 7.34072 18.7645 7.52136 18.7852 7.85456C18.833 8.61743 18.7576 9.39549 18.8128 10.1665C16.1738 10.3758 13.807 11.1591 12.0286 13.2455C10.9543 14.5058 10.2805 15.9871 9.52349 17.4485C9.00283 17.4643 8.47721 17.4959 7.95654 17.4801C8.22499 16.1683 8.62671 14.9676 9.13852 13.7342C10.2434 11.5636 11.8398 9.90698 14.0178 8.82611C14.7266 8.4742 15.5305 8.21992 16.202 7.80546C16.5548 7.58741 16.6002 7.60203 16.6923 7.194L16.732 7.06948Z" fill="#F3A815"/>
<path d="M18.8811 10.7646C21.5976 10.9972 24.2244 11.9904 26.0334 14.1492C27.6032 16.0204 28.4133 18.4241 28.1987 20.8811C27.9731 23.4666 26.7769 25.4337 25.076 27.3131C23.9286 28.2741 22.8347 28.8587 21.4152 29.3088L21.2644 29.3392C18.7453 29.8244 16.4408 29.3778 14.3235 27.8883C12.2841 26.4538 10.8272 24.2546 10.397 21.7614C9.96824 19.2753 10.5652 16.6997 12.0195 14.6584C13.7421 12.2406 16.0535 11.2252 18.8811 10.7646Z" fill="white"/>
<path d="M23.1098 24.7119C22.3163 25.3263 21.4922 25.7981 20.5065 26.0155C18.9165 26.3663 17.1533 26.0266 15.7947 25.1194C14.5198 24.2677 13.6891 22.9641 13.3886 21.4495C13.0151 19.566 13.484 17.9327 14.4811 16.3526C15.3694 17.2353 14.9885 17.7953 15.2549 18.8902C15.1059 19.6069 14.8521 20.5504 15.2106 21.2373C15.3447 21.4933 15.5858 21.6804 15.8655 21.7406C16.2505 21.823 16.7051 21.6961 17.0826 21.6202C17.3369 21.8131 17.4819 21.9282 17.6384 22.2176C18.4193 22.1971 19.1743 22.404 19.9408 22.283L20.4507 22.1778C21.0946 22.2544 21.2672 22.2895 21.685 22.8244C22.1724 23.4487 22.5717 24.1297 23.1098 24.7119Z" fill="#2D7C74"/>
<path d="M14.4834 16.352C15.6388 15.0332 16.8973 14.1557 18.6984 14.0681C20.3839 13.9862 22.0073 14.5825 23.2192 15.7808C24.3833 16.9313 25.0698 18.5049 25.0537 20.161C25.0382 21.7879 24.3896 23.4516 23.237 24.5926C23.1961 24.6336 23.1536 24.6721 23.1121 24.7113C22.5741 24.1291 22.1747 23.4481 21.6873 22.8237C21.2695 22.2889 21.0969 22.2538 20.453 22.1772L19.9431 22.2824C19.1766 22.4034 18.4216 22.1965 17.6408 22.217C17.4842 21.9276 17.3392 21.8124 17.0849 21.6195C16.7074 21.6955 16.2528 21.8224 15.8678 21.7399C15.5881 21.6797 15.347 21.4927 15.213 21.2366C14.8544 20.5498 15.1082 19.6063 15.2573 18.8896C14.9908 17.7947 15.3718 17.2347 14.4834 16.352Z" fill="#4BC196"/>
<path d="M15.2574 18.8917C15.6079 18.6187 15.8697 18.5544 16.3001 18.4755C16.5585 18.5503 16.6765 18.5913 16.7985 18.8701C17.0563 19.464 16.7967 20.283 17.0384 20.9763C17.1178 21.2031 17.1006 21.3849 17.085 21.6217C16.7075 21.6977 16.2529 21.8245 15.868 21.7421C15.5883 21.6819 15.3472 21.4948 15.2131 21.2388C14.8546 20.5519 15.1084 19.6084 15.2574 18.8917Z" fill="white"/>
<path d="M17.6375 22.218C17.6243 21.9099 17.5057 21.6065 17.5149 21.302C17.5293 20.7934 17.7106 20.4859 17.5662 19.9627C17.5092 19.7587 17.3981 19.4308 17.4194 19.2197C17.4378 19.0408 17.4833 18.883 17.6312 18.7778C17.9742 18.5323 18.6025 18.4972 19.0008 18.5919C19.3725 18.6802 19.5043 18.8737 19.7206 19.1636L20.0803 18.9257C20.368 18.8053 20.5913 18.7527 20.9015 18.7258C21.1495 18.9035 21.1984 19.0578 21.249 19.3629C21.2997 19.6704 21.2646 19.9697 21.2053 20.2719C21.1282 20.6624 21.1748 21.0249 21.3417 21.3844L21.4786 21.2961C21.4775 21.1248 21.4637 20.9512 21.4631 20.7811C21.4625 20.2953 21.6599 19.7341 22.004 19.3969C21.8573 19.0712 21.531 19.1554 21.5368 18.8117C21.7767 18.5808 21.9488 18.5627 22.2808 18.5866C22.4252 18.5972 22.5743 18.6486 22.7124 18.6889C22.9127 19.4267 23.468 20.8308 23.129 21.5755C23.0007 21.8573 22.7964 21.9479 22.5087 21.9923C21.9004 22.0859 21.4464 21.8246 20.9872 21.4738C20.8278 21.3516 20.8853 21.3961 20.654 21.2932C20.5447 21.6048 20.471 21.8439 20.4497 22.1782L19.9399 22.2834C19.1734 22.4045 18.4184 22.1975 17.6375 22.218Z" fill="white"/>
<path d="M19.7288 19.1644L20.0885 18.9265C20.1581 19.2966 20.2059 19.635 20.2082 20.0126L20.0798 20.1722C19.7127 20.1185 19.4066 19.9115 19.086 19.7326L18.9871 19.5316C19.1827 19.3772 19.3375 19.3807 19.5475 19.2808C19.612 19.2504 19.6684 19.203 19.7288 19.1644Z" fill="#3BB594"/>
<path d="M19.9471 22.2841L19.7566 21.5843C19.9551 21.2681 20.0426 20.9524 20.145 20.597L20.263 20.5613C20.3223 20.7893 20.3833 20.9419 20.5265 21.1254C20.5708 21.1821 20.6163 21.2377 20.6612 21.2938C20.5519 21.6054 20.4782 21.8445 20.4569 22.1788L19.9471 22.2841Z" fill="#3BB594"/>
<path d="M16.7226 0.084919C17.8084 0.0825806 22.4468 -0.205612 22.9946 0.292439C23.7547 0.983398 23.349 4.5171 23.3732 5.62544C25.7283 6.16149 27.4016 7.39317 29.2055 8.98085C30.5796 8.05314 32.1355 7.02256 33.6759 6.41402C35.1674 8.16597 36.9724 10.9982 38.0007 13.0687C36.546 14.46 34.7922 15.635 33.2029 16.869C34.1863 18.8501 33.5562 20.4354 33.6322 22.4721C34.4136 23.1414 37.7095 25.4919 37.9115 26.2022C37.8309 26.4945 37.736 26.7225 37.5887 26.9873C36.5386 28.6901 35.55 30.4432 34.4147 32.0894C34.2214 32.3869 34.1903 32.474 33.8767 32.6207C32.4445 32.4875 30.9997 31.2084 29.6699 30.6361C29.6256 30.6168 29.5813 30.5993 29.537 30.5806C28.7354 31.0705 28.0708 31.9327 27.3424 32.5436C26.1656 33.5303 24.5608 34.1196 23.1718 34.7304C23.1977 36.3018 23.3991 38.1911 23.0907 39.7308C22.8519 39.991 22.6246 39.943 22.2793 39.9553C21.1567 39.9951 20.022 39.9594 18.8982 39.9571C18.9707 39.5029 18.9512 39.0352 18.9523 38.5763L19.0012 32.4682C19.7826 32.1256 20.2815 31.8544 20.8103 31.1634L20.9381 31.1324C21.2292 30.5245 21.422 29.9931 21.4156 29.308C22.8352 28.8579 23.929 28.2733 25.0764 27.3123C26.7773 25.4329 27.9736 23.4658 28.1991 20.8803C28.4138 18.4234 27.6036 16.0196 26.0339 14.1484C24.2248 11.9896 21.5981 10.9964 18.8815 10.7638L18.8177 10.1652C18.7624 9.39415 18.8378 8.61609 18.7901 7.85323C18.7693 7.52003 18.6289 7.33939 18.3878 7.12369C17.8688 6.89746 17.2865 7.01963 16.737 7.06815C16.6944 4.74041 16.7117 2.41267 16.7226 0.084919Z" fill="#F2BE2A"/>
<path d="M18.9513 38.5763C20.2501 38.6541 21.7186 38.4652 22.98 38.7178C23.0859 39.0685 23.0905 39.369 23.0899 39.7308C22.8511 39.991 22.6238 39.943 22.2786 39.9553C21.1559 39.9951 20.0211 39.9594 18.8972 39.9571C18.9697 39.5028 18.9502 39.0352 18.9513 38.5763Z" fill="#F37316"/>
<path d="M25.0708 27.313C25.1818 27.745 25.1346 27.994 24.9148 28.3845C24.2341 29.5934 22.4059 30.7626 21.0817 31.0981C21.0323 31.111 20.9822 31.1215 20.9321 31.1332C21.2233 30.5252 21.4161 29.9939 21.4098 29.3087C22.8294 28.8586 23.9233 28.2741 25.0708 27.313Z" fill="#F37316"/>
<path d="M30.3555 29.4562C31.6382 30.2331 33.3415 31.0357 34.4113 32.0891C34.2179 32.3867 34.1869 32.4738 33.8732 32.6205C32.4409 32.4872 30.996 31.2082 29.6661 30.6359C29.6218 30.6166 29.5775 30.599 29.5332 30.5803C29.7427 30.1618 30.0609 29.8151 30.3555 29.4562Z" fill="#F37316"/>
<path d="M33.6327 22.472C34.4141 23.1413 37.7103 25.4919 37.9123 26.2021C37.8317 26.4944 37.7368 26.7224 37.5894 26.9872C36.0576 26.0431 34.5189 25.1873 33.0486 24.1345C33.2034 23.5593 33.4105 23.0226 33.6327 22.472Z" fill="#F3A815"/>
</svg>
