<svg width="39" height="40" viewBox="0 0 39 40" fill="none" xmlns="http://www.w3.org/2000/svg">
<path d="M19.2263 0.0679283C19.3316 0.0540009 19.4368 0.0400734 19.5426 0.0284691C20.4551 -0.0719109 21.3814 0.0806999 22.1043 0.686459C22.9295 1.37751 23.1196 2.23391 23.2063 3.24582C25.4667 3.79472 27.4904 4.6082 29.3425 6.02743C29.8868 5.52089 30.3305 5.16348 31.0702 4.9987C31.8111 4.83333 32.5706 4.96793 33.198 5.39846C34.2872 6.14637 34.5309 7.1931 34.7385 8.40694C34.5291 9.05273 34.2785 9.58306 33.8784 10.1343C34.9298 12.06 35.7556 13.9005 36.2824 16.0421C36.7663 16.1582 37.3129 16.2905 37.7072 16.6084C38.3928 17.1608 38.904 17.9644 38.9871 18.8493C39.0662 19.6947 38.7772 20.4983 38.2207 21.1325C37.67 21.762 37.082 22.026 36.2609 22.1026C35.6753 24.5018 34.8246 26.5355 33.6295 28.6876C34.0471 29.1251 34.4047 29.6049 34.5751 30.1921C34.8071 30.994 34.7368 31.8342 34.3274 32.567C33.929 33.2812 33.2475 33.804 32.4578 34.0152C31.4122 34.2943 30.5038 34.0396 29.5844 33.5313C27.545 34.9146 25.6126 35.7281 23.2435 36.3895C23.2505 36.7284 23.251 37.0626 23.1731 37.395C22.9632 38.2869 22.3799 39.1694 21.5728 39.6249C20.6929 40.1215 19.8782 40.0629 18.9384 39.8065C18.6122 39.6475 18.2906 39.4467 18.0121 39.2135C17.1706 38.5079 16.9851 37.637 16.9275 36.5914C14.5694 35.7727 12.4283 34.8629 10.2888 33.5708C9.66544 33.9926 8.99843 34.3587 8.23954 34.4446C7.36318 34.5438 6.51124 34.3152 5.82794 33.7518C5.18943 33.2244 4.78121 32.4422 4.72364 31.6166C4.64978 30.5548 5.08825 29.8144 5.75933 29.0404C4.80796 26.9446 3.82633 24.9092 3.24597 22.6712C2.53651 22.5291 1.86252 22.3666 1.2746 21.921C0.575604 21.3907 0.115036 20.6474 0.0185029 19.7713C-0.0739597 18.9259 0.182502 18.07 0.73437 17.4202C1.41301 16.6212 2.35275 16.2568 3.37623 16.1756C3.99033 13.969 4.78819 11.9956 5.82563 9.95904C5.25108 9.30455 4.84401 8.78699 4.75911 7.87952C4.68235 7.06662 4.95857 6.25546 5.49008 5.63752C6.04544 4.99231 6.86772 4.57918 7.72198 4.54263C8.94667 4.48983 9.69975 5.0834 10.5488 5.85801C12.6655 4.72076 14.6619 3.93978 17.0072 3.39553C17.0857 2.92728 17.152 2.43004 17.3079 1.98036C17.6585 0.966125 18.2836 0.50948 19.2263 0.0679283Z" fill="#452B90"/>
<path d="M31.316 6.06696C31.6625 6.06986 31.9801 6.089 32.3133 6.19576C32.7802 6.34488 33.1937 6.67735 33.4182 7.11426C33.6578 7.58135 33.6746 8.10413 33.4821 8.5921C33.2175 9.26284 32.7605 9.57326 32.1266 9.86279C31.8428 9.85873 31.5509 9.85526 31.2741 9.78563C30.7373 9.65102 30.232 9.23092 29.9825 8.74063C29.7604 8.30488 29.7354 7.81808 29.8976 7.35738C30.1413 6.66691 30.6873 6.36287 31.316 6.06696Z" fill="#EE8ACB"/>
<path d="M31.0805 29.2341C31.4439 29.2075 31.8335 29.1634 32.1923 29.2481C32.718 29.3722 33.2048 29.7511 33.4548 30.2281C33.6683 30.6371 33.702 31.1141 33.5549 31.5504C33.3246 32.2333 32.8658 32.5687 32.2505 32.8913C31.8673 32.9337 31.4922 32.9604 31.1136 32.8641C30.6356 32.7428 30.182 32.4329 29.9325 32.0036C29.6906 31.5864 29.6615 31.0984 29.7901 30.6395C29.9884 29.9322 30.4797 29.5968 31.0805 29.2341Z" fill="#EE8ACB"/>
<path d="M19.8339 1.00385C20.0985 1.02822 20.3748 1.04794 20.63 1.12627C21.2011 1.30149 21.6739 1.74829 21.9199 2.2879C22.1362 2.76078 22.156 3.32824 21.9524 3.80925C21.6768 4.45736 21.2261 4.75153 20.5905 4.99929C20.2718 5.00161 19.9526 5.00393 19.6455 4.90761C19.1093 4.73934 18.6313 4.34363 18.3947 3.83246C18.1859 3.3822 18.1737 2.85999 18.3464 2.39581C18.6197 1.66124 19.1471 1.31079 19.8339 1.00385Z" fill="#EE8ACB"/>
<path d="M19.7157 34.8904C19.9082 34.8893 20.1065 34.8881 20.2961 34.92C20.8724 35.0169 21.4963 35.3935 21.8046 35.8942C22.0814 36.3445 22.1482 36.8963 21.9872 37.4005C21.7557 38.1275 21.2184 38.5464 20.57 38.8905C20.3298 38.8911 20.0844 38.8911 19.8495 38.8348C19.2487 38.6915 18.6678 38.2749 18.3776 37.7266C18.1212 37.2427 18.0845 36.7025 18.2834 36.1896C18.5422 35.5217 19.097 35.1817 19.7157 34.8904Z" fill="#7F53AF"/>
<path d="M35.5443 17.0406C35.806 17.0377 36.0822 17.0284 36.3392 17.0853C36.8981 17.2083 37.4261 17.6058 37.7041 18.103C37.9681 18.5759 38.0053 19.1173 37.8425 19.6308C37.6197 20.334 37.1249 20.6839 36.5009 21.0169C36.1874 21.0326 35.7525 21.0947 35.4559 20.9775C34.9511 20.7779 34.5121 20.4054 34.2707 19.9168C34.0242 19.4172 34.0032 18.8364 34.1945 18.3148C34.4405 17.6458 34.929 17.3371 35.5443 17.0406Z" fill="#EE8ACB"/>
<path d="M7.8082 29.3617C8.10245 29.3605 8.41182 29.3878 8.68921 29.4946C9.23585 29.7064 9.76793 30.188 9.97089 30.7421C10.15 31.2289 10.1174 31.7586 9.86854 32.2153C9.51323 32.8669 8.83401 33.1326 8.15479 33.3096C7.69887 33.316 7.31506 33.2614 6.91206 33.0398C6.42707 32.7729 6.04384 32.3563 5.90253 31.8143C5.77751 31.3333 5.85485 30.8366 6.10665 30.4084C6.48173 29.7714 7.1284 29.5404 7.8082 29.3617Z" fill="#7F53AF"/>
<path d="M7.25953 5.58742C7.53576 5.57291 7.82071 5.55203 8.09635 5.57524C8.67904 5.62397 9.32569 6.03014 9.656 6.50534C9.95374 6.93355 10.066 7.45575 9.94909 7.96577C9.77579 8.72528 9.24137 9.14885 8.60925 9.53818C8.28941 9.56951 7.94689 9.61651 7.62589 9.58112C7.08914 9.52136 6.5396 9.17148 6.2279 8.73689C5.90574 8.28838 5.81212 7.72729 5.92435 7.19174C6.09067 6.39799 6.60357 5.99938 7.25953 5.58742Z" fill="#CB7CC5"/>
<path d="M2.79381 17.1511C3.03747 17.1622 3.29218 17.1732 3.53119 17.2231C4.05514 17.3322 4.5442 17.7145 4.82915 18.1584C5.16992 18.6916 5.2432 19.3357 5.07747 19.9409C4.85532 20.7514 4.34939 21.1164 3.63993 21.4947C3.3608 21.4947 3.06422 21.5028 2.78974 21.4465C2.26579 21.3398 1.73312 20.9185 1.46271 20.4671C1.14636 19.9397 1.09809 19.2893 1.28592 18.709C1.5447 17.9124 2.07911 17.5236 2.79381 17.1511Z" fill="#7F53AF"/>
<path d="M17.2559 4.44205C17.2786 4.47107 17.3012 4.49949 17.3245 4.52792L17.4408 4.66834C17.7426 5.03853 18.0247 5.36345 18.4259 5.63152C19.1121 6.0899 19.9402 6.33939 20.7607 6.1514C21.7848 5.91641 22.3547 5.20041 22.8775 4.35792C25.0321 4.97702 26.9057 5.64254 28.7858 6.88886C28.7515 7.31823 28.7073 7.76211 28.7428 8.19264C28.8102 9.00728 29.1795 9.8428 29.8389 10.3482C30.7886 11.0758 31.8708 10.9969 32.9809 10.8507C33.9032 12.5008 34.6115 14.1701 35.1076 15.9944C33.9009 16.7092 33.3089 17.2355 32.9373 18.6239L31.9098 18.6344C31.3788 18.6419 31.0287 18.7081 30.6537 19.1003L30.7008 19.3144C31.412 19.843 32.0953 19.731 32.9379 19.7142C33.4444 20.8845 33.8375 21.416 35.0355 21.9591C34.6982 24.1024 33.7416 26.1669 32.6384 28.0167C32.0551 28.0782 31.4463 28.0979 30.8822 28.2673C30.0169 28.5272 29.183 29.0373 28.7811 29.8728C28.3485 30.7733 28.4991 31.6912 28.798 32.5999C26.9139 33.9036 24.921 34.6985 22.7891 35.4929C22.1768 34.8332 21.333 34.5059 20.7695 33.8677C20.5014 33.5636 20.5921 33.0617 20.6066 32.6817C20.6235 32.2906 20.7125 31.7748 20.5043 31.4359C20.1606 31.2468 19.6884 31.3518 19.3069 31.3866L19.3488 33.7998C19.2168 33.928 19.2749 33.8897 19.1307 33.9686C18.3492 34.3968 17.7653 34.8494 17.1972 35.5317C15.0048 34.7908 12.9683 33.7325 10.9603 32.5993C11.0882 32.1275 11.1917 31.6535 11.1307 31.1621C11.0184 30.2528 10.5183 29.4446 9.76642 28.9253C8.81562 28.2685 7.84157 28.2557 6.75295 28.4344C5.81146 26.5028 4.71355 24.5504 4.41406 22.3972C4.70366 22.1807 5.00954 21.9614 5.25959 21.6997C5.90334 21.0261 6.28075 20.0902 6.2069 19.1572C6.11734 18.0281 5.43347 17.2534 4.62224 16.5444C4.8723 14.3999 5.82426 12.4805 6.8553 10.6139C7.16293 10.6545 7.47172 10.6922 7.78225 10.7044C8.58883 10.7352 9.43553 10.4892 10.0217 9.91707C10.8521 9.10707 11.0196 8.06499 11.0179 6.96836C12.9538 5.77077 15.0752 5.05245 17.2559 4.44205Z" fill="white"/>
<path d="M8.56641 19.5576C8.59257 19.2611 8.62223 18.9652 8.66178 18.6698C9.06071 15.6701 10.7768 12.9476 13.1913 11.1344C15.5988 9.32586 18.7105 8.68065 21.667 9.10073C20.9785 9.81383 19.4706 9.504 18.5314 9.67052C17.1148 9.92234 16.1565 10.8153 14.8824 11.3131C12.6807 12.4359 11.0862 14.6726 10.3203 16.9779C10.1348 17.5355 9.98591 18.1314 9.88414 18.7104C9.73062 18.8155 9.6748 18.8044 9.63002 19C9.5707 19.2611 9.59804 19.4827 9.61781 19.7473L9.88531 19.7792C9.8952 20.5776 10.2714 21.9145 9.81145 22.5399C9.57361 22.573 9.34333 22.591 9.10316 22.5991C8.86183 21.582 8.69027 20.5962 8.56641 19.5576Z" fill="#F14C27"/>
<path d="M9.88645 18.7106C9.98822 18.1315 10.1371 17.5356 10.3226 16.978C11.0885 14.6728 12.683 12.436 14.8847 11.3133C14.8864 12.172 15.0771 12.714 15.4895 13.4578C15.8186 13.7822 16.1187 14.0467 16.5124 14.291C16.9526 14.2835 17.3509 14.3003 17.7859 14.3705C17.3224 16.9896 16.5589 19.8519 18.1877 22.2488C18.8181 23.176 19.8492 23.8972 20.9715 24.0632C21.3332 24.1166 21.6903 24.0922 22.052 24.0614C22.3817 24.1328 22.6684 24.1537 22.9382 24.3666C22.6742 24.5709 22.3957 24.7392 22.1107 24.9109C22.1782 25.1238 22.1252 25.0356 22.2549 25.1836C23.7047 26.1514 24.8206 27.6206 26.2866 28.5425C24.5025 29.9896 21.4937 31.2168 19.1734 30.976C19.06 30.9644 18.9472 30.9464 18.8344 30.9273C17.0631 30.8257 15.3371 30.296 13.8629 29.2991C13.425 29.0032 13.0156 28.618 12.5551 28.3644C12.294 28.2205 12.1213 28.1172 11.8974 27.9217C10.8902 26.1329 9.82831 24.5407 9.10547 22.5993C9.34564 22.5912 9.57592 22.5732 9.81376 22.5401C10.2737 21.9146 9.89751 20.5778 9.88762 19.7794L9.62012 19.7475C9.60035 19.4829 9.57301 19.2612 9.63233 19.0001C9.67711 18.8046 9.73293 18.8156 9.88645 18.7106Z" fill="#F37316"/>
<path d="M19.3703 25.5061C19.8158 25.4597 20.3647 25.3558 20.7776 25.5688C20.9672 25.6668 20.9381 25.7283 20.9986 25.9146C20.8811 26.3515 20.6136 26.5917 20.3072 26.9126C19.9548 27.0106 19.8355 27.0768 19.4901 26.9027C19.2377 26.7762 19.0487 26.4756 19.0115 26.2024C18.9633 25.8507 19.1517 25.7359 19.3703 25.5061Z" fill="#E53022"/>
<path d="M15.4901 13.4564C15.8192 13.7807 16.1193 14.0453 16.513 14.2896C16.4816 14.6424 16.581 15.023 16.3385 15.3259C16.1582 15.5504 15.8146 15.7524 15.5232 15.7703C15.1976 15.7907 15.09 15.663 14.8731 15.4628C14.5777 14.6522 15.1766 14.3755 15.4197 13.6722C15.4441 13.6003 15.4668 13.5278 15.4901 13.4564Z" fill="#E53022"/>
<path d="M16.2324 23.5368C16.6226 23.6331 16.8698 23.7091 17.1815 23.9662C17.2443 24.1507 17.3117 24.2006 17.2205 24.3909C16.9681 24.9172 16.3644 25.0848 15.8591 25.2833C15.7131 25.3285 15.5637 25.3343 15.4125 25.3506C15.3253 25.2763 15.2078 25.1841 15.1409 25.093C14.9449 24.8266 14.9298 24.7059 14.963 24.4007C15.2601 23.9656 15.7754 23.7735 16.2324 23.5368Z" fill="#E53022"/>
<path d="M11.8984 27.9207C12.0514 27.4722 12.4672 26.7417 12.9103 26.5136C12.9429 26.4968 12.9795 26.4887 13.0138 26.4765L13.1947 26.5978C13.2005 26.6407 13.2057 26.6842 13.2121 26.7272C13.34 27.5795 13.7023 28.0994 14.399 28.6065C15.7877 29.6179 17.5648 29.7989 18.5453 30.4696C18.75 30.6095 18.7721 30.6977 18.8355 30.9263C17.0641 30.8247 15.3382 30.295 13.864 29.2981C13.4261 29.0022 13.0167 28.617 12.5561 28.3634C12.295 28.2195 12.1223 28.1162 11.8984 27.9207Z" fill="#F14C27"/>
<path d="M9.8878 18.7096C11.0724 18.7421 14.3911 18.3406 15.1948 19.1883C15.3669 19.3699 15.4443 19.5684 15.4245 19.8237C15.4036 20.0923 15.3187 20.3998 15.1262 20.5965C14.9 20.828 14.7319 20.817 14.433 20.8379C14.0591 20.6731 13.9027 20.4874 13.759 20.1173C13.7137 20.0024 13.6776 19.8834 13.6386 19.7656C13.5881 19.7709 13.5375 19.7767 13.4863 19.7813C12.3093 19.8881 11.0695 19.8422 9.88897 19.7784L9.62147 19.7465C9.6017 19.4819 9.57436 19.2603 9.63368 18.9992C9.67846 18.8036 9.73428 18.8146 9.8878 18.7096Z" fill="#E53022"/>
<path d="M21.6753 9.09936C23.503 9.20438 25.5285 10.2674 26.8264 11.523L27.5371 12.239C29.1589 13.8514 30.354 16.2953 30.3668 18.6058C30.3674 18.6418 30.3668 18.6777 30.3662 18.7137L30.3749 19.4756C30.7558 21.764 29.8481 24.1928 28.5338 26.0379C27.9773 26.8195 27.3388 27.5494 26.6973 28.2625L26.2926 28.541C24.8266 27.619 23.7106 26.1499 22.2609 25.1821C22.1312 25.0341 22.1841 25.1223 22.1167 24.9094C22.4016 24.7376 22.6802 24.5694 22.9442 24.3651C22.6743 24.1522 22.3877 24.1313 22.0579 24.0599C21.6962 24.0907 21.3392 24.115 20.9775 24.0617C19.8551 23.8957 18.8241 23.1745 18.1937 22.2473C16.5648 19.8504 17.3284 16.9881 17.7919 14.369C17.3569 14.2988 16.9585 14.2819 16.5183 14.2895C16.1246 14.0452 15.8246 13.7806 15.4954 13.4563C15.0831 12.7124 14.8924 12.1705 14.8906 11.3118C16.1647 10.8139 17.1231 9.92097 18.5397 9.66915C19.4789 9.50263 20.9868 9.81246 21.6753 9.09936Z" fill="#F3A815"/>
<path d="M22.4326 18.7522C23.3776 18.7011 24.3249 18.5891 25.2704 18.5839L25.264 19.1212C24.3068 19.1171 23.3182 19.1885 22.375 19.0086L22.4326 18.7522Z" fill="#F14C27"/>
<path d="M19.4002 12.254C19.6154 12.3056 19.9242 12.3973 20.0934 12.5505C20.326 12.7622 20.4266 12.9787 20.4132 13.2966C20.3987 13.6494 20.1306 13.9012 19.9003 14.1362C19.7212 14.12 19.4432 14.0974 19.2816 14.0063C19.1211 13.9152 18.9681 13.8049 18.9181 13.6216C18.778 13.1075 19.1373 12.6613 19.4002 12.254Z" fill="#E53022"/>
<path d="M23.4095 15.0417C23.1298 15.058 23.231 15.0406 22.9745 15.0963C22.9169 15.109 22.8605 15.123 22.8035 15.1357L22.5046 14.9274C22.4302 14.7412 22.3523 14.6391 22.3877 14.4325C22.4535 14.0426 22.7593 13.5918 23.1245 13.4159C23.4322 13.268 23.5636 13.3278 23.852 13.4397C24.0689 13.8355 24.0079 14.0403 23.9864 14.4841C23.8113 14.7046 23.6694 14.9152 23.4095 15.0417Z" fill="#F14C27"/>
<path d="M22.0508 24.06C23.1929 23.8737 22.962 24.4644 23.6046 24.3965C23.7198 24.165 23.7064 24.2578 23.7087 24.0165C23.7122 23.6637 23.657 23.4037 23.8529 23.0892C24.3734 22.9349 24.9113 23.1624 25.3922 23.384C24.8567 23.9433 24.3309 24.5915 23.6052 24.9065C23.3598 24.7713 23.3022 24.7162 23.0126 24.7847C22.7422 24.8491 22.4869 25.0359 22.2537 25.1821C22.1241 25.0342 22.177 25.1224 22.1095 24.9094C22.3945 24.7377 22.673 24.5694 22.937 24.3652C22.6672 24.1522 22.3805 24.1313 22.0508 24.06Z" fill="#E53022"/>
<path d="M21.3029 17.511L22.17 17.9967L22.4299 18.7504L22.3724 19.0069C22.3479 19.0382 22.3247 19.0713 22.2985 19.1014C22.0671 19.3631 21.7565 19.5784 21.3908 19.5418C21.118 19.5146 20.8616 19.2877 20.7261 19.0631C20.5632 18.7933 20.5388 18.4429 20.6173 18.1417C20.7051 17.8035 21.0215 17.6631 21.3029 17.511Z" fill="#842394"/>
<path d="M25.3886 23.3853C25.841 24.4877 25.7334 26.0097 25.9922 27.2212C25.1345 26.5162 24.3314 25.7434 23.6016 24.9078C24.3273 24.5928 24.853 23.9447 25.3886 23.3853Z" fill="#F37316"/>
<path d="M22.2539 25.1821C22.4871 25.0359 22.7424 24.849 23.0128 24.7846C23.3024 24.7162 23.36 24.7713 23.6054 24.9065C24.3352 25.742 25.1383 26.5149 25.996 27.2198C26.2275 27.5662 26.4706 27.9091 26.6904 28.2625L26.2856 28.541C24.8196 27.619 23.7036 26.1499 22.2539 25.1821Z" fill="#E53022"/>
<path d="M26.8244 11.524L27.535 12.24C26.2731 13.6691 23.0131 16.5998 22.1757 17.9976L21.3086 17.5119C22.1012 16.7907 22.6955 15.8449 23.4114 15.0419C23.6713 14.9154 23.8132 14.7048 23.9883 14.4843C24.9263 13.4805 25.9771 12.616 26.8244 11.524Z" fill="#F14C27"/>
<path d="M27.5312 12.2386C29.1531 13.851 30.3481 16.2949 30.3609 18.6054C30.3615 18.6414 30.3609 18.6773 30.3603 18.7133L30.3691 19.4752C29.4171 19.6237 26.2594 20.0653 25.5081 19.6405C25.3325 19.5413 25.3203 19.2994 25.2633 19.1189L25.2697 18.5816C24.3241 18.5868 23.3768 18.6988 22.4318 18.7499L22.1719 17.9962C23.0093 16.5984 26.2693 13.6677 27.5312 12.2386Z" fill="#F3A815"/>
<path d="M25.2681 18.5816C25.3687 18.2045 25.4391 17.9329 25.7938 17.7078C26.041 17.5511 26.2329 17.5517 26.5073 17.5993C26.7574 17.9149 26.7243 18.2358 26.708 18.628C27.6832 19.029 29.2772 18.6431 30.3588 18.7133L30.3675 19.4752C29.4156 19.6237 26.2579 20.0653 25.5065 19.6405C25.3309 19.5413 25.3187 19.2994 25.2617 19.1189L25.2681 18.5816Z" fill="#F14C27"/>
</svg>
