<svg width="33" height="32" viewBox="0 0 33 32" fill="none" xmlns="http://www.w3.org/2000/svg">
<path d="M16.1663 29.3327C23.5301 29.3327 29.4997 23.3631 29.4997 15.9993C29.4997 8.63555 23.5301 2.66602 16.1663 2.66602C8.80254 2.66602 2.83301 8.63555 2.83301 15.9993C2.83301 23.3631 8.80254 29.3327 16.1663 29.3327Z" stroke="white" stroke-width="2.5"/>
<path d="M16.7974 9.15785C16.7974 8.51839 16.279 8 15.6396 8C15.0001 8 14.4817 8.51839 14.4817 9.15785H16.7974ZM18.7739 18.3738C18.3217 17.9217 17.5887 17.9217 17.1366 18.3738C16.6844 18.826 16.6844 19.559 17.1366 20.0112L18.7739 18.3738ZM19.4523 22.3269C19.9044 22.7791 20.6374 22.7791 21.0896 22.3269C21.5418 21.8747 21.5418 21.1417 21.0896 20.6895L19.4523 22.3269ZM14.4817 9.15785V14.5611H16.7974V9.15785H14.4817ZM17.1366 20.0112L19.4523 22.3269L21.0896 20.6895L18.7739 18.3738L17.1366 20.0112ZM16.7974 16.8768C16.7974 17.5163 16.279 18.0347 15.6396 18.0347V20.3504C17.5579 20.3504 19.1131 18.7951 19.1131 16.8768H16.7974ZM15.6396 18.0347C15.0001 18.0347 14.4817 17.5163 14.4817 16.8768H12.166C12.166 18.7951 13.7212 20.3504 15.6396 20.3504V18.0347ZM14.4817 16.8768C14.4817 16.2374 15.0001 15.719 15.6396 15.719V13.4033C13.7212 13.4033 12.166 14.9585 12.166 16.8768H14.4817ZM15.6396 15.719C16.279 15.719 16.7974 16.2374 16.7974 16.8768H19.1131C19.1131 14.9585 17.5579 13.4033 15.6396 13.4033V15.719Z" fill="white"/>
</svg>
