<svg width="33" height="32" viewBox="0 0 33 32" fill="none" xmlns="http://www.w3.org/2000/svg">
<path d="M5.99935 24.0013L12.666 16.0013M27.3327 24.0013L20.666 16.0013M4.66602 10.668L14.2993 17.0901C15.1547 17.6604 15.5823 17.9456 16.0445 18.0562C16.4531 18.1542 16.8789 18.1542 17.2875 18.0562C17.7497 17.9456 18.1773 17.6604 19.0327 17.0901L28.666 10.668M8.93268 25.3346H24.3993C25.8928 25.3346 26.6396 25.3346 27.21 25.044C27.7118 24.7884 28.1197 24.3804 28.3753 23.8786C28.666 23.3082 28.666 22.5614 28.666 21.068V10.9346C28.666 9.44117 28.666 8.69442 28.3753 8.124C28.1197 7.62222 27.7118 7.21428 27.21 6.95862C26.6396 6.66797 25.8928 6.66797 24.3993 6.66797H8.93268C7.43922 6.66797 6.69247 6.66797 6.12204 6.95862C5.62027 7.21428 5.21232 7.62222 4.95667 8.124C4.66602 8.69442 4.66602 9.44116 4.66602 10.9346V21.068C4.66602 22.5614 4.66602 23.3082 4.95667 23.8786C5.21232 24.3804 5.62027 24.7884 6.12204 25.044C6.69247 25.3346 7.4392 25.3346 8.93268 25.3346Z" stroke="white" stroke-width="2" stroke-linecap="round" stroke-linejoin="round"/>
</svg>
