<svg width="33" height="32" viewBox="0 0 33 32" fill="none" xmlns="http://www.w3.org/2000/svg">
<path d="M18.8993 7.99935C20.2017 8.25344 21.3985 8.89036 22.3368 9.8286C23.2751 10.7668 23.912 11.9637 24.166 13.266M18.8993 2.66602C21.6051 2.9666 24.1281 4.17824 26.0544 6.10203C27.9805 8.0258 29.1955 10.5474 29.4993 13.2527M24.8327 27.9993C13.4188 27.9993 4.16602 18.7465 4.16602 7.33268C4.16602 6.81772 4.18486 6.30716 4.22187 5.80166C4.26435 5.22151 4.28559 4.93144 4.43762 4.66739C4.56354 4.4487 4.78668 4.2413 5.01399 4.13168C5.28843 3.99935 5.60852 3.99935 6.2487 3.99935H10.0051C10.5435 3.99935 10.8126 3.99935 11.0434 4.08795C11.2472 4.16622 11.4287 4.29334 11.5719 4.45815C11.734 4.64472 11.826 4.8977 12.01 5.40363L13.5648 9.67942C13.7788 10.2681 13.8859 10.5624 13.8677 10.8416C13.8517 11.0878 13.7676 11.3248 13.6249 11.5261C13.4632 11.7544 13.1946 11.9155 12.6575 12.2378L10.8327 13.3327C12.4352 16.8645 15.2995 19.7325 18.8327 21.3327L19.9276 19.5079C20.2499 18.9707 20.4109 18.7021 20.6392 18.5404C20.8405 18.3977 21.0775 18.3136 21.3238 18.2976C21.603 18.2795 21.8973 18.3865 22.486 18.6005L26.7617 20.1553C27.2676 20.3393 27.5207 20.4313 27.7072 20.5935C27.872 20.7367 27.9992 20.9181 28.0774 21.122C28.166 21.3527 28.166 21.6219 28.166 22.1603V25.9167C28.166 26.5568 28.166 26.877 28.0336 27.1514C27.924 27.3787 27.7167 27.6019 27.498 27.7278C27.2339 27.8798 26.9439 27.9009 26.3637 27.9435C25.8581 27.9805 25.3476 27.9993 24.8327 27.9993Z" stroke="white" stroke-width="2" stroke-linecap="round" stroke-linejoin="round"/>
</svg>
