<svg width="44" height="42" viewBox="0 0 44 42" fill="none" xmlns="http://www.w3.org/2000/svg">
<path d="M41.5777 9.84826C41.8831 9.1785 42.1317 8.53813 42.2508 7.80689C42.3902 6.95051 42.1918 5.53753 42.5634 4.82751C43.8114 7.2171 44.1632 9.83521 43.3245 12.4288C42.5568 14.8054 40.7291 16.8174 38.4949 17.9376C38.3048 18.0334 38.1102 18.1193 37.9146 18.202C36.9164 16.8337 36.2295 15.3587 35.5039 13.838C35.5088 13.758 35.5143 13.678 35.5225 13.598C35.5618 13.1949 35.6525 12.9283 35.9716 12.6693C36.3295 12.635 36.6929 12.9277 36.9923 13.1084C37.1442 13.1078 37.2644 13.1573 37.3704 13.03C37.672 12.6666 37.5316 12.018 37.4873 11.5795C37.5764 11.3744 37.7797 11.0567 37.9693 10.9299C38.2567 10.7367 38.3769 10.8227 38.6851 10.9076L38.8337 10.814C38.8774 10.4255 38.8845 10.0615 38.8708 9.67144C38.6763 9.56045 38.755 9.59255 38.5506 9.52345C38.5042 9.50768 38.4577 9.49352 38.4107 9.47883C38.2168 9.24216 38.1091 9.12137 38.0556 8.81016C38.2758 8.63605 38.3731 8.69699 38.6452 8.7008L38.7916 8.44672C38.9003 8.21984 38.8211 8.29057 38.9916 8.19753C39.8838 8.73236 40.6291 9.38308 41.5777 9.84826Z" fill="#ED2A31"/>
<path d="M1.43272 14.1961C0.56394 13.0992 0.0760029 11.2281 0.00988844 9.84834C-0.111412 7.33307 0.890686 4.90322 2.60802 3.0724C4.42863 1.13167 6.75958 0.14472 9.39814 0.0495071C9.51671 0.875417 9.54785 1.8923 9.82816 2.67088C9.45879 2.72909 9.08342 2.73725 8.7971 3.00004C8.68946 3.24923 8.64793 3.40102 8.65613 3.67306C7.95892 3.91572 6.64866 4.04195 6.31863 4.69538C5.92195 4.51638 5.71157 4.42063 5.27719 4.50986C4.96355 4.70572 4.8439 4.94566 4.76248 5.29713C4.73571 5.41248 4.71767 5.52945 4.698 5.64643C4.06691 6.06264 3.49756 6.77212 3.35659 7.52893C3.32381 7.70358 3.34566 7.85865 3.3779 8.03004L3.54729 8.18727C3.3096 8.45713 3.02165 8.7493 2.99323 9.12852C2.97302 9.40818 3.07629 9.64214 3.28556 9.82821C3.45767 9.98164 3.7205 10.0703 3.93906 10.1345C3.70356 10.128 3.62707 10.1302 3.40086 10.2205C3.28065 11.5312 3.98058 15.1607 4.62151 16.3778C4.17455 16.0824 3.67624 15.8016 3.29212 15.4273L2.82877 14.6199C2.3769 14.3832 1.94688 14.0938 1.43272 14.1961Z" fill="#54BF36"/>
<path d="M9.39902 0.0468254C12.019 0.103411 14.362 0.905924 16.2159 2.81618C17.9524 4.60619 18.7638 6.98707 18.7059 9.45664C18.6441 12.0633 17.4448 14.6558 15.5471 16.4442C13.8839 18.0112 11.6393 18.8637 9.34875 18.7827C7.01507 18.7 4.63059 17.8594 2.98374 16.1738C2.975 16.1646 2.96735 16.1542 2.95915 16.1439C2.34554 15.5742 1.84722 14.9192 1.43359 14.1934C1.94776 14.0911 2.37777 14.3805 2.82965 14.6172L3.293 15.4246C3.67712 15.799 4.17543 16.0797 4.62238 16.3751C3.98146 15.158 3.28153 11.5285 3.40173 10.2178C3.62794 10.1275 3.70444 10.1253 3.93994 10.1318C3.72138 10.0676 3.45855 9.97896 3.28643 9.82553C3.07716 9.63946 2.97389 9.40549 2.99411 9.12584C3.02252 8.74662 3.31048 8.45445 3.54816 8.18458L3.37878 8.02736C3.34654 7.85597 3.32468 7.7009 3.35747 7.52625C3.49844 6.76944 4.06779 6.05996 4.69888 5.64374C4.71855 5.52677 4.73659 5.40979 4.76336 5.29445C4.84477 4.94298 4.96443 4.70304 5.27806 4.50718C5.71245 4.41795 5.92282 4.5137 6.31951 4.6927C6.64954 4.03927 7.9598 3.91304 8.657 3.67038C8.64881 3.39834 8.69034 3.24655 8.79798 2.99736C9.08429 2.73457 9.45967 2.72641 9.82903 2.66819C9.54873 1.88962 9.51759 0.872736 9.39902 0.0468254Z" fill="#31B241"/>
<path d="M8.65367 3.67028C8.64547 3.39824 8.687 3.24644 8.79464 2.99726C9.08096 2.73447 9.45633 2.72631 9.8257 2.66809C10.1098 2.8645 10.2699 2.92108 10.3639 3.28398C10.4486 3.61261 10.2967 4.17953 10.2437 4.51088C11.0087 4.75462 11.6911 5.02013 12.3878 5.42438C12.62 5.04788 12.8364 4.60664 13.3024 4.48531C13.5642 4.4173 13.8494 4.47115 14.0669 4.63166C14.2887 4.79488 14.3843 5.00327 14.3859 5.2753C14.387 5.48858 14.3286 5.61916 14.2357 5.80306C13.9887 5.93527 13.7625 6.02994 13.4948 6.1121L13.3653 6.28185C13.6035 7.02941 14.0417 7.64585 14.263 8.41735C14.6045 8.27535 14.8602 8.10015 15.2433 8.22148C15.4973 8.30201 15.7115 8.53595 15.8071 8.77752C15.9121 9.04249 15.8978 9.33303 15.7492 9.57895C15.6055 9.8178 15.3558 9.95927 15.0815 9.98865C14.7193 10.0267 14.3614 9.81508 14.0466 9.66111C13.9062 10.5262 13.5625 11.1655 13.2811 11.9789C13.5073 12.073 13.3658 12.0311 13.6494 12.0638C13.9598 12.1002 14.2095 12.2346 14.387 12.5012C14.5362 12.7259 14.5941 13.0099 14.5264 13.2722C14.4482 13.5774 14.239 13.7732 13.9619 13.9022C13.7308 14.0099 13.6472 13.9767 13.4013 13.962C12.8899 13.6884 12.7489 13.2749 12.5402 12.7629C11.7097 12.9147 11.0376 13.4941 10.1661 13.6655C10.3923 14.233 10.5989 14.6236 10.3284 15.2281C10.2229 15.4637 10.1901 15.4583 9.99562 15.5992C9.64046 15.6378 9.24542 15.4555 8.96621 15.2417C8.76569 15.0883 8.67935 14.9261 8.67333 14.6759C8.66514 14.3326 8.79191 13.881 8.56023 13.6193C7.8745 13.4207 7.33138 13.2297 6.73635 12.8282C6.50085 13.2303 6.30633 13.7118 5.80911 13.8293C5.46488 13.9109 5.10316 13.8511 4.78898 13.7025C4.61578 13.4533 4.58462 13.412 4.66221 13.0942C4.78843 12.5741 5.41735 12.2618 5.54028 11.8679C5.5463 11.8478 5.31462 11.3434 5.29167 11.2928C5.08568 10.8412 4.94634 10.4419 4.83214 9.956L4.69664 9.82433C4.43054 9.91465 4.1874 10.0028 3.9366 10.1317C3.71804 10.0675 3.45521 9.97886 3.2831 9.82543C3.07383 9.63935 2.97056 9.40539 2.99077 9.12573C3.01919 8.74651 3.30714 8.45434 3.54483 8.18448L3.37544 8.02725C3.3432 7.85587 3.32135 7.7008 3.35413 7.52615C3.4951 6.76934 4.06445 6.05986 4.69554 5.64364C4.71521 5.52666 4.73325 5.40969 4.76002 5.29435C4.84143 4.94287 4.96109 4.70294 5.27473 4.50707C5.70911 4.41784 5.91949 4.5136 6.31617 4.6926C6.6462 4.03916 7.95646 3.91294 8.65367 3.67028Z" fill="white"/>
<path d="M6.32031 4.69445C6.65034 4.04101 7.9606 3.91479 8.65781 3.67213C8.67147 4.01326 8.74687 4.32339 8.58623 4.6297C7.86881 4.88814 7.32787 5.016 6.72136 5.5073L6.81097 5.53015C6.61919 5.374 6.61973 5.42188 6.56236 5.16942C6.51155 4.94526 6.46292 4.8642 6.32031 4.69445Z" fill="#3AB73E"/>
<path d="M8.69148 5.97507L8.93955 6.14047C8.81278 6.88368 7.35335 7.99687 6.79712 8.57468L6.39441 9.01592L6.3507 9.13562L6.25781 8.42452C6.33158 8.1367 6.40315 7.83691 6.53702 7.57031C6.98398 6.68564 7.80413 6.29281 8.69148 5.97507Z" fill="#3AB73E"/>
<path d="M10.4139 9.88584L10.5467 9.90053C11.1499 9.96146 12.1656 9.58551 12.6202 9.76451C12.706 10.1981 12.5077 10.6535 12.27 11.023C11.834 11.702 11.0991 12.0681 10.3789 12.3739L10.4139 9.88584Z" fill="#31B241"/>
<path d="M3.55069 8.18537L3.3813 8.02814C3.34906 7.85676 3.32721 7.70169 3.35999 7.52704C3.50096 6.77023 4.07031 6.06075 4.7014 5.64453C4.97351 5.90243 5.23688 6.11462 5.54997 6.32191C5.33578 6.99656 5.13142 7.65654 4.99865 8.35241C4.76697 8.49714 4.74895 8.47972 4.47028 8.41824C4.14244 8.34642 3.89765 8.21421 3.55069 8.18537Z" fill="#3AB73E"/>
<path d="M10.2872 5.92811C11.0866 6.0712 11.8696 6.50919 12.3242 7.19908C12.5805 7.58701 12.7958 8.08973 12.875 8.5473L12.8193 8.73718C12.0232 8.62238 11.3757 8.50595 10.5621 8.58484L10.414 8.54295C10.0676 8.06688 10.2643 6.52659 10.2872 5.92811Z" fill="#3AB73E"/>
<path d="M8.69124 5.97549C9.20595 5.88191 9.74579 6.03098 10.2878 5.92978C10.2649 6.52827 10.0682 8.06856 10.4146 8.54463L10.5627 8.58652C10.1851 8.81013 7.39682 8.60774 6.79688 8.57509C7.35311 7.99728 8.81254 6.8841 8.93931 6.14089L8.69124 5.97549Z" fill="#75CD7B"/>
<path d="M6.25806 8.42594L6.35095 9.13705L6.39466 9.01735L6.51268 9.74805C7.23338 10.1229 9.49985 9.85142 10.4134 9.88733L10.3785 12.3754C9.96647 12.4494 9.53647 12.488 9.11956 12.4358C8.21909 12.3232 7.34813 11.8574 6.80446 11.1273C6.22855 10.3525 6.09906 9.3574 6.25806 8.42594Z" fill="#75CD7B"/>
<mask id="mask0_8277_7175" style="mask-type:luminance" maskUnits="userSpaceOnUse" x="24" y="0" width="19" height="19">
<path d="M37.9101 18.2031C36.0512 18.9648 33.9514 19.0562 32.0144 18.5491C29.5502 17.9044 27.3017 16.2977 26.0166 14.091C24.7883 11.9816 24.4331 9.31776 25.091 6.96626C25.7718 4.53152 27.5771 2.35194 29.7917 1.1343C31.8713 -0.00881004 34.5306 -0.318926 36.8157 0.345938C39.2411 1.05106 41.3322 2.62235 42.5589 4.82858C42.1873 5.5386 42.3857 6.95158 42.2463 7.80796C42.1272 8.5392 41.8786 9.17957 41.5732 9.84933C40.6246 9.38414 39.8793 8.73343 38.987 8.1986C38.8166 8.29163 38.8958 8.22091 38.7871 8.44779L38.6406 8.70187C38.3685 8.69806 38.2713 8.63712 38.0511 8.81123C38.1046 9.12244 38.2122 9.24323 38.4062 9.4799C38.4532 9.49459 38.4997 9.50874 38.5461 9.52452C38.7505 9.59362 38.6718 9.56151 38.8663 9.6725C38.88 10.0626 38.8729 10.4266 38.8291 10.8151L38.6805 10.9086C38.3724 10.8238 38.2521 10.7378 37.9647 10.931C37.7751 11.0577 37.5719 11.3755 37.4828 11.5806C37.5271 12.0191 37.6675 12.6677 37.3659 13.0311C37.2599 13.1584 37.1397 13.1089 36.9878 13.1094C36.6883 12.9288 36.325 12.6361 35.9671 12.6704C35.648 12.9294 35.5573 13.1959 35.518 13.5991C35.5098 13.6791 35.5043 13.7591 35.4994 13.8391C36.225 15.3597 36.9118 16.8347 37.9101 18.2031Z" fill="white"/>
</mask>
<g mask="url(#mask0_8277_7175)">
<path d="M37.9101 18.2031C36.0512 18.9648 33.9514 19.0562 32.0144 18.5491C29.5502 17.9044 27.3017 16.2977 26.0166 14.091C24.7883 11.9816 24.4331 9.31776 25.091 6.96626C25.7718 4.53152 27.5771 2.35194 29.7917 1.1343C31.8713 -0.00881004 34.5306 -0.318926 36.8157 0.345938C39.2411 1.05106 41.3322 2.62235 42.5589 4.82858C42.1873 5.5386 42.3857 6.95158 42.2463 7.80796C42.1272 8.5392 41.8786 9.17957 41.5732 9.84933C40.6246 9.38414 39.8793 8.73343 38.987 8.1986C38.8166 8.29163 38.8958 8.22091 38.7871 8.44779L38.6406 8.70187C38.3685 8.69806 38.2713 8.63712 38.0511 8.81123C38.1046 9.12244 38.2122 9.24323 38.4062 9.4799C38.4532 9.49459 38.4997 9.50874 38.5461 9.52452C38.7505 9.59362 38.6718 9.56151 38.8663 9.6725C38.88 10.0626 38.8729 10.4266 38.8291 10.8151L38.6805 10.9086C38.3724 10.8238 38.2521 10.7378 37.9647 10.931C37.7751 11.0577 37.5719 11.3755 37.4828 11.5806C37.5271 12.0191 37.6675 12.6677 37.3659 13.0311C37.2599 13.1584 37.1397 13.1089 36.9878 13.1094C36.6883 12.9288 36.325 12.6361 35.9671 12.6704C35.648 12.9294 35.5573 13.1959 35.518 13.5991C35.5098 13.6791 35.5043 13.7591 35.4994 13.8391C36.225 15.3597 36.9118 16.8347 37.9101 18.2031Z" fill="url(#paint0_linear_8277_7175)"/>
</g>
<path d="M35.5028 13.8366C35.1974 13.86 34.8406 13.9264 34.5499 13.8159C34.357 13.7425 34.2139 13.2757 34.1221 13.0874C33.8587 12.9351 33.7964 12.879 33.497 12.8834L33.3877 13.2795C33.1397 13.4552 32.9238 13.4351 32.6228 13.3818C32.3365 13.3317 32.2463 13.2479 32.1048 13.008C32.1485 12.7702 32.2113 12.5308 32.1643 12.2898C32.1332 12.1309 32.0321 12.1179 31.9053 12.0368C31.701 12.0303 31.4283 12.045 31.2338 11.9884C30.895 11.8893 30.8289 11.7201 30.6459 11.4454C30.6279 10.9617 30.8819 10.6853 31.071 10.249C31.0273 9.9976 31.0715 10.0145 30.8623 9.83274C30.5918 9.86811 30.3514 9.89313 30.0776 9.87953C29.9323 9.67332 29.9061 9.62491 29.9159 9.36157C29.9296 8.98888 30.053 8.77178 30.3159 8.52042C30.5546 8.472 30.7721 8.43392 30.9978 8.33925C31.1874 8.25981 31.1153 8.30551 31.2103 8.07972C30.9612 7.80061 30.7535 7.58733 30.6464 7.21845C30.6732 6.97906 30.6918 6.8784 30.8421 6.67872C30.9852 6.4872 30.9863 6.53019 31.1972 6.49755C31.4262 6.67492 31.542 6.78101 31.8332 6.84956L32.0343 6.65968C32.0862 6.45401 32.1288 6.2168 32.213 6.02256C32.3479 5.70918 32.4135 5.68959 32.708 5.55792C32.9583 5.55193 33.0779 5.61233 33.2866 5.73474C33.5025 5.86097 33.6926 5.9551 33.9281 6.03998C34.1685 5.87295 34.0527 5.29133 34.1363 4.97359C34.4789 4.81962 34.904 4.83375 35.2602 4.97793C35.4121 5.03887 35.3963 5.12484 35.4477 5.26575C35.8695 5.3392 36.3033 5.3947 36.5962 5.74291C36.618 5.76848 36.6344 5.79895 36.6536 5.8267L36.8197 5.76576C37.1683 5.93007 37.5633 6.09874 37.7108 6.48449C37.7709 6.64281 37.7163 6.7587 37.6382 6.90451C37.5966 6.98068 37.5087 7.09059 37.4529 7.16241C37.483 7.41595 37.4852 7.5438 37.7338 7.69016C37.8103 7.73532 37.9442 7.75709 38.0316 7.77559C38.1824 7.62597 38.242 7.52259 38.3398 7.33869C38.555 7.45947 38.6873 7.69342 38.7468 7.9301C38.7873 8.09332 38.7845 8.27994 38.7905 8.44534L38.6441 8.69942C38.372 8.69562 38.2747 8.63468 38.0545 8.80878C38.1081 9.11999 38.2157 9.24078 38.4097 9.47745C38.4567 9.49214 38.5031 9.5063 38.5496 9.52208C38.7539 9.59117 38.6753 9.55907 38.8698 9.67006C38.8834 10.0602 38.8763 10.4242 38.8326 10.8126L38.684 10.9062C38.3758 10.8213 38.2556 10.7354 37.9682 10.9285C37.7786 11.0553 37.5753 11.373 37.4863 11.5781C37.5305 12.0167 37.671 12.6652 37.3693 13.0287C37.2633 13.156 37.1431 13.1064 36.9912 13.107C36.6918 12.9264 36.3285 12.6336 35.9706 12.6679C35.6515 12.9269 35.5608 13.1935 35.5214 13.5967C35.5132 13.6766 35.5078 13.7566 35.5028 13.8366Z" fill="white"/>
<path d="M35.4493 5.26642C35.8711 5.33987 36.305 5.39536 36.5978 5.74357C36.6197 5.76914 36.6361 5.79961 36.6552 5.82736C36.571 6.02595 36.5727 6.22182 36.3186 6.26045C36.0394 6.3018 35.7618 6.1783 35.5651 5.9895C35.316 5.74956 35.4089 5.5673 35.4493 5.26642Z" fill="#F25C32"/>
<path d="M34.1122 7.54276C34.3838 7.53515 34.6733 7.51828 34.9389 7.57921C35.4399 7.69401 35.9219 8.04876 36.1863 8.48565C36.4552 8.93017 36.512 9.47532 36.365 9.97043C36.1508 10.6908 35.6487 11.0232 35.0154 11.3627C34.6875 11.3921 34.3007 11.4237 33.9794 11.3372C33.5128 11.2109 33.0888 10.848 32.8713 10.4215C32.6314 9.95194 32.5965 9.40623 32.7637 8.90731C33.0025 8.19294 33.4538 7.85126 34.1122 7.54276Z" fill="#F27718"/>
<mask id="mask1_8277_7175" style="mask-type:luminance" maskUnits="userSpaceOnUse" x="1" y="23" width="18" height="19">
<path d="M8.84375 23.9682C10.972 23.7832 13.0062 24.0776 14.8033 25.3007C16.8206 26.6723 18.1708 28.8736 18.6063 31.2534C19.0095 33.4575 18.4904 35.7067 17.2097 37.5446C15.7699 39.6104 13.6865 40.7846 11.237 41.2394C8.90494 41.3607 6.9226 41.0718 4.95392 39.7269C3.06939 38.4396 1.68154 36.3726 1.2701 34.1283C0.855925 31.8715 1.36134 29.5842 2.67598 27.7022C4.16328 25.5732 6.31719 24.4078 8.84375 23.9682Z" fill="white"/>
</mask>
<g mask="url(#mask1_8277_7175)">
<path d="M8.84375 23.9682C10.972 23.7832 13.0062 24.0776 14.8033 25.3007C16.8206 26.6723 18.1708 28.8736 18.6063 31.2534C19.0095 33.4575 18.4904 35.7067 17.2097 37.5446C15.7699 39.6104 13.6865 40.7846 11.237 41.2394C8.90494 41.3607 6.9226 41.0718 4.95392 39.7269C3.06939 38.4396 1.68154 36.3726 1.2701 34.1283C0.855925 31.8715 1.36134 29.5842 2.67598 27.7022C4.16328 25.5732 6.31719 24.4078 8.84375 23.9682Z" fill="url(#paint1_linear_8277_7175)"/>
</g>
<path d="M14.4194 28.6491C15.0423 29.0354 15.534 29.4582 16.0329 29.9859C15.3204 31.2683 9.73563 36.5796 8.33848 37.8544C7.54511 37.1171 6.83259 36.2488 6.1026 35.4474C5.50266 34.863 4.92348 34.2597 4.34375 33.6563C4.80382 32.9773 5.34093 32.5507 6.02721 32.1236C6.94133 32.8059 7.66368 33.5763 8.36034 34.474C10.488 32.6666 12.2289 30.4038 14.4194 28.6491Z" fill="white"/>
<path d="M33.6633 41.9225C31.5186 41.5569 29.7122 40.8741 28.1337 39.3338C26.3196 37.5634 25.1951 35.2179 25.1837 32.6716C25.1738 30.3234 26.1295 27.9642 27.8113 26.3108C29.4942 24.6573 31.9612 23.7112 34.3157 23.7161C36.8755 23.684 39.354 24.5289 41.2107 26.3244C42.9253 27.9827 43.9962 30.3326 43.999 32.7233C44.0012 35.164 43.04 37.5231 41.2926 39.2381C39.5769 40.9225 37.1367 42.0254 34.7058 41.9944C34.3572 41.99 34.0086 41.9688 33.6633 41.9225Z" fill="#4C8FD3"/>
<path d="M39.8447 29.523C40.2889 29.8576 40.6998 30.2488 41.1178 30.616C40.2201 31.9055 38.8907 32.6884 37.8651 33.8467C37.87 34.5421 37.9531 35.3565 37.7782 36.0263L37.6438 36.1139C37.0171 35.7956 35.7342 34.3761 35.1162 34.5785C34.9752 34.6248 34.8364 34.6819 34.6987 34.7368C34.3113 34.6966 34.0895 34.4022 33.825 34.1444L33.6283 34.1269C33.3098 34.7994 34.0463 36.9327 34.1217 37.7255C32.2301 36.6645 30.5696 35.1639 28.9102 33.7809L28.9495 33.5676C29.7631 32.4468 32.5699 30.5959 33.8239 29.8271C33.6677 30.6639 33.6343 31.5268 33.5726 32.375C34.9473 31.344 36.2898 30.1987 37.8995 29.5529C37.8826 29.9354 37.7886 30.4212 38.0094 30.7357C38.4804 30.6737 39.3693 29.8102 39.8447 29.523Z" fill="white"/>
<path d="M33.6633 41.9247C31.5186 41.5591 29.7122 40.8763 28.1337 39.336C26.3196 37.5655 25.1951 35.22 25.1837 32.6737C25.1738 30.3255 26.1295 27.9664 27.8113 26.3129C29.4942 24.6595 31.9612 23.7133 34.3157 23.7182L34.5096 23.8145C35.3937 24.2433 36.3739 24.4609 37.2362 24.9468C38.7491 25.7999 40.4293 27.838 40.9905 29.4822C41.1216 29.8668 41.1533 30.2161 41.1156 30.6171C40.6976 30.2499 40.2867 29.8587 39.8425 29.5241C39.3671 29.8113 38.4781 30.6748 38.0071 30.7368C37.7864 30.4224 37.8804 29.9365 37.8973 29.554C36.2876 30.1998 34.9451 31.3451 33.5704 32.3761C33.6321 31.5279 33.6654 30.665 33.8217 29.8282C32.5677 30.597 29.7609 32.448 28.9473 33.5687L28.9079 33.782C29.81 36.7674 32.4481 39.0775 33.6633 41.9247Z" fill="#68CCCC"/>
<defs>
<linearGradient id="paint0_linear_8277_7175" x1="40.4224" y1="13.1911" x2="26.3961" y2="4.47582" gradientUnits="userSpaceOnUse">
<stop stop-color="#F0501F"/>
<stop offset="1" stop-color="#F68C2B"/>
</linearGradient>
<linearGradient id="paint1_linear_8277_7175" x1="18.2402" y1="34.6784" x2="1.54011" y2="30.3877" gradientUnits="userSpaceOnUse">
<stop stop-color="#AA118E"/>
<stop offset="1" stop-color="#E533A3"/>
</linearGradient>
</defs>
</svg>
