<svg width="35" height="36" viewBox="0 0 35 36" fill="none" xmlns="http://www.w3.org/2000/svg">
<path opacity="0.4" d="M17.3834 2.52002C20.4429 2.51999 22.8806 2.51996 24.7916 2.77418C26.7632 3.03643 28.3839 3.59198 29.6671 4.86147C30.9522 6.13291 31.5162 7.74221 31.7823 9.6996C32.0395 11.5932 32.0395 14.0074 32.0395 17.0322V17.2432C32.0395 20.2679 32.0395 22.6822 31.7823 24.5756C31.5162 26.533 30.9522 28.1424 29.6671 29.4137C29.2762 29.8007 28.853 30.1218 28.3969 30.3889C27.8245 30.724 27.114 30.4639 26.7805 29.8905C26.3416 29.1361 26.7621 28.1965 27.4376 27.6437C27.5254 27.5718 27.6091 27.4962 27.6891 27.417C28.3598 26.7535 28.7735 25.8382 28.9964 24.1976C29.2251 22.5151 29.2281 20.2921 29.2281 17.1376C29.2281 15.8871 29.2276 14.7829 29.2128 13.8009C29.2069 13.406 29.2039 13.2086 29.0777 13.0843C28.9516 12.9601 28.7526 12.9601 28.3544 12.9601H6.20464C5.80651 12.9601 5.60745 12.9601 5.48132 13.0843C5.35521 13.2086 5.35223 13.406 5.34627 13.8009C5.33143 14.7829 5.33096 15.8871 5.33096 17.1376C5.33096 20.2921 5.33401 22.5151 5.56264 24.1976C5.78558 25.8382 6.19928 26.7535 6.86992 27.417C6.95001 27.4962 7.03362 27.5718 7.12151 27.6437C7.79693 28.1965 8.21748 29.1361 7.77857 29.8905C7.44501 30.4639 6.73463 30.724 6.16219 30.3889C5.70609 30.1218 5.28294 29.8007 4.89196 29.4137C3.6069 28.1424 3.04277 26.533 2.77679 24.5756C2.51947 22.6822 2.5195 20.2679 2.51953 17.243V17.0322C2.5195 14.0074 2.51947 11.5932 2.77679 9.6996C3.04277 7.74221 3.6069 6.13291 4.89196 4.86147C6.17504 3.59198 7.79582 3.03643 9.76743 2.77418C11.6785 2.51996 14.1162 2.51999 17.1759 2.52002H17.3834Z" fill="white"/>
<path fill-rule="evenodd" clip-rule="evenodd" d="M8.79297 7.73999C8.79297 6.9447 9.43479 6.29999 10.2265 6.29999H10.2394C11.0311 6.29999 11.673 6.9447 11.673 7.73999C11.673 8.53527 11.0311 9.17999 10.2394 9.17999H10.2265C9.43479 9.17999 8.79297 8.53527 8.79297 7.73999Z" fill="white"/>
<path fill-rule="evenodd" clip-rule="evenodd" d="M14.5527 7.73999C14.5527 6.9447 15.1947 6.29999 15.9864 6.29999H15.9992C16.7909 6.29999 17.4327 6.9447 17.4327 7.73999C17.4327 8.53527 16.7909 9.17999 15.9992 9.17999H15.9864C15.1947 9.17999 14.5527 8.53527 14.5527 7.73999Z" fill="white"/>
<path fill-rule="evenodd" clip-rule="evenodd" d="M13.6802 23.3988V21.87C13.6802 19.8947 15.3292 18.36 17.2802 18.36C19.2311 18.36 20.8802 19.8947 20.8802 21.87V23.3988C20.9883 23.4317 21.0959 23.471 21.2026 23.5184C22.0957 23.9146 22.7825 24.6639 23.1356 25.5773C23.2881 25.9718 23.3467 26.3769 23.3739 26.804C23.4002 27.2151 23.4002 27.716 23.4002 28.316V28.384C23.4002 28.984 23.4002 29.4848 23.3739 29.896C23.3467 30.3231 23.2881 30.7283 23.1356 31.1227C22.7825 32.0362 22.0957 32.7853 21.2026 33.1816C20.8105 33.3557 20.409 33.4214 19.9977 33.4515C19.6066 33.48 19.1329 33.48 18.5777 33.48H15.9826C15.4276 33.48 14.9537 33.48 14.5626 33.4515C14.1514 33.4214 13.7499 33.3557 13.3577 33.1816C12.4647 32.7853 11.7778 32.0362 11.4246 31.1227C11.2721 30.7283 11.2135 30.3231 11.1863 29.896C11.1601 29.4848 11.1601 28.9842 11.1602 28.384V28.316C11.1601 27.716 11.1601 27.2151 11.1863 26.804C11.2135 26.3769 11.2721 25.9718 11.4246 25.5773C11.7778 24.6639 12.4647 23.9146 13.3577 23.5184C13.4645 23.471 13.572 23.4317 13.6802 23.3988ZM15.8402 21.87C15.8402 21.1611 16.4475 20.52 17.2802 20.52C18.1128 20.52 18.7202 21.1611 18.7202 21.87V23.22C18.6734 23.22 18.6258 23.22 18.5777 23.22H15.9826C15.9345 23.22 15.887 23.22 15.8402 23.22V21.87Z" fill="white"/>
</svg>
