<svg width="35" height="36" viewBox="0 0 35 36" fill="none" xmlns="http://www.w3.org/2000/svg">
<path opacity="0.4" d="M11.1714 4.22721C12.888 3.33785 14.8563 2.52002 17.2773 2.52002C19.6984 2.52002 21.6673 3.33787 23.385 4.2272C23.9038 4.49587 24.3859 4.76165 24.8466 5.01565C25.9741 5.6373 26.9737 6.18833 28.071 6.53825C28.715 6.74364 29.2855 6.92557 29.69 7.08404C30.0709 7.2332 30.5233 7.4376 30.8444 7.79442C31.133 8.11495 31.2812 8.47484 31.3794 8.81907C31.4687 9.13154 31.5449 9.55464 31.618 9.9605C33.4012 19.8467 29.507 29.2132 19.9883 32.8578C19.0526 33.2161 18.3635 33.48 17.2821 33.48C16.2005 33.48 15.5115 33.2161 14.5758 32.8578C5.0567 29.2133 1.15863 19.8471 2.94126 9.96057C3.0144 9.55475 3.09062 9.13175 3.1798 8.8193C3.27804 8.4751 3.42621 8.11525 3.71462 7.79473C4.03568 7.43791 4.4882 7.23344 4.86896 7.08424C5.27349 6.92571 5.84406 6.74368 6.48814 6.53818C7.5848 6.18828 8.5834 5.63742 9.71014 5.01586C10.1707 4.76183 10.6526 4.49596 11.1714 4.22721Z" fill="white"/>
<path fill-rule="evenodd" clip-rule="evenodd" d="M13.6802 14.7588V13.23C13.6802 11.2548 15.3292 9.71997 17.2802 9.71997C19.2311 9.71997 20.8802 11.2548 20.8802 13.23V14.7588C20.9883 14.7917 21.0959 14.831 21.2026 14.8783C22.0957 15.2746 22.7825 16.0239 23.1356 16.9373C23.2881 17.3318 23.3467 17.7369 23.3739 18.164C23.4002 18.5751 23.4002 19.0759 23.4002 19.676V19.744C23.4002 20.344 23.4002 20.8448 23.3739 21.256C23.3467 21.6831 23.2881 22.0883 23.1356 22.4827C22.7825 23.3962 22.0957 24.1453 21.2026 24.5416C20.8105 24.7157 20.409 24.7814 19.9977 24.8115C19.6066 24.84 19.1329 24.84 18.5777 24.84H15.9826C15.4276 24.84 14.9537 24.84 14.5626 24.8115C14.1514 24.7814 13.7499 24.7157 13.3577 24.5416C12.4647 24.1453 11.7778 23.3962 11.4246 22.4827C11.2721 22.0883 11.2135 21.6831 11.1863 21.256C11.1601 20.8448 11.1601 20.3441 11.1602 19.744V19.676C11.1601 19.0759 11.1601 18.5751 11.1863 18.164C11.2135 17.7369 11.2721 17.3318 11.4246 16.9373C11.7778 16.0239 12.4647 15.2746 13.3577 14.8783C13.4645 14.831 13.572 14.7917 13.6802 14.7588ZM15.8402 13.23C15.8402 12.5211 16.4475 11.88 17.2802 11.88C18.1128 11.88 18.7202 12.5211 18.7202 13.23V14.58C18.6734 14.58 18.6258 14.58 18.5777 14.58H15.9826C15.9345 14.58 15.887 14.58 15.8402 14.58V13.23Z" fill="white"/>
</svg>
