<svg width="35" height="36" viewBox="0 0 35 36" fill="none" xmlns="http://www.w3.org/2000/svg">
<path fill-rule="evenodd" clip-rule="evenodd" d="M28.3954 7.35933V6.51602C28.3954 4.33798 26.671 2.52002 24.4804 2.52002C22.2897 2.52002 20.5654 4.33798 20.5654 6.51602V7.35933C19.4772 7.81009 18.695 8.84302 18.5382 10.0404C18.4439 10.7613 18.3604 11.5401 18.3604 12.348C18.3604 13.1559 18.4439 13.9347 18.5382 14.6556C18.7425 16.2164 20.0097 17.4979 21.6319 17.5746C22.5418 17.6177 23.4654 17.64 24.4804 17.64C25.4953 17.64 26.4189 17.6177 27.3288 17.5746C28.951 17.4979 30.2182 16.2166 30.4225 14.6556C30.5168 13.9347 30.6004 13.1559 30.6004 12.348C30.6004 11.5401 30.5168 10.7613 30.4225 10.0404C30.2657 8.84302 29.4835 7.81009 28.3954 7.35933ZM22.7253 6.51602C22.7253 5.47314 23.5396 4.68002 24.4804 4.68002C25.4211 4.68002 26.2354 5.47314 26.2354 6.51602V7.08011C25.6722 7.06417 25.0929 7.05602 24.4804 7.05602C23.8678 7.05602 23.2885 7.06417 22.7253 7.08011V6.51602Z" fill="white"/>
<path opacity="0.4" d="M26.28 20.664C26.28 20.2474 26.28 20.0391 26.1514 19.9122C26.0228 19.7853 25.8124 19.7882 25.3916 19.794C25.0944 19.798 24.7911 19.8 24.48 19.8C23.4321 19.8 22.4745 19.7768 21.5295 19.7322C18.7786 19.6022 16.725 17.4482 16.3961 14.936C16.2979 14.1859 16.2 13.2974 16.2 12.348C16.2 11.3987 16.2979 10.5101 16.3961 9.7601C16.566 8.46201 17.1885 7.27177 18.1268 6.39993C18.2724 6.2647 18.3451 6.19707 18.3798 6.12886C18.4147 6.06063 18.4265 5.96341 18.45 5.76896C18.524 5.15677 18.688 4.56774 18.9292 4.01821C19.2414 3.30718 19.3975 2.95167 19.2735 2.7571C19.1495 2.56251 18.8115 2.55494 18.1356 2.53978C17.2542 2.52001 16.278 2.52001 15.2003 2.52002H15.0398C12.732 2.51999 10.8902 2.51998 9.4458 2.71418C7.95359 2.9148 6.72468 3.34033 5.75247 4.31253C4.78027 5.28473 4.35474 6.51364 4.15412 8.00586C3.95992 9.45031 3.95993 11.292 3.95996 13.5997V22.4002C3.95993 24.708 3.95992 26.5497 4.15412 27.9942C4.35474 29.4865 4.78027 30.7154 5.75247 31.6875C6.72468 32.6596 7.95359 33.0852 9.4458 33.2859C10.8902 33.48 12.732 33.48 15.0398 33.48H15.2002C17.5079 33.48 19.3497 33.48 20.7941 33.2859C22.2864 33.0852 23.5153 32.6596 24.4874 31.6875C25.4596 30.7154 25.8853 29.4865 26.0859 27.9942C26.28 26.5497 26.28 24.708 26.28 22.4002V20.664Z" fill="white"/>
<path fill-rule="evenodd" clip-rule="evenodd" d="M12.2402 28.08C12.2402 27.2847 12.885 26.64 13.6802 26.64H16.5602C17.3555 26.64 18.0002 27.2847 18.0002 28.08C18.0002 28.8753 17.3555 29.52 16.5602 29.52H13.6802C12.885 29.52 12.2402 28.8753 12.2402 28.08Z" fill="white"/>
</svg>
