<svg width="35" height="36" viewBox="0 0 35 36" fill="none" xmlns="http://www.w3.org/2000/svg">
<g opacity="0.4">
<path d="M11.1712 4.22721C12.8879 3.33785 14.8561 2.52002 17.2772 2.52002C19.6981 2.52002 21.6672 3.33787 23.3848 4.2272C23.9036 4.49587 24.3858 4.76165 24.8464 5.01565C25.9741 5.6373 26.9736 6.18833 28.0709 6.53825C28.7148 6.74364 29.2854 6.92557 29.6899 7.08404C30.0707 7.2332 30.5232 7.4376 30.8443 7.79442C31.1329 8.11495 31.2811 8.47484 31.3793 8.81907C31.4685 9.13154 31.5447 9.55464 31.6179 9.9605C31.8804 11.4157 32.0198 12.8597 32.0365 14.2758C32.0411 14.6676 32.0434 14.8634 31.9165 14.9917C31.7897 15.12 31.5889 15.12 31.1875 15.12H3.37199C2.97055 15.12 2.76982 15.12 2.64299 14.9917C2.51616 14.8634 2.51843 14.6676 2.52299 14.2759C2.5394 12.8598 2.67872 11.4158 2.94112 9.96057C3.01424 9.55475 3.09047 9.13175 3.17965 8.8193C3.27789 8.4751 3.42605 8.11525 3.71446 7.79473C4.03553 7.43791 4.48804 7.23344 4.8688 7.08424C5.27334 6.92571 5.8439 6.74368 6.488 6.53818C7.58466 6.18828 8.58325 5.63742 9.70998 5.01586C10.1705 4.76183 10.6524 4.49596 11.1712 4.22721Z" fill="white"/>
<path d="M19.988 32.8578C19.0523 33.2161 18.3633 33.48 17.2818 33.48C16.2003 33.48 15.5112 33.2161 14.5755 32.8578C10.3084 31.2241 7.17077 28.4406 5.16808 24.9759C4.86607 24.4534 4.71507 24.1922 4.83976 23.9762C4.96445 23.76 5.27654 23.76 5.90074 23.76H28.6607C29.2847 23.76 29.5967 23.76 29.7214 23.976C29.8461 24.1922 29.6952 24.4534 29.3934 24.9758C27.3916 28.4404 24.2549 31.224 19.988 32.8578Z" fill="white"/>
</g>
<path fill-rule="evenodd" clip-rule="evenodd" d="M11.4765 17.2364C11.8982 16.8146 12.5821 16.8146 13.0038 17.2364L13.6802 17.9126L14.3565 17.2364C14.7783 16.8146 15.462 16.8146 15.8838 17.2364C16.3056 17.6582 16.3056 18.3419 15.8838 18.7636L15.2076 19.44L15.8838 20.1164C16.3056 20.5382 16.3056 21.2219 15.8838 21.6436C15.462 22.0654 14.7783 22.0654 14.3565 21.6436L13.6802 20.9674L13.0038 21.6436C12.5821 22.0654 11.8982 22.0654 11.4765 21.6436C11.0547 21.2219 11.0547 20.5382 11.4765 20.1164L12.1528 19.44L11.4765 18.7636C11.0547 18.3419 11.0547 17.6582 11.4765 17.2364Z" fill="white"/>
<path fill-rule="evenodd" clip-rule="evenodd" d="M4.27628 17.2364C4.69804 16.8146 5.38187 16.8146 5.80363 17.2364L6.47996 17.9126L7.15628 17.2364C7.57804 16.8146 8.26187 16.8146 8.68363 17.2364C9.10539 17.6582 9.10539 18.3419 8.68363 18.7636L8.00731 19.44L8.68363 20.1164C9.10539 20.5382 9.10539 21.2219 8.68363 21.6436C8.26187 22.0654 7.57804 22.0654 7.15628 21.6436L6.47996 20.9674L5.80363 21.6436C5.38187 22.0654 4.69804 22.0654 4.27628 21.6436C3.85452 21.2219 3.85452 20.5382 4.27628 20.1164L4.95261 19.44L4.27628 18.7636C3.85452 18.3419 3.85452 17.6582 4.27628 17.2364Z" fill="white"/>
<path fill-rule="evenodd" clip-rule="evenodd" d="M18.6762 17.2364C19.098 16.8146 19.7817 16.8146 20.2035 17.2364L20.8798 17.9126L21.5562 17.2364C21.978 16.8146 22.6617 16.8146 23.0835 17.2364C23.5052 17.6582 23.5052 18.3419 23.0835 18.7636L22.4072 19.44L23.0835 20.1164C23.5052 20.5382 23.5052 21.2219 23.0835 21.6436C22.6617 22.0654 21.978 22.0654 21.5562 21.6436L20.8798 20.9674L20.2035 21.6436C19.7817 22.0654 19.098 22.0654 18.6762 21.6436C18.2544 21.2219 18.2544 20.5382 18.6762 20.1164L19.3524 19.44L18.6762 18.7636C18.2544 18.3419 18.2544 17.6582 18.6762 17.2364Z" fill="white"/>
<path fill-rule="evenodd" clip-rule="evenodd" d="M25.8764 17.2364C26.2982 16.8146 26.9819 16.8146 27.4037 17.2364L28.08 17.9126L28.7564 17.2364C29.1782 16.8146 29.8619 16.8146 30.2837 17.2364C30.7054 17.6582 30.7054 18.3419 30.2837 18.7636L29.6074 19.44L30.2837 20.1164C30.7054 20.5382 30.7054 21.2219 30.2837 21.6436C29.8619 22.0654 29.1782 22.0654 28.7564 21.6436L28.08 20.9674L27.4037 21.6436C26.9819 22.0654 26.2982 22.0654 25.8764 21.6436C25.4546 21.2219 25.4546 20.5382 25.8764 20.1164L26.5526 19.44L25.8764 18.7636C25.4546 18.3419 25.4546 17.6582 25.8764 17.2364Z" fill="white"/>
</svg>
