<svg width="35" height="36" viewBox="0 0 35 36" fill="none" xmlns="http://www.w3.org/2000/svg">
<path fill-rule="evenodd" clip-rule="evenodd" d="M1.8617 2.58173C2.42407 2.01939 3.33582 2.01939 3.89818 2.58173L32.6982 31.3817C33.2605 31.9441 33.2605 32.8559 32.6982 33.4182C32.1358 33.9805 31.224 33.9805 30.6617 33.4182L1.8617 4.61821C1.29935 4.05585 1.29935 3.1441 1.8617 2.58173Z" fill="white"/>
<path d="M19.9883 32.8579C19.0526 33.2162 18.3635 33.4801 17.2821 33.4801C16.2005 33.4801 15.5115 33.2162 14.5758 32.8579C5.0567 29.2134 1.15863 19.8472 2.94126 9.96068C3.0144 9.55486 3.09062 9.13186 3.1798 8.8194C3.27804 8.4752 3.4262 8.11536 3.71462 7.79483C4.03568 7.43801 4.4882 7.23355 4.86896 7.08435C5.04375 7.01585 5.24954 6.94297 5.47885 6.8657C5.71983 6.7845 5.84032 6.7439 5.96017 6.772C6.08002 6.80008 6.17143 6.89149 6.35425 7.07431L26.6558 27.3758C26.9324 27.6525 27.0708 27.7908 27.0714 27.9688C27.0719 28.147 26.9392 28.2816 26.6736 28.5509C24.8892 30.3608 22.6604 31.8348 19.9883 32.8579Z" fill="white"/>
<path opacity="0.4" d="M11.1713 4.22721C12.888 3.33785 14.8563 2.52002 17.2773 2.52002C19.6983 2.52002 21.6674 3.33787 23.3849 4.2272C23.9037 4.49583 24.3858 4.76158 24.8463 5.01553C25.974 5.63717 26.9736 6.18833 28.0709 6.53825C28.715 6.74364 29.2856 6.92557 29.6901 7.08404C30.0708 7.2332 30.5234 7.4376 30.8445 7.79442C31.1329 8.11495 31.2811 8.47484 31.3795 8.81907C31.4686 9.13154 31.5449 9.55464 31.6181 9.9605C32.5293 15.0133 31.9578 19.9302 29.9101 24.0169C29.6843 24.4678 29.5714 24.6931 29.3531 24.7284C29.1349 24.7637 28.9506 24.5795 28.5821 24.2109L10.3144 5.94314C9.94067 5.56945 9.75381 5.38261 9.78512 5.16806C9.81642 4.95353 10.0475 4.8286 10.5097 4.57874C10.7404 4.45397 10.9689 4.33207 11.1713 4.22721Z" fill="white"/>
</svg>
