<svg width="20" height="20" viewBox="0 0 20 20" fill="none" xmlns="http://www.w3.org/2000/svg">
<path d="M7.08464 2.5H9.59447C10.2059 2.5 10.5116 2.5 10.7994 2.56908C11.0545 2.63032 11.2983 2.73133 11.5221 2.8684C11.7743 3.023 11.9905 3.23919 12.4229 3.67157L17.0846 8.33333M6.2928 8.37483H6.30114M7.92779 5H6.91797C5.51784 5 4.81777 5 4.28299 5.27248C3.81259 5.51217 3.43014 5.89462 3.19045 6.36502C2.91797 6.8998 2.91797 7.59987 2.91797 9V10.0098C2.91797 10.6212 2.91797 10.927 2.98704 11.2147C3.04829 11.4698 3.14929 11.7137 3.28637 11.9374C3.44097 12.1897 3.65716 12.4058 4.08954 12.8382L6.75621 15.5049C7.74625 16.4949 8.24127 16.99 8.81205 17.1754C9.31422 17.3386 9.85505 17.3386 10.3572 17.1754C10.928 16.99 11.4231 16.4949 12.4131 15.5049L13.4229 14.4951C14.4129 13.5051 14.908 13.01 15.0934 12.4392C15.2566 11.9371 15.2566 11.3962 15.0934 10.8941C14.908 10.3233 14.4129 9.82825 13.4229 8.83825L10.7562 6.17157C10.3238 5.73919 10.1076 5.523 9.85539 5.3684C9.63164 5.23132 9.3878 5.13032 9.13272 5.06907C8.84497 5 8.53922 5 7.92779 5ZM6.70947 8.37483C6.70947 8.60492 6.52293 8.7915 6.2928 8.7915C6.06269 8.7915 5.87614 8.60492 5.87614 8.37483C5.87614 8.14472 6.06269 7.95817 6.2928 7.95817C6.52293 7.95817 6.70947 8.14472 6.70947 8.37483Z" stroke="white" stroke-width="1.2" stroke-linecap="round" stroke-linejoin="round"/>
</svg>
