<svg width="84" height="80" viewBox="0 0 84 80" fill="none" xmlns="http://www.w3.org/2000/svg">
<circle opacity="0.2" cx="30" cy="30" r="30" fill="url(#paint0_linear_8175_30707)"/>
<path d="M45.6214 68.2243L45.7092 68.181L45.7365 72.154C44.5976 72.1001 44.001 72.1513 43.1152 72.918C42.8384 73.158 42.6213 73.4262 42.3867 73.705C42.24 73.8806 42.0897 74.0491 41.8516 74.0941C41.8551 74.0191 41.8533 73.9432 41.8603 73.8682C42.0844 71.4834 43.8217 71.0785 45.262 69.6156C45.7163 69.1551 45.6082 68.8313 45.6214 68.2243Z" fill="#9238A1"/>
<path d="M45.7848 65.7402L48.2849 65.922L48.2831 69.6364L48.2409 72.3441L45.9131 72.2753L45.7304 72.1571L45.7031 68.1842C45.8569 67.4113 45.7813 66.529 45.7848 65.7402Z" fill="#282B6B"/>
<path d="M45.7391 72.1534L45.9219 72.2716C45.9623 74.7517 45.8595 77.2759 44.4201 79.4066C43.5123 78.7908 42.884 78.1396 42.3647 77.1621C41.9034 76.2921 41.5721 75.0605 41.8542 74.0935C42.0923 74.0485 42.2426 73.88 42.3893 73.7044C42.6239 73.4256 42.841 73.1574 43.1178 72.9174C44.0035 72.1507 44.6002 72.0995 45.7391 72.1534Z" fill="#BE71BF"/>
<path d="M48.2858 69.6313C49.7252 70.0451 51.0152 70.7624 51.7375 72.1361C52.4027 73.4022 52.4449 74.895 51.9765 76.2343C51.4563 77.7183 50.3192 78.9791 48.8737 79.5994C47.3473 80.254 45.8956 80.0485 44.4141 79.4053C45.8534 77.2746 45.9563 74.7504 45.9158 72.2703L48.2436 72.339L48.2858 69.6313Z" fill="#9238A1"/>
<path d="M19.814 70.545C20.5407 69.4616 21.4889 68.6199 22.7508 68.2255C23.8624 67.8779 25.0223 68.0146 26.0487 68.5466C26.3422 69.3636 27.402 70.2098 28.0839 70.7444C28.8062 71.7026 29.0953 72.7428 28.8932 73.9462C28.6594 75.3323 27.6902 76.6178 26.5478 77.3924C25.5223 78.0886 24.2121 78.4353 22.988 78.1679C22.2508 78.0065 21.626 77.6457 21.0126 77.2204C19.8949 76.3822 19.2508 75.0597 19.0689 73.6895C18.9195 72.5619 19.1312 71.4591 19.814 70.545Z" fill="#9238A1"/>
<path d="M19.814 70.5437C20.8624 70.0506 21.7534 69.5432 22.9441 69.9261C23.6357 70.1485 24.1559 70.5976 24.4494 71.2664C24.8835 72.2545 24.7561 73.4668 24.3633 74.4461C23.9661 75.4395 23.133 76.5592 22.0944 76.9359C21.7464 77.0629 21.3738 77.1406 21.0126 77.2191C19.8949 76.3809 19.2508 75.0584 19.0689 73.6882C18.9195 72.5607 19.1312 71.4578 19.814 70.5437Z" fill="#BE71BF"/>
<path d="M68.9267 68.8883C70.3811 68.3219 71.9645 68.0564 73.4443 68.6969C74.6535 69.2201 75.5507 70.2532 76.0226 71.4752C76.5613 72.8674 76.5358 74.4546 75.8609 75.7975C75.295 76.925 74.3222 77.7624 73.1254 78.1506C72.1069 78.4805 71.1069 78.4796 70.0682 78.2661C69.6508 78.0914 69.2378 77.9106 68.8582 77.6626C67.6587 76.8774 66.9434 75.8592 66.6183 74.4652C66.4074 73.11 66.6236 72.0284 67.1956 70.7967C67.7079 70.0591 68.2738 69.4927 68.9267 68.8883Z" fill="#F27718"/>
<path d="M66.6172 74.4729C66.6541 74.4076 66.698 74.3468 66.7279 74.278C67.1884 73.2342 66.517 72.1384 67.8211 71.4952C68.8299 70.9985 70.8202 70.605 71.9151 70.9915C72.2754 71.1185 72.4151 71.2367 72.6559 71.5199C73.0109 72.7834 72.2631 75.0332 71.6295 76.1369C71.2007 76.8816 70.5917 77.5909 70.0671 78.2738C69.6497 78.0991 69.2367 77.9183 68.8571 77.6703C67.6576 76.8851 66.9423 75.8669 66.6172 74.4729Z" fill="#F29822"/>
<path d="M29.479 23.6055C30.1442 22.2121 30.8384 20.8266 31.6899 19.5374C34.8402 14.7642 39.5565 11.5468 45.1505 10.4261C50.8017 9.29481 56.6331 10.4314 61.3994 13.6956C66.7614 17.3674 69.6147 22.9013 70.8283 29.1622C74.1464 29.5381 77.1526 30.7886 79.5893 33.1156C82.3398 35.7417 83.9066 39.3801 83.9962 43.1852C84.085 46.9524 82.5999 50.7151 79.9936 53.4198C75.0164 58.5866 69.8493 57.6556 63.3774 57.8003C62.5751 58.816 61.7306 59.7999 60.8976 60.7909C63.4969 63.5662 66.243 66.2109 68.9276 68.9041C68.2746 69.5086 67.7087 70.0751 67.1964 70.8129L58.8958 62.5523C55.6963 64.6807 52.1014 65.6991 48.2894 65.9276L45.7894 65.7458C45.7859 66.5347 45.8614 67.4172 45.7077 68.1902L45.6198 68.2335L45.596 65.8703C41.6373 65.6867 38.6355 65.2076 35.103 63.2768C32.6724 65.6929 30.2277 68.0702 28.0792 70.7502C27.3973 70.2154 26.3375 69.3692 26.044 68.552C28.6196 66.555 30.8015 63.8009 33.2444 61.6071C32.0045 60.5032 30.9017 59.2554 29.7778 58.0359C27.6908 58.0129 25.5695 58.0633 23.5027 57.7429C18.9271 57.0334 14.8207 54.4329 12.1265 50.6648C9.47711 46.9585 8.49291 42.3883 9.24512 37.9011C10.0184 33.2885 12.6072 29.051 16.4209 26.349C20.3621 23.5551 24.7883 22.768 29.479 23.6055Z" fill="#333494"/>
<path d="M31.4563 26.8591C32.5908 23.7106 33.7903 20.9732 36.1558 18.5369C39.4441 15.1483 43.9758 13.1435 48.7008 13.1399C53.7658 13.1355 58.8046 15.2887 62.374 18.889C66.2053 22.754 67.5955 27.49 67.5911 32.841C69.7396 32.1986 71.5384 32.0875 73.7818 32.0716C74.3416 33.9635 74.6026 35.8078 74.3662 37.7809C73.9787 41.0018 72.2581 43.8246 69.7185 45.8022C66.7572 48.1088 63.4935 48.8589 59.8213 48.3833C59.7931 49.7369 59.3546 50.9256 58.3757 51.8936C57.9012 52.3622 57.3283 52.7019 56.6736 52.836C54.3616 53.309 45.8563 52.9401 43.0347 52.829L42.3378 52.7972C40.6823 55.0333 38.8483 57.174 37.3342 59.5081C37.3747 58.1006 37.7666 53.8102 37.3536 52.7372L37.0618 52.5836L36.6866 52.6745C32.1286 53.1466 26.9449 53.2269 22.6759 51.3818C18.9009 49.751 15.5564 46.8505 14.0476 42.9378C12.9157 40.0011 13.1284 36.5711 14.4281 33.7226C15.9272 30.432 18.8833 27.9136 22.2348 26.6667C25.3174 25.5204 28.4256 25.4842 31.4563 26.8591Z" fill="#5C44A4"/>
<path d="M36.6913 52.6877C36.0428 52.3118 35.3688 51.8962 34.824 51.3764C33.6921 50.2963 33.2747 48.8262 33.2607 47.297C33.2369 44.5924 32.7861 39.2881 34.8521 37.3202C35.6438 36.5658 36.614 36.2957 37.6702 36.1299C39.8486 35.7857 42.2827 35.9939 44.4989 36.0098C48.4216 36.0381 52.3461 36.0443 56.267 36.1757L57.3997 36.9487L57.4226 37.1729C54.4348 38.4753 47.274 38.1885 43.8592 38.1824C42.4558 38.1806 40.933 38.0659 39.5516 38.3191C38.7203 38.4709 37.6869 38.763 37.2721 39.5793C36.8117 40.4855 36.9452 50.8514 37.0665 52.5968L36.6913 52.6877Z" fill="#F6D028"/>
<path d="M56.262 36.1625C57.3815 36.3999 58.2814 36.8111 58.9176 37.8118C60.5767 40.4229 59.5916 45.3336 59.8209 48.3833C59.7928 49.7369 59.3543 50.9256 58.3754 51.8936C57.9009 52.3622 57.3279 52.7019 56.6733 52.836C54.3613 53.309 45.856 52.9401 43.0343 52.829L42.3375 52.7972C40.6819 55.0333 38.848 57.174 37.3339 59.5081C37.3743 58.1006 37.7663 53.8102 37.3533 52.7372L37.0615 52.5836C36.9402 50.8382 36.8067 40.4723 37.2671 39.566C37.6819 38.7498 38.7153 38.4577 39.5466 38.3059C40.928 38.0527 42.4508 38.1674 43.8542 38.1692C47.269 38.1753 54.4298 38.4621 57.4176 37.1597L57.3947 36.9355L56.262 36.1625Z" fill="#F29822"/>
<path d="M53.7403 43.2829C54.2561 43.2908 54.7588 43.2326 55.1999 43.5396C55.3335 44.0346 55.2069 44.2261 55.0532 44.706C54.5233 44.7201 54.134 44.7792 53.6876 44.4387C53.5171 43.9614 53.6059 43.7487 53.7403 43.2829Z" fill="white"/>
<path d="M39.7031 47.1975C40.2163 47.1719 40.653 47.1384 41.1522 47.2963C41.3877 47.7948 41.2963 48.0842 41.2479 48.6259C40.8077 48.6453 40.4193 48.6259 39.9834 48.5615C39.6372 48.0797 39.7163 47.7824 39.7031 47.1975Z" fill="white"/>
<path d="M54.101 46.9035C54.1582 46.9053 54.2144 46.9062 54.2706 46.9106C54.8102 46.9547 55.043 47.0165 55.3857 47.4179C55.435 47.9182 55.2803 48.159 55.065 48.594C54.5465 48.5102 54.1116 48.4908 53.7179 48.1034C53.674 47.5529 53.8427 47.38 54.101 46.9035Z" fill="white"/>
<path d="M40.1593 39.4793C40.6426 39.5446 41.0116 39.5596 41.3939 39.8992C41.4537 40.4383 41.2674 40.666 41.0398 41.1486C40.864 41.138 40.5925 41.1283 40.4282 41.0824C39.9659 40.9509 39.857 40.7939 39.625 40.4145C39.7357 39.9231 39.8113 39.8516 40.1593 39.4793Z" fill="white"/>
<path d="M39.726 43.2313C40.2761 43.2604 40.7875 43.2207 41.2444 43.5727C41.3991 44.1065 41.313 44.2962 41.1865 44.8273C40.6469 44.8467 40.2901 44.8547 39.7857 44.6147C39.559 44.0589 39.646 43.8171 39.726 43.2313Z" fill="white"/>
<path d="M49.6017 43.1255C50.0859 43.2155 50.5032 43.2473 50.875 43.6037C50.9444 44.1755 50.8161 44.3555 50.5929 44.8751C50.3864 44.8575 50.0402 44.8557 49.8363 44.7816C49.3846 44.6184 49.3073 44.4931 49.0938 44.0987C49.1623 43.6329 49.288 43.4705 49.6017 43.1255Z" fill="white"/>
<path d="M44.4772 43.2451C45.0835 43.2372 45.5835 43.2857 46.0334 43.7242C46.1626 44.2686 46.1028 44.408 45.9464 44.9532C45.3568 44.8756 44.9042 44.8429 44.4359 44.4362C44.2636 43.8998 44.3383 43.7745 44.4772 43.2451Z" fill="white"/>
<path d="M49.1972 46.9334C49.7499 46.9263 50.2165 46.8769 50.7148 47.1619C50.9679 47.6189 50.8255 48.0618 50.7447 48.5515C50.1998 48.5991 49.8281 48.6697 49.3404 48.3618C49.0513 47.8854 49.1462 47.461 49.1972 46.9334Z" fill="white"/>
<path d="M54.0454 39.3761C54.215 39.4097 54.5261 39.4635 54.679 39.5235C55.0964 39.6893 55.1552 39.872 55.3292 40.2496C55.2255 40.8028 55.0806 40.9378 54.6886 41.3048C54.1333 41.116 53.8257 41.0225 53.4531 40.5575C53.5217 39.9619 53.6833 39.8376 54.0454 39.3761Z" fill="white"/>
<path d="M44.6692 46.93C45.1912 46.9617 45.6473 46.9344 46.0779 47.275C46.2782 47.7964 46.1376 48.1396 45.9882 48.6487C45.3652 48.6284 45.012 48.6399 44.5014 48.2693C44.3239 47.7788 44.5128 47.3976 44.6692 46.93Z" fill="white"/>
<path d="M49.2084 39.416C49.494 39.4275 49.8552 39.4125 50.1276 39.4901C50.6118 39.6278 50.6962 39.746 50.9448 40.1439C50.9158 40.5885 50.8227 40.8074 50.5942 41.1876C49.8956 41.1497 49.4545 41.1594 48.9413 40.6388C48.8719 40.1104 48.9949 39.8836 49.2084 39.416Z" fill="white"/>
<path d="M44.9469 39.3947C45.1236 39.4158 45.3819 39.4388 45.5462 39.4891C46.0322 39.639 46.1456 39.7926 46.4144 40.1887C46.3292 40.8001 46.186 40.8998 45.7985 41.3595C45.7238 41.3489 45.6482 41.3419 45.5735 41.3286C45.0049 41.221 44.6464 41.0463 44.3125 40.5716C44.3916 39.9435 44.5418 39.8587 44.9469 39.3947Z" fill="white"/>
<defs>
<linearGradient id="paint0_linear_8175_30707" x1="0.661765" y1="30" x2="60" y2="30" gradientUnits="userSpaceOnUse">
<stop stop-color="#202CD3"/>
<stop offset="1" stop-color="#0778F9"/>
</linearGradient>
</defs>
</svg>
