<svg width="86" height="80" viewBox="0 0 86 80" fill="none" xmlns="http://www.w3.org/2000/svg">
<circle opacity="0.2" cx="30.5" cy="30" r="30" fill="url(#paint0_linear_8175_30684)"/>
<path d="M68.2306 60.442L70.9158 60.5208C72.9101 61.0014 74.6343 61.8452 75.7049 63.7035C77.1478 66.2077 77.1032 71.3098 76.2676 74.0486C75.587 76.2777 74.1998 77.8019 72.1664 78.8437C71.2054 79.3356 70.3206 79.6847 69.2324 79.7814C64.9883 80.1587 60.4703 79.818 56.1964 79.8208C51.736 79.8246 32.8082 80.4074 29.8371 79.4519C28.8087 79.1216 27.9339 78.5969 27.0552 77.9793C26.7977 77.7569 26.5665 77.5307 26.3387 77.2754C23.877 74.5206 23.8995 70.7016 24.112 67.1894C24.3281 63.6172 25.5959 62.9001 27.9809 60.778C28.9866 60.4608 29.9777 60.488 31.0184 60.4805L36.2336 60.5096C39.6293 60.503 43.0471 60.4148 46.4389 60.5631C47.2671 60.4382 48.1613 60.4899 49.0006 60.4758L68.2306 60.442Z" fill="#333494"/>
<path d="M55.788 72.2499C60.3089 72.2621 66.046 71.897 70.4136 72.3803C70.6624 73.0561 70.5817 73.8473 70.5798 74.5607C67.7906 74.6001 57.6265 74.9276 55.6237 74.3908C55.4083 73.7084 55.4296 73.1734 55.4751 72.4639L55.788 72.2499Z" fill="white"/>
<path d="M55.4825 66.1909L70.7051 66.2285L70.6809 68.6096L55.4686 68.6002C55.4472 67.7996 55.4769 66.9915 55.4825 66.1909Z" fill="white"/>
<path d="M34.6875 70.1093C34.5345 69.2064 34.5164 68.3335 34.9032 67.4813C35.2893 66.63 35.9321 65.9814 36.815 65.6754C38.0357 65.254 39.0186 65.5694 40.1084 66.155C40.896 67.072 41.4619 67.9233 41.3535 69.1923C41.2689 70.1815 40.7731 71.0751 39.9879 71.6701C39.1896 72.2746 38.1843 72.5383 37.2014 72.3262C36.2224 72.115 35.4627 71.5143 34.9642 70.6452C34.8642 70.4716 34.7771 70.2895 34.6875 70.1093Z" fill="white"/>
<path d="M31.0184 60.4858L36.2336 60.5149C39.6293 60.5083 43.0471 60.4201 46.4389 60.5684C44.5365 62.2907 42.7506 64.1631 40.6972 65.6986C40.4987 65.8469 40.3084 66.0103 40.1169 66.167C39.0271 65.5813 38.0442 65.266 36.8235 65.6874C35.9406 65.9934 35.2978 66.6419 34.9117 67.4932C34.5249 68.3454 34.543 69.2183 34.696 70.1212C33.637 71.0729 32.7031 72.2124 31.7045 73.2345C30.1656 74.8104 28.5203 76.343 27.0552 77.9846C26.7977 77.7622 26.5665 77.536 26.3387 77.2807C23.877 74.526 23.8995 70.7069 24.112 67.1947C24.3281 63.6225 25.5959 62.9054 27.9809 60.7833C28.9866 60.4661 29.9777 60.4933 31.0184 60.4858Z" fill="#5C44A4"/>
<path d="M37.3304 17.0639C40.161 13.2197 44.6008 10.9193 49.2339 10.236C54.6507 9.43735 60.0917 10.6574 64.4788 14.0258C68.6263 17.2103 70.8259 21.781 72.0255 26.8012C76.2836 27.4967 80.1043 29.5671 82.6706 33.142C85.0643 36.4766 85.9492 40.4823 85.2871 44.5377C84.6539 48.4176 82.6066 51.7053 79.4284 53.9691C76.9985 55.6998 74.2901 56.4975 71.3607 56.8129C71.5344 55.482 71.5836 54.1136 71.6829 52.7734C71.708 48.6072 72.007 44.2834 71.1583 40.1848C69.7842 35.9877 68.1296 32.4803 65.0108 29.3137C60.555 24.789 54.854 22.3788 48.5533 22.3723C42.1318 22.5497 36.5854 25.5436 32.2222 30.2156C27.8856 34.8586 26.03 41.2613 26.2264 47.5617C26.2832 49.3797 26.4819 51.1985 26.6557 53.008C26.8167 54.0958 27.0893 55.2896 27.085 56.384C22.1308 56.1615 17.5012 55.712 13.9661 51.7682C11.5563 49.0793 10.3196 45.4697 10.5213 41.8526C10.7191 38.3058 12.2835 34.8013 14.9327 32.4409C16.4157 31.1195 18.0641 30.3104 19.9664 29.7886C19.9391 25.9753 20.7035 22.4549 23.4491 19.6637C25.7146 17.3605 28.9268 16.0869 32.1307 16.0925C33.9575 16.0953 35.5963 16.5336 37.3304 17.0639Z" fill="#68CCCC"/>
<path d="M48.9512 13.2785C54.5035 12.7445 58.7829 13.0683 63.2406 16.7953C66.5451 19.5574 68.7698 23.6775 69.1421 28.0042C69.1876 28.5289 69.2201 29.0535 69.2396 29.58C72.259 29.8034 76.6229 31.0179 78.7399 33.3539C81.2756 36.132 82.6887 39.0677 82.5197 42.9138C82.3981 45.69 81.2848 48.2841 79.2496 50.1725C77.0584 52.2063 74.5747 52.7694 71.6843 52.7816C71.7093 48.6154 72.0083 44.2916 71.1597 40.193C69.7855 35.9959 68.1309 32.4886 65.0121 29.3219C60.5563 24.7972 54.8554 22.3871 48.5547 22.3805L48.9047 22.0896C49.3606 19.6803 48.9725 15.8408 48.9512 13.2785Z" fill="white"/>
<path d="M38.0934 21.0553C40.9412 16.8234 43.9907 14.4921 48.9414 13.2851C48.9627 15.8473 49.3508 19.6869 48.895 22.0961L48.5449 22.3871C42.1234 22.5645 36.577 25.5584 32.2138 30.2304C27.8772 34.8734 26.0215 41.2761 26.218 47.5765C26.2747 49.3945 26.4735 51.2133 26.6472 53.0228C23.9441 53.1129 21.4427 53.0979 18.9791 51.8225C16.5925 50.5855 14.8134 48.3039 14.0062 45.7379C13.1327 42.9608 13.4136 39.9903 14.7998 37.4356C16.8604 33.6383 20.0272 32.6913 23.8942 31.6242C23.1259 29.0563 22.8678 26.4904 24.0801 23.9929C25.1367 21.8165 27.1279 20.1843 29.4156 19.4861C32.6176 18.5081 35.2852 19.5818 38.0934 21.0553Z" fill="white"/>
<path d="M48.5597 22.3812C54.8604 22.3878 60.5614 24.7979 65.0172 29.3226C68.136 32.4893 69.7905 35.9966 71.1647 40.1937C72.0133 44.2923 71.7144 48.6162 71.6893 52.7823C71.5899 54.1226 71.5407 55.491 71.3671 56.8218C71.2223 58.0541 71.1043 59.2986 70.9168 60.5243L68.2316 60.4455L49.0017 60.4793C48.1623 60.4934 47.2682 60.4417 46.44 60.5666C43.0481 60.4183 39.6303 60.5065 36.2347 60.5131L31.0195 60.484C29.9787 60.4915 28.9876 60.4643 27.982 60.7815C27.4995 59.4018 27.2551 57.8448 27.0914 56.3929C27.0957 55.2986 26.8231 54.1047 26.6621 53.017C26.4883 51.2075 26.2895 49.3886 26.2328 47.5706C26.0363 41.2702 27.892 34.8675 32.2286 30.2246C36.5918 25.5525 42.1382 22.5586 48.5597 22.3812Z" fill="#F27718"/>
<path d="M48.8985 25.8819C54.3293 26.1288 58.8538 27.852 62.8398 31.6701C58.358 36.3761 53.7415 41.0315 49.0211 45.4926C48.7314 42.5098 49.2634 39.4246 48.8438 36.4597C48.9988 32.9466 48.8985 29.3988 48.8985 25.8819Z" fill="#F29822"/>
<path d="M48.5597 22.3812C54.8604 22.3878 60.5614 24.7979 65.0172 29.3226C68.136 32.4893 69.7905 35.9966 71.1647 40.1937C72.0133 44.2923 71.7144 48.6162 71.6893 52.7823C71.5899 54.1226 71.5407 55.491 71.3671 56.8218C71.2223 58.0541 71.1043 59.2986 70.9168 60.5243L68.2316 60.4455C68.6049 55.2573 68.642 49.7987 68.4219 44.5992C68.2149 39.7076 66.4795 35.0167 62.8529 31.6643C58.8669 27.8463 54.3423 26.1232 48.9116 25.8763C43.5314 26.0152 38.4043 28.7398 34.7217 32.63C30.7616 36.8131 29.3548 41.9253 29.5397 47.6335C29.6197 50.0991 29.8934 52.5693 30.1832 55.017C30.3651 56.8584 30.8176 58.6529 31.0195 60.484C29.9787 60.4915 28.9876 60.4643 27.982 60.7815C27.4995 59.4018 27.2551 57.8448 27.0914 56.3929C27.0957 55.2986 26.8231 54.1047 26.6621 53.017C26.4883 51.2075 26.2895 49.3886 26.2328 47.5706C26.0363 41.2702 27.892 34.8675 32.2286 30.2246C36.5918 25.5525 42.1382 22.5586 48.5597 22.3812Z" fill="#F1471F"/>
<path d="M30.1751 55.021C29.8852 52.5733 29.6115 50.103 29.5316 47.6375C29.3466 41.9293 30.7534 36.8171 34.7135 32.634C38.3961 28.7438 43.5232 26.0192 48.9035 25.8803C48.9035 29.397 49.0037 32.9447 48.8487 36.4576C49.2683 39.4225 48.7363 42.5075 49.026 45.4901C48.9248 46.3555 48.922 47.203 48.9229 48.0721C48.9582 52.2072 48.832 56.3518 48.9935 60.4833C48.1542 60.4974 47.26 60.4457 46.4318 60.5706C43.04 60.4223 39.6222 60.5105 36.2265 60.5171L31.0113 60.488C30.8094 58.6569 30.357 56.8624 30.1751 55.021Z" fill="#F6D028"/>
<path d="M48.8455 36.4566C49.2651 39.4216 48.7331 42.5067 49.0228 45.4895C48.9216 46.3549 48.9188 47.2024 48.9197 48.0715C48.955 52.2069 48.8287 56.3517 48.9903 60.4833C48.1509 60.4974 47.2568 60.4457 46.4286 60.5706C43.0367 60.4223 39.619 60.5105 36.2233 60.5171L31.0081 60.488C30.8062 58.6568 30.3538 56.8622 30.1719 55.0208C33.195 52.6518 35.804 49.8661 38.4925 47.1273L48.8455 36.4566Z" fill="#ECB411"/>
<path d="M36.2344 60.5171C40.1798 56.1255 44.4434 51.8934 48.9308 48.0715C48.9661 52.2069 48.8398 56.3517 49.0014 60.4833C48.162 60.4974 47.2679 60.4457 46.4397 60.5706C43.0478 60.4223 39.63 60.5105 36.2344 60.5171Z" fill="#F29822"/>
<defs>
<linearGradient id="paint0_linear_8175_30684" x1="1.16177" y1="30" x2="60.5" y2="30" gradientUnits="userSpaceOnUse">
<stop stop-color="#202CD3"/>
<stop offset="1" stop-color="#0778F9"/>
</linearGradient>
</defs>
</svg>
