<svg width="51" height="48" viewBox="0 0 51 48" fill="none" xmlns="http://www.w3.org/2000/svg">
<path d="M39.2532 34.5879L41.0792 34.6419C42.4353 34.9715 43.6078 35.5501 44.3358 36.8245C45.3169 38.5416 45.2866 42.0404 44.7184 43.9184C44.2556 45.447 43.3123 46.4923 41.9296 47.2067C41.2761 47.544 40.6744 47.7834 39.9345 47.8497C37.0485 48.1084 33.9762 47.8748 31.07 47.8767C28.0369 47.8793 15.166 48.279 13.1457 47.6238C12.4464 47.3972 11.8515 47.0374 11.254 46.6139C11.0789 46.4614 10.9217 46.3063 10.7668 46.1312C9.09282 44.2422 9.1081 41.6233 9.25262 39.2149C9.39954 36.7652 10.2617 36.2735 11.8835 34.8183C12.5673 34.6008 13.2413 34.6194 13.949 34.6143L17.4953 34.6342C19.8044 34.6297 22.1284 34.5692 24.4349 34.6709C24.9981 34.5853 25.6061 34.6207 26.1769 34.6111L39.2532 34.5879Z" fill="#333494"/>
<path d="M30.7926 42.6781C33.8668 42.6865 37.768 42.4361 40.738 42.7676C40.9072 43.231 40.8523 43.7736 40.851 44.2627C38.9544 44.2898 32.0427 44.5144 30.6809 44.1462C30.5344 43.6783 30.5489 43.3115 30.5799 42.8249L30.7926 42.6781Z" fill="white"/>
<path d="M30.5898 38.5248L40.9412 38.5505L40.9248 40.1834L30.5804 40.1769C30.5659 39.6279 30.5861 39.0738 30.5898 38.5248Z" fill="white"/>
<path d="M16.4509 41.2189C16.3469 40.5997 16.3346 40.0012 16.5976 39.4167C16.8601 38.833 17.2972 38.3882 17.8976 38.1784C18.7277 37.8894 19.396 38.1057 20.1371 38.5073C20.6727 39.1361 21.0575 39.7199 20.9837 40.5901C20.9262 41.2684 20.5891 41.8812 20.0552 42.2892C19.5123 42.7037 18.8287 42.8846 18.1604 42.7391C17.4947 42.5943 16.978 42.1824 16.6391 41.5864C16.5711 41.4673 16.5118 41.3425 16.4509 41.2189Z" fill="white"/>
<path d="M13.949 34.6173L17.4953 34.6373C19.8044 34.6327 22.1284 34.5722 24.4349 34.6739C23.1412 35.855 21.9269 37.139 20.5305 38.192C20.3956 38.2936 20.2662 38.4056 20.136 38.5131C19.3949 38.1115 18.7265 37.8953 17.8964 38.1842C17.2961 38.3941 16.859 38.8388 16.5964 39.4226C16.3334 40.007 16.3457 40.6055 16.4497 41.2247C15.7296 41.8773 15.0946 42.6587 14.4155 43.3596C13.369 44.4402 12.2502 45.4913 11.254 46.6169C11.0789 46.4644 10.9217 46.3093 10.7668 46.1342C9.09282 44.2452 9.1081 41.6263 9.25262 39.2179C9.39954 36.7683 10.2617 36.2765 11.8835 34.8213C12.5673 34.6038 13.2413 34.6225 13.949 34.6173Z" fill="#5C44A4"/>
<path d="M18.2447 4.84279C20.1695 2.20652 23.1885 0.629009 26.3391 0.160454C30.0225 -0.387268 33.7223 0.44943 36.7056 2.75938C39.5259 4.94319 41.0216 8.07762 41.8374 11.5203C44.7328 11.9973 47.3309 13.4171 49.076 15.8686C50.7037 18.1554 51.3054 20.9024 50.8553 23.6835C50.4247 26.3442 49.0325 28.5988 46.8713 30.1512C45.219 31.338 43.3773 31.8851 41.3853 32.1014C41.5034 31.1887 41.5368 30.2503 41.6044 29.3312C41.6214 26.4742 41.8247 23.5091 41.2477 20.6984C40.3132 17.8201 39.1881 15.4149 37.0673 13.2433C34.0374 10.1404 30.1608 8.48761 25.8763 8.4831C21.5096 8.60475 17.7381 10.6579 14.7711 13.8618C11.8222 17.0458 10.5604 21.4366 10.694 25.7572C10.7325 27.0039 10.8677 28.2512 10.9859 29.4921C11.0953 30.2381 11.2807 31.0568 11.2778 31.8073C7.90892 31.6547 4.76084 31.3464 2.35695 28.6419C0.718287 26.798 -0.122702 24.3226 0.014495 21.8421C0.148977 19.4098 1.21278 17.0066 3.01421 15.3879C4.0227 14.4816 5.14357 13.9268 6.43713 13.569C6.41857 10.954 6.93838 8.53974 8.80541 6.62562C10.3459 5.04617 12.5303 4.17278 14.7089 4.17664C15.9511 4.17857 17.0655 4.47914 18.2447 4.84279Z" fill="#68CCCC"/>
<path d="M26.1461 2.24582C29.9217 1.8796 32.8317 2.10166 35.8629 4.65747C38.1099 6.55165 39.6227 9.37713 39.8759 12.3442C39.9068 12.704 39.9289 13.0638 39.9422 13.4249C41.9954 13.578 44.9629 14.4109 46.4024 16.0129C48.1267 17.918 49.0876 19.9312 48.9727 22.5688C48.89 24.4726 48.133 26.2516 46.749 27.5465C45.259 28.9412 43.57 29.3274 41.6046 29.3358C41.6216 26.4788 41.8249 23.5136 41.2479 20.7029C40.3134 17.8246 39.1883 15.4194 37.0675 13.2479C34.0376 10.145 30.161 8.49216 25.8765 8.48765L26.1145 8.28813C26.4245 6.63596 26.1606 4.0029 26.1461 2.24582Z" fill="#E6BEE3"/>
<path d="M18.7675 7.57495C20.704 4.67287 22.7777 3.07411 26.1441 2.24642C26.1587 4.0035 26.4226 6.63655 26.1126 8.28873L25.8745 8.48825C21.5079 8.60989 17.7363 10.663 14.7694 13.867C11.8205 17.051 10.5587 21.4417 10.6922 25.7624C10.7308 27.0091 10.866 28.2564 10.9841 29.4973C9.14602 29.5591 7.44504 29.5488 5.76982 28.6741C4.14694 27.8258 2.9371 26.2612 2.38825 24.5015C1.79425 22.597 1.98524 20.56 2.92788 18.8081C4.32909 16.204 6.48251 15.5545 9.11205 14.8228C8.58959 13.0618 8.41413 11.3022 9.23845 9.58948C9.95695 8.09693 11.311 6.97768 12.8666 6.49882C15.044 5.82817 16.8579 6.56447 18.7675 7.57495Z" fill="white"/>
<path d="M25.8794 8.48251C30.1638 8.48702 34.0405 10.1398 37.0704 13.2427C39.1912 15.4143 40.3163 17.8195 41.2507 20.6978C41.8278 23.5085 41.6245 26.4736 41.6075 29.3306C41.5399 30.2497 41.5065 31.1881 41.3884 32.1008C41.2899 32.9459 41.2097 33.7993 41.0822 34.6399L39.2562 34.5858L26.1799 34.609C25.6091 34.6186 25.0011 34.5832 24.4379 34.6688C22.1315 34.5671 19.8074 34.6276 17.4983 34.6322L13.952 34.6122C13.2443 34.6173 12.5703 34.5987 11.8865 34.8162C11.5584 33.8701 11.3922 32.8023 11.2809 31.8067C11.2838 31.0562 11.0984 30.2375 10.9889 29.4916C10.8708 28.2507 10.7356 27.0033 10.6971 25.7566C10.5635 21.436 11.8253 17.0452 14.7742 13.8612C17.7412 10.6573 21.5127 8.60416 25.8794 8.48251Z" fill="#F27718"/>
<path d="M26.1188 10.8841C29.8117 11.0534 32.8884 12.2351 35.5989 14.8533C32.5512 18.0804 29.412 21.2728 26.2021 24.3319C26.0052 22.2865 26.3669 20.1709 26.0815 18.1377C26.187 15.7286 26.1188 13.2958 26.1188 10.8841Z" fill="#F29822"/>
<path d="M25.8794 8.48251C30.1638 8.48702 34.0405 10.1398 37.0704 13.2427C39.1912 15.4143 40.3163 17.8195 41.2507 20.6978C41.8278 23.5085 41.6245 26.4736 41.6075 29.3306C41.5399 30.2497 41.5065 31.1881 41.3884 32.1008C41.2899 32.9459 41.2097 33.7993 41.0822 34.6399L39.2562 34.5858C39.5101 31.0279 39.5353 27.2846 39.3857 23.7189C39.2449 20.3644 38.0648 17.1476 35.5987 14.8486C32.8882 12.2303 29.8115 11.0486 26.1186 10.8794C22.4601 10.9746 18.9737 12.843 16.4695 15.5108C13.7766 18.3795 12.82 21.8853 12.9458 25.7997C13.0001 27.4905 13.1862 29.1846 13.3834 30.8631C13.507 32.1259 13.8147 33.3565 13.952 34.6122C13.2443 34.6173 12.5703 34.5987 11.8865 34.8162C11.5584 33.8701 11.3922 32.8023 11.2809 31.8067C11.2838 31.0562 11.0984 30.2375 10.9889 29.4916C10.8708 28.2507 10.7356 27.0033 10.6971 25.7566C10.5635 21.436 11.8253 17.0452 14.7742 13.8612C17.7412 10.6573 21.5127 8.60416 25.8794 8.48251Z" fill="#F1471F"/>
<path d="M13.3786 30.8621C13.1815 29.1835 12.9954 27.4895 12.941 25.7987C12.8152 21.8842 13.7719 18.3784 16.4648 15.5098C18.9689 12.842 22.4553 10.9736 26.1139 10.8783C26.1139 13.2899 26.1821 15.7228 26.0766 18.1319C26.362 20.1651 26.0003 22.2807 26.1972 24.3261C26.1284 24.9195 26.1265 25.5007 26.1272 26.0967C26.1511 28.9325 26.0653 31.7747 26.1751 34.6079C25.6044 34.6176 24.9964 34.5822 24.4332 34.6678C22.1267 34.5661 19.8026 34.6266 17.4936 34.6311L13.9472 34.6112C13.81 33.3555 13.5023 32.1249 13.3786 30.8621Z" fill="#F6D028"/>
<path d="M26.0779 18.1319C26.3633 20.1651 26.0015 22.2807 26.1985 24.3261C26.1297 24.9195 26.1278 25.5007 26.1284 26.0967C26.1524 28.9325 26.0666 31.7747 26.1764 34.6079C25.6057 34.6176 24.9976 34.5822 24.4345 34.6678C22.128 34.5661 19.8039 34.6266 17.4949 34.6311L13.9485 34.6112C13.8112 33.3555 13.5036 32.1249 13.3799 30.8621C15.4356 29.2376 17.2097 27.3273 19.0379 25.4492L26.0779 18.1319Z" fill="#ECB411"/>
<path d="M17.4976 34.6311C20.1804 31.6196 23.0797 28.7175 26.1311 26.0967C26.1551 28.9325 26.0693 31.7747 26.1791 34.6079C25.6084 34.6176 25.0003 34.5822 24.4372 34.6678C22.1307 34.5661 19.8066 34.6266 17.4976 34.6311Z" fill="#F29822"/>
</svg>
