<svg width="50" height="48" viewBox="0 0 50 48" fill="none" xmlns="http://www.w3.org/2000/svg">
<path d="M38.7147 37.1825C38.8445 35.6034 38.4258 33.2586 38.8687 31.8249L38.8734 38.9L43.1636 38.8663C42.1321 40.0156 35.7858 46.9684 34.9884 47.2155C34.8221 45.8758 34.9406 44.4043 34.9512 43.0545C34.9701 40.5454 34.9972 38.0374 34.9778 35.5283C36.3296 35.9291 37.4862 36.492 38.7147 37.1825Z" fill="#D11794"/>
<path d="M30.6419 36.2513L30.7581 36.3838C30.9198 36.4204 34.0091 35.549 34.974 35.5283C34.9935 38.0374 34.9664 40.5454 34.9475 43.0545C34.9369 44.4043 34.8183 45.8758 34.9847 47.2155C32.1902 44.4604 29.4647 41.6397 26.7876 38.7705C28.0734 38.8048 29.3615 38.7995 30.6473 38.8084C30.6461 37.9422 30.5906 37.0773 30.5446 36.2129L30.6419 36.2513Z" fill="#C438A3"/>
<mask id="mask0_8277_7459" style="mask-type:luminance" maskUnits="userSpaceOnUse" x="15" y="28" width="8" height="17">
<path d="M15.0713 28.3783L18.8254 28.399C18.7988 29.4892 18.741 30.5895 18.7717 31.6791L18.7587 38.9162L22.4721 38.8293C20.5712 40.8193 18.7286 42.8596 16.8549 44.8745C16.3075 43.7932 15.6116 42.6232 15.3532 41.4336C15.0105 39.8533 15.1545 38.0105 15.1421 36.3935L15.0713 28.3783Z" fill="white"/>
</mask>
<g mask="url(#mask0_8277_7459)">
<path d="M15.0713 28.3783L18.8254 28.399C18.7988 29.4892 18.741 30.5895 18.7717 31.6791L18.7587 38.9162L22.4721 38.8293C20.5712 40.8193 18.7286 42.8596 16.8549 44.8745C16.3075 43.7932 15.6116 42.6232 15.3532 41.4336C15.0105 39.8533 15.1545 38.0105 15.1421 36.3935L15.0713 28.3783Z" fill="url(#paint0_linear_8277_7459)"/>
</g>
<path d="M31.4581 28.3996C33.9329 28.3854 36.4154 28.4298 38.8896 28.3795C38.8707 29.3799 38.6696 30.852 38.9651 31.7915L38.869 31.8234C38.426 33.2571 38.8448 35.6019 38.715 37.181C37.4865 36.4905 36.3299 35.9276 34.9781 35.5268C34.0131 35.5475 30.9238 36.4189 30.7622 36.3823L30.646 36.2499L30.5486 36.2114L30.5327 31.2422C30.5333 30.2998 30.5982 29.2953 30.4419 28.3677L31.4581 28.3996Z" fill="#E90B7C"/>
<path d="M30.4419 28.3693L31.4581 28.4012C32.6118 28.5337 33.7926 28.5047 34.9533 28.5041C34.9385 29.9556 34.8884 31.4159 34.9356 32.8661C33.4741 32.9873 32.0214 33.2084 30.6106 33.617C30.6359 34.489 30.7014 35.3818 30.646 36.2515L30.5486 36.213L30.5327 31.2438C30.5333 30.3014 30.5982 29.2969 30.4419 28.3693Z" fill="#EE2276"/>
<mask id="mask1_8277_7459" style="mask-type:luminance" maskUnits="userSpaceOnUse" x="6" y="28" width="11" height="21">
<path d="M10.7338 28.3652L15.0753 28.3776L15.1461 36.3928C15.1585 38.0098 15.0146 39.8526 15.3573 41.4329C15.6156 42.6225 16.3116 43.7925 16.8589 44.8738C15.9642 45.902 15.0948 46.8993 14.2897 48.0026C11.9565 44.7775 9.02163 42.0614 6.62939 38.9078L10.7657 38.9392C10.7385 36.6494 10.7863 34.3548 10.7775 32.0639C10.7881 30.8324 10.7515 29.5973 10.7338 28.3652Z" fill="white"/>
</mask>
<g mask="url(#mask1_8277_7459)">
<path d="M10.7338 28.3652L15.0753 28.3776L15.1461 36.3928C15.1585 38.0098 15.0146 39.8526 15.3573 41.4329C15.6156 42.6225 16.3116 43.7925 16.8589 44.8738C15.9642 45.902 15.0948 46.8993 14.2897 48.0026C11.9565 44.7775 9.02163 42.0614 6.62939 38.9078L10.7657 38.9392C10.7385 36.6494 10.7863 34.3548 10.7775 32.0639C10.7881 30.8324 10.7515 29.5973 10.7338 28.3652Z" fill="url(#paint1_linear_8277_7459)"/>
</g>
<path d="M43.7962 13.567C46.0752 14.3663 48.0511 15.9798 49.1257 18.1714C50.2074 20.3785 50.254 22.8226 49.4359 25.1212C48.5264 27.6794 46.576 29.7919 44.113 30.924C42.3925 31.7145 40.8295 31.7784 38.9669 31.7908C38.6715 30.8513 38.8726 29.3792 38.8915 28.3788C39.6635 27.6901 40.3842 26.9516 41.0094 26.1251C42.9882 23.509 44.2999 19.8948 44.1985 16.5899C44.1678 15.5872 43.9319 14.5626 43.7962 13.567Z" fill="#333494"/>
<path d="M14.0697 8.6382C15.0735 6.52522 16.722 4.57601 18.575 3.16539C21.9445 0.601324 25.8169 -0.427963 30.0221 0.163836C34.3092 0.921762 38.0849 3.14174 40.5862 6.75343C41.426 7.966 42.1013 9.29385 42.5826 10.6891C42.7453 11.1609 43.114 13.1172 43.3275 13.3572C43.4059 13.4453 43.5362 13.4666 43.6406 13.5216L43.7928 13.5695C43.9284 14.5651 44.1644 15.5896 44.195 16.5923C44.2965 19.8972 42.9848 23.5112 41.0061 26.1273C40.3809 26.9538 39.6602 27.6922 38.8882 28.381C36.4141 28.4312 33.9317 28.3869 31.457 28.4011L30.4408 28.3692C30.5971 29.2968 30.5322 30.3012 30.5316 31.2436C26.7706 32.215 22.628 31.6711 18.7779 31.6787C18.7473 30.5892 18.8051 29.4889 18.8316 28.3987L15.0777 28.378L10.7363 28.3656C10.754 29.5977 10.7906 30.8327 10.78 32.0642C10.2214 32.0151 9.65937 31.9702 9.1038 31.8904C6.44154 31.5097 4.13609 30.0346 2.53661 27.8861C0.536085 25.1997 -0.352708 21.6732 0.127962 18.3582C0.567936 15.3236 2.23878 12.3421 4.71821 10.5206C7.55504 8.436 10.6879 8.12976 14.0697 8.6382Z" fill="#5C44A4"/>
<path d="M30.0229 0.162857C34.3102 0.920801 38.0861 3.14083 40.5875 6.75259C41.4273 7.96518 42.1027 9.29306 42.5839 10.6883C42.7467 11.1601 43.1154 13.1165 43.3289 13.3565C43.4073 13.4446 43.5377 13.4659 43.642 13.5209C43.0056 14.1677 43.1796 15.1698 43.1696 16.0217C42.394 17.3839 41.2156 18.1744 39.9528 19.0417C40.177 16.594 40.1044 14.105 39.2498 11.7762C38.0313 8.4553 35.6266 6.3139 32.4771 4.86187C31.9876 2.57148 30.4405 1.67047 30.0229 0.162857Z" fill="#333494"/>
<path d="M21.9387 14.232H31.5961C29.8957 16.2096 28.2726 18.2328 26.6666 20.2879C28.817 20.2701 30.9739 20.2163 33.1231 20.2808C30.6312 22.8396 24.2962 29.884 21.714 31.2869L21.7783 23.4426C20.0744 23.4426 18.3545 23.4929 16.6523 23.4296C16.8747 22.5357 21.228 15.4464 21.9387 14.232Z" fill="#F29822"/>
<path d="M14.0697 8.6382C15.0735 6.52522 16.722 4.57601 18.575 3.16539C21.9445 0.601324 25.8169 -0.427963 30.0221 0.163836C30.4396 1.67142 31.9866 2.57241 32.4761 4.86275C29.1291 3.49528 25.6748 3.3806 22.3083 4.8196C19.1943 6.1504 16.8971 8.81733 15.4074 11.8006C13.2028 10.6069 11.0088 10.0642 8.54646 10.8067C6.415 11.45 4.66631 12.886 3.6283 14.8601C2.73302 16.5627 2.44344 18.5723 3.02437 20.4292C3.65779 22.4535 5.15229 23.8523 7.00301 24.7616C8.97405 25.7306 11.8132 25.9629 13.8857 25.1855C14.9497 24.7859 15.6615 23.8937 16.6506 23.4326C18.3527 23.4958 20.0725 23.4456 21.7764 23.4456L21.7121 31.2897C24.2941 29.8868 30.6289 22.8426 33.1208 20.2838C33.6516 19.9764 34.4902 20.0101 35.0759 20.1455L35.1596 20.2909C34.7745 20.9601 34.1169 21.5514 33.6386 22.1709C30.7546 25.9032 29.447 27.7206 25.2578 30.1647C24.7276 30.4739 23.9975 31.0657 23.4224 31.2306C23.1812 31.2998 23.2868 31.2891 23.0167 31.1969L23.0721 30.8824C24.0506 30.4325 24.8462 29.9093 25.7532 29.3482C26.4692 28.9054 27.2348 28.5365 27.9266 28.0535C30.0315 26.5849 31.5425 24.5109 33.0966 22.505C33.5035 21.9806 34.3611 21.2203 34.5793 20.6338C34.6595 20.4174 34.6441 20.5167 34.558 20.2619C34.17 20.149 33.8827 20.204 33.5283 20.4056C32.7757 20.8342 31.9371 21.8901 31.3202 22.518C28.9292 24.9526 26.619 27.4167 24.1042 29.7272C23.6489 30.1452 23.1458 30.7736 22.6557 31.1153C22.3998 31.2945 22.0312 31.4074 21.738 31.5138C23.1883 31.6799 29.0908 31.7692 30.153 31.0219C30.2633 30.9451 30.2945 30.8771 30.36 30.773C30.2792 29.9903 30.2533 29.2187 30.2745 28.4318L30.3977 28.352L30.4408 28.3692C30.5971 29.2968 30.5322 30.3012 30.5316 31.2436C26.7706 32.215 22.628 31.6711 18.7779 31.6787C18.7473 30.5892 18.8051 29.4889 18.8316 28.3987L15.0777 28.378L10.7363 28.3656C10.754 29.5977 10.7906 30.8327 10.78 32.0642C10.2214 32.0151 9.65937 31.9702 9.1038 31.8904C6.44154 31.5097 4.13609 30.0346 2.53661 27.8861C0.536085 25.1997 -0.352708 21.6732 0.127962 18.3582C0.567936 15.3236 2.23878 12.3421 4.71821 10.5206C7.55504 8.436 10.6879 8.12976 14.0697 8.6382Z" fill="#4441A1"/>
<defs>
<linearGradient id="paint0_linear_8277_7459" x1="20.7163" y1="34.929" x2="13.9851" y2="37.3211" gradientUnits="userSpaceOnUse">
<stop stop-color="#3FBB68"/>
<stop offset="1" stop-color="#3AAF83"/>
</linearGradient>
<linearGradient id="paint1_linear_8277_7459" x1="7.53415" y1="36.8457" x2="17.5822" y2="38.7265" gradientUnits="userSpaceOnUse">
<stop stop-color="#52C279"/>
<stop offset="1" stop-color="#53C49B"/>
</linearGradient>
</defs>
</svg>
