<svg width="80" height="80" viewBox="0 0 80 80" fill="none" xmlns="http://www.w3.org/2000/svg">
<circle opacity="0.2" cx="29.9998" cy="30" r="30" fill="url(#paint0_linear_8175_30890)"/>
<path d="M43.9333 80C36.0757 79.6004 28.6378 77.2907 22.4959 72.2138C15.3947 66.3435 10.96 57.7069 10.1441 48.5303C9.33066 39.3773 11.9618 29.6878 17.8869 22.5968C23.8018 15.5184 32.2307 10.9033 41.447 10.125C51.0185 9.31732 60.3689 12.4531 67.6518 18.6827C74.4061 24.4615 79.1718 33.1192 79.8478 42.0589C76.3077 39.0675 73.483 35.4272 70.159 32.2334C69.4252 31.5282 68.8857 30.9892 67.821 31.0043C65.1219 28.9457 62.7111 29.4251 59.5429 29.4544C58.0635 29.5124 56.595 29.5434 55.114 29.5132L53.8474 30.0505C51.2506 31.8984 48.1628 33.0738 45.3649 34.5876C42.7455 36.0056 40.2843 38.0668 38.1172 40.1002L37.8667 40.054C38.1147 39.4966 38.8376 38.929 39.2707 38.4832C38.97 38.1826 38.6826 37.9022 38.3074 37.6948C34.8175 35.7655 24.3756 35.8688 20.6437 36.9166C20.3631 37.3834 20.4125 38.3522 20.2894 38.9307L20.2559 39.0776C20.0984 41.4301 20.1905 43.8279 20.1981 46.1863L20.2441 58.4398C20.286 60.5371 20.7484 62.5285 22.3007 64.0498C23.7474 65.467 25.3105 65.7222 27.2347 65.7264L38.4916 75.4243C40.0942 76.8012 41.9153 78.1042 43.3905 79.6029C43.7071 79.9253 43.5379 79.801 43.9333 80Z" fill="#4441A1"/>
<path d="M28.7319 30.2246C28.3432 30.1574 27.9578 30.0844 27.5724 30.0021L27.4995 29.7771C27.6109 29.6411 27.6227 29.6083 27.7952 29.5017C28.716 28.9283 31.6264 28.5723 32.6594 28.8519L32.8546 29.2347C32.8353 29.4816 32.9024 29.9039 32.6829 30.0558C31.856 30.6259 29.7397 30.2422 28.7319 30.2246Z" fill="#333494"/>
<path d="M54.8198 25.5785C55.929 25.5827 56.4041 26.0529 57.1606 26.8152C57.995 27.6556 58.7599 28.5783 59.55 29.4607C58.0704 29.5187 56.6018 29.5497 55.1206 29.5195C55.3225 29.0762 55.4892 28.5716 55.5772 28.0922C55.7615 27.0982 55.3669 26.3703 54.8198 25.5785Z" fill="#282B6B"/>
<path d="M32.9136 29.2515C33.02 28.5572 33.242 27.9166 33.6047 27.3113C34.1877 26.3399 35.1419 25.3987 36.2896 25.1737C38.1384 24.8093 51.2303 24.7304 53.4101 24.968C53.9655 25.0293 54.3609 25.2602 54.8107 25.5767C55.3578 26.3684 55.7523 27.0963 55.568 28.0904C55.4801 28.5698 55.3134 29.0744 55.1115 29.5177L53.8448 30.055C50.9354 29.8384 33.9281 30.5058 32.968 29.9341L32.9136 29.2515Z" fill="white"/>
<path d="M32.8542 29.2274L32.9229 29.2484L32.9773 29.931C33.9373 30.5027 50.9441 29.8353 53.8533 30.0519C51.2565 31.8998 48.1688 33.0752 45.3709 34.5889C42.7515 36.007 40.2903 38.0681 38.1232 40.1016L37.8727 40.0554C38.1207 39.4979 38.8436 38.9304 39.2767 38.4846C38.976 38.184 38.6887 37.9036 38.3134 37.6962C34.8236 35.7669 24.3818 35.8701 20.6499 36.9179C20.3692 37.3847 20.4187 38.3536 20.2955 38.932L20.262 39.079C20.2159 38.2595 20.2042 37.4334 20.1958 36.6123C20.1774 34.8601 20.484 33.0735 21.7975 31.8049C23.7032 29.9646 26.2959 30.1678 28.7319 30.2173C29.7396 30.2349 31.8556 30.6186 32.6824 30.0485C32.9019 29.8966 32.8349 29.4743 32.8542 29.2274Z" fill="#A4E1EA"/>
<mask id="mask0_8175_30890" style="mask-type:luminance" maskUnits="userSpaceOnUse" x="20" y="29" width="60" height="51">
<path d="M59.5342 29.4544C62.7024 29.425 65.1132 28.9456 67.8123 31.0042C68.877 30.9891 69.4165 31.5281 70.1503 32.2334C73.4743 35.4271 76.299 39.0675 79.8391 42.0589C80.6374 51.1707 78.131 60.1155 72.2311 67.2057C66.2056 74.4453 57.383 78.9866 48.0377 79.801C46.6756 79.9193 45.2901 80.0025 43.9246 79.9999C43.5292 79.801 43.6984 79.9252 43.3818 79.6028C41.9066 78.1042 40.0855 76.8012 38.483 75.4243L27.226 65.7264C25.3018 65.7222 23.7387 65.467 22.292 64.0498C20.7397 62.5285 20.2773 60.537 20.2354 58.4398L20.1894 46.1862C20.1818 43.8279 20.0897 41.43 20.2472 39.0776L20.2807 38.9306C20.4038 38.3522 20.3544 37.3833 20.635 36.9165C24.3669 35.8687 34.8088 35.7654 38.2987 37.6948C38.6739 37.9022 38.9613 38.1826 39.262 38.4831C38.8289 38.929 38.106 39.4965 37.858 40.054L38.1085 40.1002C40.2756 38.0667 42.7368 36.0056 45.3562 34.5875C48.1541 33.0738 51.2419 31.8984 53.8387 30.0505L55.1053 29.5132C56.5864 29.5434 58.0548 29.5123 59.5342 29.4544Z" fill="white"/>
</mask>
<g mask="url(#mask0_8175_30890)">
<path d="M59.5342 29.4544C62.7024 29.425 65.1132 28.9456 67.8123 31.0042C68.877 30.9891 69.4165 31.5281 70.1503 32.2334C73.4743 35.4271 76.299 39.0675 79.8391 42.0589C80.6374 51.1707 78.131 60.1155 72.2311 67.2057C66.2056 74.4453 57.383 78.9866 48.0377 79.801C46.6756 79.9193 45.2901 80.0025 43.9246 79.9999C43.5292 79.801 43.6984 79.9252 43.3818 79.6028C41.9066 78.1042 40.0855 76.8012 38.483 75.4243L27.226 65.7264C25.3018 65.7222 23.7387 65.467 22.292 64.0498C20.7397 62.5285 20.2773 60.537 20.2354 58.4398L20.1894 46.1862C20.1818 43.8279 20.0897 41.43 20.2472 39.0776L20.2807 38.9306C20.4038 38.3522 20.3544 37.3833 20.635 36.9165C24.3669 35.8687 34.8088 35.7654 38.2987 37.6948C38.6739 37.9022 38.9613 38.1826 39.262 38.4831C38.8289 38.929 38.106 39.4965 37.858 40.054L38.1085 40.1002C40.2756 38.0667 42.7368 36.0056 45.3562 34.5875C48.1541 33.0738 51.2419 31.8984 53.8387 30.0505L55.1053 29.5132C56.5864 29.5434 58.0548 29.5123 59.5342 29.4544Z" fill="url(#paint1_linear_8175_30890)"/>
</g>
<path d="M29.4763 54.7046C35.3653 54.5938 41.266 54.6542 47.1557 54.6576C50.4236 54.6584 53.9142 54.4141 57.1569 54.7743C57.4786 55.1647 57.3965 55.4107 57.4065 55.9069C52.5102 56.0739 47.5704 55.9472 42.6682 55.953C38.3985 55.9589 34.0518 56.1285 29.7913 55.8834C29.4143 55.5366 29.5123 55.1974 29.4763 54.7046Z" fill="white"/>
<path d="M29.2026 50.1612C36.338 50.2191 43.476 50.0579 50.6123 50.0806C52.9662 50.089 55.4122 49.9546 57.7561 50.0764C58.3089 50.1058 58.995 50.2569 59.4432 50.6053C59.5781 50.7094 59.6099 50.785 59.6895 50.9176C59.4842 51.2501 59.4398 51.2879 59.0327 51.3744C57.4034 51.7169 30.9676 51.7471 29.1951 51.3584L29.2026 50.1612Z" fill="white"/>
<path d="M20.2631 39.0753L20.2966 38.9284C20.4197 38.3499 20.3703 37.3811 20.6509 36.9143C24.383 35.8665 34.8253 35.7632 38.3153 37.6925C38.6906 37.8999 38.9779 38.1803 39.2787 38.4809C38.8456 38.9267 38.1226 39.4942 37.8746 40.0517L38.1251 40.0979C37.8847 40.4043 37.4172 40.8099 37.4524 41.1961C43.0903 41.8064 49.0005 40.6638 54.6376 41.3027C55.9512 41.3212 58.079 41.0273 59.2736 41.5109L59.54 41.8106C59.4914 42.0608 59.5358 42.149 59.3063 42.306C58.332 42.9718 38.4828 42.6746 35.658 42.6779C34.9183 43.5057 34.3067 44.5703 33.7982 45.5534C39.938 45.8716 46.2142 45.5946 52.3673 45.587C54.5346 45.5845 57.2069 45.2907 59.3071 45.6987C59.2811 46.189 59.3532 46.55 59.0533 46.9522C55.8523 47.2133 52.5156 47.0202 49.2946 47.0126L31.7533 46.9857C31.0656 47.8606 30.191 49.2156 29.2326 49.7731L29.1271 50.1031L29.1991 50.1585L29.1916 51.3557L28.8975 50.9964C28.8866 51.0501 28.8774 51.1038 28.8665 51.1584C28.6847 52.0316 28.4225 52.6235 27.7113 53.1767C25.2651 55.0817 22.803 56.6929 20.2513 58.4375L20.2052 46.184C20.1977 43.8256 20.1056 41.4278 20.2631 39.0753Z" fill="#68CCCC"/>
<path d="M31.7531 46.9833C31.1616 46.9891 29.9453 47.1512 29.4419 46.8901C29.2467 46.7893 29.2735 46.5492 29.2341 46.3519L29.3916 46.1143C31.5051 45.242 54.7007 45.9993 59.3055 45.6962C59.2795 46.1865 59.3516 46.5475 59.0517 46.9497C55.8509 47.2108 52.5143 47.0177 49.2934 47.0101L31.7531 46.9833Z" fill="white"/>
<path d="M54.636 41.3036C55.9495 41.3221 58.0773 41.0282 59.2718 41.5118L59.5382 41.8115C59.4896 42.0617 59.534 42.1499 59.3045 42.3069C58.3303 42.9727 38.4821 42.6755 35.6574 42.6788C34.178 42.6729 30.4268 43.1196 29.2976 42.3128C29.0572 42.1415 29.1351 42.1574 29.0857 41.8224L29.2993 41.5546C31.5351 41.1365 34.3363 41.4203 36.6375 41.4211C42.6119 41.4245 48.6717 41.6226 54.636 41.3036Z" fill="white"/>
<path d="M67.8288 31.0042C68.8935 30.9891 69.433 31.5281 70.1668 32.2334C73.4908 35.4271 76.3156 39.0675 79.8557 42.0589C80.6541 51.1707 78.1477 60.1155 72.2477 67.2057C66.222 74.4453 57.3993 78.9866 48.0538 79.801C46.6917 79.9193 45.3061 80.0025 43.9406 79.9999C43.5452 79.801 43.7144 79.9252 43.3978 79.6028C41.9226 78.1042 40.1014 76.8012 38.4989 75.4243L27.2417 65.7264L53.1278 65.7373C56.3161 65.739 61.8056 66.079 64.746 65.5988C65.68 65.446 66.5311 64.9599 67.2558 64.3629C68.6882 63.18 69.2286 61.8442 69.3886 60.0207C69.7144 56.3098 69.3693 52.347 69.3743 48.6101L69.4145 39.8147C69.4254 37.8341 69.5871 35.7319 69.2319 33.7773C69.0191 32.6045 68.5978 31.9017 67.8288 31.0042Z" fill="#282B6B"/>
<defs>
<linearGradient id="paint0_linear_8175_30890" x1="0.661521" y1="30" x2="59.9998" y2="30" gradientUnits="userSpaceOnUse">
<stop stop-color="#202CD3"/>
<stop offset="1" stop-color="#0778F9"/>
</linearGradient>
<linearGradient id="paint1_linear_8175_30890" x1="50.5206" y1="29.1471" x2="49.3613" y2="66.0886" gradientUnits="userSpaceOnUse">
<stop stop-color="#6DCECF"/>
<stop offset="1" stop-color="#56B8EB"/>
</linearGradient>
</defs>
</svg>
