<svg width="52" height="48" viewBox="0 0 52 48" fill="none" xmlns="http://www.w3.org/2000/svg">
<path d="M14.0911 9.73834C14.7251 8.19681 15.474 6.77174 16.5116 5.46313C18.922 2.42129 22.6234 0.465961 26.4598 0.0760574C30.4765 -0.331936 34.4938 0.910126 37.5993 3.50057C41.2347 6.53374 42.7626 10.4639 43.1841 15.1102C43.8598 15.1341 44.5455 15.1739 45.2161 15.2679C47.2079 15.5471 49.1509 16.842 50.3342 18.4638C51.7724 20.4343 52.2585 22.8244 51.8729 25.2203C51.5161 27.436 50.4017 29.4072 48.5478 30.7006C47.8664 31.1759 47.1038 31.5521 46.2968 31.7517C44.9677 32.0801 39.2881 32.2769 37.9102 31.9507C37.4062 31.8313 37.32 31.589 37.0593 31.1824L37.2238 31.0363C37.7127 30.6153 38.1996 30.2059 38.7216 29.8268C40.4427 30.3317 44.2913 29.6011 46.5954 30.1313C47.1498 29.9686 47.638 29.7675 48.1105 29.4268C49.7763 28.2267 50.4455 26.4044 50.7729 24.4542C50.76 22.313 50.266 20.3707 48.8077 18.7431C46.9537 16.672 44.6719 16.2546 42.0518 16.0976C41.7725 13.3697 41.3589 10.9059 40.0061 8.48181C38.2053 5.25695 35.1343 2.77502 31.5801 1.79917C28.0818 0.839237 24.328 1.34199 21.2039 3.19386C17.7724 5.22802 15.996 8.2525 15.0224 12.0546C14.7316 14.9026 15.0152 17.6623 16.8742 19.9721C18.0187 21.3935 19.4878 22.2674 21.0653 23.1239C20.2137 23.5543 19.4261 24.0578 18.6262 24.5793C17.6532 24.073 16.3112 23.1224 15.1552 23.5029C13.9109 23.9131 12.7247 27.0671 12.0907 28.2274C12.0785 29.0108 12.1654 29.3537 12.6666 29.9802C13.2151 30.2789 14.845 30.8829 15.0963 31.3575C13.5224 31.6722 7.52116 31.5716 5.97022 31.3278C5.11218 31.1933 4.30295 30.9582 3.53179 30.5509C1.97727 29.7291 0.867915 28.3337 0.354526 26.6482C-0.240718 24.6936 -0.097107 22.3824 0.866485 20.5754C1.86598 18.7018 3.41118 17.7325 5.35847 17.0974C4.91186 15.1023 4.70435 13.1976 5.75698 11.3305C6.48434 10.0414 7.67268 9.09742 9.10514 8.73862C10.9332 8.27999 12.5237 8.83049 14.0911 9.73834Z" fill="#842394"/>
<path d="M38.7244 29.8277C40.4455 30.3326 44.2941 29.602 46.5982 30.1322C43.8985 31.286 40.1396 31.0256 37.2266 31.0372C37.7155 30.6162 38.2024 30.2068 38.7244 29.8277Z" fill="#AD33A0"/>
<path d="M1.45703 24.9344C6.05815 27.3353 6.86234 27.6977 12.0946 28.228C12.0824 29.0114 12.1693 29.3543 12.6705 29.9807C12.6331 29.9945 12.5972 30.0126 12.5592 30.0234C10.8287 30.5334 5.54693 30.0864 4.04123 29.159C2.47521 28.194 1.82825 26.6647 1.45703 24.9344Z" fill="#AD33A0"/>
<path d="M1.45703 24.934C1.53027 17.7355 6.00431 19.5643 7.37287 17.7891C7.27522 17.6169 7.179 17.4447 7.08709 17.269C6.33819 15.8388 6.09765 14.4767 6.62971 12.9149C7.0117 11.7936 7.73619 10.9212 8.82112 10.4402C11.5259 9.23937 12.5463 11.2091 14.7851 11.9759C14.8648 12.0034 14.9459 12.0287 15.0263 12.0548C14.7355 14.9028 15.0191 17.6625 16.8781 19.9723C18.0226 21.3937 19.4917 22.2676 21.0692 23.124C20.2176 23.5545 19.43 24.0579 18.6301 24.5795C17.6572 24.0731 16.3152 23.1226 15.1591 23.5031C13.9148 23.9133 12.7286 27.0672 12.0946 28.2275C6.86234 27.6973 6.05815 27.3349 1.45703 24.934Z" fill="#E133A2"/>
<path d="M22.2553 22.5688C22.2618 22.5268 22.2697 22.4848 22.2754 22.4429C22.424 21.399 22.0801 20.1946 22.4377 19.2253C23.593 18.6212 28.2882 18.6444 29.5777 19.0321C29.7917 19.0965 29.8082 19.1153 29.9755 19.2101C30.3108 20.1671 30.1407 21.5546 30.1335 22.5796L32.5899 24.26C33.3072 23.648 34.4977 22.1883 35.4979 22.372C35.9912 22.4624 36.3688 22.8625 36.7235 23.1887C37.5773 24.4112 39.8204 27.1789 39.4398 28.7696C39.34 29.1841 39.0026 29.5249 38.7218 29.8272C38.1998 30.2063 37.713 30.6157 37.224 31.0367L37.0596 31.1828C36.585 31.9692 36.8636 34.2377 36.8765 35.2042C37.9341 35.7395 39.0471 36.2379 40.043 36.8803C39.3049 38.4095 37.4538 42.1255 36.2489 43.1889C36.0751 43.3538 35.9208 43.4739 35.6788 43.5289C34.8028 43.7257 33.0357 42.3491 32.2316 41.923C31.3785 42.5364 30.5457 43.2222 29.5476 43.5745C29.4478 44.5944 29.5899 46.1967 29.1017 47.0771C28.8877 47.4641 28.6938 47.5965 28.2795 47.7195C26.8464 48.1455 23.8414 48.1325 22.5468 47.3571C21.8705 46.4167 22.0112 44.967 21.9674 43.84C20.7762 43.3625 19.8427 42.9798 18.9258 42.0358C18.2143 42.425 16.3215 43.6605 15.5317 43.3784C14.5595 43.0319 13.117 40.0559 12.6776 39.164C12.46 38.722 12.0048 37.9024 12.2051 37.4307C12.6618 36.3572 14.0583 35.8798 15.0456 35.4436C15.0363 34.0815 15.0075 32.7179 15.0966 31.3579C14.8453 30.8834 13.2154 30.2793 12.6668 29.9806C12.1656 29.3541 12.0787 29.0112 12.0909 28.2278C12.7249 27.0675 13.9111 23.9135 15.1555 23.5034C16.3115 23.1229 17.6535 24.0734 18.6264 24.5798C19.4263 24.0582 20.214 23.5547 21.0655 23.1243L22.2553 22.5688Z" fill="#452B90"/>
<path d="M26.5118 40.3567C28.3952 39.7954 29.5039 39.0011 30.9686 37.7164C31.5847 38.3819 32.2719 39.0402 32.8204 39.7607C31.3126 40.7235 30.0309 41.8874 28.4512 42.7757C28.0836 43.931 27.8337 45.092 27.6313 46.287C26.7093 46.4281 25.7637 46.4766 24.8489 46.6321L23.7539 46.6733C24.077 44.3947 26.0379 42.6014 26.5118 40.3567Z" fill="#58359A"/>
<path d="M22.2553 22.5688C22.3163 22.9782 22.363 23.1873 22.1246 23.5453C21.4116 24.6131 19.8083 25.3965 18.7355 26.0642C17.7777 25.5621 16.8321 25.0189 16.0236 24.2882C15.4477 25.2019 13.4315 27.7974 13.7567 28.7544C14.0813 29.7115 15.3105 30.1144 16.1377 30.5144C16.1664 32.443 16.2268 34.3766 16.2224 36.3044L13.3798 37.8518C14.2428 39.4005 15.1382 40.9696 16.0889 42.4648C17.0848 41.8521 17.9845 41.1591 18.8978 40.427C20.9176 42.2803 23.5944 42.943 23.743 46.0709C23.7524 46.272 23.7524 46.4716 23.751 46.6735L24.8459 46.6322C25.1008 46.6597 25.3349 46.6691 25.5898 46.6489L25.849 46.6272L25.8648 46.7566C25.4986 46.9954 25.1109 47.1907 24.7232 47.3911L24.7196 47.5625C25.5668 47.8113 27.5658 47.781 28.3729 47.4424C29.4722 46.9809 28.9322 44.5438 29.3042 43.5817C30.0143 43.0855 31.1473 42.0554 31.9365 41.8138C33.0889 41.46 34.4438 43.2735 35.5819 43.3944C35.7406 43.2287 35.859 43.147 36.0515 43.0298L36.2489 43.1889C36.0751 43.3538 35.9208 43.4739 35.6788 43.5289C34.8028 43.7257 33.0357 42.3491 32.2316 41.923C31.3785 42.5364 30.5456 43.2222 29.5476 43.5745C29.4478 44.5944 29.5899 46.1967 29.1017 47.0771C28.8877 47.4641 28.6938 47.5965 28.2795 47.7195C26.8464 48.1455 23.8414 48.1325 22.5468 47.3571C21.8705 46.4167 22.0112 44.967 21.9674 43.84C20.7762 43.3625 19.8427 42.9798 18.9258 42.0358C18.2143 42.425 16.3215 43.6605 15.5317 43.3784C14.5595 43.0319 13.117 40.0559 12.6776 39.164C12.46 38.722 12.0048 37.9024 12.2051 37.4307C12.6618 36.3572 14.0583 35.8798 15.0456 35.4436C15.0363 34.0815 15.0075 32.7179 15.0966 31.3579C14.8453 30.8834 13.2154 30.2793 12.6668 29.9806C12.1656 29.3541 12.0787 29.0112 12.0909 28.2278C12.7249 27.0675 13.9111 23.9135 15.1554 23.5034C16.3115 23.1229 17.6535 24.0734 18.6264 24.5798C19.4263 24.0582 20.214 23.5547 21.0655 23.1243L22.2553 22.5688Z" fill="#2D2F87"/>
<path d="M23.7349 27.8321C25.5372 27.3496 27.3114 27.3511 28.9507 28.3493C30.4758 29.2774 31.5054 30.8899 31.9011 32.6224C32.2651 34.2167 32.0655 36.1069 31.1335 37.4806C31.0789 37.5602 31.0229 37.6376 30.9676 37.7165C29.5028 39.0012 28.3942 39.7955 26.5108 40.3568C25.7145 40.4198 24.8831 40.3915 24.1069 40.1926C22.5574 39.7955 21.2061 38.7849 20.4162 37.3801C19.505 35.7604 19.3686 33.5657 19.8856 31.7926C20.5282 29.5885 21.8666 28.8239 23.7349 27.8321Z" fill="#2D2F87"/>
<path d="M25.207 28.6574C26.684 28.601 27.9047 28.9598 29.0176 29.9769C30.1399 31.0019 30.8134 32.4942 30.8213 34.022C30.8285 35.4297 30.2899 36.6364 29.3343 37.644C29.0592 36.9756 29.004 36.1134 28.828 35.4052C28.1732 32.7771 27.1443 30.5548 25.207 28.6574Z" fill="#62C9AF"/>
<path d="M29.3355 37.6438C28.7941 38.2984 27.9045 38.778 27.1075 39.0392C25.9256 39.4262 24.5154 39.2678 23.4247 38.6775C22.1294 37.9758 21.2154 36.7308 20.8405 35.3058C20.4722 33.9082 20.6065 32.3601 21.3841 31.1239C22.2766 29.7067 23.6437 29.0282 25.2083 28.6571C27.1455 30.5546 28.1745 32.7768 28.8293 35.4049C29.0052 36.1131 29.0605 36.9753 29.3355 37.6438Z" fill="#58B1E7"/>
<path d="M23.4727 20.2308L29.1235 20.2489C29.1128 21.3716 29.1207 22.4979 29.0898 23.6199C30.3054 24.2753 31.3523 25.0218 32.4027 25.921C33.3929 25.3625 34.3587 24.6637 35.3754 24.1725C36.4574 25.4037 37.4512 26.8708 38.1304 28.3689C37.3076 29.1531 36.484 29.9365 35.6841 30.7452C35.6848 32.3859 35.6684 34.0287 35.6942 35.6686C36.6901 36.6503 37.3923 37.0445 38.7975 37.1436C37.7126 38.8414 36.5874 40.6933 35.2899 42.229C34.4183 41.4398 33.6004 40.6405 32.8178 39.7608C32.2692 39.0403 31.5821 38.382 30.966 37.7165C31.0213 37.6377 31.0773 37.5603 31.1318 37.4807C32.0638 36.107 32.2635 34.2168 31.8994 32.6224C31.5038 30.8899 30.4741 29.2775 28.949 28.3494C27.3098 27.3511 25.5356 27.3497 23.7333 27.8322C23.5308 25.3039 23.5653 22.7641 23.4727 20.2308Z" fill="#7F53AF"/>
<path d="M15.0237 12.0551C15.9974 8.253 17.7738 5.22851 21.2053 3.19435C24.3294 1.34248 28.0832 0.839733 31.5814 1.79967C35.1357 2.77552 38.2067 5.25745 40.0075 8.48231C41.3602 10.9064 41.7738 13.3702 42.0532 16.0981C44.6732 16.2551 46.9551 16.6725 48.8091 18.7436C50.2674 20.3712 50.7614 22.3135 50.7743 24.4547C50.4469 26.4049 49.7777 28.2272 48.1118 29.4273C47.6394 29.768 47.1511 29.9691 46.5968 30.1318C44.2927 29.6016 40.4441 30.3322 38.7229 29.8273C39.0037 29.5249 39.3412 29.1842 39.441 28.7697C39.8215 27.179 37.5784 24.4113 36.7247 23.1888C36.37 22.8625 35.9923 22.4625 35.499 22.3721C34.4988 22.1883 33.3083 23.6481 32.591 24.2601L30.1346 22.5797C30.1418 21.5546 30.312 20.1672 29.9766 19.2101C29.8093 19.1154 29.7928 19.0966 29.5789 19.0322C28.2893 18.6444 23.5941 18.6213 22.4388 19.2253C22.0812 20.1947 22.4252 21.3991 22.2765 22.443C22.2708 22.4849 22.2629 22.5269 22.2564 22.5688L21.0667 23.1244C19.4892 22.2679 18.0201 21.394 16.8756 19.9726C15.0166 17.6628 14.7329 14.9031 15.0237 12.0551Z" fill="#EE8ACB"/>
</svg>
