<svg width="78" height="73" viewBox="0 0 78 73" fill="none" xmlns="http://www.w3.org/2000/svg">
<circle opacity="0.1" cx="30.0445" cy="30" r="30" fill="#03C343"/>
<path d="M60.9842 29.1722C61.7013 29.1722 62.2809 29.7528 62.2809 30.4699C62.2809 31.186 61.7013 31.7676 60.9842 31.7676C60.2671 31.7676 59.6855 31.186 59.6855 30.4699C59.6855 29.7528 60.2671 29.1722 60.9842 29.1722Z" fill="#03C343"/>
<path d="M55.0939 20.4867C55.2927 20.4867 59.5863 21.5846 59.7861 26.7753C59.7861 27.4746 60.3845 27.9741 61.0838 27.9741C61.7831 27.9741 62.2806 27.3747 62.2806 26.6764C62.1817 22.9822 60.3845 20.7864 58.887 19.6875C57.2907 18.4898 55.7922 18.0902 55.6923 18.0902C54.993 17.8904 54.3946 18.3899 54.1948 18.9883C53.996 19.5886 54.3946 20.2869 55.0939 20.4867Z" fill="#03C343"/>
<path d="M73.462 66.7092C71.3662 66.7092 65.3763 66.7092 63.4792 66.7092V60.4197H73.462V66.7092ZM69.1694 70.4036H67.6729L68.0715 69.1059H68.7708L69.1694 70.4036ZM49.0039 70.4036L49.4025 69.1059H50.1018L50.5004 70.4036H49.0039ZM30.235 70.4036L30.6336 69.1059H31.3329L31.7325 70.4036H30.235ZM26.0423 60.4197H36.0251V66.7092C33.9282 66.7092 28.1381 66.7092 26.0423 66.7092V60.4197ZM32.232 56.7264H48.5045V58.0242H43.5125C42.8142 58.0242 42.2148 58.6234 42.2148 59.3228V68.1071C42.2148 68.8053 42.8142 69.4057 43.5125 69.4057H46.8072L46.3076 70.4036H34.4277L34.0281 69.1059H37.3228C38.0221 69.1059 38.6215 68.5066 38.6215 67.8081V59.0233C38.6215 58.324 38.0221 57.7244 37.3228 57.7244H32.3309V56.7264H32.232ZM44.7113 66.7092V60.4197H54.6941V66.7092C52.5973 66.7092 46.6074 66.7092 44.7113 66.7092ZM68.4711 56.7264V58.0242H62.1815C61.4832 58.0242 60.8829 58.6234 60.8829 59.3228V68.1071C60.8829 68.8053 61.4832 69.4057 62.1815 69.4057H65.4762L65.0766 70.4036H53.0968L52.6972 69.1059H55.9918C56.6901 69.1059 57.2905 68.5066 57.2905 67.8081V59.0233C57.2905 58.324 56.6901 57.7244 55.9918 57.7244H50.9999V56.427H68.4711V56.7264ZM21.7496 39.6549C21.7496 35.2624 24.9434 31.3693 29.4358 30.4702C30.0352 30.3703 30.4348 29.8709 30.4348 29.1726C30.3349 25.1796 33.6296 21.7841 37.8223 21.7841C38.8213 21.7841 39.9182 21.9849 40.8172 22.3845C41.4166 22.6842 42.1149 22.3845 42.4146 21.7841C44.4106 17.7911 48.4045 15.3946 52.897 15.3946C60.0856 15.3946 65.676 21.6852 64.4772 28.773C64.3783 29.5712 64.9767 30.2704 65.7759 30.2704C71.1664 30.1706 75.46 34.4642 75.46 39.6549C75.46 44.8466 71.4661 49.0394 66.4742 49.1391H28.3379C24.5448 48.0402 21.7496 44.0474 21.7496 39.6549ZM74.6608 57.9241H70.8667V55.4287C70.8667 54.7297 70.2683 54.1312 69.569 54.1312H50.9999V51.6345C67.1735 51.6345 66.4742 51.6345 66.5741 51.6345C72.9636 51.4348 77.9555 46.1432 77.9555 39.6549C77.9555 33.5651 73.1624 28.4733 67.1735 27.8749C67.7719 19.888 61.1826 13 52.9969 13C47.9051 13 43.3137 15.6953 40.8172 19.7881C34.7274 17.891 28.5377 22.0848 28.0382 28.2745C22.9474 29.772 19.3531 34.3633 19.3531 39.6549C19.3531 45.2452 22.9474 50.237 27.9393 51.6345C28.239 51.7346 27.0402 51.6345 48.6043 51.6345V54.1312H31.0342C30.3349 54.1312 29.7355 54.7297 29.7355 55.4287V57.9241H24.7436C24.0453 57.9241 23.4469 58.5238 23.4469 59.2219V68.0082C23.4469 68.7064 24.0453 69.3049 24.7436 69.3049H28.0382L27.6396 70.4036H24.8445C24.1452 70.4036 23.5458 71.0021 23.5458 71.7014C23.5458 72.3996 24.1452 73 24.8445 73C27.4398 73 73.1624 73 74.7608 73C75.46 73 76.0584 72.3996 76.0584 71.7014C76.0584 71.0021 75.46 70.4036 74.7608 70.4036H71.9656L71.566 69.1059H74.8597C75.5589 69.1059 76.1583 68.5066 76.1583 67.8081V59.0233C75.9585 58.5238 75.3591 57.9241 74.6608 57.9241Z" fill="#03C343"/>
<path d="M55.9928 45.4443V42.9489C55.9928 42.2506 55.3944 41.6502 54.6951 41.6502C53.9968 41.6502 53.3974 42.2506 53.3974 42.9489V44.2466H37.2248V42.9489C37.2248 42.2506 36.6255 41.6502 35.9262 41.6502C35.2279 41.6502 34.6285 42.2506 34.6285 42.9489V45.4443C34.6285 46.1425 35.2279 46.7429 35.9262 46.7429H54.6951C55.3944 46.7429 55.9928 46.1425 55.9928 45.4443Z" fill="#03C343"/>
<path d="M36.026 40.4536H54.795C55.4933 40.4536 56.0927 39.8552 56.0927 39.1569V36.6605C56.0927 35.9612 55.4933 35.3628 54.795 35.3628C54.0957 35.3628 53.4973 35.9612 53.4973 36.6605V37.9581H37.2248V36.6605C37.2248 35.9612 36.6255 35.3628 35.9262 35.3628C35.2279 35.3628 34.6285 35.9612 34.6285 36.6605V39.1569C34.7284 39.8552 35.3278 40.4536 36.026 40.4536Z" fill="#03C343"/>
<path d="M36.026 34.2637H54.795C55.4933 34.2637 56.0927 33.6643 56.0927 32.965V30.4695C56.0927 29.7712 55.4933 29.1719 54.795 29.1719C54.0957 29.1719 53.4973 29.7712 53.4973 30.4695V31.7672H37.2248V30.4695C37.2248 29.7712 36.6255 29.1719 35.9262 29.1719C35.2279 29.1719 34.6285 29.7712 34.6285 30.4695V32.965C34.7284 33.6643 35.3278 34.2637 36.026 34.2637Z" fill="#03C343"/>
</svg>
