<svg width="47" height="48" viewBox="0 0 47 48" fill="none" xmlns="http://www.w3.org/2000/svg">
<mask id="mask0_8277_7380" style="mask-type:luminance" maskUnits="userSpaceOnUse" x="39" y="43" width="8" height="3">
<path d="M39.4365 44.1434C41.2297 44.0893 45.4764 43.7102 46.9419 44.0597C46.7487 44.4803 46.6237 44.7447 46.1598 44.9198C44.7905 45.4367 41.2516 44.9701 39.6322 44.9859L39.4365 44.1434Z" fill="white"/>
</mask>
<g mask="url(#mask0_8277_7380)">
<path d="M39.4365 44.1434C41.2297 44.0893 45.4764 43.7102 46.9419 44.0597C46.7487 44.4803 46.6237 44.7447 46.1598 44.9198C44.7905 45.4367 41.2516 44.9701 39.6322 44.9859L39.4365 44.1434Z" fill="url(#paint0_linear_8277_7380)"/>
</g>
<path d="M0 43.9499C0.997887 43.7566 6.53316 43.7434 7.3985 43.9978C7.30221 44.363 7.25218 44.713 7.21217 45.0883C5.44398 45.0417 2.6279 45.5334 1.0304 45.0127C0.45143 44.8239 0.252598 44.465 0 43.9499Z" fill="#237335"/>
<path d="M7.4002 44.0005C13.1696 44.3178 19.496 44.088 25.3348 44.0974L25.3448 44.1547C30.0293 44.1654 34.7532 44.3052 39.4346 44.1522L39.6304 44.9946C39.646 45.8087 39.6422 46.6649 39.0689 47.3103C38.6743 47.7542 38.2022 47.8625 37.6339 47.8757C36.2314 48.0167 34.767 47.9456 33.3564 47.9519L25.6156 47.9506C19.8962 47.9279 14.17 48.0538 8.45251 47.972C8.32183 47.8694 8.19178 47.7667 8.06673 47.6572C7.24637 46.9382 7.27577 46.109 7.21387 45.0909C7.25388 44.7157 7.30391 44.3656 7.4002 44.0005Z" fill="#1E4251"/>
<path d="M25.3421 44.1539C30.0264 44.1646 34.7501 44.3044 39.4313 44.1514L39.627 44.9938C39.6427 45.8079 39.6389 46.6642 39.0655 47.3096C38.671 47.7535 38.199 47.8618 37.6306 47.875C36.2338 47.6962 34.7076 47.8076 33.2958 47.8127L25.319 47.8227C25.2959 46.5956 25.2865 45.381 25.3421 44.1539Z" fill="#1A2545"/>
<path d="M45.9244 32.5109C46.2633 32.6035 46.4471 32.63 46.6609 32.9435C47.3843 34.0063 46.6866 42.1172 46.9367 44.0678C45.4711 43.7183 41.2244 44.0974 39.4312 44.1515C34.7501 44.3045 30.0264 44.1647 25.342 44.154L25.332 44.0967C25.4271 41.944 25.3583 39.7699 25.3471 37.6153C27.6461 37.2508 29.9282 36.4096 32.1847 35.8215C35.0639 35.0704 37.9863 34.5088 40.8493 33.6896C42.071 33.3402 44.2637 33.4466 45.1291 32.674C45.316 32.5065 45.673 32.5368 45.9244 32.5109Z" fill="#3AB73E"/>
<path d="M30.1633 37.6522C30.2089 37.6459 30.2546 37.6377 30.3008 37.6321C30.856 37.5704 31.3693 37.5792 31.8051 37.9834C32.0415 38.2025 32.1784 38.5035 32.1597 38.8303C32.1303 39.3617 31.8095 39.7212 31.445 40.0662C30.8892 40.1474 30.4402 40.1764 29.9738 39.8005C29.6956 39.5764 29.5361 39.2584 29.5255 38.897C29.5099 38.3297 29.7937 38.025 30.1633 37.6522Z" fill="white"/>
<path d="M41.7566 37.5C41.8103 37.5075 41.8647 37.5138 41.9185 37.5226C42.3943 37.5995 42.8389 37.7462 43.0971 38.1945C43.3059 38.5571 43.3528 38.8738 43.2078 39.2743C43.0283 39.7717 42.6851 39.9442 42.2411 40.1602C42.0892 40.1564 41.9579 40.1576 41.806 40.1331C41.3864 40.0663 41.0094 39.834 40.7975 39.4569C40.6274 39.1546 40.6005 38.7895 40.7124 38.4608C40.8919 37.935 41.2826 37.7178 41.7566 37.5Z" fill="white"/>
<path d="M36.1487 37.5177C36.2944 37.5102 36.3294 37.5058 36.4913 37.5133C36.9627 37.5347 37.4404 37.6758 37.7299 38.0831C37.9438 38.3835 38.0219 38.6567 37.9556 39.02C37.8525 39.5867 37.5017 39.8417 37.0534 40.1351C37.0196 40.137 36.9859 40.1401 36.9521 40.1401C36.405 40.1471 35.9211 40.0841 35.5497 39.6327C35.3227 39.3575 35.2746 39.0521 35.3115 38.7065C35.3696 38.1562 35.7523 37.8414 36.1487 37.5177Z" fill="white"/>
<path d="M40.3302 0.134639C41.5456 0.105046 45.5491 -0.24754 46.4638 0.322272C46.6557 0.831012 46.7477 1.32714 46.7914 1.86862C46.9096 3.33062 47.0678 10.6828 46.7176 11.6889C46.6564 11.8646 46.6651 11.8205 46.4625 11.8904C45.3227 12.2814 40.9735 12.1467 39.6236 12.0126C38.5495 11.5473 27.4195 11.8652 25.4819 11.9062C25.5826 9.65335 25.5069 7.36779 25.5088 5.11121C25.4844 4.0654 25.1787 1.14833 25.5676 0.291406L26.3497 0.115749C30.9878 0.106935 35.7021 -0.078805 40.3302 0.134639Z" fill="#4441A1"/>
<path d="M30.4016 4.90965C30.5323 4.8958 30.5598 4.89013 30.7068 4.88761C31.1613 4.88131 31.5265 4.95374 31.8497 5.31514C32.0735 5.5651 32.1611 5.86858 32.1173 6.20165C32.0429 6.77335 31.6915 7.04158 31.2664 7.36521C30.8118 7.3885 30.3748 7.35451 30.0096 7.04347C29.7533 6.82436 29.6276 6.51018 29.6351 6.17458C29.6495 5.57203 29.9852 5.27609 30.4016 4.90965Z" fill="white"/>
<path d="M41.9126 4.6478C41.9957 4.65599 42.0795 4.66165 42.1626 4.67235C42.5853 4.7265 43.0174 4.90909 43.2287 5.30513C43.3944 5.61679 43.3669 5.98388 43.2393 6.30247C43.0199 6.85025 42.6091 7.08698 42.102 7.32812C42.0157 7.31679 41.9288 7.30924 41.8438 7.29287C41.408 7.21102 40.9922 6.97114 40.7827 6.56062C40.6308 6.26217 40.647 5.89572 40.7627 5.58846C40.9678 5.04572 41.428 4.87006 41.9126 4.6478Z" fill="white"/>
<path d="M35.9905 4.66795C36.1706 4.65725 36.3638 4.639 36.5451 4.6497C36.9784 4.67615 37.3723 4.81025 37.638 5.17984C37.8119 5.42162 37.875 5.71944 37.8331 6.01222C37.7443 6.63492 37.3579 7.03473 36.889 7.4081C36.667 7.41314 36.6045 7.4188 36.3807 7.40747C36.018 7.38858 35.6341 7.19466 35.4134 6.89747C35.1896 6.59588 35.0946 6.27226 35.1383 5.89826C35.209 5.29633 35.551 5.02558 35.9905 4.66795Z" fill="white"/>
<path d="M26.3497 0.117824C30.9878 0.109009 35.7021 -0.0767317 40.3302 0.136712C37.9874 1.63334 33.9971 2.36748 31.2716 3.18537C29.3371 3.76588 27.4252 4.47043 25.5088 5.11328C25.4844 4.06747 25.1787 1.1504 25.5676 0.29348L26.3497 0.117824Z" fill="#4C8FD3"/>
<path d="M0.22018 11.2976C0.23081 8.96998 -0.132482 2.37614 0.425884 0.572326C0.944858 0.224784 1.61577 0.185734 2.22666 0.147958C4.8628 -0.01511 7.60649 0.144829 10.252 0.155532C15.6187 0.176939 20.9854 0.201488 26.3508 0.11901L25.5686 0.29466C25.1797 1.15155 25.4855 4.06851 25.5098 5.11428C25.508 7.37078 25.5836 9.65625 25.4829 11.909C22.7505 11.9354 8.9952 12.2823 7.89097 11.863L7.29448 12.1312C5.57686 12.2691 3.36529 12.4032 1.67393 12.152C0.994264 12.0513 0.633483 11.8429 0.22018 11.2976Z" fill="#5EBDED"/>
<path d="M3.38425 4.52444C3.55494 4.50681 3.74563 4.47848 3.9182 4.48666C4.36087 4.50807 4.85669 4.69632 5.12992 5.07032C5.35688 5.38073 5.42192 5.62817 5.37565 6.01162C5.31062 6.56002 4.88232 6.8698 4.47154 7.16384C4.24395 7.21484 4.01199 7.27592 3.77627 7.26899C3.38487 7.25766 2.98409 7.09144 2.73649 6.77725C2.5164 6.49644 2.44575 6.12244 2.49577 5.77425C2.58206 5.16981 2.9247 4.87829 3.38425 4.52444Z" fill="white"/>
<path d="M8.90375 4.38907C8.96815 4.39536 9.03256 4.39979 9.09633 4.40923C9.54588 4.47597 9.94354 4.63967 10.1936 5.04452C10.4081 5.39144 10.4068 5.80511 10.2862 6.18162C10.0642 6.87107 9.69093 7.09081 9.08007 7.40625C8.92501 7.37162 8.74744 7.33952 8.59863 7.27844C8.17159 7.10341 7.78208 6.77536 7.61014 6.33336C7.48259 6.00596 7.5076 5.64329 7.64953 5.32596C7.90088 4.7637 8.37292 4.60377 8.90375 4.38907Z" fill="white"/>
<path d="M0.219238 11.2976C2.12998 11.0306 6.01147 11.0099 7.78403 11.562L7.991 11.8007L7.88969 11.863L7.29322 12.1312C5.57568 12.2691 3.36421 12.4032 1.67293 12.152C0.993288 12.0513 0.632523 11.8429 0.219238 11.2976Z" fill="#4C8FD3"/>
<path d="M25.3772 28.2108C30.0967 28.2574 34.8244 28.4859 39.5408 28.4765L39.5658 32.3366C41.3647 32.9089 43.9796 32.2837 45.9267 32.511C45.6753 32.5368 45.3183 32.5066 45.1314 32.6741C44.266 33.4466 42.0732 33.3402 40.8514 33.6896C37.9883 34.5087 35.0658 35.0703 32.1864 35.8214C29.9298 36.4095 27.6476 37.2507 25.3484 37.6152C25.3597 39.7697 25.4285 41.9437 25.3334 44.0963C19.4947 44.0869 13.1682 44.3167 7.39883 43.9994C6.53345 43.745 0.997931 43.7582 0 43.9515C0.112549 43.077 0.0306431 42.0791 0.0300178 41.1926L0.0237651 35.4053L0.0250108 33.5656C0.276995 33.2495 0.567745 32.9649 0.847241 32.6741C2.06027 32.6785 6.44465 32.9498 7.27626 32.3473L7.28315 30.1582L7.27626 28.4777C9.18521 28.3153 11.1167 28.3827 13.0319 28.3424C17.1161 28.2574 21.191 28.2007 25.2759 28.2341L25.3772 28.2108Z" fill="#54BF36"/>
<path d="M3.39386 37.3861C3.51953 37.381 3.64459 37.3741 3.76964 37.376C4.25607 37.3823 4.71186 37.5265 5.04574 37.8979C5.3271 38.2102 5.41151 38.5786 5.36149 38.9948C5.29396 39.5551 4.8838 39.936 4.48114 40.2786C4.32796 40.2817 4.17416 40.2836 4.02098 40.2754C3.54079 40.249 3.07622 40.0116 2.76173 39.6433C2.50475 39.3417 2.39096 38.967 2.45411 38.5723C2.5504 37.9703 2.9318 37.7072 3.39386 37.3861Z" fill="white"/>
<path d="M8.57716 37.2427C8.82413 37.2364 9.08235 37.227 9.32557 37.2767C9.74698 37.363 10.1221 37.6388 10.3522 38.0021C10.5498 38.315 10.6123 38.655 10.5217 39.0164C10.3791 39.5862 10.0133 39.85 9.5319 40.1308C9.30931 40.139 9.07672 40.1516 8.85539 40.122C8.43835 40.0679 8.01382 39.8003 7.76622 39.4622C7.54989 39.1662 7.4536 38.8137 7.52863 38.4478C7.65555 37.8264 8.07133 37.5456 8.57716 37.2427Z" fill="white"/>
<path d="M25.3732 28.21C30.0925 28.2566 34.82 28.4851 39.5362 28.4757L39.5612 32.3359C38.0806 31.8203 27.534 32.1231 25.1831 32.1263C25.3019 30.8544 25.295 29.5121 25.2719 28.2333L25.3732 28.21Z" fill="#1A2545"/>
<mask id="mask1_8277_7380" style="mask-type:luminance" maskUnits="userSpaceOnUse" x="7" y="28" width="19" height="5">
<path d="M7.26953 28.4662C9.1784 28.3038 11.1098 28.3712 13.0249 28.3309C17.109 28.2459 21.1837 28.1892 25.2684 28.2226C25.2915 29.5014 25.2984 30.8437 25.1796 32.1156C23.3733 32.1395 21.4094 32.2956 19.6218 32.0602L19.151 32.1766C17.3253 32.0765 8.49813 31.8813 7.26953 32.3359L7.27642 30.1467L7.26953 28.4662Z" fill="white"/>
</mask>
<g mask="url(#mask1_8277_7380)">
<path d="M7.26953 28.4662C9.1784 28.3038 11.1098 28.3712 13.0249 28.3309C17.109 28.2459 21.1837 28.1892 25.2684 28.2226C25.2915 29.5014 25.2984 30.8437 25.1796 32.1156C23.3733 32.1395 21.4094 32.2956 19.6218 32.0602L19.151 32.1766C17.3253 32.0765 8.49813 31.8813 7.26953 32.3359L7.27642 30.1467L7.26953 28.4662Z" fill="url(#paint1_linear_8277_7380)"/>
</g>
<path d="M7.28325 30.1584C9.93178 30.042 12.5853 30.0457 15.2357 30.025C16.7006 30.013 18.3294 29.8543 19.7718 30.1037C19.9963 30.3543 20.0269 30.5671 20.0125 30.9071C19.9982 31.2326 19.9338 31.5713 19.8837 31.8924L19.6287 32.0719L19.1578 32.1884C17.3321 32.0883 8.50497 31.8931 7.27637 32.3477L7.28325 30.1584Z" fill="#4441A1"/>
<path d="M25.4801 11.9101C27.4178 11.8692 38.5482 11.5513 39.6225 12.0166L39.6368 15.7344C40.0164 16.1065 44.6922 15.9843 45.6007 16.0681C45.9977 16.0586 46.1853 16.0498 46.5417 16.2563C46.728 16.4748 46.8293 16.6605 46.8656 16.9514C47.0394 18.3384 46.8775 19.9571 46.8725 21.3687C46.8656 23.1435 46.995 25.0116 46.8462 26.7751C46.8106 27.1932 46.7693 27.9424 46.4623 28.261C46.0159 28.725 40.5322 28.4914 39.5406 28.4782C34.8242 28.4876 30.0965 28.2591 25.3769 28.2125L25.2756 28.2358C21.1907 28.2024 17.1159 28.2591 13.0316 28.3441C11.1164 28.3844 9.18494 28.317 7.27599 28.4794C5.64591 28.5405 3.99457 28.6205 2.36449 28.6211C1.75923 28.6211 1.09583 28.4933 0.671893 28.0204C-0.0884352 27.1724 0.135411 25.7753 0.168551 24.7213C0.111651 23.4904 -0.125336 17.2989 0.346118 16.5686C0.503061 16.3262 0.717528 16.2053 0.990146 16.1461C2.55019 15.8112 5.24637 16.3526 7.05089 15.8017C7.13093 15.7778 7.2091 15.7501 7.28913 15.7243L7.29724 13.5037L7.29162 12.1324L7.88812 11.8642C8.99235 12.2835 22.7477 11.9366 25.4801 11.9101Z" fill="#F27718"/>
<path d="M8.59531 20.8672C8.8354 20.8735 9.0855 20.8703 9.31934 20.9358C9.68636 21.0397 10.0921 21.3312 10.2653 21.6838C10.4323 22.0226 10.4785 22.3563 10.3704 22.7202C10.204 23.2831 9.85016 23.4972 9.37498 23.7773C9.25243 23.7723 9.12989 23.7698 9.00797 23.7553C8.53841 23.6993 8.07385 23.4525 7.79624 23.0608C7.56115 22.729 7.49363 22.3374 7.59929 21.9439C7.74873 21.3885 8.14201 21.1524 8.59531 20.8672Z" fill="white"/>
<path d="M3.36646 20.8801C3.48151 20.8801 3.59655 20.8807 3.71159 20.8845C4.23742 20.9033 4.64696 21.0091 4.99021 21.4555C5.24094 21.7817 5.33159 22.1834 5.24156 22.5832C5.10088 23.2059 4.73011 23.5087 4.20991 23.8242C4.04859 23.8336 3.84789 23.8576 3.6847 23.833C3.26954 23.7707 2.91067 23.5352 2.67745 23.1851C2.43111 22.8155 2.36545 22.4019 2.45674 21.9706C2.57803 21.3938 2.90003 21.1709 3.36646 20.8801Z" fill="white"/>
<path d="M7.28881 15.7214C9.24582 15.1736 14.8211 15.4129 17.2239 15.4103C16.1266 15.4777 15.1612 16.2326 14.0977 16.5191C11.0103 17.3521 7.62456 18.3047 4.43145 18.4892C3.04967 18.5692 1.63849 18.4621 0.25608 18.4042C0.291719 20.4933 0.366122 22.6366 0.168546 24.7188C0.111649 23.4878 -0.125328 17.2961 0.346105 16.5657C0.503041 16.3233 0.717499 16.2024 0.990104 16.1432C2.55008 15.8083 5.24613 16.3497 7.05058 15.7988C7.13061 15.7749 7.20878 15.7472 7.28881 15.7214Z" fill="#F29822"/>
<path d="M25.4818 11.91C27.4195 11.8691 38.5494 11.5511 39.6236 12.0164L39.638 15.7344C38.3681 15.0254 27.352 15.366 25.4112 15.3667C25.3593 14.2453 25.2505 13.0125 25.4818 11.91Z" fill="#282B6B"/>
<path d="M7.89095 11.8624C8.99513 12.2817 22.7498 11.9348 25.4821 11.9084C25.2508 13.0109 25.3596 14.2437 25.4115 15.365L20.0325 15.3883L17.2271 15.4116C14.8243 15.4141 9.249 15.1749 7.29199 15.7227L7.3001 13.502L7.29448 12.1306L7.89095 11.8624Z" fill="#333494"/>
<path d="M7.3001 13.502C8.63562 13.779 10.1681 13.6625 11.5311 13.6587C14.3747 13.6499 17.2152 13.5599 20.0582 13.5278L20.0325 15.3883L17.2271 15.4116C14.8243 15.4141 9.249 15.1749 7.29199 15.7227L7.3001 13.502Z" fill="#4441A1"/>
<path d="M45.5986 16.0659C45.9957 16.0564 46.1832 16.0476 46.5396 16.2541C46.726 16.4726 46.8272 16.6583 46.8635 16.9492C47.0373 18.3363 46.8754 19.9551 46.8704 21.3667C46.8635 23.1416 46.9929 25.0097 46.8441 26.7733C46.8085 27.1914 46.7672 27.9406 46.4602 28.2592C46.0138 28.7233 40.5304 28.4897 39.5388 28.4765C34.8226 28.4859 30.0951 28.2573 25.3758 28.2108C25.4264 25.8408 25.3577 23.4552 25.3477 21.0834C27.5179 20.8466 29.6531 20.0747 31.7783 19.5729C36.4001 18.4805 41.0738 17.5449 45.5986 16.0659Z" fill="#F1471F"/>
<path d="M30.7091 20.8984C30.8486 20.9198 30.9868 20.9444 31.1243 20.9752C31.532 21.0678 31.7902 21.2057 31.9903 21.5979C32.181 21.97 32.1597 22.3516 31.9865 22.7212C31.7614 23.2003 31.4276 23.3697 30.9574 23.5586C30.8817 23.5416 30.8067 23.5259 30.7323 23.5076C30.2421 23.3867 29.8438 23.1751 29.6181 22.6966C29.4649 22.3724 29.4774 22.0985 29.5981 21.7679C29.7838 21.2579 30.2458 21.0709 30.7091 20.8984Z" fill="white"/>
<path d="M41.4839 21.146C41.5502 21.1416 41.6159 21.136 41.6815 21.1334C42.1874 21.1158 42.6232 21.1586 42.992 21.5452C43.2903 21.8569 43.3884 22.2063 43.344 22.6382C43.2878 23.1854 42.9176 23.5651 42.515 23.8887C41.9548 23.9126 41.4558 23.9283 41.0325 23.4782C40.8206 23.2528 40.7086 22.9663 40.7043 22.6571C40.6955 21.9778 41.0256 21.5968 41.4839 21.146Z" fill="white"/>
<path d="M35.9909 21.1457C36.1497 21.1419 36.3204 21.1325 36.4798 21.1508C36.9575 21.2068 37.3727 21.3988 37.6603 21.8037C37.8604 22.0839 37.9316 22.4377 37.8679 22.7758C37.7572 23.3689 37.3889 23.6126 36.9225 23.918C36.401 23.8928 35.9702 23.8638 35.5701 23.4873C35.2656 23.2002 35.1105 22.823 35.1549 22.3974C35.2156 21.81 35.5638 21.5033 35.9909 21.1457Z" fill="white"/>
<defs>
<linearGradient id="paint0_linear_8277_7380" x1="45.8346" y1="45.6608" x2="40.3917" y2="43.2631" gradientUnits="userSpaceOnUse">
<stop stop-color="#235B2A"/>
<stop offset="1" stop-color="#1E371D"/>
</linearGradient>
<linearGradient id="paint1_linear_8277_7380" x1="21.8921" y1="35.1768" x2="10.4643" y2="25.363" gradientUnits="userSpaceOnUse">
<stop stop-color="#223D71"/>
<stop offset="1" stop-color="#4B369A"/>
</linearGradient>
</defs>
</svg>
