<svg width="44" height="42" viewBox="0 0 44 42" fill="none" xmlns="http://www.w3.org/2000/svg">
<path d="M33.8726 32.5298C33.9862 31.1481 33.6198 29.0965 34.0073 27.842L34.0115 34.0326L37.7653 34.0031C36.8627 35.0087 31.3099 41.0922 30.6122 41.3085C30.4666 40.1363 30.5703 38.8487 30.5796 37.6677C30.5962 35.4723 30.6199 33.2779 30.6029 31.0824C31.7857 31.4331 32.7977 31.9256 33.8726 32.5298Z" fill="#D11794"/>
<path d="M26.8124 31.7151L26.9141 31.8309C27.0555 31.863 29.7586 31.1005 30.6029 31.0824C30.6199 33.2779 30.5962 35.4723 30.5797 37.6677C30.5704 38.8487 30.4666 40.1363 30.6122 41.3085C28.1671 38.8978 25.7823 36.4298 23.4399 33.9193C24.565 33.9493 25.692 33.9447 26.8171 33.9524C26.816 33.1946 26.7675 32.4378 26.7273 31.6815L26.8124 31.7151Z" fill="#C438A3"/>
<mask id="mask0_8265_89668" style="mask-type:luminance" maskUnits="userSpaceOnUse" x="13" y="24" width="7" height="16">
<path d="M13.1821 24.8277L16.4669 24.8458C16.4436 25.7997 16.3931 26.7624 16.4199 27.7158L16.4086 34.0481L19.6577 33.972C17.9944 35.7133 16.3822 37.4985 14.7427 39.2615C14.2638 38.3153 13.6548 37.2916 13.4288 36.2508C13.129 34.868 13.2549 33.2556 13.2441 31.8408L13.1821 24.8277Z" fill="white"/>
</mask>
<g mask="url(#mask0_8265_89668)">
<path d="M13.1821 24.8277L16.4669 24.8458C16.4436 25.7997 16.3931 26.7624 16.4199 27.7158L16.4086 34.0481L19.6577 33.972C17.9944 35.7133 16.3822 37.4985 14.7427 39.2615C14.2638 38.3153 13.6548 37.2916 13.4288 36.2508C13.129 34.868 13.2549 33.2556 13.2441 31.8408L13.1821 24.8277Z" fill="url(#paint0_linear_8265_89668)"/>
</g>
<path d="M27.5249 24.8479C29.6903 24.8354 31.8624 24.8742 34.0273 24.8303C34.0108 25.7055 33.8348 26.9936 34.0934 27.8156L34.0092 27.8436C33.6217 29.098 33.9881 31.1497 33.8745 32.5314C32.7996 31.9272 31.7876 31.4347 30.6048 31.084C29.7605 31.1021 27.0574 31.8646 26.916 31.8325L26.8143 31.7166L26.7291 31.683L26.7152 27.3351C26.7157 26.5105 26.7725 25.6316 26.6357 24.8199L27.5249 24.8479Z" fill="#E90B7C"/>
<path d="M26.6357 24.8212L27.5249 24.8491C28.5343 24.965 29.5675 24.9397 30.5831 24.9391C30.5702 26.2091 30.5263 27.4869 30.5676 28.7558C29.2888 28.8619 28.0178 29.0553 26.7833 29.4128C26.8055 30.1758 26.8628 30.9569 26.8143 31.7179L26.7291 31.6843L26.7152 27.3363C26.7157 26.5118 26.7725 25.6328 26.6357 24.8212Z" fill="#EE2276"/>
<mask id="mask1_8265_89668" style="mask-type:luminance" maskUnits="userSpaceOnUse" x="5" y="24" width="10" height="18">
<path d="M9.38962 24.8134L13.1884 24.8242L13.2503 31.8373C13.2611 33.2521 13.1352 34.8646 13.435 36.2473C13.6611 37.2881 14.27 38.3119 14.7489 39.258C13.9661 40.1576 13.2054 41.0303 12.501 41.9956C10.4594 39.1737 7.89149 36.7972 5.79834 34.0379L9.41749 34.0653C9.39375 32.0618 9.43555 30.0542 9.42781 28.0496C9.4371 26.9721 9.4051 25.8914 9.38962 24.8134Z" fill="white"/>
</mask>
<g mask="url(#mask1_8265_89668)">
<path d="M9.38962 24.8134L13.1884 24.8242L13.2503 31.8373C13.2611 33.2521 13.1352 34.8646 13.435 36.2473C13.6611 37.2881 14.27 38.3119 14.7489 39.258C13.9661 40.1576 13.2054 41.0303 12.501 41.9956C10.4594 39.1737 7.89149 36.7972 5.79834 34.0379L9.41749 34.0653C9.39375 32.0618 9.43555 30.0542 9.42781 28.0496C9.4371 26.9721 9.4051 25.8914 9.38962 24.8134Z" fill="url(#paint1_linear_8265_89668)"/>
</g>
<path d="M38.3219 11.8693C40.316 12.5687 42.0448 13.9804 42.985 15.8981C43.9315 17.8292 43.9723 19.9677 43.2565 21.979C42.4607 24.2174 40.7541 26.0657 38.599 27.0563C37.0937 27.748 35.7261 27.8038 34.0964 27.8147C33.8378 26.9927 34.0138 25.7046 34.0303 24.8293C34.7059 24.2267 35.3365 23.5806 35.8835 22.8574C37.6149 20.5683 38.7626 17.406 38.6739 14.5143C38.647 13.637 38.4406 12.7405 38.3219 11.8693Z" fill="#333494"/>
<path d="M12.3107 7.55674C13.189 5.70793 14.6313 4.00242 16.2527 2.76816C19.2009 0.524662 22.5892 -0.37594 26.2686 0.141869C30.0197 0.805038 33.3234 2.74747 35.512 5.90761C36.2468 6.96858 36.8377 8.13042 37.2588 9.35123C37.4012 9.76403 37.7237 11.4758 37.9105 11.6858C37.9792 11.7629 38.0932 11.7815 38.1845 11.8296L38.3177 11.8715C38.4364 12.7426 38.6428 13.6391 38.6696 14.5164C38.7584 17.4081 37.6107 20.5703 35.8794 22.8593C35.3324 23.5825 34.7018 24.2286 34.0263 24.8312C31.8615 24.8752 29.6895 24.8364 27.5241 24.8488L26.635 24.8209C26.7717 25.6325 26.715 26.5114 26.7145 27.336C23.4237 28.1859 19.799 27.71 16.4303 27.7167C16.4034 26.7633 16.454 25.8006 16.4772 24.8467L13.1926 24.8286L9.39402 24.8178C9.4095 25.8958 9.4415 26.9764 9.43221 28.054C8.94352 28.011 8.45172 27.9717 7.96561 27.9019C5.63619 27.5687 3.61898 26.2781 2.21948 24.3983C0.469062 22.0477 -0.308611 18.962 0.111964 16.0616C0.496931 13.4063 1.95888 10.7976 4.12832 9.2038C6.61048 7.37983 9.3517 7.11187 12.3107 7.55674Z" fill="#5C44A4"/>
<path d="M26.27 0.140154C30.0213 0.803337 33.3251 2.74581 35.5137 5.90602C36.2486 6.96701 36.8395 8.12887 37.2606 9.34971C37.403 9.76251 37.7256 11.4743 37.9124 11.6843C37.981 11.7614 38.0951 11.78 38.1864 11.8281C37.6296 12.394 37.7818 13.2709 37.773 14.0163C37.0944 15.2082 36.0633 15.8998 34.9584 16.6587C35.1545 14.5171 35.0911 12.3392 34.3433 10.3015C33.2771 7.39585 31.1731 5.52218 28.4174 4.25168C27.989 2.24764 26.6354 1.45928 26.27 0.140154Z" fill="#333494"/>
<path d="M19.1958 12.4545H27.6458C26.158 14.1849 24.7378 15.9551 23.3325 17.7533C25.2141 17.7378 27.1013 17.6907 28.9819 17.7471C26.8015 19.986 21.2585 26.1496 18.9992 27.3772L19.0554 20.5136C17.5645 20.5136 16.0597 20.5576 14.5703 20.5022C14.7649 19.7201 18.5739 13.5171 19.1958 12.4545Z" fill="#F29822"/>
<path d="M12.3107 7.55674C13.189 5.70793 14.6313 4.00242 16.2527 2.76816C19.2009 0.524662 22.5892 -0.37594 26.2686 0.141869C26.634 1.46097 27.9875 2.24932 28.4159 4.25331C25.4873 3.05681 22.4649 2.95646 19.5193 4.21555C16.7946 5.37998 14.7846 7.71348 13.4811 10.3237C11.5521 9.27933 9.63243 8.80445 7.47795 9.45417C5.61297 10.017 4.08291 11.2735 3.17468 13.0007C2.39133 14.4905 2.13795 16.2488 2.64625 17.8736C3.20048 19.6448 4.50813 20.8688 6.12747 21.6644C7.85208 22.5122 10.3363 22.7155 12.1497 22.0353C13.0806 21.6856 13.7035 20.905 14.5689 20.5015C16.0582 20.5568 17.563 20.5129 19.0538 20.5129L18.9976 27.3763C21.2568 26.1488 26.7996 19.9852 28.9799 17.7464C29.4443 17.4774 30.1781 17.5069 30.6906 17.6253L30.7638 17.7526C30.4269 18.3382 29.8515 18.8555 29.433 19.3976C26.9095 22.6632 25.7655 24.2534 22.1 26.3919C21.6361 26.6624 20.9972 27.1802 20.4941 27.3246C20.283 27.3851 20.3754 27.3758 20.139 27.2951L20.1876 27.0199C21.0437 26.6262 21.7398 26.1684 22.5335 25.6775C23.16 25.2901 23.8298 24.9673 24.4351 24.5446C26.2769 23.2597 27.599 21.445 28.9587 19.6898C29.3148 19.231 30.0651 18.5658 30.2561 18.0526C30.3262 17.8633 30.3128 17.9502 30.2375 17.7272C29.8979 17.6284 29.6466 17.6765 29.3365 17.8529C28.678 18.228 27.9442 19.1519 27.4044 19.7012C25.3124 21.8314 23.291 23.9875 21.0906 26.0091C20.6922 26.3748 20.2521 26.9247 19.8232 27.2237C19.5993 27.3804 19.2767 27.4792 19.0203 27.5724C20.2892 27.7177 25.4538 27.7958 26.3832 27.142C26.4797 27.0747 26.507 27.0152 26.5643 26.9242C26.4936 26.2393 26.4709 25.5642 26.4895 24.8757L26.5973 24.8059L26.635 24.8209C26.7717 25.6325 26.715 26.5114 26.7145 27.336C23.4237 28.1859 19.799 27.71 16.4303 27.7167C16.4034 26.7633 16.454 25.8006 16.4772 24.8467L13.1926 24.8286L9.39402 24.8178C9.4095 25.8958 9.4415 26.9764 9.43221 28.054C8.94352 28.011 8.45172 27.9717 7.96561 27.9019C5.63619 27.5687 3.61898 26.2781 2.21948 24.3983C0.469062 22.0477 -0.308611 18.962 0.111964 16.0616C0.496931 13.4063 1.95888 10.7976 4.12832 9.2038C6.61048 7.37983 9.3517 7.11187 12.3107 7.55674Z" fill="#4441A1"/>
<defs>
<linearGradient id="paint0_linear_8265_89668" x1="18.1214" y1="30.5594" x2="12.2318" y2="32.6524" gradientUnits="userSpaceOnUse">
<stop stop-color="#3FBB68"/>
<stop offset="1" stop-color="#3AAF83"/>
</linearGradient>
<linearGradient id="paint1_linear_8265_89668" x1="6.58998" y1="32.2336" x2="15.3818" y2="33.8793" gradientUnits="userSpaceOnUse">
<stop stop-color="#52C279"/>
<stop offset="1" stop-color="#53C49B"/>
</linearGradient>
</defs>
</svg>
