<svg width="47" height="48" viewBox="0 0 47 48" fill="none" xmlns="http://www.w3.org/2000/svg">
<path d="M23.1702 0.0815125C23.297 0.0648041 23.4239 0.0480881 23.5514 0.0341606C24.651 -0.0862923 25.7674 0.0968437 26.6385 0.82375C27.6329 1.65301 27.8621 2.68069 27.9665 3.89499C30.6906 4.55366 33.1294 5.52983 35.3615 7.23292C36.0175 6.62507 36.5522 6.19617 37.4436 5.99844C38.3365 5.8 39.2517 5.96152 40.0079 6.47816C41.3205 7.37565 41.6141 8.63172 41.8643 10.0883C41.612 10.8633 41.31 11.4997 40.8278 12.1611C42.0949 14.4721 43.0901 16.6806 43.725 19.2506C44.3081 19.3898 44.9668 19.5486 45.442 19.9301C46.2682 20.593 46.8843 21.5573 46.9845 22.6191C47.0798 23.6336 46.7315 24.5979 46.0608 25.359C45.3971 26.1144 44.6886 26.4312 43.6991 26.5231C42.9934 29.4022 41.9681 31.8426 40.5279 34.4251C41.0311 34.9501 41.4621 35.5259 41.6674 36.2305C41.947 37.1928 41.8622 38.201 41.3689 39.0804C40.8888 39.9375 40.0675 40.5648 39.1158 40.8183C37.8557 41.1532 36.761 40.8475 35.653 40.2376C33.1953 41.8975 30.8665 42.8737 28.0114 43.6674C28.0198 44.074 28.0205 44.4751 27.9266 44.8741C27.6736 45.9442 26.9707 47.0033 25.9979 47.5498C24.9376 48.1458 23.9558 48.0755 22.8232 47.7678C22.4301 47.577 22.0426 47.3361 21.7069 47.0562C20.6928 46.2095 20.4692 45.1644 20.3998 43.9097C17.5581 42.9273 14.9777 41.8355 12.3994 40.2849C11.6481 40.7911 10.8443 41.2305 9.9297 41.3335C8.87358 41.4526 7.84688 41.1783 7.02342 40.5022C6.25393 39.8693 5.76197 38.9307 5.69259 37.9399C5.60358 36.6657 6.13199 35.7773 6.94073 34.8484C5.7942 32.3335 4.61122 29.891 3.91181 27.2055C3.05682 27.0349 2.24458 26.8399 1.53605 26.3052C0.693677 25.6688 0.138633 24.7769 0.0222983 23.7255C-0.0891309 22.711 0.219939 21.684 0.88501 20.9042C1.70286 19.9454 2.83536 19.5082 4.0688 19.4107C4.80885 16.7628 5.77038 14.3948 7.02063 11.9509C6.32822 11.1655 5.83765 10.5444 5.73533 9.45543C5.64283 8.47995 5.97571 7.50656 6.61625 6.76503C7.28553 5.99077 8.27648 5.49502 9.30598 5.45115C10.7819 5.38779 11.6894 6.10009 12.7126 7.02961C15.2636 5.66492 17.6695 4.72773 20.4959 4.07463C20.5905 3.51274 20.6704 2.91605 20.8582 2.37643C21.2808 1.15935 22.0341 0.611378 23.1702 0.0815125Z" fill="#452B90"/>
<path d="M37.7416 7.27996C38.1593 7.28344 38.542 7.30641 38.9435 7.43452C39.5063 7.61347 40.0046 8.01243 40.2751 8.53673C40.5638 9.09723 40.5841 9.72456 40.3522 10.3101C40.0333 11.115 39.4825 11.4875 38.7186 11.835C38.3766 11.8301 38.0248 11.8259 37.6912 11.7424C37.0443 11.5808 36.4353 11.0767 36.1347 10.4884C35.867 9.96547 35.8368 9.38131 36.0324 8.82847C36.326 7.9999 36.9841 7.63506 37.7416 7.27996Z" fill="#EE8ACB"/>
<path d="M37.4582 35.0805C37.8963 35.0485 38.3658 34.9955 38.7982 35.0972C39.4317 35.2462 40.0183 35.7009 40.3197 36.2732C40.5769 36.7641 40.6175 37.3364 40.4402 37.86C40.1627 38.6795 39.6098 39.082 38.8683 39.4691C38.4065 39.5199 37.9544 39.552 37.4982 39.4364C36.9221 39.2909 36.3755 38.919 36.0748 38.4038C35.7833 37.9032 35.7483 37.3176 35.9031 36.7669C36.1421 35.9181 36.7343 35.5157 37.4582 35.0805Z" fill="#EE8ACB"/>
<path d="M23.9019 1.20462C24.2208 1.23387 24.5537 1.25752 24.8613 1.35152C25.5495 1.56179 26.1193 2.09794 26.4157 2.74548C26.6764 3.31294 26.7003 3.99389 26.455 4.5711C26.1228 5.34883 25.5797 5.70184 24.8137 5.99915C24.4296 6.00193 24.0449 6.00471 23.6749 5.88913C23.0287 5.68721 22.4526 5.21236 22.1674 4.59895C21.9158 4.05864 21.9011 3.43198 22.1092 2.87497C22.4386 1.99349 23.0743 1.57295 23.9019 1.20462Z" fill="#EE8ACB"/>
<path d="M23.7622 41.8682C23.9941 41.8668 24.2331 41.8654 24.4616 41.9037C25.1561 42.02 25.9081 42.4719 26.2795 43.0728C26.6131 43.6131 26.6937 44.2752 26.4995 44.8803C26.2206 45.7527 25.5731 46.2554 24.7917 46.6683C24.5022 46.669 24.2065 46.669 23.9233 46.6015C23.1994 46.4295 22.4993 45.9296 22.1496 45.2716C21.8405 44.6909 21.7964 44.0427 22.0361 43.4272C22.3479 42.6258 23.0165 42.2178 23.7622 41.8682Z" fill="#7F53AF"/>
<path d="M42.8357 20.4478C43.1511 20.4443 43.4839 20.4332 43.7937 20.5014C44.4672 20.649 45.1035 21.1259 45.4385 21.7226C45.7567 22.2901 45.8015 22.9397 45.6053 23.5559C45.3369 24.3998 44.7405 24.8197 43.9885 25.2193C43.6108 25.2381 43.0866 25.3126 42.7292 25.172C42.1209 24.9325 41.5918 24.4855 41.3009 23.8992C41.0038 23.2997 40.9785 22.6027 41.2091 21.9768C41.5056 21.174 42.0942 20.8036 42.8357 20.4478Z" fill="#EE8ACB"/>
<path d="M9.40648 35.2337C9.76109 35.2323 10.1339 35.265 10.4682 35.3931C11.127 35.6472 11.7682 36.2252 12.0128 36.8901C12.2286 37.4743 12.1894 38.11 11.8894 38.6579C11.4613 39.4398 10.6427 39.7587 9.82416 39.9711C9.27472 39.9788 8.81218 39.9133 8.32651 39.6473C7.74204 39.327 7.2802 38.8271 7.1099 38.1768C6.95923 37.5996 7.05244 37.0036 7.35589 36.4897C7.80791 35.7252 8.58723 35.4481 9.40648 35.2337Z" fill="#7F53AF"/>
<path d="M8.74586 6.70461C9.07875 6.6872 9.42215 6.66214 9.75433 6.68999C10.4565 6.74848 11.2358 7.23587 11.6339 7.80612C11.9927 8.31997 12.128 8.94661 11.9871 9.55863C11.7783 10.47 11.1342 10.9783 10.3724 11.4455C9.987 11.4831 9.57422 11.5395 9.18737 11.4971C8.54052 11.4253 7.87825 11.0055 7.50262 10.484C7.11437 9.94576 7.00154 9.27246 7.1368 8.6298C7.33723 7.6773 7.95534 7.19896 8.74586 6.70461Z" fill="#CB7CC5"/>
<path d="M3.3679 20.5817C3.66154 20.5949 3.9685 20.6081 4.25654 20.668C4.88797 20.7989 5.47735 21.2577 5.82075 21.7904C6.23142 22.4303 6.31973 23.2031 6.12 23.9293C5.85229 24.902 5.24257 25.34 4.38758 25.7939C4.05119 25.7939 3.69378 25.8037 3.363 25.7361C2.73157 25.608 2.08963 25.1026 1.76375 24.5609C1.38251 23.9279 1.32434 23.1474 1.5507 22.4511C1.86256 21.4952 2.5066 21.0287 3.3679 20.5817Z" fill="#7F53AF"/>
<path d="M20.7964 5.33007C20.8237 5.36489 20.851 5.39899 20.8791 5.43311L21.0192 5.60162C21.3829 6.04584 21.7228 6.43575 22.2064 6.75743C23.0334 7.30748 24.0313 7.60688 25.0202 7.38129C26.2543 7.0993 26.9411 6.2401 27.5711 5.22911C30.1676 5.97203 32.4257 6.77065 34.6914 8.26625C34.65 8.78149 34.5968 9.31414 34.6395 9.83078C34.7208 10.8083 35.1658 11.811 35.9606 12.4174C37.105 13.2906 38.4092 13.1959 39.747 13.0204C40.8585 15.0006 41.7121 17.0038 42.3099 19.1928C40.8557 20.0506 40.1423 20.6822 39.6945 22.3483L38.4561 22.3609C37.8163 22.3699 37.3944 22.4493 36.9424 22.92L36.9992 23.1769C37.8562 23.8112 38.6797 23.6768 39.6952 23.6566C40.3056 25.061 40.7793 25.6988 42.223 26.3505C41.8165 28.9225 40.6637 31.3999 39.3343 33.6196C38.6314 33.6934 37.8976 33.7171 37.2178 33.9204C36.175 34.2323 35.17 34.8443 34.6858 35.847C34.1644 36.9276 34.3459 38.0291 34.7061 39.1194C32.4355 40.684 30.0338 41.6379 27.4646 42.5911C26.7266 41.7994 25.7098 41.4067 25.0307 40.6408C24.7076 40.2759 24.8169 39.6737 24.8344 39.2176C24.8548 38.7483 24.962 38.1293 24.7111 37.7227C24.2969 37.4957 23.7279 37.6218 23.2681 37.6635L23.3186 40.5593C23.1595 40.7132 23.2296 40.6672 23.0558 40.7619C22.1139 41.2758 21.4103 41.8189 20.7256 42.6377C18.0835 41.7486 15.6293 40.4786 13.2094 39.1187C13.3635 38.5527 13.4883 37.9838 13.4147 37.3941C13.2794 36.303 12.6767 35.3331 11.7706 34.7099C10.6248 33.9218 9.4509 33.9065 8.13898 34.1209C7.00436 31.803 5.68123 29.4601 5.32031 26.8762C5.66932 26.6165 6.03793 26.3533 6.33928 26.0393C7.11508 25.2309 7.56991 24.1078 7.48091 22.9882C7.37299 21.6333 6.54883 20.7037 5.5712 19.8529C5.87254 17.2795 7.01978 14.9762 8.26232 12.7363C8.63305 12.785 9.00518 12.8303 9.37942 12.8449C10.3514 12.8818 11.3718 12.5866 12.0782 11.9001C13.079 10.9281 13.2808 9.6776 13.2787 8.36164C15.6117 6.92454 18.1683 6.06255 20.7964 5.33007Z" fill="white"/>
<path d="M10.3242 23.4683C10.3558 23.1125 10.3915 22.7574 10.4392 22.403C10.9199 18.8033 12.988 15.5364 15.8978 13.3605C18.7992 11.1903 22.5492 10.416 26.1121 10.9201C25.2824 11.7758 23.4652 11.404 22.3333 11.6038C20.6262 11.906 19.4712 12.9776 17.9357 13.575C15.2825 14.9223 13.3608 17.6064 12.4379 20.3727C12.2143 21.0418 12.0349 21.7569 11.9123 22.4518C11.7272 22.5778 11.66 22.5645 11.606 22.7992C11.5345 23.1125 11.5675 23.3785 11.5913 23.696L11.9137 23.7343C11.9256 24.6924 12.379 26.2966 11.8247 27.0471C11.538 27.0868 11.2605 27.1084 10.9711 27.1182C10.6802 25.8976 10.4735 24.7146 10.3242 23.4683Z" fill="#F14C27"/>
<path d="M11.9138 22.4516C12.0365 21.7568 12.2159 21.0417 12.4394 20.3726C13.3624 17.6063 15.284 14.9222 17.9373 13.5749C17.9394 14.6054 18.1693 15.2557 18.6662 16.1483C19.0628 16.5375 19.4245 16.855 19.8989 17.1481C20.4294 17.1391 20.9095 17.1593 21.4337 17.2435C20.8751 20.3865 19.955 23.8212 21.9179 26.6975C22.6776 27.8101 23.9202 28.6756 25.2727 28.8748C25.7087 28.9388 26.1389 28.9096 26.5748 28.8727C26.9722 28.9583 27.3177 28.9834 27.6429 29.2389C27.3247 29.484 26.989 29.6859 26.6456 29.892C26.7269 30.1475 26.6632 30.0417 26.8194 30.2193C28.5666 31.3806 29.9114 33.1436 31.6782 34.25C29.5281 35.9865 25.9021 37.4591 23.1058 37.1701C22.9692 37.1562 22.8332 37.1346 22.6973 37.1116C20.5626 36.9898 18.4826 36.3541 16.706 35.1579C16.1783 34.8028 15.6849 34.3405 15.1299 34.0362C14.8152 33.8635 14.6071 33.7396 14.3373 33.505C13.1234 31.3584 11.8438 29.4478 10.9727 27.1181C11.2621 27.1083 11.5396 27.0867 11.8262 27.047C12.3806 26.2965 11.9272 24.6922 11.9152 23.7342L11.5929 23.6959C11.569 23.3784 11.5361 23.1124 11.6076 22.7991C11.6616 22.5644 11.7288 22.5777 11.9138 22.4516Z" fill="#F37316"/>
<path d="M23.3439 30.607C23.8808 30.5513 24.5423 30.4267 25.0399 30.6822C25.2684 30.7999 25.2333 30.8737 25.3062 31.0972C25.1646 31.6215 24.8423 31.9097 24.4729 32.2948C24.0482 32.4124 23.9046 32.4918 23.4883 32.2829C23.1841 32.1312 22.9564 31.7705 22.9115 31.4425C22.8534 31.0206 23.0804 30.8827 23.3439 30.607Z" fill="#E53022"/>
<path d="M18.6682 16.148C19.0649 16.5372 19.4265 16.8547 19.9009 17.1478C19.8631 17.5711 19.9829 18.0279 19.6907 18.3914C19.4735 18.6608 19.0593 18.9031 18.7082 18.9247C18.3157 18.9491 18.1861 18.7959 17.9247 18.5557C17.5686 17.583 18.2905 17.2509 18.5834 16.407C18.6129 16.3206 18.6402 16.2336 18.6682 16.148Z" fill="#E53022"/>
<path d="M19.5621 28.2444C20.0323 28.3599 20.3302 28.4511 20.7058 28.7596C20.7815 28.981 20.8628 29.0409 20.7528 29.2693C20.4486 29.9008 19.7212 30.102 19.1121 30.3401C18.9362 30.3944 18.7561 30.4014 18.5739 30.4209C18.4688 30.3318 18.3272 30.2211 18.2466 30.1118C18.0105 29.7922 17.9922 29.6473 18.0322 29.2811C18.3903 28.7589 19.0112 28.5284 19.5621 28.2444Z" fill="#E53022"/>
<path d="M14.3398 33.5042C14.5242 32.9659 15.0252 32.0893 15.5593 31.8157C15.5985 31.7955 15.6427 31.7858 15.684 31.7711L15.902 31.9167C15.909 31.9682 15.9153 32.0204 15.923 32.0719C16.0772 33.0947 16.5138 33.7186 17.3533 34.3271C19.0269 35.5407 21.1686 35.758 22.3501 36.5629C22.5968 36.7307 22.6235 36.8365 22.6998 37.1108C20.5652 36.989 18.4852 36.3533 16.7086 35.1571C16.1809 34.802 15.6875 34.3397 15.1325 34.0354C14.8178 33.8627 14.6097 33.7388 14.3398 33.5042Z" fill="#F14C27"/>
<path d="M11.9161 22.451C13.3436 22.49 17.3432 22.0081 18.3117 23.0254C18.5191 23.2433 18.6123 23.4814 18.5885 23.7878C18.5633 24.1102 18.461 24.4792 18.229 24.7152C17.9564 24.993 17.7539 24.9798 17.3936 25.0049C16.943 24.8071 16.7545 24.5843 16.5814 24.1401C16.5267 24.0023 16.4833 23.8595 16.4363 23.7182C16.3753 23.7244 16.3144 23.7314 16.2527 23.737C14.8343 23.8651 13.3401 23.8101 11.9175 23.7335L11.5951 23.6952C11.5713 23.3777 11.5383 23.1117 11.6098 22.7984C11.6638 22.5638 11.7311 22.577 11.9161 22.451Z" fill="#E53022"/>
<path d="M26.1178 10.9195C28.3205 11.0456 30.7614 12.3211 32.3256 13.8279L33.182 14.6871C35.1366 16.622 36.5767 19.5547 36.5921 22.3272C36.5928 22.3704 36.5921 22.4136 36.5914 22.4568L36.602 23.371C37.061 26.1171 35.967 29.0316 34.3832 31.2458C33.7125 32.1837 32.943 33.0596 32.17 33.9153L31.6823 34.2495C29.9155 33.1431 28.5706 31.3802 26.8235 30.2188C26.6672 30.0412 26.731 30.1471 26.6497 29.8915C26.9931 29.6854 27.3288 29.4835 27.647 29.2384C27.3218 28.9829 26.9763 28.9578 26.5789 28.8722C26.143 28.9091 25.7127 28.9384 25.2768 28.8743C23.9243 28.6752 22.6817 27.8097 21.922 26.697C19.959 23.8207 20.8792 20.386 21.4378 17.2431C20.9136 17.1588 20.4335 17.1386 19.903 17.1477C19.4285 16.8545 19.0669 16.5371 18.6703 16.1478C18.1734 15.2552 17.9435 14.6049 17.9414 13.5744C19.4769 12.977 20.6318 11.9055 22.339 11.6033C23.4708 11.4034 25.288 11.7752 26.1178 10.9195Z" fill="#F3A815"/>
<path d="M27.0342 22.501C28.173 22.4397 29.3147 22.3053 30.4542 22.299L30.4465 22.9438C29.2929 22.9389 28.1016 23.0246 26.9648 22.8087L27.0342 22.501Z" fill="#F14C27"/>
<path d="M23.3805 14.7042C23.6398 14.7662 24.012 14.8762 24.2159 15.06C24.4962 15.3141 24.6175 15.5738 24.6013 15.9554C24.5838 16.3787 24.2607 16.6809 23.9832 16.9629C23.7674 16.9434 23.4324 16.9162 23.2375 16.8069C23.0441 16.6976 22.8598 16.5653 22.7995 16.3453C22.6306 15.7284 23.0638 15.193 23.3805 14.7042Z" fill="#E53022"/>
<path d="M28.2107 18.0498C27.8736 18.0693 27.9956 18.0484 27.6865 18.1152C27.6171 18.1306 27.5492 18.1473 27.4805 18.1626L27.1203 17.9126C27.0306 17.6891 26.9366 17.5666 26.9794 17.3187C27.0586 16.8508 27.4272 16.3098 27.8673 16.0988C28.2381 15.9213 28.3964 15.993 28.744 16.1274C29.0055 16.6022 28.9319 16.848 28.9059 17.3807C28.695 17.6453 28.524 17.898 28.2107 18.0498Z" fill="#F14C27"/>
<path d="M26.5742 28.8722C27.9506 28.6487 27.6724 29.3575 28.4468 29.276C28.5856 28.9982 28.5694 29.1096 28.5722 28.8199C28.5765 28.3966 28.5099 28.0847 28.746 27.7073C29.3733 27.5221 30.0215 27.795 30.6011 28.061C29.9557 28.7322 29.3221 29.5099 28.4475 29.888C28.1518 29.7258 28.0824 29.6596 27.7334 29.7418C27.4075 29.8191 27.0998 30.0433 26.8188 30.2188C26.6625 30.0412 26.7263 30.147 26.645 29.8915C26.9884 29.6854 27.3241 29.4835 27.6423 29.2384C27.3171 28.9829 26.9716 28.9578 26.5742 28.8722Z" fill="#E53022"/>
<path d="M25.6751 21.0133L26.72 21.596L27.0333 22.5005L26.9639 22.8082C26.9344 22.8458 26.9064 22.8855 26.8749 22.9217C26.596 23.2357 26.2217 23.4941 25.7809 23.4502C25.4522 23.4175 25.1432 23.1452 24.9799 22.8758C24.7837 22.552 24.7542 22.1315 24.8488 21.7701C24.9547 21.3642 25.3359 21.1957 25.6751 21.0133Z" fill="#842394"/>
<path d="M30.5989 28.061C31.1441 29.3839 31.0145 31.2102 31.3264 32.6641C30.2927 31.8181 29.3248 30.8907 28.4453 29.888C29.3199 29.51 29.9535 28.7322 30.5989 28.061Z" fill="#F37316"/>
<path d="M26.8164 30.2188C27.0974 30.0433 27.4051 29.8191 27.731 29.7418C28.08 29.6597 28.1494 29.7258 28.4451 29.8881C29.3246 30.8907 30.2924 31.8181 31.3261 32.6641C31.6051 33.0798 31.898 33.4913 32.1629 33.9153L31.6751 34.2495C29.9084 33.1431 28.5635 31.3802 26.8164 30.2188Z" fill="#E53022"/>
<path d="M32.323 13.8279L33.1794 14.6871C31.6586 16.402 27.7299 19.9189 26.7207 21.5962L25.6758 21.0134C26.631 20.148 27.3472 19.013 28.2099 18.0494C28.5232 17.8976 28.6942 17.6448 28.9051 17.3803C30.0355 16.1757 31.3019 15.1383 32.323 13.8279Z" fill="#F14C27"/>
<path d="M33.1774 14.6866C35.132 16.6215 36.5722 19.5542 36.5876 22.3268C36.5883 22.3699 36.5876 22.4131 36.5869 22.4563L36.5974 23.3705C35.4502 23.5487 31.6448 24.0786 30.7393 23.5689C30.5277 23.4499 30.5129 23.1595 30.4443 22.943L30.452 22.2982C29.3125 22.3045 28.1708 22.4389 27.032 22.5001L26.7188 21.5957C27.7279 19.9184 31.6567 16.4015 33.1774 14.6866Z" fill="#F3A815"/>
<path d="M30.453 22.2982C30.5743 21.8457 30.6591 21.5198 31.0866 21.2496C31.3844 21.0617 31.6157 21.0623 31.9464 21.1194C32.2478 21.4982 32.2079 21.8833 32.1882 22.3539C33.3635 22.8351 35.2844 22.372 36.5879 22.4563L36.5985 23.3705C35.4512 23.5487 31.6458 24.0786 30.7404 23.5689C30.5287 23.4499 30.514 23.1595 30.4453 22.943L30.453 22.2982Z" fill="#F14C27"/>
</svg>
