<svg width="40" height="40" viewBox="0 0 40 40" fill="none" xmlns="http://www.w3.org/2000/svg">
<path d="M20.0957 2.9165C23.7468 2.91649 26.6147 2.91647 28.8537 3.21749C31.148 3.52597 32.9685 4.17104 34.3988 5.60135C35.8292 7.03169 36.4742 8.85212 36.7827 11.1465C37.0837 13.3856 37.0837 16.2533 37.0837 19.9045V20.0952C37.0837 23.7463 37.0837 26.6142 36.7827 28.8532C36.4742 31.1475 35.8292 32.968 34.3988 34.3983C32.9685 35.8287 31.148 36.4737 28.8537 36.7822C26.6147 37.0832 23.7468 37.0832 20.0957 37.0832H19.905C16.2539 37.0832 13.3861 37.0832 11.147 36.7822C8.85261 36.4737 7.03218 35.8287 5.60184 34.3983C4.17153 32.968 3.52646 31.1475 3.21798 28.8532C2.91696 26.6142 2.91698 23.7463 2.91699 20.0952V19.9045C2.91698 16.2534 2.91696 13.3856 3.21798 11.1465C3.52646 8.85212 4.17153 7.03169 5.60184 5.60135C7.03218 4.17104 8.85261 3.52597 11.147 3.21749C13.3861 2.91647 16.2539 2.91649 19.905 2.9165H20.0957Z" fill="white" fill-opacity="0.3"/>
<path fill-rule="evenodd" clip-rule="evenodd" d="M29.1565 14.0593C29.676 14.5139 29.7287 15.3036 29.274 15.8232L23.6593 22.2398C24.2393 23.0077 24.5833 23.9637 24.5833 25C24.5833 27.5313 22.5313 29.5833 20 29.5833C17.4687 29.5833 15.4167 27.5313 15.4167 25C15.4167 22.4687 17.4687 20.4167 20 20.4167C20.586 20.4167 21.1462 20.5267 21.6612 20.727L27.3927 14.1769C27.8472 13.6573 28.637 13.6047 29.1565 14.0593ZM11.25 20C11.25 15.1675 15.1675 11.25 20 11.25C21.5958 11.25 23.0883 11.6761 24.3742 12.4198C24.9717 12.7655 25.7363 12.5613 26.082 11.9637C26.4277 11.3661 26.2235 10.6015 25.6258 10.2558C23.9698 9.29787 22.047 8.75 20 8.75C13.7868 8.75 8.75 13.7868 8.75 20C8.75 20.6903 9.30965 21.25 10 21.25C10.6903 21.25 11.25 20.6903 11.25 20Z" fill="white"/>
</svg>
