<svg width="64" height="60" viewBox="0 0 64 60" fill="none" xmlns="http://www.w3.org/2000/svg">
<ellipse opacity="0.2" cx="22.5882" cy="22.4999" rx="22.5882" ry="22.4999" fill="url(#paint0_linear_8254_108186)"/>
<path d="M23.175 18.5518C23.8578 16.8819 24.6643 15.3381 25.7817 13.9204C28.3775 10.6252 32.3637 8.50693 36.4952 8.08454C40.8208 7.64256 45.1472 8.9881 48.4916 11.7944C52.4066 15.0802 54.0521 19.3378 54.506 24.3712C55.2336 24.3971 55.9721 24.4402 56.6943 24.5421C58.8393 24.8446 60.9318 26.2473 62.2061 28.0043C63.7549 30.1389 64.2784 32.7281 63.8632 35.3236C63.4789 37.7239 62.2788 39.8594 60.2822 41.2605C59.5484 41.7754 58.7272 42.1829 57.858 42.3992C56.4267 42.755 50.3103 42.9681 48.8264 42.6147C48.2836 42.4854 48.1908 42.2229 47.9101 41.7825L48.0871 41.6242C48.6137 41.1681 49.138 40.7245 49.7002 40.3139C51.5537 40.8609 55.6983 40.0694 58.1797 40.6438C58.7767 40.4675 59.3025 40.2496 59.8113 39.8805C61.6052 38.5804 62.3259 36.6064 62.6785 34.4937C62.6646 32.1741 62.1326 30.07 60.5621 28.3067C58.5656 26.0631 56.1082 25.611 53.2865 25.4409C52.9857 22.4858 52.5403 19.8166 51.0835 17.1906C49.1442 13.6971 45.8369 11.0084 42.0093 9.95121C38.242 8.9113 34.1994 9.45594 30.835 11.4621C27.1395 13.6657 25.2265 16.9422 24.1779 21.0611C23.8648 24.1463 24.1702 27.136 26.1722 29.6382C27.4048 31.1781 28.9869 32.1247 30.6857 33.0525C29.7686 33.5188 28.9204 34.0643 28.059 34.6293C27.0112 34.0807 25.5659 33.051 24.321 33.4632C22.9809 33.9075 21.7035 37.3242 21.0207 38.5812C21.0076 39.4299 21.1012 39.8014 21.6409 40.48C22.2317 40.8037 23.987 41.458 24.2576 41.9721C22.5626 42.313 16.0997 42.2041 14.4295 41.94C13.5054 41.7942 12.634 41.5395 11.8035 41.0983C10.1294 40.2081 8.93468 38.6964 8.3818 36.8705C7.74077 34.7531 7.89542 32.2493 8.93314 30.2917C10.0095 28.2621 11.6736 27.212 13.7707 26.5239C13.2897 24.3626 13.0662 22.2993 14.1998 20.2766C14.9831 18.8802 16.2629 17.8575 17.8055 17.4688C19.7743 16.972 21.487 17.5683 23.175 18.5518Z" fill="#842394"/>
<path d="M49.7029 40.3163C51.5564 40.8633 55.701 40.0718 58.1824 40.6462C55.275 41.8961 51.227 41.614 48.0898 41.6266C48.6164 41.1705 49.1407 40.7269 49.7029 40.3163Z" fill="#AD33A0"/>
<path d="M9.56836 35.016C14.5234 37.617 15.3895 38.0096 21.0242 38.584C21.0111 39.4327 21.1046 39.8042 21.6444 40.4828C21.6042 40.4977 21.5655 40.5173 21.5245 40.529C19.661 41.0815 13.9729 40.5972 12.3513 39.5926C10.6649 38.5472 9.96813 36.8905 9.56836 35.016Z" fill="#AD33A0"/>
<path d="M9.56836 35.0131C9.64723 27.2149 14.4654 29.196 15.9393 27.2729C15.8341 27.0864 15.7305 26.8999 15.6315 26.7095C14.825 25.1602 14.566 23.6846 15.1389 21.9927C15.5503 20.778 16.3305 19.8329 17.4989 19.3118C20.4118 18.0109 21.5106 20.1448 23.9216 20.9755C24.0075 21.0053 24.0948 21.0327 24.1814 21.0609C23.8683 24.1462 24.1737 27.1358 26.1757 29.638C27.4083 31.1779 28.9903 32.1245 30.6892 33.0524C29.7721 33.5186 28.9238 34.0641 28.0624 34.6291C27.0147 34.0805 25.5694 33.0508 24.3245 33.463C22.9844 33.9073 21.707 37.3241 21.0242 38.5811C15.3895 38.0066 14.5234 37.614 9.56836 35.0131Z" fill="#E133A2"/>
<path d="M31.9669 32.4495C31.9739 32.4041 31.9824 32.3586 31.9886 32.3132C32.1487 31.1824 31.7783 29.8776 32.1633 28.8275C33.4075 28.1731 38.4639 28.1982 39.8527 28.6182C40.0831 28.688 40.1009 28.7084 40.281 28.811C40.6421 29.8478 40.4589 31.3508 40.4511 32.4613L43.0965 34.2817C43.869 33.6187 45.151 32.0373 46.2282 32.2364C46.7594 32.3343 47.1661 32.7677 47.5481 33.1211C48.4675 34.4455 50.8832 37.4438 50.4734 39.167C50.3659 39.616 50.0025 39.9852 49.7001 40.3127C49.138 40.7234 48.6137 41.1669 48.0871 41.623L47.91 41.7813C47.3989 42.6331 47.6989 45.0906 47.7128 46.1376C48.8518 46.7175 50.0504 47.2575 51.1229 47.9533C50.328 49.61 48.3345 53.6356 47.037 54.7876C46.8499 54.9663 46.6836 55.0964 46.423 55.1559C45.4797 55.3691 43.5767 53.8778 42.7106 53.4162C41.792 54.0807 40.895 54.8236 39.8202 55.2053C39.7127 56.3102 39.8658 58.046 39.34 58.9997C39.1095 59.419 38.9008 59.5624 38.4546 59.6956C36.9112 60.1572 33.6751 60.1431 32.2809 59.303C31.5525 58.2843 31.704 56.7138 31.6569 55.4929C30.374 54.9757 29.3688 54.5611 28.3814 53.5384C27.6151 53.9601 25.5767 55.2985 24.7262 54.9929C23.6792 54.6175 22.1257 51.3936 21.6525 50.4273C21.4182 49.9485 20.9279 49.0606 21.1436 48.5497C21.6354 47.3868 23.1394 46.8695 24.2026 46.397C24.1926 44.9214 24.1617 43.4442 24.2576 41.9709C23.9869 41.4569 22.2316 40.8025 21.6409 40.4788C21.1011 39.8002 21.0075 39.4287 21.0207 38.58C21.7035 37.3231 22.9809 33.9063 24.321 33.462C25.5659 33.0498 27.0111 34.0795 28.0589 34.6281C28.9203 34.0631 29.7686 33.5176 30.6857 33.0514L31.9669 32.4495Z" fill="#452B90"/>
<path d="M36.5521 51.7191C38.5804 51.111 39.7743 50.2506 41.3517 48.8588C42.0152 49.5798 42.7552 50.2929 43.346 51.0734C41.7221 52.1165 40.3419 53.3774 38.6407 54.3397C38.2448 55.5912 37.9757 56.8489 37.7576 58.1435C36.7648 58.2963 35.7464 58.3489 34.7613 58.5173L33.582 58.562C33.93 56.0935 36.0418 54.1508 36.5521 51.7191Z" fill="#58359A"/>
<path d="M31.9669 32.4495C32.0327 32.8931 32.0829 33.1196 31.8262 33.5075C31.0584 34.6641 29.3317 35.5128 28.1764 36.2361C27.1449 35.6923 26.1265 35.1038 25.2558 34.3123C24.6357 35.302 22.4644 38.1138 22.8146 39.1506C23.1642 40.1873 24.488 40.6238 25.3788 41.0572C25.4097 43.1464 25.4747 45.2411 25.47 47.3295L22.4087 49.0058C23.3381 50.6836 24.3024 52.3833 25.3262 54.0032C26.3987 53.3394 27.3676 52.5887 28.3512 51.7956C30.5264 53.8033 33.4091 54.5212 33.5691 57.9097C33.5792 58.1275 33.5792 58.3438 33.5777 58.5624L34.7569 58.5178C35.0314 58.5476 35.2834 58.5577 35.558 58.5358L35.8371 58.5123L35.8541 58.6526C35.4598 58.9112 35.0422 59.1228 34.6246 59.3398L34.6208 59.5256C35.5332 59.7951 37.686 59.7622 38.5551 59.3955C39.739 58.8955 39.1575 56.2554 39.558 55.2131C40.3228 54.6755 41.543 53.5596 42.3928 53.2979C43.6339 52.9147 45.093 54.8793 46.3186 55.0102C46.4895 54.8307 46.6171 54.7421 46.8243 54.6152L47.037 54.7876C46.8499 54.9663 46.6836 55.0964 46.423 55.1559C45.4797 55.3691 43.5767 53.8778 42.7106 53.4162C41.792 54.0807 40.895 54.8236 39.8202 55.2053C39.7127 56.3102 39.8658 58.046 39.34 58.9997C39.1095 59.419 38.9008 59.5624 38.4546 59.6956C36.9112 60.1572 33.6751 60.1431 32.2809 59.303C31.5525 58.2843 31.704 56.7138 31.6569 55.4929C30.374 54.9757 29.3688 54.5611 28.3814 53.5384C27.6151 53.9601 25.5767 55.2985 24.7262 54.9929C23.6792 54.6175 22.1257 51.3936 21.6525 50.4273C21.4182 49.9485 20.9279 49.0606 21.1436 48.5497C21.6354 47.3868 23.1394 46.8695 24.2026 46.397C24.1926 44.9214 24.1617 43.4442 24.2576 41.9709C23.9869 41.4569 22.2316 40.8025 21.6409 40.4788C21.1011 39.8002 21.0075 39.4287 21.0207 38.58C21.7035 37.3231 22.9809 33.9063 24.321 33.462C25.5659 33.0498 27.0111 34.0795 28.0589 34.6281C28.9203 34.0631 29.7686 33.5176 30.6857 33.0514L31.9669 32.4495Z" fill="#2D2F87"/>
<path d="M33.5619 38.1504C35.5028 37.6277 37.4135 37.6293 39.1788 38.7107C40.8212 39.7161 41.9301 41.4629 42.3562 43.3398C42.7482 45.0669 42.5332 47.1146 41.5296 48.6028C41.4708 48.689 41.4105 48.7728 41.351 48.8583C39.7735 50.25 38.5796 51.1105 36.5513 51.7186C35.6938 51.7868 34.7983 51.7562 33.9625 51.5407C32.2938 51.1105 30.8385 50.0157 29.9879 48.4939C29.0066 46.7393 28.8597 44.3616 29.4164 42.4409C30.1085 40.0531 31.5499 39.2248 33.5619 38.1504Z" fill="#2D2F87"/>
<path d="M35.1465 39.0449C36.7371 38.9838 38.0516 39.3725 39.2502 40.4743C40.4588 41.5848 41.1841 43.2014 41.1926 44.8565C41.2004 46.3815 40.6204 47.6886 39.5912 48.7803C39.295 48.0562 39.2355 47.1221 39.046 46.3549C38.3408 43.5078 37.2327 41.1005 35.1465 39.0449Z" fill="#62C9AF"/>
<path d="M39.592 48.778C39.0089 49.4872 38.0508 50.0067 37.1925 50.2896C35.9197 50.7089 34.4011 50.5373 33.2265 49.8978C31.8315 49.1376 30.8472 47.789 30.4435 46.2452C30.0468 44.7312 30.1915 43.0541 31.0289 41.7149C31.9901 40.1797 33.4623 39.4446 35.1473 39.0426C37.2335 41.0981 38.3416 43.5055 39.0468 46.3526C39.2363 47.1198 39.2958 48.0539 39.592 48.778Z" fill="#58B1E7"/>
<path d="M33.2793 29.9142L39.3648 29.9338C39.3533 31.15 39.3618 32.3702 39.3285 33.5856C40.6376 34.2956 41.765 35.1043 42.8963 36.0784C43.9626 35.4734 45.0027 34.7164 46.0976 34.1843C47.2629 35.5181 48.3331 37.1074 49.0646 38.7303C48.1784 39.5798 47.2915 40.4285 46.4301 41.3046C46.4309 43.0819 46.4131 44.8616 46.441 46.6382C47.5135 47.7016 48.2697 48.1287 49.783 48.236C48.6146 50.0753 47.4029 52.0814 46.0056 53.7451C45.0669 52.8902 44.1861 52.0242 43.3433 51.0713C42.7525 50.2908 42.0125 49.5777 41.349 48.8567C41.4086 48.7713 41.4689 48.6874 41.5276 48.6012C42.5313 47.1131 42.7463 45.0654 42.3543 43.3382C41.9282 41.4613 40.8193 39.7146 39.1769 38.7091C37.4116 37.6277 35.5009 37.6261 33.56 38.1488C33.3419 35.41 33.379 32.6585 33.2793 29.9142Z" fill="#7F53AF"/>
<path d="M24.1797 21.0628C25.2283 16.9439 27.1413 13.6674 30.8367 11.4638C34.2012 9.45763 38.2438 8.913 42.0111 9.95291C45.8387 11.0101 49.1459 13.6988 51.0853 17.1923C52.5421 19.8183 52.9875 22.4875 53.2883 25.4426C56.1099 25.6127 58.5673 26.0648 60.5639 28.3084C62.1344 30.0717 62.6664 32.1758 62.6803 34.4954C62.3277 36.6081 61.607 38.5821 59.813 39.8822C59.3042 40.2513 58.7784 40.4692 58.1815 40.6455C55.7001 40.0711 51.5554 40.8626 49.7019 40.3156C50.0043 39.988 50.3677 39.6189 50.4752 39.1699C50.885 37.4466 48.4693 34.4484 47.5499 33.124C47.168 32.7706 46.7612 32.3372 46.23 32.2392C45.1528 32.0402 43.8708 33.6216 43.0983 34.2846L40.453 32.4642C40.4607 31.3537 40.644 29.8507 40.2828 28.8139C40.1027 28.7112 40.0849 28.6909 39.8545 28.6211C38.4657 28.2011 33.4093 28.176 32.1652 28.8303C31.7801 29.8804 32.1505 31.1852 31.9904 32.316C31.9842 32.3615 31.9757 32.407 31.9688 32.4524L30.6875 33.0542C28.9886 32.1264 27.4065 31.1797 26.174 29.6399C24.172 27.1377 23.8665 24.148 24.1797 21.0628Z" fill="#EE8ACB"/>
<defs>
<linearGradient id="paint0_linear_8254_108186" x1="0.49827" y1="22.4999" x2="45.1765" y2="22.4999" gradientUnits="userSpaceOnUse">
<stop stop-color="#202CD3"/>
<stop offset="1" stop-color="#0778F9"/>
</linearGradient>
</defs>
</svg>
