<svg width="46" height="42" viewBox="0 0 46 42" fill="none" xmlns="http://www.w3.org/2000/svg">
<path d="M12.3297 8.52041C12.8845 7.17156 13.5398 5.92463 14.4476 4.77959C16.5567 2.11798 19.7955 0.407074 23.1524 0.0659065C26.6669 -0.291084 30.1821 0.795717 32.8994 3.06236C36.0803 5.71638 37.4173 9.15527 37.7861 13.2208C38.3773 13.2417 38.9773 13.2765 39.5641 13.3588C41.3069 13.6031 43.0071 14.7361 44.0424 16.1552C45.3009 17.8794 45.7262 19.9707 45.3888 22.0671C45.0766 24.0059 44.1015 25.7307 42.4793 26.8624C41.8831 27.2783 41.2158 27.6074 40.5097 27.7821C39.3467 28.0695 34.3771 28.2417 33.1714 27.9562C32.7304 27.8517 32.655 27.6397 32.4269 27.284L32.5708 27.1561C32.9986 26.7877 33.4246 26.4295 33.8814 26.0978C35.3874 26.5396 38.7549 25.9003 40.771 26.3643C41.256 26.2219 41.6833 26.0459 42.0967 25.7478C43.5543 24.6977 44.1398 23.1032 44.4263 21.3968C44.415 19.5232 43.9828 17.8237 42.7067 16.3995C41.0845 14.5874 39.0879 14.2221 36.7953 14.0848C36.5509 11.6979 36.189 9.54201 35.0054 7.42094C33.4296 4.59919 30.7425 2.4275 27.6326 1.57363C24.5716 0.73369 21.287 1.17359 18.5534 2.79398C15.5509 4.57388 13.9965 7.2203 13.1446 10.5472C12.8901 13.0391 13.1383 15.4539 14.7649 17.4749C15.7664 18.7187 17.0518 19.4833 18.4321 20.2328C17.687 20.6094 16.9978 21.0499 16.2979 21.5063C15.4466 21.0632 14.2723 20.2315 13.2608 20.5644C12.172 20.9233 11.1341 23.683 10.5793 24.6983C10.5687 25.3838 10.6447 25.6838 11.0832 26.232C11.5632 26.4934 12.9894 27.0219 13.2093 27.4372C11.8321 27.7125 6.58102 27.6245 5.22395 27.4112C4.47316 27.2935 3.76509 27.0878 3.09032 26.7314C1.73011 26.0124 0.759426 24.7914 0.31021 23.3166C-0.210628 21.6063 -0.0849686 19.584 0.758174 18.0028C1.63273 16.3635 2.98478 15.5153 4.68866 14.9595C4.29788 13.2138 4.1163 11.5472 5.03735 9.91356C5.67379 8.78562 6.71359 7.9596 7.967 7.64565C9.56658 7.24435 10.9582 7.72604 12.3297 8.52041Z" fill="#842394"/>
<path d="M33.8838 26.0992C35.3898 26.541 38.7573 25.9017 40.7735 26.3657C38.4112 27.3753 35.1221 27.1474 32.5732 27.1575C33.0011 26.7892 33.4271 26.4309 33.8838 26.0992Z" fill="#AD33A0"/>
<path d="M1.2749 21.815C5.30088 23.9158 6.00454 24.233 10.5828 24.6969C10.5721 25.3824 10.6481 25.6824 11.0867 26.2306C11.054 26.2426 11.0226 26.2584 10.9893 26.2679C9.47514 26.7142 4.85356 26.323 3.53607 25.5115C2.16581 24.6672 1.59972 23.3291 1.2749 21.815Z" fill="#AD33A0"/>
<path d="M1.2749 21.8164C1.33899 15.5177 5.25377 17.1179 6.45126 15.5646C6.36582 15.4139 6.28162 15.2633 6.2012 15.1095C5.54591 13.8581 5.33545 12.6662 5.801 11.2997C6.13524 10.3186 6.76916 9.55523 7.71848 9.13431C10.0852 8.08359 10.978 9.80714 12.9369 10.4781C13.0067 10.5021 13.0776 10.5243 13.148 10.5471C12.8936 13.0391 13.1417 15.4538 14.7683 17.4749C15.7698 18.7186 17.0553 19.4833 18.4356 20.2327C17.6904 20.6093 17.0012 21.0498 16.3013 21.5062C15.45 21.0631 14.2758 20.2314 13.2642 20.5644C12.1754 20.9232 11.1375 23.683 10.5828 24.6982C6.00454 24.2343 5.30088 23.9172 1.2749 21.8164Z" fill="#E133A2"/>
<path d="M19.4734 19.7477C19.479 19.711 19.486 19.6742 19.491 19.6375C19.621 18.7242 19.3201 17.6703 19.633 16.8221C20.6439 16.2936 24.7521 16.3138 25.8805 16.6531C26.0678 16.7094 26.0822 16.7259 26.2286 16.8088C26.522 17.6462 26.3731 18.8603 26.3668 19.7572L28.5161 21.2275C29.1438 20.692 30.1855 19.4147 31.0606 19.5755C31.4923 19.6546 31.8227 20.0046 32.1331 20.2901C32.8801 21.3598 34.8428 23.7815 34.5099 25.1734C34.4225 25.5361 34.1272 25.8342 33.8816 26.0988C33.4248 26.4305 32.9989 26.7888 32.571 27.1571L32.4271 27.285C32.0118 27.973 32.2556 29.958 32.2669 30.8036C33.1924 31.272 34.1662 31.7081 35.0376 32.2702C34.3917 33.6083 32.772 36.8598 31.7178 37.7903C31.5658 37.9346 31.4307 38.0397 31.219 38.0878C30.4525 38.26 28.9063 37.0554 28.2026 36.6826C27.4562 37.2194 26.7274 37.8194 25.8541 38.1277C25.7668 39.0201 25.8912 40.4222 25.464 41.1925C25.2768 41.5311 25.1071 41.6469 24.7446 41.7545C23.4906 42.1274 20.8613 42.116 19.7285 41.4374C19.1366 40.6146 19.2598 39.3461 19.2214 38.36C18.1791 37.9422 17.3624 37.6074 16.5601 36.7813C15.9375 37.1219 14.2813 38.203 13.5902 37.9561C12.7396 37.6529 11.4774 35.0489 11.0929 34.2685C10.9025 33.8817 10.5042 33.1646 10.6795 32.7519C11.079 31.8126 12.301 31.3948 13.1649 31.0131C13.1567 29.8213 13.1316 28.6281 13.2095 27.4382C12.9896 27.023 11.5634 26.4944 11.0834 26.233C10.6449 25.6849 10.5689 25.3848 10.5795 24.6993C11.1343 23.6841 12.1722 20.9243 13.261 20.5655C14.2725 20.2325 15.4468 21.0642 16.2981 21.5073C16.998 21.0509 17.6872 20.6104 18.4323 20.2338L19.4734 19.7477Z" fill="#452B90"/>
<path d="M23.1979 35.3109C24.8458 34.8197 25.8159 34.1247 27.0976 33.0005C27.6366 33.5829 28.2379 34.1589 28.7179 34.7893C27.3985 35.6318 26.277 36.6502 24.8948 37.4275C24.5732 38.4383 24.3545 39.4542 24.1773 40.4999C23.3706 40.6233 22.5432 40.6657 21.7428 40.8018L20.7847 40.8379C21.0674 38.8441 22.7832 37.2749 23.1979 35.3109Z" fill="#58359A"/>
<path d="M19.4734 19.7477C19.5268 20.1059 19.5676 20.2889 19.359 20.6022C18.7352 21.5364 17.3322 22.2219 16.3936 22.8061C15.5555 22.3669 14.7281 21.8915 14.0206 21.2522C13.5167 22.0516 11.7525 24.3227 12.0371 25.1601C12.3211 25.9975 13.3967 26.3501 14.1205 26.7001C14.1456 28.3876 14.1984 30.0795 14.1946 31.7664L11.7073 33.1203C12.4625 34.4755 13.2459 35.8484 14.0778 37.1567C14.9492 36.6206 15.7364 36.0142 16.5356 35.3736C18.3029 36.9953 20.6451 37.5751 20.7752 40.312C20.7833 40.488 20.7833 40.6627 20.7821 40.8393L21.7402 40.8032C21.9632 40.8273 22.168 40.8355 22.3911 40.8178L22.6179 40.7988L22.6317 40.9121C22.3113 41.1209 21.972 41.2919 21.6328 41.4672L21.6296 41.6172C22.371 41.8349 24.1201 41.8083 24.8263 41.5121C25.7882 41.1083 25.3157 38.9758 25.6411 38.134C26.2625 37.6998 27.2539 36.7984 27.9444 36.587C28.9528 36.2775 30.1383 37.8644 31.1341 37.9701C31.273 37.8251 31.3766 37.7536 31.545 37.651L31.7178 37.7903C31.5658 37.9346 31.4307 38.0397 31.219 38.0878C30.4525 38.26 28.9063 37.0554 28.2026 36.6826C27.4562 37.2194 26.7274 37.8194 25.8541 38.1277C25.7668 39.0201 25.8912 40.4222 25.464 41.1925C25.2767 41.5311 25.1071 41.6469 24.7446 41.7545C23.4906 42.1274 20.8613 42.116 19.7285 41.4374C19.1366 40.6146 19.2598 39.3461 19.2214 38.36C18.1791 37.9422 17.3624 37.6074 16.5601 36.7813C15.9375 37.1219 14.2813 38.203 13.5902 37.9561C12.7396 37.6529 11.4774 35.0489 11.0929 34.2685C10.9025 33.8817 10.5042 33.1646 10.6795 32.7519C11.079 31.8126 12.301 31.3948 13.1649 31.0131C13.1567 29.8213 13.1316 28.6281 13.2095 27.4382C12.9896 27.023 11.5634 26.4944 11.0834 26.233C10.6449 25.6849 10.5689 25.3848 10.5795 24.6993C11.1343 23.6841 12.1722 20.9243 13.261 20.5655C14.2725 20.2325 15.4468 21.0642 16.2981 21.5073C16.998 21.0509 17.6872 20.6104 18.4323 20.2338L19.4734 19.7477Z" fill="#2D2F87"/>
<path d="M20.7681 24.3565C22.345 23.9343 23.8975 23.9356 25.3318 24.8091C26.6663 25.6212 27.5672 27.032 27.9134 28.548C28.232 29.943 28.0573 31.597 27.2418 32.799C27.194 32.8686 27.145 32.9363 27.0967 33.0053C25.815 34.1295 24.8449 34.8245 23.197 35.3156C22.5002 35.3707 21.7727 35.346 21.0935 35.172C19.7377 34.8245 18.5553 33.9402 17.8642 32.711C17.0669 31.2938 16.9475 29.3734 17.3999 27.822C17.9622 25.8933 19.1333 25.2243 20.7681 24.3565Z" fill="#2D2F87"/>
<path d="M22.0562 25.0722C23.3485 25.0229 24.4166 25.3368 25.3904 26.2268C26.3724 27.1237 26.9617 28.4295 26.9686 29.7663C26.9749 30.998 26.5037 32.0538 25.6675 32.9355C25.4268 32.3507 25.3785 31.5962 25.2245 30.9765C24.6516 28.677 23.7512 26.7325 22.0562 25.0722Z" fill="#62C9AF"/>
<path d="M25.6686 32.9379C25.1949 33.5107 24.4164 33.9303 23.7191 34.1588C22.6849 34.4975 21.451 34.3589 20.4966 33.8424C19.3632 33.2284 18.5634 32.1391 18.2355 30.8921C17.9132 29.6692 18.0307 28.3147 18.7111 27.233C19.492 25.993 20.6883 25.3993 22.0573 25.0745C23.7523 26.7348 24.6527 28.6793 25.2257 30.9788C25.3796 31.5985 25.428 32.353 25.6686 32.9379Z" fill="#58B1E7"/>
<path d="M20.5386 17.6998L25.4831 17.7156C25.4737 18.698 25.4806 19.6835 25.4536 20.6653C26.5172 21.2387 27.4332 21.8919 28.3524 22.6787C29.2188 22.1901 30.0638 21.5786 30.9535 21.1488C31.9003 22.2261 32.7698 23.5098 33.3641 24.8207C32.6441 25.5068 31.9235 26.1923 31.2236 26.8999C31.2242 28.3355 31.2098 29.773 31.2324 31.2079C32.1038 32.0668 32.7183 32.4118 33.9478 32.4985C32.9985 33.9841 32.014 35.6045 30.8787 36.9482C30.116 36.2577 29.4004 35.5583 28.7156 34.7886C28.2356 34.1581 27.6343 33.5821 27.0952 32.9998C27.1436 32.9308 27.1926 32.8631 27.2404 32.7935C28.0559 31.5915 28.2305 29.9375 27.912 28.5425C27.5658 27.0265 26.6649 25.6157 25.3304 24.8036C23.8961 23.9301 22.3436 23.9288 20.7666 24.351C20.5895 22.1388 20.6196 19.9165 20.5386 17.6998Z" fill="#7F53AF"/>
<path d="M13.1458 10.5491C13.9977 7.22223 15.5521 4.5758 18.5546 2.79591C21.2882 1.17552 24.5728 0.73562 27.6338 1.57556C30.7437 2.42943 33.4308 4.60112 35.0065 7.42287C36.1902 9.54393 36.5521 11.6998 36.7965 14.0867C39.0891 14.2241 41.0857 14.5893 42.7079 16.4015C43.9839 17.8256 44.4162 19.5251 44.4275 21.3987C44.141 23.1052 43.5555 24.6996 42.0979 25.7497C41.6845 26.0478 41.2572 26.2238 40.7722 26.3662C38.7561 25.9022 35.3885 26.5415 33.8826 26.0997C34.1282 25.8352 34.4235 25.537 34.5108 25.1743C34.8438 23.7824 32.8811 21.3607 32.1341 20.291C31.8237 20.0056 31.4932 19.6555 31.0616 19.5764C30.1864 19.4156 29.1448 20.693 28.5171 21.2284L26.3678 19.7581C26.3741 18.8612 26.523 17.6471 26.2296 16.8097C26.0832 16.7268 26.0687 16.7103 25.8815 16.654C24.7531 16.3147 20.6448 16.2945 19.634 16.823C19.3211 17.6712 19.622 18.7251 19.492 19.6384C19.4869 19.6752 19.48 19.7119 19.4744 19.7486L18.4333 20.2347C17.053 19.4853 15.7676 18.7206 14.7661 17.4769C13.1395 15.4558 12.8913 13.0411 13.1458 10.5491Z" fill="#EE8ACB"/>
</svg>
