<svg width="76" height="76" viewBox="0 0 76 76" fill="none" xmlns="http://www.w3.org/2000/svg">
<circle opacity="0.1" cx="30.4348" cy="30" r="30" fill="#03C343"/>
<path d="M58.054 32.1987C58.7693 32.1987 59.348 32.7813 59.348 33.4993C59.348 34.2163 58.7693 34.7988 58.054 34.7988C57.3396 34.7988 56.761 34.2163 56.761 33.4993C56.761 32.7813 57.3396 32.1987 58.054 32.1987Z" fill="#03C343"/>
<path d="M52.1834 23.4994C52.3826 23.4994 56.6619 24.5988 56.86 29.7991C56.86 30.4991 57.4565 30.999 58.1541 30.999C58.8506 30.999 59.348 30.3986 59.348 29.6995C59.2479 25.999 57.4565 23.7992 55.9653 22.6998C54.3731 21.4998 52.88 21.0995 52.7809 21.0995C52.0854 20.8993 51.488 21.3992 51.2888 21.9997C51.0897 22.5992 51.4879 23.2993 52.1834 23.4994Z" fill="#03C343"/>
<path d="M48.106 68.3999V65.9999C48.106 65.2989 47.5085 64.6994 46.812 64.6994C46.1154 64.6994 45.519 65.2989 45.519 65.9999V68.3999C39.6485 67.7994 34.972 63.099 34.3755 57.1997H36.7633C37.4599 57.1997 38.0563 56.5992 38.0563 55.8992C38.0563 55.1991 37.4599 54.5996 36.7633 54.5996H34.3755C34.972 48.6993 39.6485 43.9999 45.519 43.3994V45.7994C45.519 46.4995 46.1154 47.1 46.812 47.1C47.5085 47.1 48.106 46.4995 48.106 45.7994V43.3994C53.9755 43.9999 58.652 48.6993 59.2485 54.5996H56.8606C56.1651 54.5996 55.5676 55.1991 55.5676 55.8992C55.5676 56.5992 56.1651 57.1997 56.8606 57.1997H59.2485C58.652 63.099 53.9755 67.7994 48.106 68.3999ZM46.912 40.9995C38.6537 40.9995 31.9867 47.6995 31.9867 55.9998C31.9867 64.3 38.6537 71 46.912 71C55.1693 71 61.8354 64.3 61.8354 55.9998C61.8354 47.6995 55.0702 40.9995 46.912 40.9995Z" fill="#03C343"/>
<path d="M46.9117 73.4995C37.3595 73.4995 29.5005 65.5995 29.5005 55.9997C29.5005 46.3998 37.2604 38.4989 46.9117 38.4989C56.5621 38.4989 64.323 46.3998 64.323 55.9997C64.323 65.5995 56.463 73.4995 46.9117 73.4995ZM25.6196 52.2991C21.8387 51.1997 19.0535 47.1995 19.0535 42.7999C19.0535 38.3993 22.237 34.4996 26.7134 33.5994C26.8135 33.5994 26.8135 33.5994 26.9125 33.5994C27.7091 33.5994 30.3952 33.5994 32.3857 35.7992C32.8831 36.2991 33.5796 36.3997 34.176 35.8987C34.6734 35.3988 34.7725 34.6998 34.2751 34.0993C32.1865 31.6993 29.5005 31.0988 27.9073 30.9992C28.6038 26.2989 33.7777 23.4996 38.156 25.4992C38.7525 25.799 39.4491 25.4992 39.7473 24.8997C41.7368 20.8995 45.7178 18.4995 50.1942 18.4995C57.3587 18.4995 62.9299 24.7992 61.736 31.8995C61.636 32.6991 62.2334 33.3992 63.029 33.3992C68.4011 33.2986 72.6804 37.5986 72.6804 42.7999C72.6804 46.8997 70.0924 50.4997 66.5117 51.7992C64.5212 42.7999 56.5621 36.0999 47.1099 36.0999C37.4595 36.0999 29.3004 43.0996 27.6091 52.3997H25.6196V52.2991ZM66.7099 54.1992C71.6856 52.5989 74.9681 47.8996 74.9681 42.6993C74.9681 36.5998 70.1925 31.4991 64.224 30.8996C64.8204 22.8991 58.2534 16 50.0951 16C45.0213 16 40.4448 18.6997 37.9569 22.7995C31.8873 20.8995 25.7186 25.0989 25.2212 31.299C20.1473 32.7987 16.5657 37.3995 16.5657 42.6993C16.5657 48.2999 20.1473 53.3 25.1221 54.6991C25.4204 54.7997 25.4204 54.6991 27.1117 54.6991C26.4151 66.2996 35.5691 76 47.0098 76C57.9552 76 66.909 66.9997 66.909 55.9997C66.8099 55.3992 66.7099 54.7997 66.7099 54.1992Z" fill="#03C343"/>
<path d="M66.8099 68.4995C67.5253 68.4995 68.104 69.082 68.104 69.799C68.104 70.518 67.5253 71.0996 66.8099 71.0996C66.0956 71.0996 65.516 70.518 65.516 69.799C65.516 69.082 66.0956 68.4995 66.8099 68.4995Z" fill="#03C343"/>
<path d="M70.4914 68.4995C69.7949 68.4995 69.1975 69.099 69.1975 69.799C69.1975 70.5001 69.7949 71.0996 70.4914 71.0996H74.2714C74.9679 71.0996 75.5653 70.5001 75.5653 69.799C75.5653 69.099 74.9679 68.4995 74.2714 68.4995H70.4914Z" fill="#03C343"/>
<path d="M66.8099 72.2007C67.5253 72.2007 68.104 72.7823 68.104 73.5003C68.104 74.2183 67.5253 74.7998 66.8099 74.7998C66.0956 74.7998 65.516 74.2183 65.516 73.5003C65.516 72.7823 66.0956 72.2007 66.8099 72.2007Z" fill="#03C343"/>
<path d="M74.2714 72.3002H70.4914C69.7949 72.3002 69.1975 72.8998 69.1975 73.5998C69.1975 74.3009 69.7949 74.9004 70.4914 74.9004H74.2714C74.9679 74.9004 75.5653 74.3009 75.5653 73.5998C75.4652 72.8002 74.9679 72.3002 74.2714 72.3002Z" fill="#03C343"/>
<path d="M46.6124 57.2993C45.9159 57.2993 45.3184 56.6998 45.3184 55.9997C45.3184 55.2997 45.9159 54.6992 46.6124 54.6992C47.309 54.6992 47.9064 55.2997 47.9064 55.9997C47.8063 56.6998 47.309 57.2993 46.6124 57.2993ZM50.9907 49.7996L48.2047 52.599C47.7073 52.3998 47.2099 52.1996 46.6124 52.1996C44.5238 52.1996 42.8325 53.8995 42.8325 55.9997C42.8325 58.0989 44.5238 59.7988 46.6124 59.7988C49.2995 59.7988 51.1889 56.8989 49.995 54.3994L52.7811 51.5991C53.2795 51.0992 53.2795 50.2995 52.7811 49.7996C52.2837 49.2997 51.4881 49.2997 50.9907 49.7996Z" fill="#03C343"/>
</svg>
