<svg width="57" height="60" viewBox="0 0 57 60" fill="none" xmlns="http://www.w3.org/2000/svg">
<ellipse opacity="0.2" cx="23.0882" cy="22.4999" rx="22.5882" ry="22.4999" fill="url(#paint0_linear_8254_108205)"/>
<path d="M15.5675 17.6113C17.5027 16.4225 19.8263 15.5396 21.8867 14.561L35.8709 8C35.9066 9.16997 35.9259 10.3371 35.9209 11.507L36.1563 11.8137C36.1742 12.1971 36.1799 12.5248 36.1198 12.9068C36.0068 12.9728 35.8752 13.0663 35.7535 13.1127C30.6061 15.7005 25.2527 18.2558 19.8864 20.3464L19.8607 29.6061C19.8471 37.3066 20.3815 41.9814 26.0611 47.7457C28.882 50.6083 32.4526 52.7091 35.7821 54.9033L35.9252 55.0222C36.0941 55.2759 36.3051 55.5383 36.4418 55.8094L36.1792 56.0834C36.2486 57.3875 36.2901 58.6981 36.3817 60C33.7268 59.3657 25.4924 53.3129 23.4034 51.1701C19.1467 46.8034 16.1541 41.1724 15.6118 34.9913C15.4187 32.7891 15.5331 30.5086 15.5389 28.2955L15.5675 17.6113Z" fill="#F37316"/>
<path d="M35.9191 11.5076L36.1544 11.8142C36.1723 12.1977 36.178 12.5253 36.1179 12.9073C36.0049 12.9733 35.8733 13.0668 35.7517 13.1132C30.6043 15.7011 25.2508 18.2563 19.8845 20.3469L19.8588 29.6066C19.8452 37.3071 20.3796 41.9819 26.0592 47.7463C28.8801 50.6089 32.4507 52.7096 35.7803 54.9039L35.9234 55.0227C36.0922 55.2764 36.3032 55.5389 36.4399 55.81L36.1773 56.084C34.1913 55.9724 26.6995 50.0043 25.2165 48.469C21.6874 44.8177 19.3337 40.1552 18.8651 35.0353C18.6948 33.176 18.7628 31.2623 18.752 29.3972C18.7327 26.1163 18.7249 22.8369 18.7664 19.5568C21.3526 18.4897 23.8608 17.2103 26.4084 16.0504C29.6106 14.592 32.8521 13.2502 35.9191 11.5076Z" fill="#DC202B"/>
<path d="M35.8732 8C42.7032 11.2395 49.5361 14.7132 56.4928 17.6577L56.4856 28.1701C56.4806 30.3179 56.5622 32.5238 56.3869 34.6644C55.8668 40.9999 53.4566 46.8433 49.0225 51.3753C46.6273 53.8232 43.7577 55.9174 40.7831 57.5818C39.3394 58.3893 37.7683 59.1055 36.384 60C36.2924 58.6981 36.2509 57.3875 36.1815 56.0834L36.4441 55.8094C36.3074 55.5383 36.0964 55.2759 35.9276 55.0222C39.3615 53.3332 43.1797 50.6736 45.8389 47.9226C53.4766 40.0213 52.1917 30.9065 52.1245 20.8168C46.7525 18.0985 41.1708 15.7542 35.7559 13.1127C35.8775 13.0663 36.0091 12.9728 36.1221 12.9068C36.1822 12.5248 36.1765 12.1971 36.1586 11.8137L35.9233 11.507C35.9283 10.3371 35.909 9.16997 35.8732 8Z" fill="#F2BE2A"/>
<path d="M36.1586 11.8148C38.3163 13.0688 40.6049 14.0888 42.8527 15.1652L53.2026 20.0619L53.194 29.1266C53.1869 37.2374 52.5094 42.7502 46.5579 48.7936C44.5218 50.8617 39.182 55.011 36.4441 55.8105C36.3074 55.5394 36.0964 55.277 35.9276 55.0233C39.3615 53.3343 43.1797 50.6747 45.8389 47.9237C53.4766 40.0224 52.1917 30.9077 52.1245 20.8179C46.7525 18.0996 41.1708 15.7553 35.7559 13.1138C35.8775 13.0674 36.0091 12.9739 36.1221 12.9079C36.1822 12.5259 36.1765 12.1982 36.1586 11.8148Z" fill="#E53022"/>
<path d="M35.7544 13.1117C35.4225 16.0323 35.6214 19.1196 35.6593 22.0561L35.5212 22.0822C35.4762 29.7059 35.5763 37.3332 35.4876 44.9554L36.1443 45.8383C36.0564 45.9586 35.9455 46.0638 35.8811 46.1979C35.5842 46.8205 35.7795 53.6033 35.7831 54.9023C32.4535 52.7081 28.8829 50.6074 26.062 47.7448C20.3824 41.9804 19.848 37.3056 19.8616 29.6051L19.8873 20.3454C25.2536 18.2548 30.6071 15.6995 35.7544 13.1117Z" fill="#F28E15"/>
<path d="M30.0497 34.0409C30.0733 31.1268 29.6326 24.6579 30.2436 22.2129C31.0298 21.7098 34.4731 22.0541 35.5255 22.0838C35.4804 29.7075 35.5805 37.3348 35.4918 44.957L29.3736 38.8505C28.3828 37.8437 27.2589 36.8397 26.4047 35.7132C26.0684 35.2696 25.7951 34.8578 25.7637 34.2852C26.3682 33.7451 29.1712 34.0315 30.0497 34.0409Z" fill="#452B90"/>
<path d="M35.7551 13.1139C41.1701 15.7554 46.7517 18.0997 52.1238 20.818C52.191 30.9078 53.4759 40.0226 45.8382 47.9239C43.179 50.6748 39.3608 53.3344 35.9268 55.0234L35.7838 54.9046C35.7802 53.6056 35.5849 46.8228 35.8818 46.2001C35.9461 46.066 36.057 45.9609 36.145 45.8405L35.4883 44.9576C35.577 37.3354 35.4768 29.7081 35.5219 22.0844L35.66 22.0583C35.6221 19.1218 35.4232 16.0345 35.7551 13.1139Z" fill="#F2BE2A"/>
<path d="M35.66 22.0577C36.8068 22.0751 40.9798 21.801 41.7095 22.2708C42.2747 24.1533 41.8741 31.5885 41.9113 34.1191C43.5109 34.114 45.366 33.885 46.9241 34.1626C47.1116 34.3982 47.1195 34.3141 47.1001 34.5845C47.078 34.8969 46.9814 35.089 46.7825 35.3166C44.9432 37.4224 42.7805 39.3695 40.8024 41.3477C39.4152 42.7337 37.9758 44.4394 36.4491 45.6499C36.3153 45.7558 36.2774 45.7703 36.145 45.8398L35.4883 44.957C35.577 37.3347 35.4768 29.7074 35.5219 22.0837L35.66 22.0577Z" fill="#75349C"/>
<defs>
<linearGradient id="paint0_linear_8254_108205" x1="0.99827" y1="22.4999" x2="45.6765" y2="22.4999" gradientUnits="userSpaceOnUse">
<stop stop-color="#202CD3"/>
<stop offset="1" stop-color="#0778F9"/>
</linearGradient>
</defs>
</svg>
