<svg width="82" height="80" viewBox="0 0 82 80" fill="none" xmlns="http://www.w3.org/2000/svg">
<circle opacity="0.2" cx="30.2511" cy="30" r="30" fill="url(#paint0_linear_8175_30776)"/>
<path d="M63.8158 56.9803C65.5059 56.8847 67.7847 56.5544 69.4019 56.9503L69.0878 57.1826C69.0435 57.4964 69 57.803 68.9857 58.1191C68.1779 58.2535 67.5125 58.2977 66.6935 58.225C66.6548 57.9429 66.601 57.8046 66.4372 57.5715C65.7163 57.3043 64.7408 57.4324 63.9622 57.3636C64.6664 57.3328 65.3603 57.2751 66.0605 57.1977C65.3896 56.9701 64.5279 57.0206 63.8158 56.9803Z" fill="#E48CCC"/>
<path d="M23.1343 56.8668L31.4605 56.87C32.8586 56.8731 34.3714 56.7585 35.7537 56.9529C34.1064 57.0976 32.4179 57.0312 30.765 57.0257C30.1027 56.949 29.4673 56.9379 28.8019 56.9529L28.8154 59.7703L25.9123 59.8066C26.1038 59.7553 26.3 59.6707 26.4868 59.6028C26.7732 59.0899 26.6126 58.1083 26.6173 57.5212C26.8286 57.3512 26.7233 57.4603 26.9069 57.1726C25.796 56.8115 24.4691 57.0628 23.2949 56.8921C23.2411 56.885 23.1881 56.8755 23.1343 56.8668Z" fill="#F6D028"/>
<path d="M73.0272 52.0587C73.0763 51.4992 76.2524 47.7574 76.7818 46.8976C77.6632 45.4657 78.4727 43.8433 78.8683 42.2004C79.3162 40.3402 79.3439 38.1157 79.0574 36.2262C78.8636 34.95 77.7969 32.5192 78.0533 31.5251C80.6605 34.7674 82.1315 38.6025 81.6623 42.8065C81.2603 46.4179 79.6446 49.6793 77.1347 52.291C75.7563 52.0879 74.4175 52.0729 73.0272 52.0587Z" fill="#4C8FD3"/>
<mask id="mask0_8175_30776" style="mask-type:luminance" maskUnits="userSpaceOnUse" x="69" y="70" width="7" height="10">
<path d="M69.2724 70.4592C71.2971 70.7872 73.5158 70.5896 75.5722 70.6837C75.5786 73.7176 75.7249 76.8194 75.5461 79.8462C73.424 79.9181 71.2972 79.8707 69.175 79.8533C69.2613 76.7254 69.2494 73.588 69.2724 70.4592Z" fill="white"/>
</mask>
<g mask="url(#mask0_8175_30776)">
<path d="M69.2724 70.4592C71.2971 70.7872 73.5158 70.5896 75.5722 70.6837C75.5786 73.7176 75.7249 76.8194 75.5461 79.8462C73.424 79.9181 71.2972 79.8707 69.175 79.8533C69.2613 76.7254 69.2494 73.588 69.2724 70.4592Z" fill="url(#paint1_linear_8175_30776)"/>
</g>
<path d="M29.3111 70.809L35.7946 70.7948C35.8555 73.7615 36.0216 76.846 35.7914 79.7977C33.6701 79.8759 31.5488 79.8617 29.4267 79.8577C29.2399 76.8539 29.3127 73.8184 29.3111 70.809Z" fill="#2A9357"/>
<path d="M31.2981 72.5241L31.9984 72.6948C32.4644 73.101 32.6662 73.4503 32.6947 74.0802C32.7263 74.7922 32.4668 75.3082 31.9825 75.799C31.6589 75.716 31.3662 75.6552 31.1027 75.4331C30.7474 75.132 30.5994 74.7242 30.5686 74.2753C30.5203 73.5704 30.8669 73.0386 31.2981 72.5241Z" fill="#53C7E1"/>
<path d="M21.2357 70.6484C23.0176 70.9819 24.9862 70.8286 26.7942 70.8104L29.3 70.8096C29.3016 73.819 29.2288 76.8545 29.4156 79.8584C26.6976 79.8663 23.9774 79.8947 21.2603 79.8078L21.2357 70.6484Z" fill="#3AB73E"/>
<path d="M24.5134 72.852C24.8829 72.9058 25.2461 72.9492 25.5594 73.1721C25.906 73.4179 26.1607 73.828 26.2153 74.2492C26.304 74.9392 26.0262 75.4655 25.6354 76.0021C25.2033 75.9365 24.7895 75.9096 24.4374 75.6243C24.0434 75.3035 23.825 74.8601 23.8218 74.3528C23.8171 73.6873 24.0774 73.327 24.5134 72.852Z" fill="white"/>
<path d="M69.4197 56.9534C71.4516 57.0253 73.5041 56.9408 75.5289 57.0522L75.5487 70.7051C73.4923 70.611 71.2736 70.8086 69.2488 70.4806L69.2393 68.6962L69.1721 68.6622C69.3976 66.2677 69.1547 63.6803 69.1626 61.2573C69.1919 60.2947 69.309 59.0366 69.0035 58.1222C69.0178 57.8061 69.0613 57.4995 69.1056 57.1858L69.4197 56.9534Z" fill="#F27718"/>
<path d="M70.3787 57.6993C71.0702 57.6337 72.2033 57.4574 72.8402 57.7744C73.2572 57.9822 73.2659 58.0786 73.4139 58.4919C73.3363 58.9471 73.2841 59.3328 73.038 59.735C72.3686 59.7651 71.8409 59.8093 71.3099 59.3328C70.7806 58.857 70.4119 58.3955 70.3787 57.6993Z" fill="#BE71BF"/>
<path d="M69.16 61.2584C70.6926 61.2631 72.2292 61.2457 73.7618 61.2757C73.8188 63.7462 73.8346 66.2126 73.822 68.6838L69.2367 68.6973L69.1695 68.6633C69.395 66.2687 69.1521 63.6814 69.16 61.2584Z" fill="#BE71BF"/>
<path d="M21.3591 56.8438C21.9486 56.8233 22.5483 56.858 23.1386 56.8683C23.1924 56.877 23.2454 56.8865 23.2992 56.8936C24.4734 57.0643 25.8003 56.813 26.9112 57.1742C26.7277 57.4618 26.8329 57.3528 26.6216 57.5227C26.6169 58.1098 26.7775 59.0914 26.4911 59.6043C26.3043 59.6722 26.1081 59.7568 25.9166 59.8082L28.8197 59.7718C28.8759 60.2847 28.9004 60.8324 29.004 61.3366L29.2058 61.4693L28.9724 61.58L26.8337 61.5863L26.8669 68.0358L29.1718 68.0373L29.3071 70.8096L26.8012 70.8104C24.9933 70.8286 23.0246 70.9819 21.2428 70.6484C21.2167 66.0925 20.9896 61.38 21.3591 56.8438Z" fill="#F29822"/>
<path d="M26.8643 68.032L29.1692 68.0336L29.3044 70.8058L26.7986 70.8066C26.8967 69.8947 26.8571 68.9495 26.8643 68.032Z" fill="#F29822"/>
<path d="M22.7391 57.4903C24.0336 57.4761 25.3249 57.4927 26.6193 57.5212C26.6146 58.1083 26.7752 59.0899 26.4888 59.6028C26.3021 59.6707 26.1058 59.7553 25.9144 59.8066C24.8636 59.7252 23.7835 59.7545 22.728 59.7395L22.7391 57.4903Z" fill="white"/>
<path d="M22.7176 59.7522C23.7731 59.7672 24.8532 59.7379 25.9039 59.8193L28.807 59.783C28.8632 60.2959 28.8877 60.8435 28.9914 61.3477C27.1074 61.5224 24.4916 61.6844 22.6662 61.3311C22.5071 60.7787 22.6227 60.3038 22.7176 59.7522Z" fill="#ECB411"/>
<path d="M22.5949 61.5915L26.8225 61.5859L26.8558 68.0354L22.5562 68.0488L22.5949 61.5915Z" fill="white"/>
<path d="M28.8102 56.9515C29.4756 56.9364 30.111 56.9475 30.7733 57.0242C32.4262 57.0297 34.1147 57.0961 35.762 56.9515C35.7636 61.5525 35.6275 66.1977 35.7945 70.7924L29.3111 70.8066L29.1758 68.0343L26.8709 68.0328L26.8376 61.5833L28.9764 61.577L29.2098 61.4663L29.008 61.3336C28.9044 60.8294 28.8798 60.2817 28.8237 59.7688L28.8102 56.9515Z" fill="#F27718"/>
<path d="M28.8065 56.9558C29.472 56.9408 30.1073 56.9519 30.7696 57.0285C31.1549 57.2403 31.4833 57.3913 31.909 57.5169C32.432 57.5169 32.5989 57.4363 33.0135 57.7769C33.2628 58.3554 33.1694 59.0098 33.1433 59.627L33.137 59.7534C33.4717 60.2553 33.4345 60.874 33.4646 61.4581L29.2061 61.4707L29.0043 61.3379C28.9007 60.8337 28.8762 60.2861 28.82 59.7732L28.8065 56.9558Z" fill="#E48CCC"/>
<path d="M28.8065 56.9597C29.472 56.9447 30.1073 56.9558 30.7696 57.0324C31.1549 57.2442 31.4833 57.3952 31.909 57.5208C31.3899 57.5208 30.8147 57.4331 30.3748 57.7484C30.1105 58.2985 30.2513 59.0579 30.2838 59.6562L33.1433 59.6309L33.137 59.7573C31.7072 59.849 30.2529 59.7866 28.82 59.7771L28.8065 56.9597Z" fill="#EE2276"/>
<path d="M33.1235 59.7534C33.4582 60.2553 33.421 60.874 33.4511 61.4581L29.1926 61.4707L28.9909 61.3379C28.8872 60.8337 28.8627 60.2861 28.8065 59.7732C30.2395 59.7827 31.6937 59.8451 33.1235 59.7534Z" fill="#F29822"/>
<path d="M29.2098 61.4735L33.4682 61.4609L33.4603 68.0645L29.1758 68.0415L26.8709 68.04L26.8376 61.5905L28.9764 61.5842L29.2098 61.4735Z" fill="#E48CCC"/>
<path d="M26.8376 61.5821L28.9764 61.5758C28.9866 63.7112 28.9052 65.9113 29.1758 68.0332L26.8709 68.0316L26.8376 61.5821Z" fill="#E6BEE3"/>
<path d="M20.9289 51.9707C19.7894 50.964 18.6515 49.9367 17.6632 48.7782C14.8882 45.5289 13.4472 40.8856 13.8049 36.6366C14.1562 32.4643 16.0965 28.4556 19.3321 25.7586C22.7702 22.8933 26.7258 21.8107 31.1325 22.1813L31.1721 22.431C29.6394 23.6131 27.1144 24.1323 25.311 24.868C20.9407 26.6491 17.1259 30.8973 16.5301 35.667C16.0712 39.3455 17.6688 43.0121 19.9303 45.8394C20.6068 46.6842 21.3585 47.4799 22.1633 48.2038C22.9569 48.9181 25.9749 50.9616 26.1909 51.8893C24.4359 51.898 22.6832 51.932 20.9289 51.9707Z" fill="#53C7E1"/>
<path d="M49.5059 65.8696L49.6246 65.898C49.6507 67.5956 49.5589 69.3903 49.8303 71.0673C49.8683 70.3204 49.8272 69.5602 49.8145 68.8126L58.1526 68.8568C58.1463 70.6508 58.4279 78.993 57.8828 79.7943L57.2981 79.8899C54.3206 80.082 51.2894 79.9769 48.3056 79.9397C47.6718 79.8504 47.0191 79.8496 46.379 79.8212L46.2682 65.9154L49.5059 65.8696Z" fill="#ED2A31"/>
<path d="M53.1368 71.3852C53.3979 71.4769 53.7532 71.5718 53.9716 71.7393C54.387 72.0586 54.6283 72.5912 54.6465 73.1096C54.6742 73.9007 54.3379 74.5456 53.8094 75.1035C53.5459 75.0403 53.2476 74.9715 53.0205 74.8159C52.5901 74.5195 52.3503 73.9141 52.3329 73.4099C52.3044 72.5628 52.5806 72.0009 53.1368 71.3852Z" fill="#DB9EB5"/>
<path d="M49.5059 65.8696L49.6246 65.898C49.6507 67.5956 49.5589 69.3903 49.8303 71.0673C49.8438 73.9945 49.8754 76.9224 49.8517 79.8504C52.3093 79.852 54.8508 79.7177 57.2981 79.8899C54.3206 80.082 51.2894 79.9769 48.3056 79.9397C47.6718 79.8504 47.0191 79.8496 46.379 79.8212L46.2682 65.9154L49.5059 65.8696Z" fill="#F29822"/>
<path d="M36.7599 17.4315C38.9219 13.8993 42.3081 11.4923 46.3314 10.5408C51.5314 9.31049 57.0409 10.1955 61.5675 13.03C66.5586 16.1553 69.1345 20.477 70.4014 26.1262C70.4497 26.3404 70.4924 26.5537 70.528 26.7702C70.0659 26.9575 68.3985 26.3656 67.805 26.2811C66.4011 26.0827 65.0376 26.0614 63.6234 26.0796C62.8329 22.5908 61.4187 19.9143 58.7542 17.4813C54.0749 13.2094 46.6353 12.0446 41.004 15.1905C40.0409 15.7286 37.8559 17.6733 36.9799 17.7089L36.7599 17.4315Z" fill="#5EBDED"/>
<path d="M60.8938 56.8478C61.8734 56.8518 62.8617 56.9261 63.8405 56.9735C64.5526 57.0138 65.4143 56.9632 66.0853 57.1908C65.385 57.2682 64.6911 57.3259 63.9868 57.3567C64.7655 57.4255 65.7411 57.2975 66.4619 57.5646C66.6257 57.7977 66.6795 57.936 66.7183 58.2181C67.5372 58.2908 68.2027 58.2466 69.0106 58.1122C69.316 59.0265 69.1989 60.2846 69.1696 61.2471C69.1617 63.67 69.4046 66.2572 69.1791 68.6517L69.2464 68.6856L69.2559 70.47C69.2329 73.5986 69.2448 76.7358 69.1585 79.8636L66.852 79.8691H61.0196C61.1225 72.2101 60.9112 64.5116 60.8938 56.8478Z" fill="#F6D028"/>
<path d="M64.3301 75.2754C63.7248 75.2572 63.3917 75.0818 62.9083 74.7522C62.6551 74.3468 62.5704 74.1153 62.6171 73.6308C62.6796 72.9788 63.2272 72.1032 63.7391 71.7049C64.1244 71.4046 64.6719 71.3548 65.138 71.407C65.4165 71.6085 65.5115 71.7104 65.6286 72.0345C64.9497 72.0558 64.2874 72.0194 63.8253 72.609C63.5112 73.0097 63.5349 73.4981 63.6607 73.9612C63.7858 74.4187 64.0603 74.8874 64.3301 75.2754Z" fill="#F27718"/>
<path d="M64.3144 75.2754C64.0446 74.8874 63.77 74.4187 63.645 73.9612C63.5192 73.4981 63.4955 73.0097 63.8096 72.609C64.2717 72.0194 64.934 72.0558 65.6128 72.0345C66.0805 72.8484 66.3416 73.5708 66.139 74.5088C65.8921 74.8929 65.7125 75.0873 65.252 75.2011C64.9632 75.273 64.6127 75.2635 64.3144 75.2754Z" fill="white"/>
<path d="M68.996 58.1239C69.3014 59.0382 69.1843 60.2963 69.155 61.2589C68.3377 61.2794 67.5235 61.2597 66.7069 61.2391C66.0818 61.0392 65.293 61.0732 64.6362 61.0313C65.1497 60.7745 65.835 61.0929 66.4411 60.7824C66.4933 60.3943 66.574 60.3785 66.3437 60.0363C65.9085 59.981 65.4821 59.947 65.0437 59.9225C65.5778 59.8965 66.1032 59.8372 66.6349 59.774C66.6341 59.2611 66.6776 58.7419 66.7037 58.2298C67.5227 58.3025 68.1881 58.2582 68.996 58.1239Z" fill="#ECB411"/>
<path d="M62.8514 59.6617C62.8348 58.9971 62.7612 58.3127 62.9526 57.6694C63.349 57.3114 63.4567 57.3778 63.9741 57.362C64.7527 57.4307 65.7283 57.3027 66.4491 57.5698C66.6129 57.8029 66.6667 57.9412 66.7055 58.2234C66.6794 58.7355 66.6359 59.2547 66.6367 59.7676C65.4039 59.5708 64.0992 59.653 62.8514 59.6617Z" fill="white"/>
<path d="M69.1516 68.6511L69.2188 68.6851L69.2283 70.4696C69.2054 73.5983 69.2172 76.7357 69.131 79.8636L66.8245 79.8691C66.9084 76.1485 66.7264 72.4184 66.7786 68.6946L69.1516 68.6511Z" fill="#F29822"/>
<path d="M66.7104 61.2376C67.527 61.2582 68.3412 61.2779 69.1585 61.2574C69.1506 63.6804 69.3935 66.2678 69.168 68.6623L66.7951 68.7058C65.3273 68.7714 63.8572 68.75 62.3887 68.7429L62.3705 61.2961C63.8185 61.2977 65.264 61.3072 66.7104 61.2376Z" fill="white"/>
<path d="M66.7065 61.2291C67.5231 61.2497 68.3373 61.2694 69.1546 61.2489C69.1467 63.6719 69.3896 66.2593 69.1641 68.6538L66.7912 68.6973C66.7865 66.2071 66.7738 63.7185 66.7065 61.2291Z" fill="#E48CCC"/>
<path d="M70.5634 26.9649C73.484 27.8966 76.1133 29.0575 78.0567 31.523C77.8003 32.5171 78.8669 34.9479 79.0608 36.2242C79.3472 38.1136 79.3195 40.3382 78.8717 42.1984C78.476 43.8413 77.6666 45.4637 76.7851 46.8956C76.2558 47.7554 73.0796 51.4971 73.0306 52.0566L65.7913 52.0092C64.9296 51.4094 61.02 52.1483 59.7532 51.765C60.4305 50.6603 63.5496 49.4433 64.7571 48.6017C67.0265 47.0196 68.992 44.8615 70.3561 42.4584C72.2496 39.1243 72.828 35.1265 71.9291 31.3918C71.581 29.9441 70.9986 28.5691 70.6085 27.1332L70.5634 26.9649Z" fill="#53C7E1"/>
<path d="M49.5525 40.7795C51.7547 40.7589 55.9794 40.3923 57.8927 40.8585C58.756 42.3322 58.3049 50.0384 58.2393 52.0519C57.7051 57.1906 58.3437 63.5139 58.1617 68.862L49.8231 68.8178C49.8358 69.5653 49.8769 70.3255 49.839 71.0723C49.5675 69.3954 49.6593 67.6009 49.6332 65.9035L49.5145 65.875C49.7669 62.9639 49.5549 59.7138 49.4188 56.7852C49.1102 56.4565 48.7889 56.4818 48.3577 56.3957L46.2734 56.3996L46.2742 53.4173C46.2315 50.3418 46.2362 47.2742 46.2821 44.1987L46.4728 44.1616L49.2827 44.2058L49.4132 44.1584C49.4718 43.0237 49.2787 41.8968 49.5525 40.7795Z" fill="#F27718"/>
<path d="M49.4832 56.4004C51.6473 56.4044 53.8184 56.3736 55.9817 56.4162C55.9825 59.5734 56.0402 62.7416 55.9714 65.8972L49.6375 65.9004L49.5188 65.8719C49.7713 62.9605 49.5592 59.7101 49.4231 56.7814C49.1145 56.4526 48.7933 56.4779 48.3621 56.3917L49.4832 56.4004Z" fill="#E48CCC"/>
<path d="M46.4728 44.1488L49.2825 44.193L49.413 44.1456C51.653 44.2025 53.893 44.1559 56.1315 44.2057C56.1267 47.2585 56.2035 50.3343 56.1014 53.3848H49.4827L49.4787 56.3926L48.3575 56.3839L46.2734 56.3878L46.2742 53.4053C46.2315 50.3296 46.2362 47.2617 46.2821 44.1859L46.4728 44.1488Z" fill="#E6BEE3"/>
<path d="M49.0692 53.3824L49.4775 53.3848L49.4735 56.3926L48.3523 56.3839L46.2682 56.3878L46.269 53.4053L49.0692 53.3824Z" fill="#F29822"/>
<path d="M48.1636 40.7944L49.5626 40.7739C49.2888 41.8913 49.4819 43.0181 49.4233 44.1528L49.2927 44.2003L46.4829 44.156L46.2922 44.1931C46.2463 47.2687 46.2415 50.3363 46.2843 53.4118L46.2835 56.394L48.3677 56.3901C48.799 56.4762 49.1203 56.4509 49.4289 56.7796C49.565 59.7082 49.777 62.9583 49.5246 65.8695L46.2867 65.9153L46.3974 79.8199C47.0376 79.8483 47.6904 79.8491 48.3242 79.9384L38.877 79.9629C38.9419 70.6273 38.7528 61.2775 38.733 51.9396C38.7251 49.2142 38.7061 46.4966 38.6238 43.7728C38.5993 42.9683 38.4972 41.8043 39.1738 41.2227C40.1676 40.3685 46.5066 40.7802 48.1636 40.7944Z" fill="#ECB411"/>
<path d="M42.8537 71.1075C43.1599 71.2094 43.4962 71.3122 43.751 71.5161C44.1118 71.8053 44.3713 72.255 44.4227 72.7141C44.5129 73.5242 44.1909 74.0047 43.6837 74.5879C43.2715 74.5112 42.921 74.4259 42.6053 74.1311C42.2049 73.7557 41.9802 73.3045 41.9952 72.7473C42.0166 71.991 42.3521 71.622 42.8537 71.1075Z" fill="white"/>
<path d="M48.1635 40.7912L49.5624 40.7706C49.2886 41.8881 49.4817 43.015 49.4231 44.1498L49.2926 44.1973L46.4829 44.153C46.4512 43.2584 46.2076 42.0714 46.5913 41.2606C47.1024 40.852 47.536 40.8765 48.1635 40.7912Z" fill="#F29822"/>
<path d="M40.5179 44.184C42.4367 44.1555 44.3578 44.1761 46.2766 44.1808C46.2307 47.2566 46.226 50.3244 46.2687 53.4002C44.3863 53.4373 42.5016 53.4192 40.6192 53.4207C40.6279 50.341 40.5725 47.2629 40.5179 44.184Z" fill="white"/>
<path d="M46.2684 56.3926L48.3525 56.3887C48.7837 56.4748 49.105 56.4495 49.4136 56.7783C49.5497 59.707 49.7617 62.9575 49.5093 65.8688L46.2716 65.9147L46.1442 65.891C44.2626 65.9803 42.3731 65.955 40.4892 65.9629L40.4789 56.3831L43.8195 56.4045C44.6353 56.3981 45.4526 56.38 46.2684 56.3926Z" fill="white"/>
<path d="M46.2716 56.3939L48.3558 56.39C48.787 56.4761 49.1082 56.4508 49.4168 56.7796C49.5529 59.7084 49.765 62.9588 49.5126 65.8702L46.2748 65.916L46.1474 65.8923C46.5343 64.2651 46.2099 58.7134 46.2582 56.5512C45.5658 56.5559 44.4368 56.714 43.8228 56.4058C44.6385 56.3995 45.4559 56.3813 46.2716 56.3939Z" fill="#E6BEE3"/>
<path d="M36.759 17.4371L36.979 17.7145C37.855 17.679 40.0399 15.7342 41.0029 15.196C46.6341 12.0501 54.0734 13.2149 58.7526 17.4869C61.417 19.9201 62.8311 22.5966 63.6217 26.0855C65.0358 26.0673 66.3992 26.0887 67.803 26.287C68.3965 26.3716 70.0639 26.9635 70.526 26.7762L70.5632 26.9761L70.6083 27.1444C70.9985 28.5803 71.5809 29.9553 71.9291 31.403C72.828 35.1377 72.2496 39.1355 70.3559 42.4695C68.9916 44.8727 67.026 47.0308 64.7564 48.6129C63.5488 49.4545 60.4294 50.6714 59.752 51.7762C61.019 52.1595 64.9289 51.4206 65.7907 52.0204C63.2727 52.0125 60.7562 52.0077 58.239 52.0488C58.3047 50.0353 58.7557 42.3289 57.8924 40.8551C55.979 40.3888 51.754 40.7555 49.5517 40.7761L48.1526 40.7966C46.4956 40.7824 40.1562 40.3707 39.1623 41.2249C38.4857 41.8065 38.5878 42.9706 38.6123 43.775C38.6946 46.499 38.7136 49.2166 38.7215 51.9421C34.5433 51.8987 30.365 51.9706 26.1868 51.8963C25.9708 50.9686 22.9526 48.925 22.1589 48.2106C21.3541 47.4868 20.6024 46.691 19.9258 45.8462C17.6641 43.0188 16.0664 39.3521 16.5254 35.6735C17.1213 30.9036 20.9363 26.6553 25.3068 24.8741C27.1103 24.1384 29.6354 23.6192 31.1682 22.437L31.1287 22.1873C31.5228 22.1233 31.9192 22.0585 32.3109 21.981C34.8163 21.4832 35.496 19.3448 36.759 17.4371Z" fill="#68CCCC"/>
<defs>
<linearGradient id="paint0_linear_8175_30776" x1="0.912864" y1="30" x2="60.2511" y2="30" gradientUnits="userSpaceOnUse">
<stop stop-color="#202CD3"/>
<stop offset="1" stop-color="#0778F9"/>
</linearGradient>
<linearGradient id="paint1_linear_8175_30776" x1="76.2226" y1="77.36" x2="68.332" y2="73.0618" gradientUnits="userSpaceOnUse">
<stop stop-color="#E83D3E"/>
<stop offset="1" stop-color="#D53E61"/>
</linearGradient>
</defs>
</svg>
