<svg width="84" height="80" viewBox="0 0 84 80" fill="none" xmlns="http://www.w3.org/2000/svg">
<circle opacity="0.2" cx="30.25" cy="30" r="30" fill="url(#paint0_linear_8175_30740)"/>
<path d="M62.6462 58.74C64.0389 58.7751 65.4334 58.7094 66.8261 58.6626L66.9182 65.6591C66.9634 69.4455 67.4854 74.2277 64.6142 77.211C61.2336 80.7231 55.1101 79.9263 50.6791 79.9119L47.8666 79.8975L47.2831 79.6474C46.9526 79.0655 47.0636 78.3262 47.0835 77.675C49.8689 77.7497 58.7327 78.3766 60.9103 76.8449L60.8163 76.6785C56.3917 77.6481 51.4648 77.1804 46.9525 77.1489C46.8342 76.5868 46.8857 76.021 46.8975 75.449C50.4036 75.3105 58.8203 76.3601 61.3537 73.9327C61.9923 73.3211 62.3536 72.4541 62.5206 71.6014C63.0878 68.7045 62.6688 62.0291 62.6462 58.74Z" fill="#F27718"/>
<path d="M28.1188 58.6434C29.6045 58.6632 31.0906 58.6982 32.5755 58.6308L32.5619 66.6879C32.5495 68.2619 32.3663 70.0167 32.6235 71.5665C32.7816 72.5199 33.1508 73.4031 33.8571 74.084C36.0154 76.1635 43.7971 75.595 46.7434 75.4556C46.7931 75.4538 46.8427 75.4502 46.8924 75.4466C46.8807 76.0186 46.8292 76.5844 46.9475 77.1465C51.4599 77.178 56.3869 77.6458 60.8118 76.6762L60.9057 76.8426C58.7281 78.3743 49.864 77.7474 47.0785 77.6727C47.0586 78.3239 46.9475 79.0632 47.2781 79.6452L47.8615 79.8952C43.0032 79.7522 34.0915 80.8855 30.4645 77.3615C29.3969 76.3236 28.7934 74.9366 28.446 73.5128C27.6138 70.1004 28.1023 62.4444 28.1188 58.6434Z" fill="#F29822"/>
<path d="M32.5813 58.6386C34.2978 58.6197 36.0246 58.5621 37.74 58.6188C37.7138 61.0635 37.0709 67.8893 38.6815 69.4615C40.5127 71.2487 45.2517 70.5957 47.6334 70.5993C49.9601 70.6379 54.6198 71.2666 56.3819 69.5748C58.079 67.9468 57.4278 61.1156 57.4495 58.6934C59.181 58.6853 60.9178 58.6476 62.6475 58.7447C62.6701 62.0339 63.0891 68.7095 62.5219 71.6066C62.3548 72.4593 61.9935 73.3263 61.355 73.938C58.8215 76.3655 50.4045 75.3159 46.8982 75.4544C46.8485 75.458 46.7989 75.4616 46.7492 75.4634C43.8029 75.6028 36.0212 76.1712 33.8629 74.0917C33.1566 73.4109 32.7874 72.5276 32.6293 71.5742C32.3721 70.0245 32.5553 68.2697 32.5677 66.6957L32.5813 58.6386Z" fill="white"/>
<path d="M71.8894 27.2472C76.1697 28.4992 79.6985 30.8476 81.8671 34.815C83.866 38.4712 84.2868 42.7903 83.0657 46.7685C81.7633 51.0084 78.8134 54.6656 74.851 56.7091C72.3555 57.998 69.6151 58.5736 66.817 58.6689C65.4242 58.7157 64.0297 58.7814 62.6369 58.7463C60.9073 58.6492 59.1704 58.6869 57.439 58.695C57.5473 56.0093 57.5257 53.311 57.5519 50.6226C62.2178 51.0183 66.7601 49.9318 70.3756 46.9088C74.1366 43.7644 76.3811 39.6486 76.7803 34.7844C75.719 32.123 72.0728 29.8043 71.8894 27.2472Z" fill="#5EBDED"/>
<mask id="mask0_8175_30740" style="mask-type:luminance" maskUnits="userSpaceOnUse" x="37" y="34" width="21" height="37">
<path d="M37.7423 50.7647C37.8208 47.6978 37.4081 41.4353 37.9125 38.8757C38.0897 37.9754 38.4513 37.1461 39.1032 36.486C41.133 34.4336 44.9129 34.9004 47.5637 34.921C50.182 34.8878 54.0729 34.2897 56.0878 36.2432C57.0235 37.1506 57.5167 38.4727 57.6548 39.7454C57.5817 43.378 57.5618 47.0089 57.5519 50.6406C57.5257 53.3289 57.5474 56.0271 57.439 58.7127C57.4173 61.1347 58.0685 67.9656 56.3714 69.5935C54.6093 71.2853 49.9499 70.6566 47.6233 70.618C45.2416 70.6144 40.5029 71.2673 38.6718 69.4802C37.0612 67.9081 37.704 61.0826 37.7303 58.6381C37.7037 56.0145 37.7345 53.3883 37.7423 50.7647Z" fill="white"/>
</mask>
<g mask="url(#mask0_8175_30740)">
<path d="M37.7423 50.7647C37.8208 47.6978 37.4081 41.4353 37.9125 38.8757C38.0897 37.9754 38.4513 37.1461 39.1032 36.486C41.133 34.4336 44.9129 34.9004 47.5637 34.921C50.182 34.8878 54.0729 34.2897 56.0878 36.2432C57.0235 37.1506 57.5167 38.4727 57.6548 39.7454C57.5817 43.378 57.5618 47.0089 57.5519 50.6406C57.5257 53.3289 57.5474 56.0271 57.439 58.7127C57.4173 61.1347 58.0685 67.9656 56.3714 69.5935C54.6093 71.2853 49.9499 70.6566 47.6233 70.618C45.2416 70.6144 40.5029 71.2673 38.6718 69.4802C37.0612 67.9081 37.704 61.0826 37.7303 58.6381C37.7037 56.0145 37.7345 53.3883 37.7423 50.7647Z" fill="url(#paint1_linear_8175_30740)"/>
</g>
<path d="M42.11 44.6152C42.8292 44.5738 43.6854 44.4209 44.3591 44.7078C44.7231 45.2852 44.6391 45.6648 44.6481 46.3375C43.9166 46.3843 42.8978 46.5902 42.253 46.2116C41.9759 45.6324 42.074 45.2483 42.11 44.6152Z" fill="white"/>
<path d="M42.0577 48.1869C42.7732 48.1554 43.754 47.9818 44.3997 48.3128C44.714 48.928 44.6165 49.3165 44.5867 49.9991C43.8488 50.036 42.9818 50.1844 42.2927 49.884C41.9589 49.2769 42.0486 48.8704 42.0577 48.1869Z" fill="white"/>
<path d="M42.7075 62.8107C43.2232 62.8008 43.6034 62.8233 44.1091 62.9546C44.5463 63.3324 44.614 63.3639 44.7585 63.9152C44.6194 64.3865 44.5101 64.6311 44.1724 64.9908C43.6955 64.9711 43.0669 65.0043 42.6452 64.7597C42.2081 64.5052 41.9975 64.0753 41.9385 63.5986C42.1656 63.1804 42.2758 63.0212 42.7075 62.8107Z" fill="white"/>
<path d="M42.0827 55.4871C42.7797 55.4502 43.7714 55.2613 44.3891 55.6085C44.7558 56.1301 44.6438 56.748 44.6257 57.3551C43.8671 57.3821 42.8926 57.5422 42.2142 57.1707C41.9273 56.5636 42.0392 56.149 42.0827 55.4871Z" fill="white"/>
<path d="M42.0418 51.7715C42.7823 51.7157 43.7793 51.5026 44.444 51.8704C44.817 52.3831 44.6996 52.9974 44.6788 53.5991C43.9509 53.6234 42.9223 53.7933 42.272 53.4489C41.9501 52.8337 42.0298 52.4568 42.0418 51.7715Z" fill="white"/>
<path d="M42.0437 59.0859C42.7745 59.0553 43.6957 58.897 44.3658 59.2216C44.7577 59.7631 44.6358 60.5042 44.6186 61.1455C43.9169 61.1599 42.9948 61.3028 42.3717 60.9485C41.9603 60.4017 42.0512 59.7388 42.0437 59.0859Z" fill="white"/>
<path d="M37.7475 50.7431C37.8259 47.6762 37.4133 41.4137 37.9176 38.854C38.0948 37.9538 38.4564 37.1245 39.1083 36.4644C41.1381 34.4119 44.918 34.8787 47.5688 34.8994C47.5336 36.5876 47.5697 38.2721 47.6095 39.9603C45.4391 39.945 42.1708 39.507 40.1726 40.3659C39.7948 40.8435 39.7501 41.3957 39.6953 41.9848C39.3401 45.809 39.7423 50.3996 39.7588 54.2966C39.7738 57.9437 39.3964 61.8686 39.7719 65.4842C39.8286 66.0301 39.9105 66.5095 40.3773 66.8495C41.7671 67.8622 45.8961 67.2506 47.6456 67.2389C47.6329 68.3577 47.6113 69.4775 47.6284 70.5963C45.2468 70.5927 40.508 71.2457 38.6769 69.4586C37.0663 67.8865 37.7092 61.061 37.7354 58.6164C37.7088 55.9929 37.7396 53.3666 37.7475 50.7431Z" fill="#4441A1"/>
<path d="M47.578 34.9062C50.1963 34.8729 54.0872 34.2748 56.1022 36.2283C57.0378 37.1357 57.531 38.4578 57.6692 39.7305C57.596 43.3631 57.5761 46.994 57.5662 50.6257C57.54 53.314 57.5617 56.0122 57.4533 58.6978C57.4316 61.1198 58.0828 67.9507 56.3858 69.5786C54.6237 71.2704 49.9642 70.6417 47.6376 70.6031C47.6205 69.4842 47.6421 68.3645 47.6548 67.2456C48.091 64.489 47.7912 61.3033 47.7912 58.4945C47.7921 52.322 47.8652 46.1342 47.6187 39.967C47.5789 38.2789 47.5428 36.5943 47.578 34.9062Z" fill="#E90B7C"/>
<path d="M47.578 34.9062C50.1963 34.8729 54.0872 34.2748 56.1022 36.2283C57.0378 37.1357 57.531 38.4578 57.6692 39.7305C57.596 43.3631 57.5761 46.994 57.5662 50.6257C57.54 53.314 57.5617 56.0122 57.4533 58.6978C57.4316 61.1198 58.0828 67.9507 56.3858 69.5786C54.6237 71.2704 49.9642 70.6417 47.6376 70.6031C47.6205 69.4842 47.6421 68.3645 47.6548 67.2456C48.8551 67.2025 54.4123 67.5937 55.0337 66.9336C55.5079 66.4308 55.5756 65.1797 55.6244 64.5133C55.9586 59.9399 55.6596 55.1452 55.6497 50.5511C55.6434 47.6569 55.9522 44.5269 55.6479 41.666C55.5846 41.0733 55.5341 40.7549 55.1493 40.3115C53.0196 39.5182 49.8856 39.9445 47.6187 39.967C47.5789 38.2789 47.5428 36.5943 47.578 34.9062Z" fill="#333494"/>
<mask id="mask1_8175_30740" style="mask-type:luminance" maskUnits="userSpaceOnUse" x="10" y="10" width="67" height="49">
<path d="M31.1208 23.4465C31.6789 22.199 32.2459 20.9786 32.9864 19.8264C36.097 14.9886 41.0463 11.6357 46.6932 10.4611C52.0707 9.34314 57.9395 10.2497 62.5538 13.2735C67.6079 16.5859 70.6679 21.3797 71.898 27.2294C72.0813 29.7863 75.7275 32.105 76.7887 34.7663C76.3895 39.6302 74.1451 43.7458 70.3843 46.8901C66.7689 49.9129 62.2268 50.9994 57.561 50.6037C57.571 46.9719 57.5908 43.3411 57.664 39.7084L57.9241 39.7813C61.0148 37.8278 63.5744 35.2466 64.3917 31.5788C65.2976 27.5145 64.2265 22.8907 61.992 19.4145C59.7404 15.9105 56.0211 13.6899 51.983 12.8193C47.7878 11.9154 43.4219 12.6745 39.8102 15.0048C36.0857 17.4089 34.1761 20.8257 32.5959 24.8397C28.3923 23.6066 23.8886 24.1228 20.0475 26.2328C16.6155 28.1179 14.0189 31.3927 12.9504 35.1512C12.165 37.9151 12.4413 40.6474 13.8976 43.1549C15.8377 46.4943 19.5525 49.3652 23.3184 50.3105C27.1845 51.2818 33.6233 50.7575 37.7515 50.7278C37.7436 53.3513 37.7128 55.9776 37.7395 58.6011C36.0241 58.5444 34.2974 58.602 32.5809 58.6209C31.0961 58.6883 29.6101 58.6532 28.1245 58.6335C27.5342 58.5795 26.9435 58.5219 26.3569 58.4338C21.4542 57.6927 17.2353 55.1366 14.3328 51.1352C11.4505 47.1617 10.176 42.2007 10.9932 37.3529C11.7639 32.7822 14.3121 28.636 18.1337 25.9657C22.1266 23.174 26.4155 22.6586 31.1208 23.4465Z" fill="white"/>
</mask>
<g mask="url(#mask1_8175_30740)">
<path d="M31.1208 23.4465C31.6789 22.199 32.2459 20.9786 32.9864 19.8264C36.097 14.9886 41.0463 11.6357 46.6932 10.4611C52.0707 9.34314 57.9395 10.2497 62.5538 13.2735C67.6079 16.5859 70.6679 21.3797 71.898 27.2294C72.0813 29.7863 75.7275 32.105 76.7887 34.7663C76.3895 39.6302 74.1451 43.7458 70.3843 46.8901C66.7689 49.9129 62.2268 50.9994 57.561 50.6037C57.571 46.9719 57.5908 43.3411 57.664 39.7084L57.9241 39.7813C61.0148 37.8278 63.5744 35.2466 64.3917 31.5788C65.2976 27.5145 64.2265 22.8907 61.992 19.4145C59.7404 15.9105 56.0211 13.6899 51.983 12.8193C47.7878 11.9154 43.4219 12.6745 39.8102 15.0048C36.0857 17.4089 34.1761 20.8257 32.5959 24.8397C28.3923 23.6066 23.8886 24.1228 20.0475 26.2328C16.6155 28.1179 14.0189 31.3927 12.9504 35.1512C12.165 37.9151 12.4413 40.6474 13.8976 43.1549C15.8377 46.4943 19.5525 49.3652 23.3184 50.3105C27.1845 51.2818 33.6233 50.7575 37.7515 50.7278C37.7436 53.3513 37.7128 55.9776 37.7395 58.6011C36.0241 58.5444 34.2974 58.602 32.5809 58.6209C31.0961 58.6883 29.6101 58.6532 28.1245 58.6335C27.5342 58.5795 26.9435 58.5219 26.3569 58.4338C21.4542 57.6927 17.2353 55.1366 14.3328 51.1352C11.4505 47.1617 10.176 42.2007 10.9932 37.3529C11.7639 32.7822 14.3121 28.636 18.1337 25.9657C22.1266 23.174 26.4155 22.6586 31.1208 23.4465Z" fill="url(#paint2_linear_8175_30740)"/>
</g>
<path d="M32.591 24.8565C34.1712 20.8425 36.0808 17.4257 39.8053 15.0216C43.417 12.6913 47.7829 11.9322 51.9782 12.8361C56.0163 13.7067 59.7355 15.9273 61.9871 19.4313C64.2216 22.9075 65.2927 27.5313 64.3869 31.5956C63.5695 35.2633 61.0099 37.8446 57.9193 39.7981L57.6591 39.7252C57.5209 38.4526 57.0278 37.1305 56.0921 36.223C54.0771 34.2695 50.1863 34.8676 47.568 34.9009C44.9172 34.8802 41.1373 34.4134 39.1075 36.4658C38.4556 37.126 38.094 37.9552 37.9168 38.8555C37.4124 41.4152 37.8251 47.6777 37.7466 50.7446C33.6185 50.7743 27.1797 51.2986 23.3135 50.3273C19.5476 49.382 15.8328 46.5111 13.8927 43.1717C12.4365 40.6642 12.1602 37.9318 12.9456 35.168C14.014 31.4094 16.6107 28.1347 20.0426 26.2496C23.8837 24.1396 28.3874 23.6234 32.591 24.8565Z" fill="#68CCCC"/>
<defs>
<linearGradient id="paint0_linear_8175_30740" x1="0.911765" y1="30" x2="60.25" y2="30" gradientUnits="userSpaceOnUse">
<stop stop-color="#202CD3"/>
<stop offset="1" stop-color="#0778F9"/>
</linearGradient>
<linearGradient id="paint1_linear_8175_30740" x1="37.9328" y1="54.7239" x2="49.5308" y2="52.5316" gradientUnits="userSpaceOnUse">
<stop stop-color="#F35E6D"/>
<stop offset="1" stop-color="#F03DA8"/>
</linearGradient>
<linearGradient id="paint2_linear_8175_30740" x1="50.1559" y1="55.3282" x2="34.3615" y2="15.2066" gradientUnits="userSpaceOnUse">
<stop stop-color="#5FCAD8"/>
<stop offset="1" stop-color="#55C3F1"/>
</linearGradient>
</defs>
</svg>
