<svg width="46" height="48" viewBox="0 0 46 48" fill="none" xmlns="http://www.w3.org/2000/svg">
<path d="M31.6194 13.5475C34.2729 14.0951 37.2504 13.5802 39.9622 13.7462C39.8755 13.7684 39.7889 13.7919 39.7016 13.8116C38.4058 14.1017 35.3333 13.5475 34.4546 13.9174L34.454 14.0592C36.3219 14.5996 38.5371 13.775 40.4581 14.3258C38.464 14.5192 32.3526 13.9305 31.02 14.7251L30.9023 14.5349C31.2024 14.3493 31.5269 14.2121 31.6524 13.8599L31.5767 13.7122L31.6194 13.5475Z" fill="#B1A6DA"/>
<path d="M33.8932 0.106796L40.4094 0.0930634C41.4678 0.0865288 42.6854 0.159068 43.7315 0.000276566C44.4007 0.280612 44.9361 0.498868 45.2316 1.20918C45.9978 3.05521 45.4922 8.08819 45.5639 10.3407C45.5885 11.2738 45.635 12.1468 44.9471 12.878C43.8977 13.9915 41.3728 13.7086 39.9594 13.7465C37.2477 13.5805 34.2702 14.0954 31.6166 13.5478C31.5203 13.5008 31.4233 13.4544 31.3289 13.4028C30.6771 13.0512 30.553 12.6735 30.3364 11.9795C30.8465 9.93551 30.7062 3.85179 30.4334 1.63133L30.3086 1.47057C30.4276 1.25231 30.5433 1.03732 30.6991 0.843243C31.177 0.247939 31.6781 0.166251 32.4042 0.102865L33.8932 0.106796Z" fill="#F06019"/>
<path d="M34.1304 3.15378C34.5674 3.54978 34.8869 3.77 35.0065 4.37445C33.8103 6.25642 34.3554 6.89289 33.9073 8.78662C33.8401 7.48035 33.5853 4.23395 34.1304 3.15378Z" fill="#CF1358"/>
<path d="M43.6241 2.09142C43.8433 3.64666 43.9694 8.88612 43.1657 10.0637C42.9556 10.3708 42.7235 10.5204 42.3672 10.5825C42.5618 8.27776 42.5864 5.8057 42.4545 3.49833C42.7461 3.49637 43.0306 3.47416 43.3203 3.44998C43.6351 3.07751 43.5821 2.57302 43.6241 2.09142Z" fill="#EF5974"/>
<path d="M30.4368 1.63133C30.8164 2.10051 30.8726 2.60564 30.9845 3.1833C30.8364 4.55492 30.484 10.3812 31.3194 11.2751C32.35 12.3769 41.4306 11.8691 43.3813 11.8377C44.0414 11.296 44.7397 10.574 45.5674 10.3407C45.5919 11.2738 45.6385 12.1468 44.9505 12.878C43.9011 13.9915 41.3763 13.7086 39.9628 13.7465C37.2511 13.5805 34.2736 14.0954 31.6201 13.5478C31.5237 13.5008 31.4267 13.4544 31.3323 13.4028C30.6806 13.0512 30.5564 12.6735 30.3398 11.9795C30.85 9.93551 30.7097 3.85179 30.4368 1.63133Z" fill="#DC202B"/>
<path d="M33.8947 0.106754L40.4109 0.0930214C41.4693 0.0864868 42.6869 0.159026 43.733 0.000235081C43.5559 0.109363 43.3276 0.162289 43.2946 0.387079C43.239 0.76282 43.4207 1.09806 43.4802 1.46139L43.627 2.09131C43.585 2.57291 43.638 3.0774 43.3231 3.44988C43.0334 3.47405 42.7489 3.49626 42.4573 3.49822C42.0687 3.23749 41.6491 3.03883 41.2321 2.82973L40.01 3.04276C39.0757 3.09504 38.0878 3.2179 37.1554 3.17542C37.1101 3.49366 37.0953 3.66027 36.953 3.95171C36.6375 3.72235 36.2942 3.44071 35.8778 3.49626C35.5765 3.53677 35.2971 3.76223 35.1614 4.03472C35.0948 4.16803 35.087 4.24054 35.0586 4.37646L35.0042 4.37452C34.8846 3.77007 34.5652 3.54985 34.1281 3.15385L34.4424 2.60625C33.6781 2.4749 32.9061 2.48732 32.1328 2.47555C32.6714 1.92273 33.8456 1.10067 34.0758 0.38251L33.8947 0.106754Z" fill="#F14C27"/>
<path d="M34.4429 2.60625C35.4406 2.63565 36.2404 2.72061 37.1559 3.17542C37.1107 3.49366 37.0958 3.66027 36.9536 3.95171C36.638 3.72235 36.2947 3.44071 35.8783 3.49626C35.577 3.53677 35.2977 3.76223 35.1619 4.03472C35.0953 4.16803 35.0875 4.24054 35.0591 4.37646L35.0048 4.37452C34.8852 3.77007 34.5657 3.54985 34.1287 3.15385L34.4429 2.60625Z" fill="#D60C86"/>
<path d="M41.2344 2.83004C41.3643 2.30073 41.515 1.70477 42.0219 1.41659C42.512 1.13887 42.9937 1.29311 43.4825 1.4617L43.6293 2.09163C43.5873 2.57323 43.6403 3.07772 43.3254 3.45019C43.0358 3.47437 42.7512 3.49657 42.4596 3.49854C42.071 3.2378 41.6514 3.03915 41.2344 2.83004Z" fill="#EE8ACB"/>
<path d="M41.2363 2.82983C41.6534 3.03894 42.073 3.2376 42.4616 3.49833C42.5935 5.8057 42.5689 8.27776 42.3743 10.5825C42.0161 10.5322 41.6547 10.5381 41.2939 10.5296C39.993 10.7537 38.811 10.0218 37.591 10.2153L36.0954 10.4649C35.4437 10.4276 34.5837 10.4505 34.1285 9.88919C33.8647 9.56311 33.8996 9.17953 33.9093 8.7868C34.3574 6.89307 33.8124 6.2566 35.0085 4.37463L35.0628 4.37657C35.0913 4.24065 35.099 4.16814 35.1656 4.03483C35.3014 3.76234 35.5807 3.53688 35.8821 3.49636C36.2984 3.44082 36.6418 3.72246 36.9573 3.95182C37.0996 3.66038 37.1144 3.49376 37.1597 3.17553C38.092 3.218 39.08 3.09515 40.0143 3.04287L41.2363 2.82983Z" fill="white"/>
<path d="M37.1555 3.17524C38.0878 3.21772 39.0758 3.09486 40.0101 3.04259L39.981 3.67708C39.6474 4.48738 38.7952 5.09968 38.2986 5.82764C37.8337 5.29245 37.1865 4.62591 36.9531 3.95154C37.0954 3.66009 37.1102 3.49348 37.1555 3.17524Z" fill="#EF5974"/>
<path d="M36.4067 9.90033C36.4422 9.87027 36.4785 9.83956 36.514 9.80885C37.1173 9.27889 37.6565 8.32746 38.3238 7.97001C39.0292 8.44116 39.3253 9.31419 40.043 9.83892C40.0605 9.85068 40.0766 9.86374 40.0935 9.87616C40.4323 10.0238 40.5829 10.1434 40.817 10.4323L41.2922 10.5296C39.9913 10.7538 38.8094 10.0219 37.5893 10.2153L36.0938 10.4649L36.4067 9.90033Z" fill="#D60C86"/>
<path d="M35.0085 4.37507L35.0628 4.37701C35.5323 5.41405 36.3909 5.98257 37.32 6.57134C36.7071 7.1026 35.4637 7.93905 35.3758 8.78267C35.3525 9.00681 35.4475 9.22636 35.5853 9.40279C35.7799 9.65372 36.1258 9.78702 36.4084 9.90073L36.0954 10.4653C35.4437 10.4281 34.5837 10.4509 34.1285 9.88962C33.8647 9.56354 33.8996 9.17997 33.9093 8.78724C34.3574 6.8935 33.8124 6.25704 35.0085 4.37507Z" fill="#D60C86"/>
<path d="M41.2361 2.82983C41.6531 3.03894 42.0727 3.2376 42.4613 3.49833C42.5932 5.8057 42.5687 8.27776 42.3741 10.5825C42.0158 10.5322 41.6544 10.5381 41.2936 10.5296L40.8184 10.4322C40.5843 10.1434 40.4337 10.0238 40.0949 9.87612C40.3011 9.84998 40.5346 9.83103 40.7311 9.76176C41.0531 9.64806 41.176 9.47425 41.3273 9.18411C41.2322 8.26208 40.0574 7.39754 39.4102 6.77741C40.0884 6.05598 41.1391 5.42799 41.4158 4.43538C41.3214 4.09035 41.2865 4.0126 40.9768 3.79892C40.6109 3.54538 40.3975 3.59503 39.985 3.67737L40.014 3.04287L41.2361 2.82983Z" fill="#EC1796"/>
<path d="M31.0211 14.7258C32.3537 13.9312 38.4651 14.52 40.4592 14.3266C41.3327 14.9042 42.3886 14.6775 43.3824 14.7663C44.4428 14.9937 44.9509 15.3309 45.5781 16.2294C45.6745 18.2715 45.6344 20.3234 45.6467 22.3674C45.6531 23.4985 45.776 24.7107 45.648 25.8327C45.5833 26.4012 45.412 27.1991 45.0046 27.6284C44.0063 28.6799 41.7329 28.425 40.4055 28.4185L36.6942 28.3806C36.1051 28.2629 35.4521 28.3087 34.8508 28.2995C33.7277 28.2963 32.3052 28.4472 31.2448 28.0512C30.6442 27.8264 30.3726 27.435 30.1211 26.8652L30.1353 26.4006C30.4108 23.16 30.2523 19.7372 30.2097 16.483L30.1463 16.2275C30.4153 15.7106 30.7166 15.2205 31.0211 14.7258Z" fill="#F2BE2A"/>
<path d="M33.7759 18.0395C34.3992 18.0852 35.0238 18.1643 35.6451 18.227C35.3956 18.6603 35.2404 18.9158 35.2682 19.4255C35.0005 20.3599 35.1751 22.0805 35.3115 23.0522C35.1718 23.4064 35.0949 23.6932 35.2378 24.0709C35.3361 24.331 35.5456 24.4683 35.801 24.5388C36.1391 24.631 36.6241 24.5049 36.8918 24.2918C37.0999 24.1258 37.2881 23.9272 37.4737 23.7364L37.6178 23.9925C37.2486 24.4081 36.9176 24.8531 36.5801 25.2942C35.7046 25.3302 34.6067 25.4968 33.8179 25.0564C33.3142 23.5626 33.8412 19.8842 33.7759 18.0395Z" fill="#F28E15"/>
<path d="M35.6458 18.2267C36.1372 18.1692 36.4657 18.1353 36.8885 18.4561C37.5235 18.9371 37.9366 19.8323 38.408 20.474C38.9938 19.8578 40.0567 18.345 40.8747 18.3163C41.0887 18.3084 41.2529 18.377 41.4475 18.4561C41.5853 18.6672 41.6137 18.6201 41.5807 18.8436C41.4385 19.7957 40.1893 20.8046 39.5149 21.4405C40.197 21.9645 41.1986 22.5095 41.3247 23.4322C41.2057 23.9753 41.0253 24.253 40.5953 24.6189C39.599 25.1025 38.6976 23.8112 37.6185 23.9922L37.4743 23.7361C37.2888 23.9269 37.1006 24.1255 36.8924 24.2915C36.6247 24.5046 36.1398 24.6307 35.8016 24.5385C35.5462 24.468 35.3367 24.3307 35.2385 24.0707C35.0956 23.693 35.1725 23.4061 35.3122 23.0519C35.1757 22.0802 35.0012 20.3597 35.2688 19.4252C35.241 18.9155 35.3962 18.66 35.6458 18.2267Z" fill="white"/>
<path d="M37.4766 23.7361L38.4361 22.4181C39.0833 23.3061 39.6562 24.0223 40.5976 24.6189C39.6012 25.1025 38.6999 23.8112 37.6207 23.9922L37.4766 23.7361Z" fill="#F3A815"/>
<path d="M35.3122 23.0522C35.1757 22.0805 35.0012 20.36 35.2688 19.4255C35.971 20.1698 36.6364 20.7749 37.5228 21.299C36.8155 21.9296 36.0732 22.4903 35.3122 23.0522Z" fill="#F2BE2A"/>
<path d="M43.3824 14.7663C44.4428 14.9937 44.9509 15.3309 45.5781 16.2294C45.6745 18.2715 45.6344 20.3234 45.6467 22.3674C45.6531 23.4985 45.776 24.7107 45.648 25.8327C45.5833 26.4012 45.412 27.1991 45.0046 27.6284C44.0063 28.6799 41.7329 28.425 40.4055 28.4185L36.6942 28.3806C36.1051 28.2629 35.4521 28.3087 34.8508 28.2995C33.7277 28.2963 32.3052 28.4472 31.2448 28.0512C30.6442 27.8264 30.3726 27.435 30.1211 26.8652L30.1353 26.4006C30.4108 23.16 30.2523 19.7372 30.2097 16.483C30.758 17.156 30.3526 22.3883 30.3927 23.5567C30.4386 24.9381 30.683 25.6406 31.6852 26.5835C35.7728 26.5097 40.0046 27.403 44.0244 26.2725C43.9869 24.3435 44.5274 17.6135 44.0496 16.2954C43.8233 15.6714 42.9517 15.4348 42.4138 15.1663L42.6091 15.0036L42.4034 15.1094C42.728 14.9774 43.0474 14.8683 43.3824 14.7663Z" fill="#F3A815"/>
<path d="M13.8102 0.371071C15.0523 -0.0236206 28.2321 -0.0327682 29.2026 0.491962C29.6532 0.735703 29.9798 1.08596 30.3115 1.47085L30.4363 1.63161C30.7091 3.85208 30.8494 9.93579 30.3393 11.9798C30.5559 12.6738 30.68 13.0515 31.3318 13.4031C31.4262 13.4547 31.5231 13.5011 31.6195 13.5481L31.5768 13.7128L31.6525 13.8605C31.527 14.2127 31.2025 14.3499 30.9024 14.5355L31.0201 14.7257C30.7156 15.2204 30.4143 15.7104 30.1453 16.2273L30.2087 16.4828C30.2513 19.7371 30.4097 23.1599 30.1343 26.4004L30.1201 26.865C30.3716 27.4349 30.6431 27.8263 31.2438 28.0511C32.3042 28.4471 33.7267 28.2961 34.8498 28.2994C35.4511 28.3085 36.1041 28.2628 36.6932 28.3804C36.8561 28.7647 36.9175 28.9117 37.3074 29.0829C37.729 29.2685 38.393 29.4155 38.8508 29.4234C39.3267 29.6468 39.8006 29.8527 40.2261 30.1683C41.0362 30.1735 41.871 30.1402 42.6779 30.1997C43.0775 30.216 43.49 30.2075 43.8825 30.2944C44.1805 30.3728 44.4566 30.4421 44.7392 30.5682C45.6664 31.4158 45.817 32.3541 45.87 33.5754C45.9437 35.2842 46.3136 42.4782 45.3385 43.6237C44.6086 44.4804 42.4283 44.2772 41.4009 44.2811C40.345 45.539 39.4566 46.9544 38.0348 47.8176C37.5027 47.8582 36.9718 47.8921 36.4384 47.9104C30.038 48.1306 23.5677 47.8745 17.1595 47.8823L9.23437 47.8928C7.60629 47.8941 5.90386 47.996 4.29453 47.753C3.27811 47.5987 2.63931 47.3099 1.89187 46.5774C0.486859 45.1992 0.163571 43.9041 0.133182 42.0143C0.044601 36.5363 0.0633568 31.0511 0.0575376 25.5718C0.0543047 22.4476 -0.0937814 19.2398 0.0982517 16.1267C0.138986 15.4641 0.182973 14.5989 0.493976 14.0147C1.30478 12.4889 3.13587 11.0767 4.34626 9.85934C7.12007 7.06906 9.96047 4.32975 12.6839 1.49046C12.9599 0.997746 13.3647 0.695843 13.8102 0.371071Z" fill="#CB7CC5"/>
<path d="M34.8514 28.2988C35.4528 28.3079 36.1058 28.2622 36.6948 28.3798C36.8578 28.7641 36.9192 28.9111 37.3091 29.0823C37.7306 29.2679 38.3947 29.4149 38.8524 29.4228C39.3283 29.6462 39.8023 29.8521 40.2277 30.1677C39.3904 30.1762 38.5686 30.1618 37.7332 30.0991V30.0925L37.9957 30.1246L38.0682 30.0566L38.1302 30.1291L38.2013 30.0494L39.5947 30.0461C38.3197 29.3103 36.7899 29.4554 35.4411 28.9771C35.0467 28.8379 34.9976 28.6726 34.8514 28.2988Z" fill="#CA9FD5"/>
<path d="M30.3383 11.9793C30.5549 12.6733 30.679 13.051 31.3308 13.4026C31.4252 13.4542 31.5222 13.5006 31.6185 13.5476L31.5758 13.7123C29.9432 13.4614 28.1503 13.7391 26.4912 13.7541C23.019 13.7862 19.5392 13.7731 16.0664 13.7104C16.4453 13.5032 20.6248 13.6065 21.4375 13.5196L21.5972 13.5006C23.2699 13.4849 24.9413 13.4712 26.614 13.4941C27.4177 13.5346 28.2097 13.4928 29.0121 13.4509C29.5313 12.9831 29.9322 12.5537 30.3383 11.9793Z" fill="#B1A6DA"/>
<path d="M13.8073 0.370848C14.1513 0.840687 14.4622 1.29681 14.6304 1.86271C15.2213 3.85773 14.8224 8.40256 14.9705 10.7583C17.5193 12.1293 21.5229 11.6921 24.3432 11.7038C25.0913 12.3063 25.8304 12.9376 26.6121 13.4943C24.9394 13.4715 23.268 13.4852 21.5953 13.5009C19.3859 13.4146 16.8184 13.8838 14.6776 13.3689C13.7452 13.1441 13.312 12.7337 12.8109 11.9254C12.4844 8.51039 12.7799 4.93398 12.6809 1.49023C12.957 0.997522 13.3618 0.695618 13.8073 0.370848Z" fill="#D60C86"/>
<path d="M30.1159 26.8648L30.0215 26.9648C29.9691 27.0197 29.9148 27.0733 29.8631 27.1288C29.1648 27.8705 28.577 28.1345 27.5626 28.2802C26.1569 28.4821 24.6038 28.3077 23.182 28.3162C20.7522 28.3312 18.1226 28.5854 15.7199 28.2992C15.1192 28.228 14.3776 28.1221 13.9023 27.713C13.1232 27.0432 12.8465 25.7128 12.7799 24.7372C12.6713 23.131 12.4217 16.7296 13.3773 15.72C13.8797 15.1881 14.5515 15.0973 15.2414 15.0542C15.2427 17.2687 15.2537 19.4846 15.2207 21.6986C15.2032 22.8794 15.0229 24.253 15.1923 25.4076C15.2498 25.8004 15.3875 26.1983 15.6811 26.4767C15.985 26.7648 16.404 26.8831 16.8061 26.938C17.7003 27.0602 25.8252 26.9968 26.777 26.8687C27.6848 26.7466 28.6482 26.476 29.521 26.195L30.1301 26.4002L30.1159 26.8648Z" fill="#2B8D65"/>
<path d="M15.2461 15.054C18.3523 15.1154 21.4591 15.0795 24.5652 15.069C25.9612 15.0645 27.555 14.9024 28.9264 15.1265C29.2044 15.1716 29.4288 15.271 29.6337 15.4735C29.8355 15.6735 30.0036 15.9793 30.1458 16.227L30.2092 16.4825C30.2519 19.7367 30.4103 23.1595 30.1348 26.4001L29.5258 26.1949C28.6529 26.4759 27.6895 26.7464 26.7817 26.8686C25.8299 26.9967 17.7051 27.0601 16.8109 26.9379C16.4087 26.883 15.9897 26.7647 15.6858 26.4765C15.3923 26.1981 15.2545 25.8002 15.197 25.4075C15.0276 24.2528 15.208 22.8792 15.2254 21.6984C15.2584 19.4845 15.2474 17.2686 15.2461 15.054Z" fill="#4BC196"/>
<path d="M25.3127 22.2235L25.7627 22.4359C26.0058 22.7515 26.1513 22.9658 26.1539 23.3919C26.1565 23.8317 25.9774 24.0525 25.711 24.3701C25.3263 24.1721 24.8743 23.9434 24.7728 23.4716C24.6668 22.9782 25.0288 22.5724 25.3127 22.2235Z" fill="white"/>
<path d="M22.3195 17.5734C22.9357 17.8648 23.4432 18.155 23.6902 18.8326C23.8583 19.2952 23.8241 19.8219 23.8098 20.3062C23.1581 19.4161 22.5846 18.8613 21.6522 18.3052C21.6923 18.2516 21.7246 18.1902 21.7725 18.1432C22.0169 17.9047 22.1449 17.8968 22.3195 17.5734Z" fill="#3DBB7C"/>
<path d="M25.2298 18.1352C25.5712 18.26 25.9481 18.4659 26.093 18.8272C26.294 19.3291 26.0024 19.797 25.7574 20.2119C25.5201 20.1936 25.2007 20.1714 24.9925 20.0485C24.6673 19.8584 24.6556 19.6663 24.5819 19.3304C24.6931 18.8037 24.8903 18.5436 25.2298 18.1352Z" fill="white"/>
<path d="M17.6176 18.145C19.1623 17.4562 20.6642 17.187 22.3208 17.5732C22.1462 17.8967 22.0182 17.9045 21.7738 18.143C21.7259 18.1901 21.6936 18.2515 21.6535 18.3051L21.4266 18.326C19.9543 18.4528 18.5971 18.1568 17.4915 19.4277C17.1876 19.7767 16.907 20.1524 16.629 20.5229C16.6225 19.5179 17.0622 18.9233 17.6176 18.145Z" fill="#2B8D65"/>
<path d="M16.6289 20.5226C16.9069 20.1521 17.1875 19.7763 17.4914 19.4274C18.597 18.1564 19.9542 18.4524 21.4265 18.3257L21.6534 18.3047C22.5858 18.8608 23.1593 19.4156 23.811 20.3056C24.0567 21.6871 23.9416 22.6444 23.33 23.9016L23.2194 24.1349C21.9831 24.9034 20.7631 25.5954 19.252 25.2465C18.3449 25.0367 17.5515 24.4682 17.0879 23.6468C16.5571 22.7064 16.4368 21.576 16.6289 20.5226Z" fill="#2D7C74"/>
<path d="M20.1334 18.944C20.5259 18.9826 20.9403 19.0074 21.3082 19.1629C21.9373 19.4296 22.4889 19.9543 22.7397 20.5999C23.0029 21.2795 22.9538 22.0441 22.6434 22.6982C22.2076 23.615 21.4498 24.0639 20.531 24.3887C19.8657 24.3887 19.3381 24.3259 18.7678 23.9502C18.173 23.5568 17.7495 22.919 17.6227 22.2113C17.4895 21.4677 17.657 20.7103 18.0928 20.0974C18.6113 19.3668 19.287 19.1035 20.1334 18.944Z" fill="white"/>
<path d="M13.8086 0.370774C15.0507 -0.0239162 28.2305 -0.0330648 29.201 0.491665C29.6516 0.735407 29.9781 1.08567 30.3098 1.47056L30.4346 1.63132C30.7075 3.85178 30.8478 9.9355 30.3377 11.9795C29.9316 12.5539 29.5307 12.9833 29.0115 13.4511C28.2091 13.493 27.4171 13.5348 26.6134 13.4943C25.8317 12.9375 25.0926 12.3063 24.3445 11.7038C21.5242 11.692 17.5206 12.1292 14.9718 10.7582C14.8237 8.40249 15.2226 3.85765 14.6317 1.86263C14.4636 1.29674 14.1526 0.840614 13.8086 0.370774Z" fill="#E133A2"/>
<path d="M25.1529 8.2167C25.2033 8.2265 25.2544 8.23434 25.3042 8.24807C25.7464 8.36569 25.8977 8.53102 26.1033 8.9146C26.0859 9.3766 25.9773 9.51578 25.7128 9.86865C25.2744 9.74384 25.0552 9.65103 24.7908 9.26484C24.7714 8.80219 24.9175 8.58852 25.1529 8.2167Z" fill="white"/>
<path d="M24.7165 2.6921C24.946 2.70386 25.2725 2.69667 25.4859 2.78815C25.8325 2.93583 25.8862 3.14625 25.9987 3.46775C25.9502 3.94543 25.837 4.17742 25.5674 4.5708C25.3372 4.54074 25.0993 4.51785 24.8833 4.42244C24.6027 4.29829 24.3919 4.00098 24.3402 3.7017C24.2717 3.30701 24.5083 2.99465 24.7165 2.6921Z" fill="white"/>
<path d="M16.8294 8.04443C16.1776 7.13612 16.2365 5.96512 16.2391 4.88168C16.2404 4.27396 16.1621 3.17353 16.5979 2.73179C17.3324 3.13236 17.0072 3.82111 17.2872 4.48633C17.3079 4.53665 17.3382 4.5837 17.3641 4.63206C16.8908 5.81744 16.7925 6.77737 16.8294 8.04443Z" fill="#EC1796"/>
<path d="M17.362 4.63224C18.061 3.80168 18.7975 3.28871 19.9037 3.21226C20.9292 3.14168 22.0995 3.43379 22.887 4.1245C23.5265 4.68517 23.9015 5.49349 23.9539 6.34364C24.0185 7.41532 23.5866 8.47395 22.8657 9.24961C22.1991 9.96711 21.299 10.4285 20.3182 10.4585C19.3574 10.4886 18.4315 10.169 17.7435 9.48616C17.3297 9.07513 17.031 8.5909 16.8273 8.04461C16.7905 6.77755 16.8888 5.81762 17.362 4.63224Z" fill="#D60C86"/>
<path d="M19.5086 4.11849C19.9754 4.09627 20.5043 4.03877 20.9608 4.15443C21.6442 4.3276 22.2915 4.82686 22.6458 5.43981C23.0046 6.0606 23.0958 6.81076 22.8805 7.49755C22.5779 8.46141 21.897 8.96653 21.0313 9.38606C20.5754 9.4795 20.0957 9.49844 19.6424 9.37886C18.8976 9.18151 18.2549 8.67314 17.9045 7.97851C17.5663 7.30936 17.5107 6.51475 17.7596 5.80705C18.0797 4.89547 18.6777 4.51122 19.5086 4.11849Z" fill="white"/>
<path d="M42.6777 30.1996C43.0773 30.2159 43.4898 30.2074 43.8822 30.2943C44.1803 30.3727 44.4564 30.442 44.739 30.5681C45.6662 31.4157 45.8168 32.354 45.8698 33.5753C45.9435 35.2842 46.3134 42.4781 45.3383 43.6236C44.6083 44.4803 42.4281 44.2771 41.4007 44.281C38.7562 44.115 33.2829 44.613 31.1382 43.9994C30.588 43.8419 30.1871 43.5119 29.7539 43.1486C29.8477 42.7532 29.8451 42.4696 29.8179 42.0704L30.0106 41.7332L30.0093 32.0613C30.255 31.7071 30.4664 31.3209 30.7296 30.9798C30.9475 30.6975 31.2333 30.5302 31.574 30.4479C32.6622 30.1845 33.8532 30.2773 34.966 30.2832C37.4288 30.2956 40.0603 30.5034 42.5018 30.2218C42.5606 30.2153 42.6188 30.2068 42.6777 30.1996Z" fill="#7F53AF"/>
<path d="M43.8815 30.2946C44.1795 30.373 44.4556 30.4423 44.7382 30.5684C44.5772 30.9605 44.4104 31.3257 44.3599 31.7524C43.9882 31.3114 43.006 30.935 42.8359 30.5024C43.1599 30.2867 43.5071 30.3109 43.8815 30.2946Z" fill="#58359A"/>
<path d="M33.6442 35.8579C34.1363 36.2787 34.7027 36.4173 35.2296 36.7623C34.6813 37.2713 34.1046 37.7673 33.6016 38.3228C33.6585 37.5079 33.6378 36.6754 33.6442 35.8579Z" fill="#75349C"/>
<path d="M35.0417 32.3445C36.9122 32.5425 38.7621 32.6942 40.6417 32.77C41.3645 33.3267 41.7383 33.6463 41.9581 34.5506C42.0092 35.1969 42.0816 35.8478 42.0978 36.496L42.0855 37.2625C42.0726 37.963 42.0764 38.6498 41.9342 39.3386C41.9419 39.8966 42.0383 40.6011 41.6555 41.0559C41.3865 41.3767 40.9288 41.5133 40.524 41.4806C39.525 41.3989 38.9186 40.8579 38.2629 40.1659C37.6771 40.752 36.8476 41.789 35.9592 41.8256C35.7542 41.8335 35.4632 41.7525 35.2667 41.6865C36.7111 41.5629 37.2963 40.8036 38.2487 39.7953C38.5965 40.1698 38.9819 40.652 39.4287 40.9043C40.0022 41.2297 40.4723 41.1264 41.0658 40.9461C41.1376 40.6089 41.0523 40.5919 40.8971 40.3004C41.0613 40.0293 41.2954 39.7966 41.5036 39.5588C40.9191 38.5629 40.1082 37.8696 39.2173 37.1671C40.0856 36.3993 40.9165 35.5844 41.5805 34.6265C41.2495 34.269 41.1467 34.0906 40.674 33.9508C39.6479 34.1612 38.9056 35.3975 38.2662 36.1823C37.6642 35.3753 37.0487 34.3023 36.0736 33.9325C35.7186 33.9808 35.6255 33.9861 35.4089 34.3121C35.2279 34.5853 35.2124 34.914 35.3449 35.2074C35.4374 35.4099 35.6268 35.6197 35.762 35.7981C35.535 36.1235 35.374 36.3921 35.2298 36.762C34.7029 36.4169 34.1365 36.2784 33.6444 35.8576C33.5759 35.1603 33.6037 34.4788 33.6308 33.7802C34.0291 33.1313 34.4145 32.7745 35.0417 32.3445Z" fill="#842394"/>
<path d="M42.0846 37.2627C41.5415 37.2098 41.0016 37.1653 40.5703 36.7968L40.5858 36.5818C41.0378 36.3243 41.5977 36.4498 42.0969 36.4962L42.0846 37.2627Z" fill="#75349C"/>
<path d="M38.2704 36.1829C38.9098 35.3981 39.6521 34.1617 40.6782 33.9513C41.1509 34.0912 41.2537 34.2696 41.5847 34.627C40.9207 35.585 40.0898 36.3998 39.2215 37.1677C40.1125 37.8701 40.9233 38.5635 41.5078 39.5593C41.2996 39.7972 41.0655 40.0298 40.9013 40.301C41.0565 40.5925 41.1418 40.6094 41.0701 40.9466C40.4765 41.127 40.0064 41.2302 39.4329 40.9048C38.9861 40.6526 38.6008 40.1703 38.2529 39.7959C37.3005 40.8042 36.7153 41.5635 35.2709 41.687C34.5829 41.3675 33.9622 40.9676 33.6008 40.269C33.2781 39.6476 33.412 38.9601 33.606 38.323C34.109 37.7675 34.6858 37.2716 35.234 36.7625C35.3782 36.3927 35.5392 36.1241 35.7662 35.7987C35.6311 35.6203 35.4416 35.4105 35.3491 35.2079C35.2166 34.9145 35.2321 34.5858 35.4131 34.3127C35.6297 33.9866 35.7229 33.9814 36.0778 33.933C37.0529 34.3029 37.6684 35.3759 38.2704 36.1829Z" fill="white"/>
<path d="M35.7662 35.7987C36.2977 36.258 36.8214 36.6978 37.4027 37.0938C36.5802 37.7806 35.3032 38.6268 35.1946 39.8096C35.1739 40.0337 35.1823 39.9828 35.2754 40.186C35.7565 40.3285 36.0862 40.2128 36.5182 39.9704C37.2785 39.5424 37.8255 38.802 38.3913 38.1498C38.9331 38.8079 39.687 40.1755 40.5541 40.2912C40.6944 40.3095 40.7668 40.3036 40.9013 40.301C41.0565 40.5925 41.1418 40.6094 41.0701 40.9466C40.4765 41.127 40.0064 41.2302 39.4329 40.9048C38.9861 40.6526 38.6008 40.1703 38.2529 39.7959C37.3005 40.8042 36.7153 41.5635 35.2709 41.687C34.5829 41.3675 33.9622 40.9676 33.6008 40.269C33.2781 39.6476 33.412 38.9601 33.606 38.323C34.109 37.7675 34.6858 37.2716 35.234 36.7625C35.3782 36.3927 35.5392 36.1241 35.7662 35.7987Z" fill="#58359A"/>
<path d="M44.739 30.5681C45.6662 31.4157 45.8168 32.354 45.8698 33.5753C45.9435 35.2841 46.3134 42.4781 45.3383 43.6236C44.6083 44.4803 42.4281 44.2771 41.4007 44.281C38.7562 44.115 33.2829 44.613 31.1382 43.9994C30.588 43.8419 30.1871 43.5119 29.7539 43.1486C29.8477 42.7532 29.8451 42.4696 29.8179 42.0704L30.0106 41.7332C30.1205 41.8619 30.2304 41.988 30.3507 42.1076C30.6022 42.3559 30.8175 42.4592 31.1602 42.5016C32.507 42.6689 34.0291 42.5154 35.3953 42.4931C37.6117 42.4565 39.8386 42.4775 42.0524 42.384C42.7152 42.3559 43.9223 42.2827 44.3807 41.7809C44.7933 40.3864 44.739 33.1323 44.3607 31.7522C44.4111 31.3255 44.578 30.9602 44.739 30.5681Z" fill="#452B90"/>
<path d="M28.5086 44.1402C26.1027 44.2219 16.0452 44.433 14.3337 43.988C13.8171 43.8534 13.2694 43.3116 13.0328 42.8366C12.6694 42.1073 12.6197 32.687 12.9598 31.9375C13.1912 31.4265 13.832 31.0442 14.3428 30.888C15.301 30.5953 26.8547 30.6332 28.2467 30.7965C28.5991 30.8383 28.8894 30.9736 29.1972 31.1435C29.4752 31.4415 29.7662 31.731 30.0061 32.0616L30.0074 41.7335L29.8147 42.0707C29.8418 42.47 29.8444 42.7536 29.7507 43.1489C29.366 43.5449 28.9644 43.8331 28.5086 44.1402Z" fill="#2D2F87"/>
<path d="M18.4556 31.952C20.3132 31.9474 22.1741 31.9585 24.0297 31.8945C25.0869 31.8572 26.2876 31.6481 27.3279 31.7795C27.6848 31.8246 28.043 31.9454 28.279 32.2369C29.0659 33.2106 28.6456 39.5426 28.5674 41.0502C27.6188 42.0558 26.7473 42.2577 25.3798 42.293C22.7185 42.3623 19.5949 41.9813 17.0111 42.3179C16.9665 42.2362 16.9206 42.1545 16.8786 42.0709C15.985 40.3 16.1408 34.0411 16.7764 32.1108C17.3428 32.0899 17.8944 32.0245 18.4556 31.952Z" fill="#452B90"/>
<path d="M25.2283 38.1205L25.7436 38.2309C25.9932 38.5132 26.0973 38.6099 26.1264 39.0079C26.1593 39.4574 25.8904 39.8234 25.6156 40.1396C25.4604 40.073 25.2554 39.9991 25.1151 39.8992C24.8106 39.6822 24.7084 39.5136 24.625 39.1556C24.6948 38.6602 24.8882 38.4714 25.2283 38.1205Z" fill="white"/>
<path d="M24.986 34.4599C25.2246 34.4716 25.5517 34.4938 25.7599 34.616C26.0244 34.7716 26.1809 35.0251 26.1918 35.3316C26.2061 35.7302 25.95 36.0399 25.7237 36.334C25.5026 36.3105 25.1916 36.2954 24.9918 36.1909C24.7222 36.0497 24.5476 35.7982 24.5256 35.493C24.4965 35.0905 24.7636 34.7618 24.986 34.4599Z" fill="white"/>
<path d="M19.8659 33.7384C20.6088 33.6783 21.2716 33.6306 21.9434 34.0129C22.7154 34.4526 23.2003 35.2165 23.4324 36.0654C23.7499 37.2233 23.6607 38.5714 23.0122 39.6C22.4367 40.5122 21.666 40.9101 20.6457 41.1362C20.2203 41.1199 19.776 41.116 19.3564 41.0376C18.2165 40.8245 17.6035 40.0815 16.9693 39.1811C16.7966 37.9656 16.7565 36.8717 17.3184 35.7419C17.8564 34.6585 18.7642 34.105 19.8659 33.7384Z" fill="#2D2F87"/>
<path d="M19.5019 35.0796C19.9474 35.0417 20.4188 35.0038 20.8565 35.1189C21.4436 35.2724 21.9822 35.7377 22.2776 36.265C22.6352 36.9048 22.6792 37.685 22.4425 38.3744C22.1386 39.2586 21.5535 39.7179 20.7498 40.1192C20.3767 40.1799 20.0567 40.2087 19.683 40.1263C19.0655 39.9911 18.523 39.5866 18.1958 39.0429C17.7943 38.3751 17.7199 37.551 17.9327 36.8068C18.19 35.9096 18.717 35.5005 19.5019 35.0796Z" fill="white"/>
</svg>
