<svg width="64" height="60" viewBox="0 0 64 60" fill="none" xmlns="http://www.w3.org/2000/svg">
<ellipse opacity="0.2" cx="22.5882" cy="22.4999" rx="22.5882" ry="22.4999" fill="url(#paint0_linear_8254_108165)"/>
<path d="M50.9963 45.3309L53.0181 45.39C54.5197 45.7504 55.818 46.3833 56.624 47.777C57.7104 49.6551 57.6769 53.4817 57.0477 55.5358C56.5352 57.2076 55.4908 58.3508 53.9598 59.1321C53.2362 59.501 52.57 59.7629 51.7506 59.8354C48.555 60.1183 45.1532 59.8628 41.9353 59.8649C38.5768 59.8677 24.3253 60.3049 22.0883 59.5883C21.314 59.3405 20.6553 58.947 19.9937 58.4838C19.7998 58.317 19.6257 58.1473 19.4542 57.9559C17.6007 55.8898 17.6176 53.0255 17.7776 50.3914C17.9403 47.7123 18.8949 47.1745 20.6907 45.5829C21.4479 45.345 22.1941 45.3654 22.9777 45.3598L26.9045 45.3816C29.4612 45.3766 32.0346 45.3105 34.5885 45.4217C35.2121 45.3281 35.8853 45.3668 36.5173 45.3562L50.9963 45.3309Z" fill="#333494"/>
<path d="M41.6292 54.1887C45.0331 54.1978 49.3528 53.924 52.6413 54.2865C52.8287 54.7934 52.7679 55.3868 52.7665 55.9218C50.6664 55.9513 43.0134 56.197 41.5054 55.7944C41.3432 55.2826 41.3593 54.8814 41.3936 54.3492L41.6292 54.1887Z" fill="white"/>
<path d="M41.399 49.6425L52.8607 49.6707L52.8426 51.4565L41.3886 51.4495C41.3725 50.8491 41.3948 50.243 41.399 49.6425Z" fill="white"/>
<path d="M25.7405 52.5833C25.6254 51.9061 25.6117 51.2514 25.903 50.6122C26.1937 49.9738 26.6776 49.4874 27.3424 49.2579C28.2615 48.9418 29.0016 49.1783 29.8222 49.6176C30.4152 50.3053 30.8413 50.9438 30.7596 51.8955C30.6959 52.6374 30.3227 53.3076 29.7314 53.7539C29.1304 54.2072 28.3734 54.405 27.6334 54.2459C26.8963 54.0875 26.3242 53.637 25.9489 52.9852C25.8736 52.855 25.808 52.7184 25.7405 52.5833Z" fill="white"/>
<path d="M22.9777 45.3637L26.9045 45.3856C29.4612 45.3806 32.0346 45.3144 34.5885 45.4257C33.156 46.7174 31.8114 48.1217 30.2653 49.2733C30.1159 49.3846 29.9725 49.5071 29.8284 49.6246C29.0078 49.1854 28.2677 48.9488 27.3486 49.2649C26.6839 49.4944 26.1999 49.9808 25.9092 50.6193C25.6179 51.2584 25.6316 51.9131 25.7467 52.5903C24.9494 53.3041 24.2462 54.1586 23.4943 54.9252C22.3356 56.1071 21.0968 57.2566 19.9937 58.4878C19.7998 58.321 19.6257 58.1513 19.4542 57.9598C17.6007 55.8938 17.6176 53.0295 17.7776 50.3954C17.9403 47.7163 18.8949 47.1785 20.6907 45.5869C21.4479 45.3489 22.1941 45.3694 22.9777 45.3637Z" fill="#5C44A4"/>
<path d="M27.731 12.7973C29.8623 9.91413 33.2052 8.18887 36.6936 7.67643C40.7722 7.07741 44.8689 7.99247 48.1721 10.5188C51.295 12.9071 52.9511 16.3351 53.8544 20.1003C57.0604 20.6219 59.9372 22.1747 61.8695 24.8558C63.6718 27.3568 64.338 30.361 63.8396 33.4026C63.3628 36.3125 61.8213 38.7783 59.4283 40.4761C57.5987 41.7741 55.5595 42.3724 53.3538 42.6089C53.4846 41.6108 53.5216 40.5845 53.5964 39.5793C53.6153 36.4547 53.8404 33.2118 53.2014 30.1379C52.1668 26.99 50.921 24.3596 48.5727 21.9846C45.2177 18.5911 40.9253 16.7835 36.1812 16.7786C31.3462 16.9116 27.1701 19.157 23.8849 22.6611C20.6197 26.1432 19.2224 30.9453 19.3704 35.6705C19.4131 37.034 19.5628 38.3982 19.6936 39.7553C19.8148 40.5711 20.02 41.4665 20.0168 42.2872C16.2866 42.1204 12.8008 41.7832 10.1391 38.8254C8.32463 36.8087 7.39343 34.1015 7.54535 31.3887C7.69425 28.7287 8.87216 26.1003 10.8668 24.33C11.9835 23.3389 13.2246 22.7321 14.6569 22.3408C14.6364 19.4808 15.2119 16.8405 17.2792 14.7471C18.985 13.0197 21.4036 12.0645 23.8159 12.0688C25.1914 12.0709 26.4253 12.3996 27.731 12.7973Z" fill="#68CCCC"/>
<path d="M36.4802 9.95828C40.6608 9.55776 43.8829 9.80062 47.2393 12.5958C49.7273 14.6674 51.4024 17.7575 51.6827 21.0025C51.717 21.396 51.7414 21.7894 51.7561 22.1843C54.0296 22.3519 57.3153 23.2627 58.9093 25.0147C60.8185 27.0983 61.8825 29.3001 61.7553 32.1847C61.6637 34.2668 60.8255 36.2124 59.2931 37.6286C57.6432 39.154 55.7731 39.5763 53.5969 39.5854C53.6157 36.4608 53.8408 33.218 53.2019 30.144C52.1672 26.9962 50.9214 24.3657 48.5731 21.9908C45.2182 18.5973 40.9257 16.7896 36.1816 16.7847L36.4452 16.5665C36.7885 14.7596 36.4962 11.8799 36.4802 9.95828Z" fill="white"/>
<path d="M28.3064 15.7928C30.4507 12.6189 32.7467 10.8704 36.4743 9.96518C36.4904 11.8868 36.7826 14.7665 36.4393 16.5734L36.1758 16.7916C31.3408 16.9246 27.1646 19.1701 23.8794 22.6741C20.6142 26.1563 19.217 30.9583 19.3649 35.6836C19.4077 37.0471 19.5573 38.4112 19.6881 39.7683C17.6529 39.8359 15.7694 39.8246 13.9145 38.868C12.1175 37.9403 10.7779 36.2291 10.1702 34.3047C9.5125 32.2218 9.72398 29.994 10.7677 28.078C12.3192 25.23 14.7036 24.5197 17.6152 23.7194C17.0367 21.7935 16.8425 19.8691 17.7552 17.996C18.5508 16.3636 20.0501 15.1396 21.7726 14.6159C24.1835 13.8824 26.192 14.6876 28.3064 15.7928Z" fill="white"/>
<path d="M36.1867 16.7854C40.9307 16.7903 45.2232 18.5979 48.5782 21.9914C50.9264 24.3664 52.1722 26.9969 53.2069 30.1447C53.8459 33.2186 53.6207 36.4615 53.6019 39.5861C53.5271 40.5913 53.49 41.6176 53.3593 42.6157C53.2502 43.5399 53.1614 44.4733 53.0202 45.3926L50.9984 45.3334L36.5194 45.3588C35.8874 45.3694 35.2142 45.3306 34.5906 45.4243C32.0367 45.313 29.4634 45.3792 26.9066 45.3841L22.9799 45.3623C22.1963 45.3679 21.45 45.3475 20.6928 45.5854C20.3295 44.5507 20.1455 43.3829 20.0223 42.294C20.0255 41.4733 19.8202 40.5779 19.699 39.7621C19.5682 38.405 19.4185 37.0408 19.3758 35.6774C19.2279 30.9521 20.6251 26.1501 23.8903 22.6679C27.1755 19.1638 31.3516 16.9184 36.1867 16.7854Z" fill="#F27718"/>
<path d="M36.4416 19.4127C40.5307 19.5978 43.9374 20.8902 46.9386 23.7538C43.564 27.2833 40.0881 30.7748 36.5339 34.1206C36.3158 31.8835 36.7164 29.5697 36.4004 27.346C36.5171 24.7112 36.4416 22.0503 36.4416 19.4127Z" fill="#F29822"/>
<path d="M36.1867 16.7854C40.9307 16.7903 45.2232 18.5979 48.5782 21.9914C50.9264 24.3664 52.1722 26.9969 53.2069 30.1447C53.8459 33.2186 53.6207 36.4615 53.6019 39.5861C53.5271 40.5913 53.49 41.6176 53.3593 42.6157C53.2502 43.5399 53.1614 44.4733 53.0202 45.3926L50.9984 45.3334C51.2795 41.4423 51.3074 37.3484 51.1417 33.4488C50.9858 29.7801 49.6792 26.262 46.9486 23.7476C43.9473 20.8842 40.5406 19.5918 36.4516 19.4067C32.4006 19.5109 28.5402 21.5543 25.7675 24.472C22.7857 27.6092 21.7265 31.4434 21.8657 35.7245C21.9259 37.5737 22.132 39.4263 22.3503 41.2621C22.4872 42.6432 22.8279 43.989 22.9799 45.3623C22.1963 45.3679 21.45 45.3475 20.6928 45.5854C20.3295 44.5507 20.1455 43.3829 20.0223 42.294C20.0255 41.4733 19.8202 40.5779 19.699 39.7621C19.5682 38.405 19.4185 37.0408 19.3758 35.6774C19.2279 30.9521 20.6251 26.1501 23.8903 22.6679C27.1755 19.1638 31.3516 16.9184 36.1867 16.7854Z" fill="#F1471F"/>
<path d="M22.3442 41.267C22.1259 39.4313 21.9198 37.5786 21.8597 35.7295C21.7204 31.4483 22.7797 27.6142 25.7614 24.4769C28.5341 21.5592 32.3946 19.5158 36.4455 19.4116C36.4455 22.0491 36.521 24.7099 36.4043 27.3446C36.7203 29.5682 36.3197 31.8819 36.5378 34.1189C36.4616 34.7679 36.4595 35.4035 36.4602 36.0554C36.4868 39.1567 36.3917 42.2652 36.5134 45.3637C35.8814 45.3743 35.2081 45.3356 34.5845 45.4292C32.0307 45.318 29.4573 45.3842 26.9006 45.3891L22.9738 45.3673C22.8218 43.994 22.4811 42.6481 22.3442 41.267Z" fill="#F6D028"/>
<path d="M36.4019 27.3438C36.7179 29.5676 36.3173 31.8814 36.5354 34.1185C36.4592 34.7675 36.4571 35.4031 36.4578 36.055C36.4844 39.1565 36.3893 42.265 36.511 45.3637C35.879 45.3743 35.2057 45.3356 34.5821 45.4292C32.0283 45.318 29.4549 45.3842 26.8982 45.3891L22.9714 45.3673C22.8194 43.9939 22.4788 42.648 22.3418 41.2669C24.6181 39.4902 26.5825 37.4009 28.6068 35.3468L36.4019 27.3438Z" fill="#ECB411"/>
<path d="M26.9062 45.3891C29.8769 42.0954 33.0872 38.9214 36.4659 36.055C36.4925 39.1565 36.3974 42.265 36.519 45.3637C35.8871 45.3743 35.2138 45.3356 34.5902 45.4292C32.0364 45.318 29.463 45.3842 26.9062 45.3891Z" fill="#F29822"/>
<defs>
<linearGradient id="paint0_linear_8254_108165" x1="0.49827" y1="22.4999" x2="45.1765" y2="22.4999" gradientUnits="userSpaceOnUse">
<stop stop-color="#202CD3"/>
<stop offset="1" stop-color="#0778F9"/>
</linearGradient>
</defs>
</svg>
