<svg width="46" height="48" viewBox="0 0 46 48" fill="none" xmlns="http://www.w3.org/2000/svg">
<path d="M37.3134 22.3379C38.2762 22.6805 39.2403 23.2337 40.0952 23.7921C43.017 25.7027 45.0145 28.4612 45.7191 31.9152C46.4321 35.4137 45.7872 39.2975 43.7916 42.2738C42.1357 44.7434 39.1446 47.0256 36.1958 47.5808C32.6902 48.2407 26.1048 47.9085 22.3268 47.9098C18.7216 47.9111 13.7168 48.2226 10.2697 47.6803C8.59648 47.4179 7.1359 46.8918 5.73506 45.9288C2.83446 43.9342 0.875451 40.8435 0.224808 37.376C-0.393079 34.0829 0.265282 30.5508 2.1684 27.7858C3.8769 25.3026 7.08067 22.5939 10.1046 22.0477L10.1174 22.166C10.095 22.7289 10.1116 23.3242 10.0314 23.8807C6.87769 24.8205 4.4614 26.5177 2.87236 29.4753C1.90443 31.2766 1.32892 33.5594 1.59676 35.6115C1.53959 38.3577 2.69637 41.0225 4.57572 42.9984C6.91688 45.4602 9.8104 46.4032 13.1285 46.4562C17.218 46.5215 21.3165 46.4084 25.4079 46.411C28.4157 46.4135 33.346 46.8349 36.1695 46.1098C38.0289 45.6321 39.7124 44.5806 41.0773 43.2368C42.2083 42.1232 43.0851 40.7937 43.6985 39.3272C44.8135 37.1355 44.974 34.304 44.3729 31.9417C43.3747 28.0223 40.6341 25.6477 37.3263 23.6448L37.1798 23.0308C37.2595 22.8026 37.2787 22.5777 37.3134 22.3379Z" fill="#3DBB7C"/>
<path d="M10.2041 11.146C12.0121 12.7146 14.1342 13.6414 16.4516 14.1824L16.4748 14.2503L16.3681 14.7454L16.7265 14.9044C17.9996 15.1558 19.2675 15.4369 20.5649 15.5255C20.7203 15.5423 20.8745 15.5578 21.0306 15.5688C26.2839 15.9256 33.1237 15.5397 37.2742 11.8783C37.621 13.1832 37.3814 16.2733 37.3776 17.7792C36.953 18.1961 36.5465 18.6304 36.0506 18.962L36.2876 19.1914L36.7019 19.1553C32.4268 22.5523 25.815 23.05 20.5989 22.4237C19.2797 22.2654 17.9617 22.0068 16.6861 21.6313C14.2023 21.0031 12.0673 19.9948 10.048 18.4191L10.1726 17.7611L10.1045 17.4412C9.68123 16.389 9.9208 12.3178 10.2041 11.146Z" fill="#DC202B"/>
<path d="M10.2041 11.1458C12.0121 12.7145 14.1342 13.6413 16.4516 14.1823L16.4748 14.2501L16.3681 14.7452C15.0026 14.6004 13.5735 13.9328 12.323 13.4002C11.5291 12.9568 10.8258 12.5038 10.1366 11.904C10.1116 13.7344 10.2201 15.621 10.1045 17.441C9.68123 16.3888 9.9208 12.3176 10.2041 11.1458Z" fill="#EBADBA"/>
<path d="M10.1715 17.7611C13.9809 21.2241 20.5856 22.2705 25.5345 22.0049C29.1647 21.8104 32.9858 21.0302 36.0495 18.962L36.2865 19.1914L36.7008 19.1553C32.4257 22.5523 25.8139 23.05 20.5979 22.4237C19.2786 22.2654 17.9606 22.0068 16.685 21.6313C14.2012 21.0031 12.0662 19.9948 10.0469 18.4191L10.1715 17.7611Z" fill="#EAC1D5"/>
<path d="M12.3203 13.3996C13.5709 13.9322 14.9999 14.5998 16.3655 14.7446L16.7239 14.9036C16.7431 16.407 16.7913 17.814 17.1664 19.274C16.0045 19.1538 14.26 18.7512 13.3871 17.9323C12.2567 16.8717 12.4179 14.8377 12.3203 13.3996Z" fill="#E53022"/>
<path d="M37.2742 11.8773C37.621 13.1822 37.3814 16.2723 37.3776 17.7782C36.953 18.1951 36.5465 18.6294 36.0506 18.961C36.0885 18.8899 36.1251 18.8182 36.1636 18.7477C36.2805 18.5325 36.409 18.3825 36.5728 18.2029C36.9485 17.7892 37.244 17.2205 37.2742 16.6549L37.1592 16.3641C36.9235 16.494 37.0481 16.3957 36.8631 16.64C35.2278 18.7975 29.9411 19.8381 27.422 20.1037C24.3191 20.4308 20.1005 20.5355 17.1691 19.2738C16.794 17.8138 16.7458 16.4067 16.7266 14.9034C17.9996 15.1548 19.2675 15.4359 20.5649 15.5245C20.7204 15.5413 20.8745 15.5568 21.0306 15.5678C26.2839 15.9246 33.1237 15.5387 37.2742 11.8773Z" fill="#F14C27"/>
<mask id="mask0_8396_50672" style="mask-type:luminance" maskUnits="userSpaceOnUse" x="10" y="0" width="28" height="16">
<path d="M10.133 4.97828C10.1516 4.21432 10.3841 3.65655 10.9326 3.1188C13.988 0.123733 21.7707 -0.115398 25.9102 0.0332565C29.1044 0.147656 34.3005 0.653073 36.625 3.1996C37.1382 3.76125 37.4028 4.33842 37.3868 5.09915C37.4079 7.03877 37.6315 9.30737 37.2634 11.2082L36.7464 11.6865C32.3563 14.7934 26.049 15.5082 20.8258 15.0293L20.5651 15.525C19.2677 15.4365 17.9998 15.1553 16.7267 14.9039L16.3683 14.7449L16.475 14.2498L16.4518 14.182C14.1344 13.641 12.0123 12.7142 10.2042 11.1455C10.0083 10.145 10.0694 9.08052 10.1317 8.06837C9.98007 7.08983 10.1073 5.97297 10.133 4.97828Z" fill="white"/>
</mask>
<g mask="url(#mask0_8396_50672)">
<path d="M10.133 4.97828C10.1516 4.21432 10.3841 3.65655 10.9326 3.1188C13.988 0.123733 21.7707 -0.115398 25.9102 0.0332565C29.1044 0.147656 34.3005 0.653073 36.625 3.1996C37.1382 3.76125 37.4028 4.33842 37.3868 5.09915C37.4079 7.03877 37.6315 9.30737 37.2634 11.2082L36.7464 11.6865C32.3563 14.7934 26.049 15.5082 20.8258 15.0293L20.5651 15.525C19.2677 15.4365 17.9998 15.1553 16.7267 14.9039L16.3683 14.7449L16.475 14.2498L16.4518 14.182C14.1344 13.641 12.0123 12.7142 10.2042 11.1455C10.0083 10.145 10.0694 9.08052 10.1317 8.06837C9.98007 7.08983 10.1073 5.97297 10.133 4.97828Z" fill="url(#paint0_linear_8396_50672)"/>
</g>
<path d="M16.9069 2.47621C17.7965 2.43808 18.9725 2.21833 19.742 2.74444C19.9398 3.11672 19.8936 3.26213 19.8685 3.67578C18.9295 3.68677 17.7817 3.97761 16.9242 3.54328C16.6962 3.11864 16.8157 2.93963 16.9069 2.47621Z" fill="white"/>
<path d="M23.5503 2.44327C24.5221 2.38639 25.772 2.12592 26.6263 2.66431C26.8241 3.04499 26.7842 3.20075 26.7656 3.62216C25.7514 3.66934 24.6229 3.91947 23.6666 3.51423C23.4096 3.11544 23.5079 2.90798 23.5503 2.44327Z" fill="white"/>
<path d="M30.2964 2.49967C30.9239 2.46219 31.57 2.40274 32.1969 2.45186C32.7082 2.49128 32.9754 2.57724 33.3158 2.96892C33.3672 3.3231 33.3569 3.46789 33.2034 3.79169C32.4191 3.81561 31.4653 3.94035 30.6978 3.79493C30.351 3.72965 30.2212 3.66176 30.0195 3.37673C30.0324 2.99346 30.0953 2.82413 30.2964 2.49967Z" fill="white"/>
<path d="M30.423 4.37126C31.0993 4.34605 31.9632 4.23553 32.6113 4.44235C32.9614 4.55417 33.0288 4.65822 33.1855 4.98009C33.1232 5.41765 33.0025 5.57083 32.7372 5.90239C32.136 5.95216 31.3723 6.08014 30.793 5.88495C30.4275 5.76214 30.344 5.63287 30.168 5.30131C30.1655 4.89994 30.2483 4.71898 30.423 4.37126Z" fill="white"/>
<path d="M16.8184 4.36865C17.5218 4.34409 18.3548 4.2478 19.044 4.379C19.4306 4.45269 19.5655 4.55804 19.7948 4.86698C19.7775 5.27093 19.6753 5.38663 19.4698 5.72531C18.9386 5.94441 18.243 6.04717 17.6733 5.97025C17.3066 5.92113 17.0985 5.76021 16.8647 5.4797C16.717 5.0583 16.7433 4.80492 16.8184 4.36865Z" fill="white"/>
<path d="M23.4965 4.33751C24.397 4.33169 25.9179 3.98848 26.6469 4.58698C26.7966 5.00256 26.7304 5.14993 26.6476 5.57521C26.4992 5.65342 26.3816 5.71611 26.2179 5.75554C25.3161 5.97529 24.5074 6.04315 23.6827 5.58814C23.4232 5.137 23.4907 4.85198 23.4965 4.33751Z" fill="white"/>
<path d="M10.133 4.97809C11.713 7.23635 14.1473 7.79994 16.6676 8.51995C16.6291 9.7693 16.6381 11.0115 16.6599 12.2609L16.5777 12.2357C16.5861 12.8639 16.6786 13.5904 16.4518 14.1818C14.1344 13.6408 12.0123 12.714 10.2042 11.1453C10.0083 10.1448 10.0694 9.08033 10.1317 8.06818C9.98007 7.08964 10.1073 5.97278 10.133 4.97809Z" fill="#F14C27"/>
<path d="M10.1309 8.06818C10.7436 8.37648 10.8226 8.94847 11.2549 9.43839C12.65 11.0187 14.6456 11.6197 16.577 12.2357C16.5853 12.8639 16.6778 13.5904 16.4511 14.1818C14.1337 13.6408 12.0115 12.714 10.2035 11.1453C10.0076 10.1448 10.0686 9.08033 10.1309 8.06818Z" fill="#DC202B"/>
<path d="M16.6665 8.52063C20.2704 9.28847 23.7696 9.62844 27.4493 9.24258C30.8381 8.8871 35.1325 7.88659 37.3856 5.09964C37.4068 7.03926 37.6303 9.30786 37.2623 11.2087L36.7453 11.687C32.3552 14.7939 26.0478 15.5087 20.8247 15.0298L20.5639 15.5255C19.2665 15.437 17.9986 15.1558 16.7256 14.9044L16.3672 14.7454L16.4738 14.2503L16.4507 14.1824C16.6774 13.5911 16.5849 12.8646 16.5766 12.2364L16.6588 12.2616C16.637 11.0122 16.628 9.76998 16.6665 8.52063Z" fill="#F06019"/>
<path d="M16.6588 12.2616C22.0759 14.1553 28.689 13.5407 33.993 11.6043C34.4837 11.4252 35.0573 11.2656 35.4986 10.9896C35.9822 10.6865 36.4376 10.0615 37.0028 9.96583C37.2604 10.3426 37.2244 10.7595 37.2623 11.2087L36.7453 11.687C32.3552 14.7939 26.0478 15.5087 20.8247 15.0298L20.5639 15.5255C19.2665 15.437 17.9986 15.1558 16.7256 14.9044L16.3672 14.7454L16.4738 14.2503L16.4507 14.1824C16.6774 13.5911 16.5849 12.8646 16.5766 12.2364L16.6588 12.2616Z" fill="#E53022"/>
<path d="M16.4738 14.2503C17.9164 14.5593 19.3577 14.8592 20.8247 15.0298L20.5639 15.5255C19.2665 15.437 17.9986 15.1558 16.7256 14.9044L16.3672 14.7454L16.4738 14.2503Z" fill="#EAC1D5"/>
<path d="M10.0496 18.4191C12.069 19.9948 14.204 21.0031 16.6877 21.6313C17.9633 22.0068 19.2813 22.2654 20.6006 22.4237C25.8166 23.05 32.4284 22.5523 36.7035 19.1552L37.1383 18.7584C37.3445 18.8644 37.2912 18.7888 37.358 19.0227C37.6348 19.9968 37.2495 21.314 37.3176 22.3384C37.2829 22.5782 37.2636 22.8031 37.1839 23.0313L37.3304 23.6453C40.6382 25.6482 43.3789 28.0228 44.377 31.9422C44.9782 34.3045 44.8176 37.136 43.7026 39.3277C43.0892 40.7942 42.2125 42.1237 41.0814 43.2373C39.7165 44.581 38.0331 45.6326 36.1736 46.1103C33.3501 46.8354 28.4198 46.414 25.412 46.4114C21.3206 46.4089 17.2221 46.522 13.1326 46.4567C9.81452 46.4037 6.92101 45.4607 4.57985 42.9988C2.7005 41.023 1.54372 38.3582 1.60088 35.612C1.33305 33.5599 1.90855 31.2771 2.87649 29.4758C4.46552 26.5182 6.88182 24.8209 10.0355 23.8812C10.1158 23.3247 10.0991 22.7294 10.1216 22.1665L10.1087 22.0482C10.049 20.8357 9.98088 19.6335 10.0496 18.4191Z" fill="white"/>
<path d="M21.745 40.4692C22.14 40.5481 22.6178 40.6637 22.8979 40.9817C23.1368 41.2525 23.2582 41.5104 23.2184 41.8808C23.1522 42.498 22.7521 42.8283 22.298 43.1896C21.7771 43.1321 21.3564 43.0364 21.0301 42.5853C20.8162 42.2899 20.7366 41.9267 20.8053 41.5686C20.9177 40.983 21.2722 40.7484 21.745 40.4692Z" fill="#34988D"/>
<path d="M29.5156 41.4156C29.7546 41.0931 30.0751 40.726 30.4675 40.5941C31.0147 40.4099 31.4836 40.6723 31.964 40.905C32.133 41.4518 32.2685 41.9023 31.9833 42.4472C31.826 42.7477 31.5524 42.9836 31.2171 43.0541C30.7925 43.1426 30.3358 42.9642 30.0353 42.6611C29.7006 42.3231 29.619 41.8629 29.5156 41.4156Z" fill="#34988D"/>
<path d="M26.1547 40.4598C26.5966 40.5244 27.0918 40.6498 27.3994 41.0059C27.6448 41.2897 27.77 41.5767 27.7283 41.9599C27.6634 42.5571 27.2832 42.8577 26.8522 43.2086C26.813 43.208 26.7732 43.208 26.734 43.2054C26.208 43.1718 25.8245 43.0748 25.4905 42.6476C25.2388 42.3251 25.145 41.9153 25.2388 41.5146C25.3679 40.9652 25.707 40.7319 26.1547 40.4598Z" fill="#34988D"/>
<path d="M10.0355 23.8811C10.7632 25.7749 13.193 26.3553 14.7942 27.2627L14.6105 27.392C14.2907 27.253 14.2509 27.1703 13.8989 27.2517L14.308 27.5025L14.2592 27.6356C12.746 27.0798 11.3323 26.2951 10.0811 25.2694C10.0984 26.2105 10.2474 27.4262 10.0233 28.3304C9.90446 27.3764 9.77601 26.2001 9.97383 25.2584L10.1517 25.0561C10.3939 25.1809 10.4478 25.1996 10.7182 25.1925L10.6193 25.2597C10.3104 24.8952 10.0021 24.5772 9.63663 24.2696C6.68914 25.283 4.28631 27.0985 2.90923 29.9702C2.54505 30.7296 2.25925 31.542 2.08326 32.3667C1.97278 32.8877 1.83725 35.3696 1.60088 35.6119C1.33305 33.5599 1.90855 31.277 2.87649 29.4757C4.46552 26.5181 6.88182 24.8209 10.0355 23.8811Z" fill="#EAC1D5"/>
<path d="M10.0773 25.2698C11.3285 26.2955 12.7422 27.0801 14.2555 27.636C15.0269 28.06 15.8862 28.3049 16.7161 28.5854C16.745 30.1107 16.718 31.6574 17.0179 33.1588C14.1193 32.3535 12.037 31.3724 10.0831 29.0378L10.0195 28.3308C10.2437 27.4266 10.0947 26.2108 10.0773 25.2698Z" fill="#DC202B"/>
<path d="M10.0836 29.0378C12.0375 31.3723 14.1198 32.3534 17.0184 33.1587C19.3872 33.7954 21.819 34.2387 24.2745 34.3053C28.5136 34.4204 33.896 33.48 37.0587 30.4047L37.1858 30.2787L37.3959 30.3841C37.3528 31.5798 37.0208 32.3114 36.1447 33.1381C33.5614 35.5741 28.4731 36.4556 25.0638 36.4938C21.0649 36.4886 14.1705 36.0245 11.1415 33.0262C9.95835 31.8551 10.09 30.5915 10.0836 29.0378Z" fill="#A41A29"/>
<path d="M36.9966 25.7171L37.159 25.6777C37.2156 27.2017 37.0145 28.9042 37.3941 30.3836L37.1841 30.2782L37.0569 30.4043C33.8943 33.4795 28.5119 34.4199 24.2727 34.3048C21.8172 34.2383 19.3855 33.7949 17.0167 33.1583C16.7168 31.6569 16.7437 30.1102 16.7148 28.5849C17.5286 28.7826 18.345 28.983 19.1684 29.1381C25.3139 30.2925 31.8062 29.292 36.9966 25.7171Z" fill="#F14C27"/>
<path d="M10.0484 18.419C12.0677 19.9948 14.2027 21.003 16.6865 21.6313C17.9621 22.0068 19.2801 22.2653 20.5993 22.4237C25.8154 23.05 32.4272 22.5523 36.7023 19.1552L37.1371 18.7584C37.3433 18.8644 37.29 18.7887 37.3568 19.0227C37.6336 19.9967 37.2482 21.3139 37.3163 22.3384C37.2816 22.5781 37.2624 22.8031 37.1827 23.0312L37.3292 23.6452C37.1217 24.4241 36.9284 24.8325 36.3349 25.3657C36.5597 25.4969 36.7601 25.6191 37.0003 25.7173C31.8099 29.2922 25.3176 30.2927 19.1721 29.1383C18.3487 28.9832 17.5324 28.7829 16.7186 28.5851C15.8887 28.3046 15.0294 28.0596 14.258 27.6356L14.3068 27.5025L13.8976 27.2517C14.2496 27.1703 14.2894 27.253 14.6093 27.392L14.793 27.2627C13.1918 26.3553 10.762 25.7749 10.0342 23.8811C10.1145 23.3247 10.0978 22.7294 10.1203 22.1664L10.1075 22.0482C10.0477 20.8356 9.97964 19.6335 10.0484 18.419Z" fill="#F14C27"/>
<path d="M10.0484 18.419C12.0677 19.9948 14.2027 21.003 16.6865 21.6313C16.6935 23.0532 16.6447 24.4997 16.8381 25.9106C18.7791 26.5459 20.6989 26.9673 22.7401 27.1005C27.759 27.4275 33.327 26.4639 37.1827 23.0312L37.3292 23.6452C37.1217 24.4241 36.9284 24.8325 36.3349 25.3657C36.5597 25.4969 36.7601 25.6191 37.0003 25.7173C31.8099 29.2922 25.3176 30.2927 19.1721 29.1383C18.3487 28.9832 17.5324 28.7829 16.7186 28.5851C15.8887 28.3046 15.0294 28.0596 14.258 27.6356L14.3068 27.5025L13.8976 27.2517C14.2496 27.1703 14.2894 27.253 14.6093 27.392L14.793 27.2627C13.1918 26.3553 10.762 25.7749 10.0342 23.8811C10.1145 23.3247 10.0978 22.7294 10.1203 22.1664L10.1075 22.0482C10.0477 20.8356 9.97964 19.6335 10.0484 18.419Z" fill="#DC202B"/>
<path d="M14.7938 27.2627C16.2287 27.7384 17.6649 28.1902 19.1531 28.4707C24.9266 29.5604 31.4337 28.7667 36.3357 25.3657C36.5605 25.4969 36.7609 25.6191 37.0011 25.7173C31.8107 29.2922 25.3184 30.2927 19.1729 29.1383C18.3495 28.9832 17.5332 28.7829 16.7194 28.5851C15.8895 28.3046 15.0302 28.0596 14.2588 27.6356L14.3076 27.5025L13.8984 27.2517C14.2504 27.1703 14.2902 27.253 14.6101 27.392L14.7938 27.2627Z" fill="#EBADBA"/>
<path d="M10.0484 18.4188C12.0677 19.9946 14.2027 21.0028 16.6865 21.6311C16.6935 23.053 16.6447 24.4995 16.8381 25.9104C15.4758 25.6519 14.0955 25.0747 12.9278 24.3243C12.2187 23.8687 10.7221 22.2729 10.1203 22.1662L10.1075 22.0479C10.0477 20.8354 9.97964 19.6333 10.0484 18.4188Z" fill="#E53022"/>
<defs>
<linearGradient id="paint0_linear_8396_50672" x1="24.3289" y1="0.0416578" x2="23.6384" y2="9.21599" gradientUnits="userSpaceOnUse">
<stop stop-color="#F19813"/>
<stop offset="1" stop-color="#F1BA27"/>
</linearGradient>
</defs>
</svg>
