<svg width="82" height="80" viewBox="0 0 82 80" fill="none" xmlns="http://www.w3.org/2000/svg">
<circle opacity="0.2" cx="30.2498" cy="30" r="30" fill="url(#paint0_linear_8175_30837)"/>
<mask id="mask0_8175_30837" style="mask-type:luminance" maskUnits="userSpaceOnUse" x="70" y="74" width="12" height="2">
<path d="M70.8164 74.39C73.4111 74.3111 79.5557 73.7583 81.6763 74.2679C81.3968 74.8813 81.2158 75.267 80.5446 75.5223C78.5633 76.2762 73.4427 75.5958 71.0996 75.6187L70.8164 74.39Z" fill="white"/>
</mask>
<g mask="url(#mask0_8175_30837)">
<path d="M70.8164 74.39C73.4111 74.3111 79.5557 73.7583 81.6763 74.2679C81.3968 74.8813 81.2158 75.267 80.5446 75.5223C78.5633 76.2762 73.4427 75.5958 71.0996 75.6187L70.8164 74.39Z" fill="url(#paint1_linear_8175_30837)"/>
</g>
<path d="M13.7498 74.105C15.1936 73.8231 23.2029 73.8038 24.455 74.1748C24.3157 74.7074 24.2433 75.2179 24.1854 75.7652C21.6269 75.6973 17.5522 76.4145 15.2407 75.655C14.403 75.3796 14.1153 74.8561 13.7498 74.105Z" fill="#237335"/>
<path d="M24.4646 74.1659C32.8123 74.6287 41.9661 74.2935 50.4143 74.3073L50.4288 74.3908C57.2068 74.4065 64.0419 74.6103 70.8154 74.3872L71.0986 75.6158C71.1212 76.803 71.1158 78.0518 70.2862 78.993C69.7153 79.6404 69.0323 79.7983 68.2099 79.8176C66.1806 80.0233 64.0618 79.9195 62.0208 79.9287L50.8205 79.9269C42.5451 79.8938 34.2598 80.0774 25.9872 79.9581C25.7981 79.8084 25.6099 79.6587 25.429 79.499C24.242 78.4503 24.2845 77.241 24.1949 75.7562C24.2528 75.209 24.3252 74.6985 24.4646 74.1659Z" fill="#1E4251"/>
<path d="M50.4183 74.3921C57.1963 74.4077 64.0312 74.6116 70.8046 74.3884L71.0878 75.6171C71.1104 76.8045 71.105 78.0533 70.2754 78.9946C69.7045 79.642 69.0215 79.7999 68.1991 79.8192C66.178 79.5584 63.9697 79.721 61.9269 79.7283L50.3849 79.743C50.3514 77.9532 50.3378 76.1819 50.4183 74.3921Z" fill="#1A2545"/>
<path d="M80.1936 57.41C80.684 57.545 80.9499 57.5836 81.2593 58.0409C82.3061 59.5909 81.2964 71.4204 81.6583 74.2653C79.5377 73.7556 73.393 74.3084 70.7984 74.3874C64.025 74.6105 57.19 74.4067 50.4121 74.3911L50.3976 74.3075C50.5351 71.1679 50.4356 67.997 50.4193 64.8546C53.7459 64.3229 57.048 63.0961 60.313 62.2384C64.4791 61.1429 68.7076 60.3237 72.8502 59.129C74.618 58.6194 77.7908 58.7746 79.0428 57.6478C79.3134 57.4036 79.8299 57.4476 80.1936 57.41Z" fill="#3AB73E"/>
<path d="M57.3836 64.904C57.4497 64.8948 57.5157 64.8829 57.5827 64.8746C58.386 64.7846 59.1288 64.7975 59.7593 65.387C60.1013 65.7066 60.2995 66.1456 60.2723 66.6221C60.2298 67.3972 59.7657 67.9215 59.2383 68.4247C58.434 68.5432 57.7844 68.5855 57.1095 68.0372C56.7069 67.7103 56.4762 67.2466 56.4609 66.7195C56.4382 65.8921 56.849 65.4477 57.3836 64.904Z" fill="white"/>
<path d="M74.1618 64.6818C74.2396 64.6928 74.3183 64.702 74.3962 64.7149C75.0846 64.8269 75.7279 65.0409 76.1015 65.6947C76.4037 66.2236 76.4715 66.6855 76.2616 67.2696C76.002 67.995 75.5053 68.2466 74.863 68.5616C74.6431 68.5561 74.4531 68.5579 74.2333 68.5221C73.6263 68.4248 73.0807 68.0859 72.774 67.5359C72.528 67.0951 72.489 66.5625 72.651 66.0831C72.9106 65.3163 73.4761 64.9995 74.1618 64.6818Z" fill="white"/>
<path d="M66.0624 64.7128C66.2732 64.7017 66.3239 64.6953 66.5582 64.7063C67.2403 64.7375 67.9315 64.9432 68.3504 65.5374C68.6598 65.9754 68.7729 66.3739 68.677 66.9038C68.5277 67.7303 68.0202 68.1022 67.3715 68.5301C67.3227 68.5328 67.2738 68.5374 67.225 68.5374C66.4333 68.5475 65.7331 68.4557 65.1957 67.7973C64.8673 67.396 64.7976 66.9506 64.851 66.4465C64.9352 65.6439 65.4889 65.1848 66.0624 64.7128Z" fill="white"/>
<path d="M72.1043 10.1967C73.8631 10.1535 79.6558 9.6393 80.9794 10.4704C81.2571 11.2123 81.3901 11.9359 81.4534 12.7257C81.6244 14.8579 81.8533 25.5808 81.3467 27.0483C81.258 27.3045 81.2707 27.2402 80.9776 27.3421C79.3283 27.9124 73.0353 27.7159 71.082 27.5203C69.5278 26.8417 53.4233 27.3054 50.6197 27.3651C50.7654 24.0794 50.6559 20.746 50.6586 17.4549C50.6233 15.9296 50.181 11.6751 50.7437 10.4253L51.8754 10.1691C58.5864 10.1563 65.4078 9.88539 72.1043 10.1967Z" fill="#4441A1"/>
<path d="M57.7415 17.1599C57.9305 17.1397 57.9704 17.1314 58.183 17.1277C58.8407 17.1186 59.369 17.2242 59.8367 17.7513C60.1606 18.1158 60.2873 18.5584 60.2239 19.0442C60.1163 19.878 59.6078 20.2692 58.9927 20.7412C58.3349 20.7752 57.7026 20.7256 57.1742 20.272C56.8033 19.9524 56.6214 19.4942 56.6323 19.0047C56.6531 18.1259 57.1389 17.6943 57.7415 17.1599Z" fill="white"/>
<path d="M74.4026 16.7782C74.523 16.7901 74.6442 16.7983 74.7645 16.814C75.3761 16.8929 76.0012 17.1592 76.307 17.7368C76.5468 18.1914 76.5069 18.7268 76.3224 19.1914C76.0048 19.9903 75.4104 20.3356 74.6767 20.6873C74.5519 20.6708 74.4262 20.6598 74.3031 20.6359C73.6726 20.5165 73.0709 20.1667 72.7678 19.5679C72.548 19.1327 72.5715 18.5982 72.7389 18.1501C73.0356 17.3585 73.7015 17.1023 74.4026 16.7782Z" fill="white"/>
<path d="M65.8173 16.7994C66.0779 16.7838 66.3574 16.7572 66.6198 16.7728C67.2468 16.8113 67.8167 17.0069 68.2012 17.546C68.4527 17.8986 68.5441 18.333 68.4835 18.76C68.355 19.6682 67.7959 20.2513 67.1174 20.7958C66.7962 20.8032 66.7057 20.8114 66.3819 20.7949C65.8571 20.7673 65.3017 20.4845 64.9823 20.0511C64.6584 19.6112 64.5209 19.1392 64.5842 18.5938C64.6865 17.7159 65.1814 17.321 65.8173 16.7994Z" fill="white"/>
<path d="M51.8754 10.1673C58.5864 10.1544 65.4078 9.88353 72.1043 10.1948C68.7145 12.3776 62.9407 13.4483 58.9972 14.6412C56.198 15.4879 53.4315 16.5154 50.6586 17.453C50.6233 15.9277 50.181 11.6733 50.7437 10.4235L51.8754 10.1673Z" fill="#4C8FD3"/>
<path d="M14.06 26.47C14.0754 23.0753 13.5497 13.4587 14.3576 10.828C15.1085 10.3211 16.0793 10.2641 16.9632 10.209C20.7774 9.97123 24.7473 10.2045 28.5751 10.2201C36.3402 10.2513 44.1053 10.2871 51.8686 10.1668L50.7368 10.423C50.1741 11.6727 50.6165 15.9269 50.6518 17.4521C50.6491 20.743 50.7585 24.0762 50.6129 27.3616C46.6593 27.4002 26.7566 27.9061 25.1589 27.2946L24.2958 27.6857C21.8106 27.8868 18.6107 28.0824 16.1634 27.716C15.18 27.5691 14.658 27.2652 14.06 26.47Z" fill="#5EBDED"/>
<path d="M18.6512 16.5899C18.8982 16.5642 19.1741 16.5229 19.4238 16.5348C20.0643 16.5661 20.7818 16.8406 21.1771 17.3861C21.5055 17.8388 21.5996 18.1997 21.5327 18.7589C21.4386 19.5588 20.8189 20.0106 20.2245 20.4394C19.8952 20.5138 19.5595 20.6029 19.2185 20.5928C18.6521 20.5763 18.0722 20.3338 17.714 19.8756C17.3955 19.466 17.2933 18.9206 17.3656 18.4127C17.4905 17.5312 17.9863 17.106 18.6512 16.5899Z" fill="white"/>
<path d="M26.624 16.404C26.7172 16.4132 26.8104 16.4197 26.9027 16.4334C27.5532 16.5308 28.1285 16.7695 28.4904 17.36C28.8007 17.866 28.7989 18.4693 28.6243 19.0184C28.3032 20.024 27.763 20.3444 26.8792 20.8045C26.6548 20.754 26.3979 20.7072 26.1825 20.6181C25.5646 20.3628 25.001 19.8844 24.7522 19.2397C24.5677 18.7622 24.6039 18.2333 24.8092 17.7705C25.1729 16.9504 25.856 16.7172 26.624 16.404Z" fill="white"/>
<path d="M14.0623 26.4699C16.827 26.0805 22.4433 26.0502 25.0081 26.8556L25.3076 27.2036L25.161 27.2945L24.2979 27.6857C21.8127 27.8868 18.6129 28.0824 16.1657 27.716C15.1823 27.5691 14.6603 27.2651 14.0623 26.4699Z" fill="#4C8FD3"/>
<path d="M50.4683 51.14C57.297 51.2079 64.1376 51.5413 70.9618 51.5275L70.998 57.1573C73.6008 57.992 77.3843 57.0802 80.2016 57.4117C79.8379 57.4493 79.3213 57.4053 79.0508 57.6495C77.7987 58.7762 74.6258 58.621 72.858 59.1307C68.7154 60.3253 64.4867 61.1444 60.3206 62.2399C57.0555 63.0975 53.7533 64.3243 50.4267 64.856C50.443 67.9983 50.5425 71.169 50.4049 74.3086C41.9568 74.2948 32.8029 74.6299 24.4552 74.1671C23.2031 73.7962 15.1937 73.8155 13.7498 74.0974C13.9126 72.8219 13.7941 71.3664 13.7932 70.0735L13.7841 61.6329L13.7859 58.9498C14.1505 58.4888 14.5712 58.0737 14.9756 57.6495C16.7308 57.6559 23.0746 58.0517 24.2779 57.1729L24.2878 53.9802L24.2779 51.5293C27.0399 51.2924 29.8346 51.3907 32.6057 51.3319C38.5153 51.2079 44.4113 51.1253 50.3217 51.174L50.4683 51.14Z" fill="#54BF36"/>
<path d="M18.6577 64.5187C18.8395 64.5114 19.0205 64.5013 19.2014 64.504C19.9053 64.5132 20.5648 64.7235 21.0479 65.2653C21.455 65.7208 21.5771 66.258 21.5048 66.865C21.407 67.6822 20.8136 68.2378 20.2309 68.7373C20.0093 68.7419 19.7868 68.7447 19.5651 68.7328C18.8703 68.6942 18.1981 68.348 17.743 67.8108C17.3712 67.3709 17.2066 66.8245 17.2979 66.2488C17.4373 65.3709 17.9891 64.9871 18.6577 64.5187Z" fill="white"/>
<path d="M26.1626 64.3117C26.52 64.3025 26.8936 64.2887 27.2456 64.3612C27.8553 64.4871 28.3982 64.8893 28.7311 65.4191C29.017 65.8755 29.1074 66.3714 28.9762 66.8985C28.77 67.7295 28.2407 68.1143 27.5441 68.5239C27.222 68.5358 26.8855 68.5542 26.5652 68.511C25.9618 68.432 25.3475 68.0418 24.9893 67.5486C24.6762 67.117 24.5369 66.6028 24.6455 66.0693C24.8291 65.1629 25.4308 64.7534 26.1626 64.3117Z" fill="white"/>
<path d="M50.4617 51.1379C57.2903 51.2059 64.1307 51.5392 70.9548 51.5255L70.991 57.1555C68.8486 56.4034 53.5883 56.8451 50.1866 56.8497C50.3585 54.9948 50.3486 53.037 50.3151 51.1719L50.4617 51.1379Z" fill="#1A2545"/>
<mask id="mask1_8175_30837" style="mask-type:luminance" maskUnits="userSpaceOnUse" x="24" y="51" width="27" height="7">
<path d="M24.2648 51.5172C27.0268 51.2803 29.8214 51.3785 32.5925 51.3198C38.5019 51.1958 44.3978 51.1131 50.3081 51.1618C50.3416 53.0269 50.3516 54.9847 50.1797 56.8396C47.566 56.8745 44.7244 57.1023 42.1379 56.7588L41.4566 56.9287C38.8149 56.7827 26.0425 56.498 24.2648 57.161L24.2747 53.9681L24.2648 51.5172Z" fill="white"/>
</mask>
<g mask="url(#mask1_8175_30837)">
<path d="M24.2648 51.5172C27.0268 51.2803 29.8214 51.3785 32.5925 51.3198C38.5019 51.1958 44.3978 51.1131 50.3081 51.1618C50.3416 53.0269 50.3516 54.9847 50.1797 56.8396C47.566 56.8745 44.7244 57.1023 42.1379 56.7588L41.4566 56.9287C38.8149 56.7827 26.0425 56.498 24.2648 57.161L24.2747 53.9681L24.2648 51.5172Z" fill="url(#paint2_linear_8175_30837)"/>
</g>
<path d="M24.283 53.9782C28.1153 53.8084 31.9548 53.8139 35.7898 53.7836C37.9095 53.7661 40.2662 53.5347 42.3533 53.8984C42.6781 54.2638 42.7225 54.5742 42.7016 55.0701C42.6808 55.5449 42.5876 56.0389 42.5153 56.5072L42.1462 56.7689L41.4649 56.9388C38.8232 56.7928 26.0508 56.5081 24.2731 57.1711L24.283 53.9782Z" fill="#4441A1"/>
<path d="M50.6105 27.3691C53.4142 27.3094 69.519 26.8457 71.0732 27.5243L71.0941 32.9466C71.6432 33.4893 78.4086 33.3112 79.7232 33.4333C80.2977 33.4195 80.5691 33.4067 81.0848 33.7078C81.3544 34.0265 81.501 34.2974 81.5534 34.7216C81.8049 36.7445 81.5706 39.1054 81.5634 41.1641C81.5534 43.7527 81.7407 46.4772 81.5254 49.0492C81.4738 49.6589 81.4141 50.7516 80.9699 51.2163C80.3239 51.893 72.3896 51.5524 70.9548 51.5331C64.1305 51.5469 57.29 51.2135 50.4612 51.1456L50.3147 51.1795C44.4042 51.1309 38.5082 51.2135 32.5987 51.3375C29.8275 51.3963 27.0329 51.298 24.2708 51.5349C21.9122 51.624 19.5229 51.7406 17.1643 51.7415C16.2886 51.7415 15.3287 51.5551 14.7153 50.8655C13.6151 49.6286 13.939 47.591 13.987 46.0538C13.9047 44.2586 13.5618 35.2285 14.2439 34.1633C14.471 33.8098 14.7813 33.6335 15.1758 33.5472C17.433 33.0586 21.3341 33.8483 23.9451 33.0449C24.0609 33.01 24.174 32.9696 24.2898 32.9319L24.3016 29.6932L24.2934 27.6933L25.1565 27.3021C26.7542 27.9136 46.6569 27.4077 50.6105 27.3691Z" fill="#F27718"/>
<path d="M26.1829 40.427C26.5303 40.4361 26.8922 40.4316 27.2305 40.5271C27.7616 40.6786 28.3487 41.1038 28.5993 41.618C28.8409 42.112 28.9078 42.5987 28.7513 43.1295C28.5106 43.9505 27.9986 44.2627 27.311 44.6713C27.1337 44.664 26.9564 44.6603 26.78 44.6392C26.1006 44.5575 25.4284 44.1975 25.0267 43.6263C24.6865 43.1424 24.5888 42.5712 24.7417 41.9972C24.9579 41.1873 25.527 40.843 26.1829 40.427Z" fill="white"/>
<path d="M18.6229 40.4504C18.7893 40.4504 18.9558 40.4513 19.1223 40.4568C19.8831 40.4844 20.4757 40.6387 20.9724 41.2898C21.3351 41.7654 21.4663 42.3513 21.336 42.9344C21.1325 43.8426 20.596 44.2843 19.8433 44.7444C19.6099 44.7581 19.3195 44.793 19.0834 44.7572C18.4826 44.6663 17.9634 44.3229 17.6259 43.8123C17.2695 43.2733 17.1745 42.6699 17.3066 42.0409C17.4821 41.1997 17.948 40.8747 18.6229 40.4504Z" fill="white"/>
<path d="M24.2896 32.9239C27.1213 32.125 35.1884 32.474 38.6652 32.4703C37.0774 32.5686 35.6806 33.6696 34.1417 34.0874C29.6743 35.3023 24.7754 36.6917 20.1552 36.9608C18.1558 37.0774 16.1139 36.9213 14.1136 36.8368C14.1652 39.8837 14.2729 43.0095 13.987 46.0463C13.9046 44.2511 13.5618 35.2206 14.2439 34.1554C14.471 33.8018 14.7813 33.6255 15.1757 33.5392C17.4329 33.0506 21.334 33.8404 23.9449 33.0369C24.0607 33.002 24.1738 32.9616 24.2896 32.9239Z" fill="#F29822"/>
<path d="M50.6265 27.3594C53.4301 27.2997 69.5346 26.836 71.0888 27.5146L71.1096 32.9371C69.2722 31.9031 53.3324 32.3999 50.5243 32.4008C50.4492 30.7654 50.2917 28.9674 50.6265 27.3594Z" fill="#282B6B"/>
<path d="M25.1711 27.2917C26.7688 27.9033 46.6711 27.3973 50.6246 27.3587C50.2899 28.9667 50.4473 30.7647 50.5224 32.4002L42.7393 32.4341L38.68 32.4681C35.2033 32.4718 27.1361 32.1228 24.3044 32.9218L24.3162 29.6829L24.308 27.6829L25.1711 27.2917Z" fill="#333494"/>
<path d="M24.3162 29.6829C26.2486 30.087 28.466 29.9171 30.4383 29.9116C34.5528 29.8987 38.6628 29.7674 42.7764 29.7206L42.7393 32.4341L38.68 32.4681C35.2033 32.4718 27.1361 32.1228 24.3044 32.9218L24.3162 29.6829Z" fill="#4441A1"/>
<path d="M79.7231 33.4212C80.2976 33.4074 80.569 33.3945 81.0847 33.6957C81.3543 34.0144 81.5008 34.2853 81.5533 34.7095C81.8048 36.7325 81.5705 39.0934 81.5632 41.1523C81.5533 43.7409 81.7406 46.4655 81.5252 49.0377C81.4737 49.6474 81.414 50.7402 80.9698 51.2048C80.3238 51.8816 72.3897 51.5409 70.9548 51.5216C64.1307 51.5354 57.2903 51.2021 50.4617 51.1341C50.535 47.6776 50.4355 44.1982 50.421 40.739C53.5612 40.3938 56.6507 39.2679 59.7258 38.5361C66.4133 36.9428 73.1758 35.5782 79.7231 33.4212Z" fill="#F1471F"/>
<path d="M58.1783 40.479C58.3801 40.5103 58.58 40.5461 58.779 40.5911C59.3689 40.7261 59.7425 40.9272 60.032 41.4993C60.308 42.042 60.2772 42.5985 60.0266 43.1375C59.7009 43.8363 59.2178 44.0833 58.5375 44.3588C58.428 44.334 58.3195 44.3111 58.2118 44.2844C57.5025 44.1081 56.9262 43.7996 56.5996 43.1017C56.378 42.6288 56.3961 42.2293 56.5707 41.7472C56.8394 41.0034 57.5079 40.7307 58.1783 40.479Z" fill="white"/>
<path d="M73.7756 40.8367C73.8715 40.8303 73.9665 40.822 74.0615 40.8183C74.7934 40.7926 75.424 40.8551 75.9578 41.4189C76.3893 41.8735 76.5313 42.3831 76.4671 43.0131C76.3856 43.8111 75.8501 44.3648 75.2675 44.8368C74.4569 44.8717 73.7349 44.8946 73.1224 44.2381C72.8157 43.9093 72.6538 43.4915 72.6475 43.0406C72.6348 42.0498 73.1125 41.4942 73.7756 40.8367Z" fill="white"/>
<path d="M65.8209 40.8312C66.0506 40.8257 66.2976 40.8119 66.5283 40.8386C67.2195 40.9203 67.8202 41.2004 68.2364 41.7908C68.5259 42.1995 68.629 42.7155 68.5367 43.2087C68.3766 44.0737 67.8437 44.4291 67.1688 44.8745C66.4143 44.8377 65.791 44.7955 65.212 44.2463C64.7714 43.8276 64.5471 43.2775 64.6113 42.6568C64.699 41.8 65.2029 41.3528 65.8209 40.8312Z" fill="white"/>
<defs>
<linearGradient id="paint0_linear_8175_30837" x1="0.911521" y1="30" x2="60.2498" y2="30" gradientUnits="userSpaceOnUse">
<stop stop-color="#202CD3"/>
<stop offset="1" stop-color="#0778F9"/>
</linearGradient>
<linearGradient id="paint1_linear_8175_30837" x1="80.0741" y1="76.6031" x2="72.1783" y2="73.1523" gradientUnits="userSpaceOnUse">
<stop stop-color="#235B2A"/>
<stop offset="1" stop-color="#1E371D"/>
</linearGradient>
<linearGradient id="paint2_linear_8175_30837" x1="45.4228" y1="61.3043" x2="28.7762" y2="47.1217" gradientUnits="userSpaceOnUse">
<stop stop-color="#223D71"/>
<stop offset="1" stop-color="#4B369A"/>
</linearGradient>
</defs>
</svg>
