<svg width="56" height="48" viewBox="0 0 56 48" fill="none" xmlns="http://www.w3.org/2000/svg">
<path d="M10.5781 36.5417L11.0151 36.5705C11.5949 37.6034 11.1645 39.7159 11.2665 40.909L11.2215 41.1027L10.6159 41.2466L10.5781 36.5417Z" fill="#452B90"/>
<path d="M11.2167 41.102C11.5259 41.1813 11.8174 41.2552 12.0998 41.4076C13.3862 42.1014 13.8242 43.2673 14.2283 44.5725C14.0352 45.2367 13.8539 45.827 13.4534 46.4041C12.9741 47.0948 12.3972 47.7824 11.5079 47.9045C10.5939 48.0305 9.61458 47.5926 8.91796 47.0349C8.15883 46.4275 7.66378 45.5175 7.59013 44.5522C7.53044 43.7667 7.68598 42.9725 8.22205 42.369C8.7771 41.7444 9.78219 41.2848 10.6111 41.2459L11.2167 41.102Z" fill="#91DBF4"/>
<path d="M22.3558 41.0361L22.9565 41.1038C23.3126 41.1022 23.5965 41.2197 23.9095 41.3791C24.7824 41.824 25.5055 42.7294 25.7753 43.6627C26.0216 44.5128 25.8703 45.4018 25.4122 46.1555C24.915 46.9745 24.0687 47.575 23.1228 47.764C22.2444 47.9398 21.3238 47.764 20.5894 47.2483C19.7487 46.6572 19.1418 45.5387 19.0091 44.5338C18.9116 43.7965 19.1643 43.0941 19.6176 42.5155C20.3435 41.5883 21.21 41.1963 22.3558 41.0361Z" fill="#62C9AF"/>
<path d="M34.7335 41.1076C35.499 41.1216 36.3162 41.47 36.8684 42.0028C37.5068 42.6196 37.7633 43.4907 37.7484 44.3587C37.7303 45.3597 37.2848 46.3405 36.5562 47.0327C35.8535 47.7001 34.9264 48.0711 33.9492 47.9886C32.8865 47.8984 31.8002 47.3361 31.1602 46.4836C30.5712 45.6988 30.299 44.6597 30.4669 43.6929C30.5963 42.947 30.9782 42.24 31.6206 41.8107C32.2425 41.3953 33.1304 41.1845 33.8637 41.3479C34.0574 41.4521 34.1766 41.4677 34.3915 41.4988L34.7335 41.1076Z" fill="#F3A815"/>
<path d="M16.7415 8.92726C17.626 7.50313 18.5166 6.20033 19.7205 5.01654C22.9229 1.86883 27.2947 -0.0398788 31.8225 0.000564575C35.9542 0.0371208 39.7432 1.75138 42.6161 4.67197C45.4255 7.52879 47.1133 11.5297 47.0663 15.533C49.8254 16.4391 52.154 17.6198 53.9093 19.9967C55.6026 22.2897 56.3266 25.1752 55.8623 27.9823C55.3932 30.8243 53.867 33.3405 51.478 34.994C50.2623 35.8348 48.6443 36.5683 47.14 36.3108L47.1314 41.1744C48.3251 41.6566 49.1862 42.1964 49.6953 43.4175C50.0278 44.2147 50.078 45.0874 49.7133 45.8839C49.3462 46.6873 48.6262 47.308 47.7972 47.6136C46.8937 47.9473 45.8718 47.9084 45.002 47.49C44.2239 47.1151 43.682 46.4649 43.4467 45.6404C43.1926 44.7506 43.2271 43.601 43.729 42.7976C44.311 41.8674 45.2388 41.445 46.2655 41.1728C46.2725 39.5799 46.2623 37.9901 46.2341 36.3972C42.3738 36.471 38.5103 36.4399 34.6491 36.436L34.6311 39.5744C34.6593 40.08 34.6617 40.6066 34.7323 41.1075L34.3903 41.4987C34.1754 41.4676 34.0562 41.452 33.8625 41.3478L33.9072 39.7666L33.8734 36.4306L22.9896 36.4112L22.959 41.1036L22.3583 41.0359C22.312 39.4982 22.3551 37.9543 22.3708 36.4166L11.3136 36.4306C11.3214 37.9247 11.3249 39.4142 11.262 40.9083C11.16 39.7152 11.5904 37.6027 11.0106 36.5698L10.5737 36.541C10.3095 36.4306 10.4366 36.4617 10.1288 36.4345C9.78088 36.4034 9.43194 36.3808 9.08661 36.3241C6.1373 35.841 3.5676 34.3889 1.86103 31.9296C0.298144 29.6779 -0.339419 26.9867 0.174773 24.2862C0.698846 21.5344 2.31459 19.2532 4.6261 17.6828C4.77198 16.4594 4.91426 15.2546 5.31818 14.084C6.10664 11.7973 7.78968 9.93292 10.0029 8.92024C12.3408 7.85001 14.4109 8.09581 16.7415 8.92726Z" fill="#58359A"/>
<path d="M33.9082 39.7664C34.3474 39.1255 33.9357 37.5279 34.1325 36.6856L34.3106 36.7392C34.5937 37.5489 34.4071 38.42 34.567 39.2593C34.5874 39.3643 34.611 39.4693 34.6321 39.5743C34.6604 40.0798 34.6627 40.6064 34.7333 41.1073L34.3914 41.4985C34.1765 41.4674 34.0572 41.4518 33.8635 41.3476L33.9082 39.7664Z" fill="#452B90"/>
<path d="M6.68776 14.0173C10.0564 13.6673 12.6502 13.6448 15.7733 15.0728C16.2403 22.1125 17.1856 28.5705 22.7935 33.4862C23.5158 34.1193 24.3433 34.6334 25.0484 35.279C22.1974 35.5068 11.2079 35.6391 8.67826 35.093C6.21522 34.561 3.85799 32.9798 2.54537 30.8354C1.28554 28.7766 0.985937 26.1928 1.56374 23.868C2.15989 21.4693 3.67987 19.5544 5.79523 18.3107C5.7815 16.8438 5.89789 15.2937 6.68776 14.0173Z" fill="#AD33A0"/>
<path d="M17.3377 10.687C19.5979 6.39204 22.4685 3.22412 27.2748 1.72532C30.79 0.628635 34.7586 0.968548 38.019 2.67346C41.4315 4.45848 44.1491 7.59296 45.2699 11.2696C45.8016 13.0141 45.8848 14.7439 45.9185 16.5546C48.7608 17.0026 51.1906 18.2269 52.9129 20.5773C54.4737 22.7069 55.0878 25.3732 54.6392 27.9687C54.2282 30.344 52.8753 32.5001 50.862 33.862C49.8102 34.5729 48.6048 35.0512 47.3436 35.2293C44.9899 35.5614 42.3146 35.3048 39.9264 35.297L25.0481 35.2783C24.343 34.6328 23.5156 34.1187 22.7932 33.4855C17.1854 28.5699 16.24 22.1119 15.7731 15.0722C12.65 13.6441 10.0561 13.6667 6.6875 14.0167C7.66804 12.0295 9.14105 10.3596 11.2969 9.59732C12.8919 9.03421 14.5472 9.17732 16.0535 9.92633C16.4992 10.148 16.9196 10.4186 17.3377 10.687Z" fill="#CB7CC5"/>
<path d="M28.0968 13.1788C29.8607 13.1407 31.623 13.6517 33.0638 14.6698C34.8724 15.9469 36.1995 18.0003 36.5006 20.1921C36.7845 22.2509 36.1108 24.3984 34.8481 26.0372C33.3822 27.9404 31.4991 28.7665 29.1752 29.1009C27.2866 29.1919 25.4529 28.8769 23.8686 27.7919C22.1415 26.6089 20.9983 24.6994 20.6307 22.6632C20.2427 20.5149 20.6631 18.068 21.9776 16.2876C23.4733 14.2622 25.7023 13.5008 28.0968 13.1788Z" fill="white"/>
<path d="M28.4429 15.2748C28.6617 15.3214 28.8798 15.3907 29.0954 15.4505C29.3676 15.8643 29.2774 16.0868 29.1707 16.5713C29.1527 16.6514 29.1331 16.7316 29.1143 16.8109L29.3676 17.0271C29.8531 17.0862 30.3511 17.1352 30.8013 17.3374C31.3346 17.577 31.5582 17.8205 31.7699 18.354C31.5009 19.1629 28.148 18.0172 27.0476 18.7141C26.85 19.0945 26.8782 19.1933 26.9104 19.6273C27.8727 20.3825 29.3598 20.5816 30.4531 21.1642C31.1433 21.5321 31.5887 21.9443 31.8209 22.691C31.697 24.3912 30.1182 24.4659 29.1448 25.435C29.1433 25.8146 29.1794 26.2112 29.0021 26.5589C28.879 26.8 28.5778 26.8413 28.3401 26.9385C27.5605 26.3411 28.1402 26.1863 28.0335 25.3914C27.2876 24.6432 26.0421 24.931 25.2312 24.3741C25.0304 24.2364 25.0806 24.1384 25.0547 23.9207C25.1488 23.7674 25.1998 23.5769 25.3378 23.4618C25.7057 23.1545 28.6484 24.0848 29.7041 23.7052C29.9895 23.4135 30.1378 23.2797 30.1519 22.8403C30.1754 22.0742 26.1261 21.2046 25.3339 20.0729C25.1567 19.8202 25.057 19.4647 25.1386 19.1637C25.4468 18.0281 27.0108 17.3188 27.977 16.7914C28.0743 16.2307 28.2029 15.792 28.4429 15.2748Z" fill="#EC1796"/>
</svg>
