<svg width="54" height="48" viewBox="0 0 54 48" fill="none" xmlns="http://www.w3.org/2000/svg">
<path d="M29.1665 38.6533C29.5372 38.6747 29.9746 38.7376 30.2638 38.9951C30.5436 39.2446 30.6839 39.4606 30.6678 39.8479C30.6425 40.4727 30.2571 40.753 29.811 41.1055C29.3762 41.0419 28.9809 40.9155 28.6797 40.5777C28.4426 40.3108 28.3745 39.9636 28.4413 39.6178C28.5274 39.1697 28.8373 38.9255 29.1665 38.6533Z" fill="#333494"/>
<path d="M24.7117 38.6356C25.1625 38.6169 25.65 38.6189 26.0226 38.9186C26.3045 39.1453 26.4674 39.3841 26.4674 39.758C26.4674 40.3393 26.1175 40.639 25.7228 40.9935C25.3769 41.039 25.0783 41.0544 24.7611 40.8778C24.4272 40.6918 24.309 40.4597 24.2402 40.0952C24.13 39.5072 24.3958 39.0952 24.7117 38.6356Z" fill="#333494"/>
<path d="M1.86485 39.2831C4.19759 39.2677 16.3701 38.9326 17.5903 39.5941C17.8247 39.8992 17.9416 40.0249 17.8995 40.4396C17.8541 40.8952 17.5896 41.1045 17.2677 41.3721C14.8909 41.5774 12.3758 41.4055 9.98166 41.4008C7.54809 41.3962 4.97428 41.5534 2.55807 41.346C2.25287 41.3199 1.90024 41.2891 1.65916 41.0758C1.41339 40.8577 1.29586 40.6122 1.30854 40.2818C1.32658 39.8222 1.56099 39.5915 1.86485 39.2831Z" fill="#E90B7C"/>
<path d="M42.4098 39.46C44.1656 39.44 51.2472 39.1597 52.3371 39.6781C52.6604 39.8319 52.8821 40.064 52.9435 40.4339C53.001 40.7838 52.844 41.0159 52.5956 41.2346C51.7134 42.0112 48.1265 41.6172 46.897 41.5978C45.0364 41.5798 37.9447 41.8413 36.9009 41.4146C36.4929 41.248 36.3893 41.058 36.2397 40.6781C36.2691 40.2741 36.3386 40.1102 36.575 39.7824C37.538 39.1604 41.0989 39.4594 42.4098 39.46Z" fill="#68CCCC"/>
<path d="M2.57285 45.8129C7.33182 45.9339 12.1001 45.8771 16.8604 45.8657C18.9167 45.861 21.0544 45.7205 23.1013 45.865C23.5461 45.8965 23.8379 45.9346 24.2052 46.1941C24.4116 46.4777 24.4958 46.6824 24.4503 47.043C24.3996 47.4443 24.2019 47.6209 23.9214 47.8704L9.83286 47.843C7.53552 47.8517 5.10729 48.0423 2.82264 47.8564C2.44865 47.8256 2.22892 47.7226 1.95378 47.4637C1.79617 47.1373 1.77012 46.9159 1.86829 46.5587C1.97648 46.166 2.2563 46.0195 2.57285 45.8129Z" fill="#E90B7C"/>
<path d="M29.8063 45.8144C34.2821 45.7087 38.7839 45.8003 43.2637 45.7976C45.8977 45.7963 48.6545 45.6231 51.2757 45.8083C51.6891 45.8378 52.2167 45.8639 52.574 46.1033C52.8986 46.3207 52.9146 46.4839 53.0034 46.8364C52.9153 47.304 52.7717 47.5167 52.4671 47.8759C48.1196 48.1355 43.6377 47.91 39.2755 47.8926C36.3036 47.8799 33.1868 48.1013 30.2364 47.8886C29.8984 47.8646 29.5792 47.6967 29.3729 47.4231C29.1772 47.1642 29.0917 46.791 29.1665 46.4732C29.264 46.0619 29.4684 46.0097 29.8063 45.8144Z" fill="#68CCCC"/>
<path d="M27.9271 0.0884666C30.8088 -0.268059 33.8381 0.491821 36.3371 1.92662C40.4229 4.27313 42.1312 7.86447 43.3086 12.2418C46.1475 12.2471 48.5777 12.9909 50.6327 15.0331C52.7577 17.1442 53.9872 19.983 53.9999 22.983C54.0119 25.8071 53.0409 28.5175 51.026 30.5282C49.8286 31.7222 48.2779 32.6681 46.6364 33.0975C44.0739 33.7671 40.9344 33.438 38.2918 33.4433L25.8995 33.4674L16.5673 33.4527C14.1237 33.4493 11.4216 33.6681 9.0328 33.0667C5.99751 32.3028 3.36357 30.2573 1.76411 27.581C-0.00230077 24.6258 -0.43505 21.1669 0.433798 17.8425C1.24788 14.7274 3.09911 12.0451 5.89666 10.415C9.12629 8.53337 12.1375 8.60762 15.6423 9.5501C16.2881 8.03704 16.9439 6.69455 17.9671 5.39086C20.5108 2.1527 23.9014 0.565395 27.9271 0.0884666Z" fill="#333494"/>
<path d="M29.2543 21.2917C29.2029 21.0469 29.2129 20.9967 29.3591 20.7814C29.6991 20.281 30.8624 19.7646 31.4254 19.6155C31.418 20.1165 31.4575 20.5452 31.1863 20.9827C30.6474 21.4141 29.9101 21.3024 29.2543 21.2917Z" fill="#F27718"/>
<path d="M30.7477 22.5943L31.2533 22.6478C31.7735 23.4705 31.4416 26.9963 31.4109 28.1315C29.4688 28.1816 27.5268 28.1542 25.584 28.1375C25.582 26.4793 25.6508 24.7836 25.562 23.1301L25.6482 22.8739C26.2318 22.4531 29.6304 22.6705 30.5681 22.6077L30.7477 22.5943Z" fill="#F27718"/>
<path d="M34.3176 22.4565C34.363 22.4632 34.4084 22.4712 34.4538 22.4773C35.5304 22.6244 38.8542 22.2057 39.4332 23.1134C39.9194 23.8746 39.5514 26.9328 39.5247 27.9489C38.7173 28.5449 34.6168 28.1743 33.4948 28.0907C33.3967 26.7415 33.1015 24.2973 33.5389 23.0599C33.6865 22.6411 33.947 22.6191 34.3176 22.4565Z" fill="#F27718"/>
<path d="M34.5438 3.0211C36.5406 3.42779 38.8453 5.18098 39.9746 6.8412C41.2622 8.7342 41.876 11.262 42.1097 13.5128C44.6929 13.5155 46.8827 13.6921 48.8047 15.6761C49.6482 16.5463 50.3854 17.6661 50.338 18.9269C50.2559 21.0902 48.3492 23.6119 46.7658 24.9792C45.125 26.3966 43.3859 26.9344 41.315 27.4354C40.726 27.5779 40.0621 27.6762 39.5225 27.9531C39.5492 26.9371 39.9172 23.8788 39.431 23.1176C38.852 22.2099 35.5282 22.6287 34.4517 22.4815C34.4062 22.4755 34.3608 22.4675 34.3154 22.4608C34.9712 21.8975 38.263 22.4139 39.4718 22.0888L39.4891 21.7123C38.6744 21.424 37.7935 21.2661 36.9287 21.341C36.2889 21.3965 35.418 21.5791 34.8063 21.3852L34.8464 21.1778C34.3809 21.1718 34.069 21.2307 33.661 20.9959C33.2903 20.3143 33.508 19.3096 33.5434 18.545L33.6089 17.6861C34.6233 17.0139 35.5803 16.2058 36.5486 15.4667L38.9348 15.4259C38.4747 15.4099 38.0306 15.3711 37.5744 15.3109C37.4522 14.848 38.6663 12.8372 38.641 11.874C38.5421 8.17366 37.2412 5.47998 34.5438 3.0211Z" fill="#4441A1"/>
<path d="M38.9348 15.4254L39.3162 15.5096C39.7883 16.2862 39.5005 20.0709 39.4851 21.1752C37.9411 21.1632 36.3904 21.1211 34.8464 21.1773C34.3809 21.1712 34.069 21.2301 33.661 20.9953C33.2903 20.3137 33.508 19.309 33.5434 18.5445L33.6089 17.6856C34.6233 17.0133 35.5803 16.2053 36.5486 15.4662L38.9348 15.4254Z" fill="#F27718"/>
<path d="M16.4651 11.167C16.6996 10.5456 16.9319 9.92147 17.1924 9.31076C18.5227 6.19234 21.0251 3.61505 24.2006 2.38093C27.7662 0.994291 31.1367 1.49329 34.5507 3.02106C37.248 5.47995 38.549 8.17362 38.6478 11.874C38.6732 12.8372 37.4591 14.8479 37.5813 15.3108C38.0374 15.371 38.4815 15.4098 38.9417 15.4259L36.5555 15.4667C35.5871 16.2058 34.6301 17.0138 33.6157 17.6861L33.5502 18.545C32.7642 18.6888 32.2106 19.0239 31.4847 19.2968L31.4299 19.6199C30.8669 19.7691 29.7035 20.2855 29.3636 20.7858C29.2174 21.0012 29.2074 21.0513 29.2588 21.2962L29.1633 21.3202C28.4093 21.5497 27.7675 22.0627 27.119 22.5009L30.7534 22.5965L30.5737 22.6099C29.6361 22.6728 26.2375 22.4554 25.6538 22.8761L25.5677 23.1323C24.9767 23.4313 24.3135 23.5062 23.6637 23.6039L23.6296 28.1344C22.4676 28.2427 18.653 28.4681 17.712 28.0715L17.6225 27.9196C17.5383 27.0414 17.5437 26.1397 17.5136 25.2574C17.0816 25.6373 16.6287 26.02 16.1386 26.3223C14.0883 27.5865 10.9709 27.731 8.66219 27.1959C6.44499 26.6822 4.45685 25.2628 3.25943 23.3223C2.17488 21.5644 1.74012 19.452 2.23097 17.4252C2.8013 15.0714 4.40343 12.9335 6.4717 11.6894C9.84091 9.66126 12.8709 10.2787 16.4651 11.167Z" fill="#5C44A4"/>
<path d="M33.6045 15.4662L36.5496 15.4642C35.5813 16.2033 34.6243 17.0113 33.6098 17.6836L33.6045 15.4662Z" fill="#F29822"/>
<path d="M17.5822 24.0936C17.5602 23.6401 17.5274 23.2474 17.6697 22.808C18.7729 22.4708 22.231 22.6976 23.5546 22.6942L23.4451 23.6909C23.3816 23.717 17.6149 24.1029 17.5822 24.0936Z" fill="#F29822"/>
<mask id="mask0_8277_7491" style="mask-type:luminance" maskUnits="userSpaceOnUse" x="17" y="22" width="7" height="7">
<path d="M23.5466 22.6948L23.6528 23.6039L23.6187 28.1344C22.4567 28.2427 18.6421 28.4681 17.7011 28.0715L17.6116 27.9196C17.6376 26.6427 17.6063 25.3705 17.5742 24.0942C17.6069 24.1035 23.3737 23.7176 23.4371 23.6915L23.5466 22.6948Z" fill="white"/>
</mask>
<g mask="url(#mask0_8277_7491)">
<path d="M23.5466 22.6948L23.6528 23.6039L23.6187 28.1344C22.4567 28.2427 18.6421 28.4681 17.7011 28.0715L17.6116 27.9196C17.6376 26.6427 17.6063 25.3705 17.5742 24.0942C17.6069 24.1035 23.3737 23.7176 23.4371 23.6915L23.5466 22.6948Z" fill="url(#paint0_linear_8277_7491)"/>
</g>
<path d="M25.5914 15.6034L31.4209 15.6308C31.4129 16.8449 31.3495 18.0877 31.479 19.2951L31.4242 19.6181C30.8613 19.7673 29.6979 20.2837 29.358 20.784C29.2117 20.9994 29.2017 21.0496 29.2531 21.2944L29.1576 21.3185C28.0724 21.3379 26.67 21.5546 25.7597 20.885C25.2568 20.0837 25.5948 16.796 25.5914 15.6034Z" fill="#F29822"/>
<path d="M17.6711 15.4397H23.5541L23.5247 21.1836L17.6685 21.1702L17.6711 15.4397Z" fill="#F29822"/>
<path d="M25.5682 8.37294L31.4297 8.37963L31.4157 14.2559C30.1067 14.2272 26.8691 14.577 25.8667 13.9248C25.1848 12.9636 25.5548 9.67061 25.5682 8.37294Z" fill="#F29822"/>
<defs>
<linearGradient id="paint0_linear_8277_7491" x1="20.0826" y1="28.23" x2="21.2412" y2="23.4727" gradientUnits="userSpaceOnUse">
<stop stop-color="#E98415"/>
<stop offset="1" stop-color="#DC6933"/>
</linearGradient>
</defs>
</svg>
