<svg width="76" height="76" viewBox="0 0 76 76" fill="none" xmlns="http://www.w3.org/2000/svg">
<circle opacity="0.1" cx="30.1044" cy="30" r="30" fill="#03C343"/>
<path d="M58.3845 32.1991C59.0992 32.1991 59.6778 32.7816 59.6778 33.4999C59.6778 34.2182 59.0992 34.7988 58.3845 34.7988C57.6699 34.7988 57.0913 34.2182 57.0913 33.4999C57.0913 32.7816 57.6699 32.1991 58.3845 32.1991Z" fill="#03C343"/>
<path d="M52.5149 23.5C52.713 23.5 56.992 24.6007 57.1902 29.8002C57.1902 30.5006 57.7885 31 58.4844 31C59.1813 31 59.6781 30.4006 59.6781 29.7001C59.5785 26.0006 57.7885 23.8002 56.2951 22.7005C54.7042 21.5007 53.2108 21.0994 53.1112 21.0994C52.4143 20.9003 51.818 21.3996 51.6189 22C51.4208 22.6004 51.818 23.2999 52.5149 23.5Z" fill="#03C343"/>
<path d="M47.2409 68.5008C40.3753 68.5008 34.8041 62.9011 34.8041 56.0005C34.8041 49.0999 40.3753 43.5001 47.2409 43.5001C47.9378 43.5001 48.5341 42.8997 48.5341 42.2003C48.5341 41.4998 47.9378 40.9004 47.2409 40.9004C38.9825 40.9004 32.3171 47.5999 32.3171 55.9004C32.3171 64.1999 38.9825 70.9004 47.2409 70.9004C55.4982 70.9004 62.1646 64.1999 62.1646 55.9004C62.1646 55.1999 61.5682 54.6005 60.8713 54.6005C60.1744 54.6005 59.5781 55.1999 59.5781 55.9004C59.6776 62.9011 54.0068 68.5008 47.2409 68.5008Z" fill="#03C343"/>
<path d="M47.2406 73.5003C37.6891 73.5003 29.83 65.6001 29.83 56.0007C29.83 46.4003 37.5895 38.5 47.2406 38.5C56.8908 38.5 64.6513 46.4003 64.6513 56.0007C64.6513 65.6001 56.7922 73.5003 47.2406 73.5003ZM25.8497 52.3002C22.0694 51.2005 19.2838 47.2008 19.2838 42.8009C19.2838 38.3999 22.4677 34.5003 26.9448 33.5997C27.0443 33.5997 27.0443 33.5997 27.1429 33.5997C27.9393 33.5997 30.6254 33.5997 32.6146 35.8002C33.1124 36.3005 33.8093 36.4006 34.4066 35.9003C34.9034 35.3999 35.003 34.7005 34.5052 34.1001C32.4164 31.7005 29.7304 31.1001 28.1375 31C28.8344 26.2999 34.0084 23.5 38.3859 25.5003C38.9823 25.7995 39.6792 25.5003 39.9779 24.8999C41.968 20.9002 45.9474 18.4997 50.4245 18.4997C57.5877 18.4997 63.1599 24.8009 61.9662 31.9006C61.8657 32.7001 62.463 33.3996 63.2585 33.3996C68.6326 33.3005 72.9097 37.6004 72.9097 42.8009C72.9097 46.8996 70.3231 50.5 66.742 51.8009C64.7518 42.8008 56.7922 36.1004 47.3402 36.1004C37.6891 36.1004 29.5313 43.1001 27.8398 52.4003H25.8497V52.3002ZM67.0397 54.1995C72.0146 52.6004 75.297 47.9003 75.297 42.6998C75.297 36.6007 70.5222 31.4993 64.5527 30.8999C65.1491 22.9006 58.5822 16 50.4245 16C45.35 16 40.7734 18.6998 38.2864 22.7995C32.2174 20.9003 26.0487 25.1001 25.551 31.3002C20.4765 32.8002 16.8954 37.3993 16.8954 42.6998C16.8954 48.2995 20.4765 53.2999 25.4514 54.6998C25.7501 54.8009 25.7501 54.6998 27.4416 54.6998C26.7447 66.3005 35.899 76 47.3402 76C58.7814 76 68.0343 66.0013 67.0397 54.1995Z" fill="#03C343"/>
<path d="M67.1396 68.5009C67.8532 68.5009 68.4329 69.0824 68.4329 69.8007C68.4329 70.518 67.8532 71.1006 67.1396 71.1006C66.4249 71.1006 65.8463 70.518 65.8463 69.8007C65.8463 69.0824 66.4249 68.5009 67.1396 68.5009Z" fill="#03C343"/>
<path d="M74.6012 68.5009H70.82C70.1241 68.5009 69.5277 69.1012 69.5277 69.8007C69.5277 70.5012 70.1241 71.1006 70.82 71.1006H74.6012C75.2971 71.1006 75.8954 70.5012 75.8954 69.8007C75.7949 69.1012 75.1985 68.5009 74.6012 68.5009Z" fill="#03C343"/>
<path d="M74.6014 64.7001C75.3161 64.7001 75.8957 65.2817 75.8957 66.0009C75.8957 66.7182 75.3161 67.2998 74.6014 67.2998C73.8878 67.2998 73.3082 66.7182 73.3082 66.0009C73.3082 65.2817 73.8878 64.7001 74.6014 64.7001Z" fill="#03C343"/>
<path d="M70.8192 64.8006H67.0389C66.342 64.8006 65.7457 65.4001 65.7457 66.1005C65.7457 66.8 66.342 67.4014 67.0389 67.4014H70.8192C71.5161 67.4014 72.1134 66.8 72.1134 66.1005C72.1134 65.301 71.5161 64.8006 70.8192 64.8006Z" fill="#03C343"/>
<path d="M67.1396 72.2001C67.8532 72.2001 68.4329 72.7816 68.4329 73.4999C68.4329 74.2182 67.8532 74.7998 67.1396 74.7998C66.4249 74.7998 65.8463 74.2182 65.8463 73.4999C65.8463 72.7816 66.4249 72.2001 67.1396 72.2001Z" fill="#03C343"/>
<path d="M74.6012 72.3007H70.82C70.1241 72.3007 69.5277 72.9001 69.5277 73.6015C69.5277 74.301 70.1241 74.9004 70.82 74.9004H74.6012C75.2971 74.9004 75.8954 74.301 75.8954 73.6015C75.7949 72.801 75.1985 72.3007 74.6012 72.3007Z" fill="#03C343"/>
<path d="M53.1102 50.101C53.5085 49.6998 54.1048 49.6998 54.5041 50.101C54.9013 50.5003 54.9013 51.1007 54.5041 51.501L45.8475 60.2008C45.5489 60.501 45.052 60.501 44.7534 60.2008L41.2708 56.9006C40.6735 56.3012 41.0718 55.3005 41.9678 55.3005C42.2655 55.3005 42.4645 55.4006 42.6636 55.6007L44.3551 57.3008C44.8519 57.8002 45.6484 57.8002 46.1462 57.3008L53.1102 50.101ZM44.3551 53.7014C43.6592 53.0009 42.8628 52.7008 41.9678 52.7008C40.0772 52.7008 38.4852 54.1998 38.4852 56.2011C38.4852 57.2008 38.8834 58.1004 39.4798 58.7008L43.0619 62.001C44.3551 63.2008 46.3453 63.2008 47.6386 61.9009L56.2941 53.2011C57.687 51.8012 57.687 49.6998 56.2941 48.2998C54.9013 46.8999 52.8126 46.8999 51.4198 48.2998L45.1516 54.501L44.3551 53.7014Z" fill="#03C343"/>
</svg>
