<svg width="44" height="44" viewBox="0 0 44 44" fill="none" xmlns="http://www.w3.org/2000/svg">
<path d="M21.2393 0.0747185C21.3556 0.0594025 21.4719 0.0440788 21.5888 0.031311C22.5967 -0.0791054 23.6201 0.0887718 24.4186 0.7551C25.3302 1.51525 25.5403 2.4573 25.636 3.5704C28.133 4.17419 30.3686 5.06902 32.4147 6.63017C33.016 6.07298 33.5062 5.67982 34.3233 5.49856C35.1417 5.31666 35.9807 5.46473 36.6739 5.93831C37.8771 6.76101 38.1463 7.91241 38.3756 9.24763C38.1444 9.958 37.8675 10.5414 37.4255 11.1477C38.587 13.2661 39.4992 15.2906 40.0812 17.6463C40.6157 17.774 41.2196 17.9195 41.6552 18.2693C42.4126 18.8769 42.9772 19.7609 43.0691 20.7342C43.1565 21.6641 42.8372 22.5481 42.2224 23.2457C41.614 23.9382 40.9646 24.2286 40.0575 24.3129C39.4106 26.952 38.4707 29.1891 37.1506 31.5563C37.6118 32.0376 38.0069 32.5654 38.1951 33.2113C38.4514 34.0934 38.3737 35.0176 37.9215 35.8237C37.4814 36.6094 36.7285 37.1844 35.8561 37.4167C34.701 37.7237 33.6976 37.4436 32.6819 36.8845C30.429 38.406 28.2943 39.3009 25.6771 40.0285C25.6848 40.4012 25.6854 40.7688 25.5994 41.1345C25.3675 42.1155 24.7231 43.0863 23.8314 43.5873C22.8595 44.1337 21.9594 44.0692 20.9213 43.7871C20.5609 43.6122 20.2057 43.3914 19.898 43.1348C18.9684 42.3587 18.7635 41.4007 18.6999 40.2506C16.0949 39.35 13.7295 38.3492 11.3661 36.9279C10.6774 37.3919 9.94057 37.7946 9.10222 37.8891C8.13411 37.9982 7.19297 37.7467 6.43813 37.127C5.73277 36.5468 5.2818 35.6865 5.2182 34.7782C5.13662 33.6102 5.62099 32.7958 6.36234 31.9444C5.31135 29.6391 4.22695 27.4001 3.58583 24.9383C2.80208 24.782 2.05753 24.6033 1.40805 24.1131C0.635871 23.5297 0.127081 22.7121 0.0204401 21.7484C-0.0817033 20.8185 0.20161 19.877 0.811259 19.1622C1.56095 18.2833 2.59908 17.8825 3.72973 17.7931C4.40812 15.3659 5.28951 13.1952 6.43558 10.9549C5.80087 10.235 5.35118 9.66569 5.25739 8.66747C5.17259 7.77328 5.47773 6.88101 6.0649 6.20127C6.6784 5.49154 7.58677 5.0371 8.53048 4.99689C9.8834 4.93881 10.7153 5.59175 11.6532 6.44381C13.9916 5.19284 16.197 4.33376 18.7879 3.73508C18.8746 3.22001 18.9478 2.67304 19.12 2.1784C19.5074 1.06274 20.198 0.560425 21.2393 0.0747185Z" fill="#452B90"/>
<path d="M34.5965 6.67419C34.9794 6.67738 35.3301 6.69844 35.6982 6.81588C36.2141 6.97991 36.6709 7.34563 36.9188 7.82623C37.1835 8.34002 37.2021 8.91508 36.9895 9.45184C36.6972 10.1897 36.1922 10.5311 35.492 10.8496C35.1785 10.8451 34.856 10.8413 34.5502 10.7647C33.9573 10.6167 33.399 10.1546 33.1235 9.61523C32.8781 9.13591 32.8504 8.60043 33.0297 8.09366C33.2988 7.33414 33.9021 6.9997 34.5965 6.67419Z" fill="#EE8ACB"/>
<path d="M34.3367 32.1576C34.7382 32.1282 35.1687 32.0797 35.565 32.1729C36.1458 32.3095 36.6835 32.7262 36.9597 33.2509C37.1955 33.7009 37.2327 34.2255 37.0702 34.7055C36.8158 35.4567 36.3089 35.8256 35.6293 36.1804C35.2059 36.227 34.7916 36.2564 34.3734 36.1505C33.8453 36.0171 33.3442 35.6762 33.0686 35.2039C32.8014 34.745 32.7692 34.2083 32.9112 33.7034C33.1303 32.9254 33.6731 32.5565 34.3367 32.1576Z" fill="#EE8ACB"/>
<path d="M21.9102 1.10424C22.2025 1.13104 22.5076 1.15273 22.7896 1.23889C23.4205 1.43164 23.9428 1.92312 24.2145 2.51669C24.4535 3.03686 24.4753 3.66106 24.2505 4.19017C23.946 4.9031 23.4481 5.22668 22.746 5.49922C22.3939 5.50177 22.0412 5.50432 21.702 5.39837C21.1097 5.21328 20.5817 4.778 20.3202 4.2157C20.0896 3.72042 20.0761 3.14599 20.2669 2.63539C20.5688 1.82736 21.1515 1.44187 21.9102 1.10424Z" fill="#EE8ACB"/>
<path d="M21.7821 38.3824C21.9947 38.3811 22.2138 38.3798 22.4232 38.4149C23.0598 38.5215 23.7491 38.9358 24.0896 39.4866C24.3954 39.9818 24.4693 40.5888 24.2913 41.1435C24.0357 41.9432 23.4421 42.404 22.7258 42.7825C22.4605 42.7831 22.1894 42.7831 21.9298 42.7212C21.2662 42.5636 20.6244 42.1053 20.3039 41.5022C20.0206 40.9699 19.9801 40.3756 20.1998 39.8114C20.4857 39.0768 21.0985 38.7028 21.7821 38.3824Z" fill="#7F53AF"/>
<path d="M39.2661 18.7455C39.5552 18.7424 39.8604 18.7321 40.1443 18.7947C40.7617 18.93 41.345 19.3672 41.6521 19.9142C41.9437 20.4343 41.9848 21.0298 41.8049 21.5947C41.5589 22.3682 41.0122 22.7531 40.3229 23.1195C39.9766 23.1367 39.4961 23.205 39.1685 23.0761C38.6109 22.8565 38.1259 22.4468 37.8593 21.9094C37.5869 21.3598 37.5637 20.7209 37.7751 20.1471C38.0468 19.4112 38.5865 19.0717 39.2661 18.7455Z" fill="#EE8ACB"/>
<path d="M8.62252 32.2949C8.94758 32.2936 9.28935 32.3236 9.59578 32.441C10.1996 32.674 10.7874 33.2037 11.0116 33.8133C11.2095 34.3488 11.1735 34.9315 10.8986 35.4338C10.5061 36.1505 9.75573 36.4429 9.0054 36.6375C8.50175 36.6445 8.07775 36.5846 7.63256 36.3407C7.09678 36.0471 6.67344 35.5889 6.51733 34.9928C6.37921 34.4637 6.46465 33.9173 6.74282 33.4463C7.15717 32.7455 7.87154 32.4915 8.62252 32.2949Z" fill="#7F53AF"/>
<path d="M8.01712 6.14906C8.32227 6.13311 8.63705 6.11013 8.94155 6.13566C9.58525 6.18928 10.2996 6.63606 10.6645 7.15878C10.9934 7.62981 11.1174 8.20423 10.9883 8.76525C10.7968 9.60072 10.2065 10.0666 9.50816 10.4949C9.15483 10.5294 8.77645 10.5811 8.42184 10.5421C7.82889 10.4764 7.22181 10.0915 6.87748 9.61348C6.52158 9.12012 6.41816 8.50293 6.54215 7.91382C6.72588 7.0407 7.29248 6.60222 8.01712 6.14906Z" fill="#CB7CC5"/>
<path d="M3.08724 18.8687C3.35641 18.8808 3.63779 18.893 3.90182 18.9479C4.48064 19.0678 5.0209 19.4885 5.33568 19.9767C5.71214 20.5633 5.79309 21.2717 5.61 21.9374C5.3646 22.829 4.80569 23.2305 4.02195 23.6466C3.71359 23.6466 3.38597 23.6556 3.08275 23.5937C2.50394 23.4762 1.91549 23.0129 1.61677 22.5163C1.2673 21.9361 1.21398 21.2207 1.42147 20.5824C1.70735 19.7061 2.29772 19.2785 3.08724 18.8687Z" fill="#7F53AF"/>
<path d="M19.0633 4.88863C19.0884 4.92054 19.1134 4.95181 19.1391 4.98308L19.2676 5.13754C19.601 5.54475 19.9126 5.90217 20.3559 6.19704C21.1139 6.70126 22.0287 6.9757 22.9351 6.76891C24.0664 6.51041 24.696 5.72282 25.2735 4.79608C27.6537 5.47709 29.7235 6.20916 31.8004 7.58012C31.7625 8.05242 31.7137 8.54069 31.7529 9.01427C31.8274 9.91037 32.2353 10.8295 32.9638 11.3854C34.0129 12.1857 35.2084 12.0989 36.4348 11.9381C37.4536 13.7533 38.2361 15.5895 38.7841 17.5962C37.4511 18.3825 36.7971 18.9614 36.3866 20.4887L35.2515 20.5002C34.6649 20.5085 34.2782 20.5812 33.8639 21.0127L33.9159 21.2482C34.7016 21.8297 35.4564 21.7065 36.3873 21.688C36.9468 22.9753 37.3811 23.56 38.7044 24.1574C38.3318 26.5151 37.2751 28.7859 36.0564 30.8207C35.4121 30.8883 34.7395 30.91 34.1163 31.0964C33.1604 31.3823 32.2392 31.9434 31.7953 32.8624C31.3173 33.853 31.4837 34.8627 31.8139 35.8622C29.7325 37.2964 27.531 38.1708 25.1759 39.0445C24.4994 38.3188 23.5673 37.9589 22.9448 37.2568C22.6486 36.9223 22.7488 36.3703 22.7649 35.9522C22.7835 35.522 22.8818 34.9546 22.6518 34.5819C22.2722 34.3738 21.7505 34.4893 21.3291 34.5276L21.3754 37.1821C21.2295 37.3232 21.2938 37.281 21.1345 37.3678C20.2711 37.8389 19.6261 38.3367 18.9984 39.0873C16.5766 38.2722 14.3268 37.1081 12.1086 35.8616C12.2499 35.3427 12.3643 34.8212 12.2968 34.2806C12.1728 33.2805 11.6203 32.3914 10.7897 31.8202C9.73936 31.0977 8.66332 31.0836 7.46073 31.2802C6.42066 29.1555 5.2078 27.0078 4.87695 24.6392C5.19687 24.4012 5.53477 24.1599 5.81101 23.8721C6.52216 23.1311 6.93909 22.1016 6.8575 21.0753C6.75857 19.8332 6.00309 18.9812 5.10693 18.2012C5.38317 15.8422 6.43479 13.7309 7.57379 11.6777C7.91363 11.7224 8.25475 11.7638 8.5978 11.7772C9.48882 11.8111 10.4242 11.5405 11.0717 10.9111C11.9891 10.0201 12.1741 8.87386 12.1722 7.66757C14.3108 6.35022 16.6543 5.56007 19.0633 4.88863Z" fill="white"/>
<path d="M9.46387 21.5117C9.49278 21.1856 9.52554 20.8601 9.56923 20.5352C10.0099 17.2355 11.9057 14.2408 14.573 12.2463C17.2326 10.2568 20.6701 9.5471 23.9361 10.0092C23.1755 10.7936 21.5097 10.4528 20.4722 10.636C18.9073 10.913 17.8486 11.8952 16.4411 12.4428C14.0089 13.6779 12.2474 16.1383 11.4014 18.6741C11.1964 19.2874 11.032 19.9429 10.9196 20.5799C10.75 20.6954 10.6883 20.6833 10.6388 20.8984C10.5733 21.1856 10.6035 21.4294 10.6254 21.7204L10.9209 21.7555C10.9318 22.6338 11.3474 24.1043 10.8393 24.7923C10.5765 24.8287 10.3221 24.8485 10.0568 24.8574C9.79022 23.7386 9.6007 22.6542 9.46387 21.5117Z" fill="#F14C27"/>
<path d="M10.9211 20.5776C11.0335 19.9406 11.198 19.2851 11.4029 18.6718C12.249 16.136 14.0105 13.6756 16.4426 12.4405C16.4446 13.3852 16.6553 13.9813 17.1107 14.7995C17.4743 15.1563 17.8058 15.4473 18.2407 15.716C18.7271 15.7077 19.1671 15.7263 19.6476 15.8035C19.1356 18.6845 18.2921 21.833 20.0915 24.4696C20.7879 25.4895 21.9269 26.2829 23.1668 26.4654C23.5663 26.5241 23.9608 26.4973 24.3604 26.4635C24.7246 26.542 25.0413 26.565 25.3394 26.7992C25.0477 27.0239 24.74 27.209 24.4253 27.3979C24.4998 27.6321 24.4413 27.5351 24.5846 27.6979C26.1861 28.7625 27.4189 30.3785 29.0384 31.3927C27.0675 32.9845 23.7436 34.3344 21.1804 34.0695C21.0552 34.0568 20.9305 34.037 20.8059 34.0159C18.8491 33.9042 16.9424 33.3215 15.3139 32.225C14.8302 31.8995 14.3779 31.4757 13.8691 31.1968C13.5807 31.0385 13.3899 30.9249 13.1426 30.7098C12.0299 28.7421 10.8569 26.9907 10.0583 24.8551C10.3237 24.8462 10.5781 24.8264 10.8408 24.79C11.3489 24.102 10.9333 22.6315 10.9224 21.7532L10.6269 21.7181C10.605 21.4271 10.5748 21.1833 10.6404 20.8961C10.6898 20.681 10.7515 20.6931 10.9211 20.5776Z" fill="#F37316"/>
<path d="M21.3987 28.0578C21.8908 28.0067 22.4972 27.8925 22.9533 28.1267C23.1627 28.2346 23.1306 28.3022 23.1974 28.5071C23.0677 28.9877 22.7722 29.2519 22.4336 29.6049C22.0443 29.7128 21.9126 29.7855 21.531 29.594C21.2522 29.4549 21.0434 29.1243 21.0023 28.8237C20.949 28.4369 21.1571 28.3105 21.3987 28.0578Z" fill="#E53022"/>
<path d="M17.1126 14.8045C17.4762 15.1613 17.8077 15.4523 18.2426 15.721C18.2079 16.1091 18.3178 16.5278 18.0499 16.8609C17.8507 17.1079 17.4711 17.3301 17.1492 17.3498C16.7895 17.3722 16.6706 17.2318 16.431 17.0116C16.1047 16.1199 16.7664 15.8155 17.0349 15.0419C17.0619 14.9628 17.0869 14.883 17.1126 14.8045Z" fill="#E53022"/>
<path d="M17.932 25.8916C18.363 25.9975 18.6361 26.0811 18.9804 26.3639C19.0498 26.5668 19.1243 26.6217 19.0234 26.8311C18.7446 27.4099 18.0778 27.5944 17.5196 27.8127C17.3583 27.8625 17.1932 27.8688 17.0262 27.8867C16.9298 27.805 16.8001 27.7035 16.7262 27.6033C16.5097 27.3104 16.493 27.1776 16.5296 26.8419C16.8579 26.3632 17.427 26.152 17.932 25.8916Z" fill="#E53022"/>
<path d="M13.1448 30.7108C13.3137 30.2175 13.7731 29.4139 14.2626 29.1631C14.2985 29.1446 14.339 29.1356 14.3769 29.1222L14.5767 29.2556C14.5831 29.3029 14.5889 29.3507 14.596 29.398C14.7373 30.3355 15.1375 30.9074 15.9071 31.4652C17.4412 32.5777 19.4044 32.7768 20.4875 33.5147C20.7137 33.6685 20.7381 33.7655 20.8081 34.017C18.8513 33.9053 16.9446 33.3225 15.3161 32.226C14.8324 31.9005 14.3801 31.4767 13.8713 31.1978C13.5829 31.0395 13.3921 30.9259 13.1448 30.7108Z" fill="#F14C27"/>
<path d="M10.9231 20.5827C12.2317 20.6185 15.8979 20.1768 16.7857 21.1093C16.9759 21.3091 17.0613 21.5273 17.0395 21.8082C17.0164 22.1037 16.9226 22.442 16.7099 22.6583C16.46 22.913 16.2744 22.9009 15.9442 22.9238C15.5311 22.7426 15.3583 22.5383 15.1996 22.1311C15.1495 22.0048 15.1097 21.8739 15.0666 21.7444C15.0107 21.7501 14.9548 21.7565 14.8983 21.7616C13.5981 21.879 12.2285 21.8286 10.9244 21.7584L10.6288 21.7233C10.607 21.4322 10.5768 21.1884 10.6423 20.9012C10.6918 20.6861 10.7535 20.6983 10.9231 20.5827Z" fill="#E53022"/>
<path d="M23.9413 10.0101C25.9604 10.1256 28.1979 11.2949 29.6318 12.676L30.4168 13.4636C32.2085 15.2373 33.5287 17.9256 33.5428 20.4671C33.5434 20.5067 33.5428 20.5463 33.5422 20.5858L33.5518 21.4239C33.9726 23.9411 32.9698 26.6128 31.5179 28.6425C30.9031 29.5022 30.1978 30.3051 29.4892 31.0895L29.0421 31.3959C27.4225 30.3817 26.1898 28.7656 24.5882 27.701C24.445 27.5383 24.5034 27.6353 24.4289 27.4011C24.7437 27.2121 25.0514 27.0271 25.3431 26.8024C25.045 26.5682 24.7283 26.5452 24.364 26.4667C23.9644 26.5005 23.57 26.5273 23.1704 26.4686C21.9306 26.2861 20.7916 25.4927 20.0952 24.4728C18.2958 21.8362 19.1393 18.6877 19.6513 15.8066C19.1708 15.7294 18.7307 15.7109 18.2444 15.7192C17.8095 15.4505 17.478 15.1595 17.1144 14.8027C16.6589 13.9844 16.4482 13.3883 16.4463 12.4437C17.8538 11.8961 18.9125 10.9138 20.4774 10.6368C21.5149 10.4536 23.1807 10.7945 23.9413 10.0101Z" fill="#F3A815"/>
<path d="M24.7814 20.6228C25.8253 20.5666 26.8718 20.4434 27.9163 20.4377L27.9093 21.0287C26.8519 21.0242 25.7598 21.1027 24.7178 20.9049L24.7814 20.6228Z" fill="#F14C27"/>
<path d="M21.4322 13.477C21.6699 13.5338 22.011 13.6346 22.198 13.8031C22.455 14.0361 22.5661 14.2742 22.5513 14.6239C22.5353 15.012 22.2391 15.289 21.9847 15.5475C21.7868 15.5296 21.4798 15.5047 21.3012 15.4045C21.1239 15.3043 20.9549 15.1831 20.8997 14.9814C20.7448 14.4159 21.1419 13.9251 21.4322 13.477Z" fill="#E53022"/>
<path d="M25.8599 16.547C25.5509 16.5649 25.6627 16.5457 25.3794 16.607C25.3158 16.621 25.2535 16.6363 25.1905 16.6504L24.8603 16.4213C24.7781 16.2164 24.692 16.104 24.7312 15.8768C24.8038 15.4479 25.1417 14.952 25.5451 14.7586C25.885 14.5959 26.0302 14.6616 26.3488 14.7848C26.5884 15.2201 26.521 15.4454 26.4972 15.9336C26.3038 16.1762 26.1471 16.4078 25.8599 16.547Z" fill="#F14C27"/>
<path d="M24.3596 26.4662C25.6213 26.2613 25.3663 26.911 26.0762 26.8364C26.2033 26.5817 26.1886 26.6838 26.1911 26.4183C26.195 26.0303 26.134 25.7443 26.3505 25.3984C26.9254 25.2286 27.5197 25.4788 28.0509 25.7226C27.4593 26.3379 26.8785 27.0508 26.0768 27.3974C25.8057 27.2487 25.7421 27.188 25.4222 27.2634C25.1234 27.3342 24.8414 27.5397 24.5838 27.7006C24.4406 27.5378 24.499 27.6348 24.4245 27.4006C24.7393 27.2117 25.047 27.0266 25.3387 26.8019C25.0406 26.5677 24.7239 26.5447 24.3596 26.4662Z" fill="#E53022"/>
<path d="M23.5355 19.2603L24.4933 19.7945L24.7805 20.6236L24.7169 20.9057C24.6899 20.9402 24.6642 20.9766 24.6353 21.0098C24.3796 21.2976 24.0366 21.5344 23.6325 21.4942C23.3312 21.4642 23.0479 21.2146 22.8982 20.9676C22.7183 20.6708 22.6914 20.2853 22.7781 19.9541C22.8751 19.582 23.2246 19.4275 23.5355 19.2603Z" fill="#842394"/>
<path d="M28.0491 25.7226C28.5489 26.9352 28.43 28.6094 28.7159 29.942C27.7683 29.1665 26.8812 28.3164 26.075 27.3973C26.8767 27.0508 27.4574 26.3378 28.0491 25.7226Z" fill="#F37316"/>
<path d="M24.5818 27.701C24.8394 27.5402 25.1214 27.3347 25.4201 27.2638C25.7401 27.1885 25.8037 27.2492 26.0748 27.3979C26.881 28.317 27.7682 29.1671 28.7157 29.9426C28.9714 30.3236 29.2399 30.7008 29.4827 31.0895L29.0356 31.3959C27.4161 30.3817 26.1833 28.7656 24.5818 27.701Z" fill="#E53022"/>
<path d="M29.6294 12.6734L30.4144 13.461C29.0204 15.033 25.4191 18.2568 24.494 19.7943L23.5361 19.2601C24.4117 18.4668 25.0683 17.4264 25.8591 16.5431C26.1463 16.4039 26.303 16.1722 26.4964 15.9297C27.5326 14.8255 28.6934 13.8746 29.6294 12.6734Z" fill="#F14C27"/>
<path d="M30.4127 13.4595C32.2043 15.2332 33.5245 17.9215 33.5386 20.463C33.5393 20.5026 33.5386 20.5422 33.538 20.5817L33.5476 21.4198C32.496 21.5832 29.0077 22.0689 28.1777 21.6017C27.9837 21.4925 27.9702 21.2264 27.9072 21.0279L27.9143 20.4369C26.8697 20.4426 25.8233 20.5658 24.7793 20.622L24.4922 19.7929C25.4173 18.2553 29.0186 15.0315 30.4127 13.4595Z" fill="#F3A815"/>
<path d="M27.9153 20.4369C28.0264 20.022 28.1041 19.7233 28.496 19.4757C28.769 19.3033 28.981 19.304 29.2842 19.3563C29.5605 19.7035 29.5239 20.0565 29.5059 20.4879C30.5832 20.929 32.3441 20.5045 33.5389 20.5817L33.5486 21.4198C32.497 21.5832 29.0087 22.0689 28.1787 21.6017C27.9846 21.4925 27.9712 21.2264 27.9082 21.0279L27.9153 20.4369Z" fill="#F14C27"/>
</svg>
