<svg width="64" height="60" viewBox="0 0 64 60" fill="none" xmlns="http://www.w3.org/2000/svg">
<ellipse opacity="0.2" cx="23.0882" cy="22.4999" rx="22.5882" ry="22.4999" fill="url(#paint0_linear_8254_108220)"/>
<path d="M47.0762 58.6225C47.573 58.9494 48.0524 59.2718 48.5096 59.6522L48.4692 59.8768L48.3054 59.9707C47.3513 59.8462 46.7013 59.6033 45.9141 59.0411L47.0762 58.6225Z" fill="#F14C27"/>
<path d="M47.7205 50.9219C47.9544 49.1216 47.3509 44.5798 47.9171 43.2705L48.3713 43.2079C48.4597 45.5888 48.0329 48.9886 48.51 51.1984C48.4513 51.6063 48.4894 51.9822 48.1366 52.2571C48.052 52.3236 47.8973 52.3847 47.7967 52.4282C47.4576 52.002 47.3768 51.918 47.293 51.3566C47.5246 51.2183 47.5734 51.1396 47.7205 50.9219Z" fill="#452B90"/>
<path d="M45.9113 59.041C45.7116 58.7966 45.5089 58.5468 45.3413 58.2779C44.6409 57.1551 44.4382 55.6877 44.7911 54.4152C45.1789 53.0181 46.0522 52.0526 47.2944 51.356C47.3782 51.9174 47.459 52.0014 47.7981 52.4277C46.988 52.8875 46.4035 53.8438 46.1574 54.7245C45.9471 55.4754 45.9128 56.4119 46.3205 57.107C46.3494 57.1551 46.386 57.1979 46.4188 57.2429L47.0734 58.6224L45.9113 59.041Z" fill="#E53022"/>
<path d="M34.9617 59.8984C34.0777 59.8083 33.2151 59.6815 32.4942 59.1147C31.5211 58.3494 30.9747 57.1753 30.8764 55.9547C30.7804 54.7715 31.0395 53.4508 31.8678 52.5602C32.3448 52.0484 32.9461 51.5534 33.667 51.5336L33.8293 52.1195C32.8821 52.9169 32.2427 54.0359 32.1277 55.2841C32.0301 56.3336 32.341 57.283 33.0459 58.0675C33.2288 58.2714 33.4391 58.4517 33.6479 58.6282C34.1875 58.9612 34.7895 59.2423 34.9617 59.8984Z" fill="#F37316"/>
<path d="M20.1317 51.4439C20.2543 51.8175 20.265 51.9511 20.5486 52.2337C19.5708 52.8364 18.7657 53.6858 18.5018 54.8369C18.3525 55.4885 18.4334 56.1622 18.7508 56.7488C19.151 57.7174 20.3477 58.8754 20.4152 59.834C19.734 59.6293 19.0829 59.3169 18.5417 58.8479C17.6323 58.0596 17.0969 56.8741 17.0627 55.6749C17.0288 54.484 17.3985 53.1389 18.2784 52.2994C18.7889 51.8129 19.4153 51.4462 20.1317 51.4439Z" fill="#E53022"/>
<path d="M36.4984 51.7895C37.6117 52.9329 38.4279 54.1734 38.4256 55.8409C38.4233 56.9454 38.0255 58.0209 37.1972 58.7695C36.5456 59.3576 35.7981 59.683 34.9583 59.8984C34.7861 59.2423 34.1841 58.9612 33.6445 58.6282C34.3944 57.9881 35.1892 57.3793 35.7676 56.5727C35.8003 55.0053 35.5976 53.1361 36.4984 51.7895Z" fill="#F2BE2A"/>
<path d="M35.4375 51.4453C35.7911 51.5568 36.1493 51.6607 36.499 51.7883C35.5983 53.1349 35.801 55.0041 35.7682 56.5715C35.1898 57.3781 34.395 57.9869 33.6452 58.627C33.4364 58.4505 33.2261 58.2702 33.0432 58.0663C32.3383 57.2818 32.0274 56.3324 32.1249 55.2828C32.24 54.0347 32.8793 52.9157 33.8266 52.1183C34.2396 52.1244 34.7029 52.1786 35.0839 51.996C35.3118 51.886 35.3407 51.6615 35.4375 51.4453Z" fill="#F2BE2A"/>
<path d="M21.8293 51.5585L21.9707 51.5494C22.9976 51.9512 23.6737 52.6371 24.1059 53.6583C24.6303 54.8973 24.656 56.3585 24.1116 57.5944C23.7235 58.4759 23.0879 59.229 22.1738 59.5751C21.6558 59.7714 20.9669 59.9654 20.4194 59.834C20.3519 58.8754 19.1552 57.7174 18.755 56.7488C18.4376 56.1622 18.3567 55.4885 18.506 54.837C18.7699 53.6858 19.575 52.8364 20.5528 52.2338C21.0329 52.0657 21.4875 51.9595 21.8293 51.5585Z" fill="#F37316"/>
<path d="M21.8293 51.559L21.9707 51.5499C21.9587 51.5934 21.945 51.6362 21.9346 51.6797C21.5382 53.2968 22.8218 56.1215 20.9809 57.2031C20.6012 57.4261 20.3332 57.4582 19.9093 57.3451C19.5348 57.2451 19.1863 56.9105 18.8932 56.6684L18.755 56.7493C18.4376 56.1627 18.3567 55.489 18.506 54.8374C18.7699 53.6863 19.575 52.8369 20.5528 52.2343C21.0329 52.0662 21.4875 51.96 21.8293 51.559Z" fill="#F14C27"/>
<path d="M48.5184 51.1973C48.8781 51.3157 49.2302 51.4249 49.5746 51.5815C50.6506 52.1299 51.3784 53.0298 51.7426 54.1824C52.1701 55.5329 52.0337 56.9429 51.3601 58.1872C50.8648 59.1015 50.1363 59.6691 49.1258 59.9158C48.8652 59.9792 48.5703 60.0372 48.3096 59.97L48.4735 59.8761L48.5139 59.6515C48.0566 59.2711 47.5773 58.9488 47.0805 58.6218L46.4259 57.2423C46.3931 57.1973 46.3565 57.1545 46.3276 57.1064C45.9199 56.4113 45.9542 55.4748 46.1645 54.724C46.4106 53.8432 46.9951 52.8869 47.8052 52.4271C47.9058 52.3835 48.0605 52.3224 48.145 52.256C48.4979 51.981 48.4598 51.6052 48.5184 51.1973Z" fill="#F37316"/>
<path d="M48.5184 51.1975C48.8781 51.3159 49.2302 51.4251 49.5746 51.5817C49.2249 52.0629 48.9658 52.2646 49.0526 52.8909C49.2157 54.0764 49.8947 55.5636 49.2287 56.7147C48.9498 57.1967 48.2441 57.4335 47.7107 57.4541C47.2618 57.4709 46.9509 57.3388 46.5615 57.1509L46.4259 57.2425C46.3931 57.1975 46.3565 57.1547 46.3276 57.1066C45.9199 56.4115 45.9542 55.475 46.1645 54.7242C46.4106 53.8434 46.9951 52.8871 47.8052 52.4273C47.9058 52.3837 48.0605 52.3226 48.145 52.2562C48.4979 51.9812 48.4598 51.6054 48.5184 51.1975Z" fill="#F14C27"/>
<path d="M62.0481 35.0015C62.3285 34.3897 62.4344 33.9413 62.8787 33.3929C63.0524 33.179 63.0745 32.8078 63.0821 32.5297C63.0844 32.4648 63.0768 32.3999 63.0745 32.335L63.1576 32.3411C63.1477 32.5786 63.1523 32.8139 63.1553 33.0522L63.4228 33.182C63.7131 35.6653 63.1903 38.0523 61.6397 40.0642C60.2703 41.8394 58.2632 42.9706 56.0373 43.2181C53.6934 43.4794 50.7269 43.4427 48.3753 43.2067L47.9211 43.2693C47.355 44.5785 47.9585 49.1203 47.7245 50.9207L47.6765 43.2601C43.4496 43.2777 39.2159 43.2502 34.9898 43.3495C34.9806 44.6435 34.7101 50.554 35.1429 51.3156L35.4371 51.4462C35.3403 51.6624 35.3113 51.8869 35.0835 51.9969C34.7025 52.1795 34.2392 52.1253 33.8262 52.1191L33.6639 51.5333L34.0837 51.2484C34.6667 49.4129 34.2765 45.3561 34.2453 43.283L30.6699 43.2464L30.7019 42.9225C31.2948 42.4688 31.9158 42.0601 32.5353 41.6446C36.7073 42.0204 41.111 41.7462 45.3135 41.7363C48.77 41.7279 52.5481 42.0105 55.9688 41.5743C57.0089 41.4422 57.9805 41.1886 58.8461 40.5699C60.707 39.2393 61.6351 37.183 62.0481 35.0015Z" fill="#4561B6"/>
<path d="M25.1513 17.0844C25.8341 15.9928 26.5286 14.9097 27.3549 13.9198C30.1796 10.5337 34.2029 8.40026 38.5951 8.05119C42.9316 7.7067 47.4137 9.11827 50.7131 11.972C54.4599 15.2122 56.2071 19.2514 56.5729 24.1201C57.8546 24.7556 59.0639 25.5561 60.1101 26.5362C61.948 28.2571 63.3273 30.6158 63.421 33.1823L63.1535 33.0525C63.1505 32.8142 63.1459 32.5789 63.1558 32.3414L63.0727 32.3353C63.075 32.4002 63.0826 32.4651 63.0804 32.53C63.0727 32.8081 63.0506 33.1793 62.8769 33.3932C62.4327 33.9416 62.3267 34.39 62.0463 35.0018C62.0646 31.851 60.9491 28.3518 58.1609 26.5507C57.4469 26.0893 56.1127 25.5783 55.6608 24.858C55.2364 24.182 55.2348 22.9362 55.1129 22.1525C54.642 19.1261 53.2224 16.5061 51.1719 14.2757C50.7482 13.8151 50.1394 13.0383 49.5183 13.0131C49.1305 12.7664 48.7502 12.5113 48.3654 12.2584C44.464 9.69573 40.545 9.52921 36.0851 10.4466C34.3317 10.2801 32.1273 11.6764 30.8197 12.7587C28.798 14.4316 26.778 17.1455 26.3429 19.7945C24.2138 18.4578 22.2086 17.4472 19.597 18.0544C18.2021 18.3791 17.0662 19.314 16.3619 20.553C16.2894 20.6805 16.2263 20.8134 16.1617 20.9456C15.3011 22.4313 15.3563 24.1484 15.4121 25.8059C13.3799 26.8104 11.2954 27.8935 10.5325 30.2064C9.84073 32.3032 10.3004 35.2264 11.3202 37.1566C12.3773 39.1579 14.2128 40.574 16.386 41.1668C19.2609 41.9505 29.5578 41.1492 30.6886 41.7702L30.7008 42.9229L30.6688 43.2467C27.4093 43.204 24.1502 43.2131 20.8906 43.2169C20.8662 45.2786 20.5193 49.3666 20.9822 51.1563C21.2594 51.345 21.5119 51.4489 21.8278 51.5596C21.486 51.9606 21.0314 52.0668 20.5513 52.2349C20.2678 51.9522 20.257 51.8186 20.1344 51.445C20.5716 49.0069 20.2389 45.7178 20.2209 43.1895C18.5829 43.1803 16.8432 43.2781 15.2704 42.7502C12.6892 41.884 10.6811 39.7949 9.54058 37.3606C8.39088 34.9063 8.12159 32.0198 9.0987 29.4601C9.92386 27.2985 11.447 25.702 13.5345 24.7243C13.5051 23.6633 13.5139 22.6948 13.8184 21.6621C14.4074 19.6623 15.7492 18.014 17.5903 17.0401C20.2228 15.6484 22.4935 16.2518 25.1513 17.0844Z" fill="#4E83CC"/>
<path d="M26.3425 19.7943C26.7775 17.1453 28.7977 14.4313 30.8195 12.7585C32.1272 11.6761 34.3318 10.2798 36.0852 10.4463C34.8233 11.036 33.6017 11.8518 32.4686 12.6607L34.5009 12.7555C34.5566 12.7776 34.6114 12.8028 34.6686 12.8211C35.2485 13.0037 35.961 12.8326 36.4251 13.2581C36.4281 13.5033 36.4335 13.6003 36.3336 13.8309L36.6125 14.2022C36.4632 15.0294 36.166 15.8093 35.8863 16.5983C35.8025 18.4614 35.2051 20.4535 34.7951 22.2737C34.0536 25.572 33.2626 28.8611 32.6674 32.1907C33.0622 32.5245 33.5095 32.8499 33.6162 33.3907C33.6467 33.5427 33.6246 33.6206 33.604 33.7619C33.335 34.0185 33.2131 34.1125 32.8122 34.1171C32.6735 34.1186 32.4754 34.069 32.3367 34.0384L31.9336 35.9304C31.6776 37.2588 31.4009 40.7572 30.6884 41.77C29.5576 41.149 19.26 41.9503 16.385 41.1666C14.2117 40.5738 12.3761 39.1577 11.3188 37.1564C10.2991 35.2262 9.83932 32.3029 10.5311 30.2062C11.2941 27.8933 13.3787 26.8102 15.411 25.8057C15.3552 24.1482 15.3 22.431 16.1606 20.9454C16.2252 20.8132 16.2883 20.6803 16.3609 20.5528C17.0652 19.3138 18.2011 18.3789 19.5962 18.0542C22.208 17.447 24.2133 18.4575 26.3425 19.7943Z" fill="#58B1E7"/>
<path d="M30.2458 32.3978C30.9743 32.9188 31.6784 33.4267 32.3338 34.0401L31.9307 35.9321C31.8446 35.8512 31.7036 35.7259 31.6228 35.6274C31.0162 34.8933 30.1353 33.3213 30.2458 32.3978Z" fill="#4E83CC"/>
<path d="M16.1621 20.9461C16.2267 20.8139 16.2898 20.681 16.3624 20.5535C17.0667 19.3145 18.2026 18.3796 19.5977 18.0549C22.2095 17.4477 24.2148 18.4582 26.344 19.795C26.664 20.2097 26.6051 20.3793 26.6206 20.8911C26.4159 21.2501 26.3566 21.3188 25.9277 21.4372C23.07 22.227 21.5159 18.1787 16.3912 21.0255L16.1621 20.9461Z" fill="#91DBF4"/>
<path d="M36.3362 13.8315L36.6151 14.2027C36.4657 15.03 36.1685 15.8099 35.8889 16.5989C34.0036 18.1182 27.6229 25.2678 26.2823 27.3721C28.0855 29.1488 30.5256 30.8408 32.67 32.1912C33.0647 32.525 33.512 32.8504 33.6187 33.3912C33.6492 33.5432 33.6271 33.6211 33.6065 33.7625C33.3375 34.0191 33.2156 34.1131 32.8148 34.1176C32.6761 34.1192 32.478 34.0695 32.3393 34.039C31.6839 33.4256 30.9798 32.9177 30.2513 32.3967C28.0826 30.4336 25.6822 28.6776 23.4668 26.7542C25.0707 24.7842 26.9356 22.9869 28.7077 21.1682C31.1512 18.6605 33.6096 16.0291 36.3362 13.8315Z" fill="#F14C27"/>
<path d="M35.8878 16.5996C35.804 18.4626 35.2065 20.4547 34.7965 22.2749C34.0551 25.5732 33.2641 28.8623 32.6689 32.1919C30.5245 30.8414 28.0844 29.1495 26.2812 27.3728C27.6218 25.2684 34.0025 18.1188 35.8878 16.5996Z" fill="#F3A815"/>
<path d="M36.088 10.4462C40.548 9.52886 44.4671 9.69538 48.3686 12.2581C48.7534 12.5109 49.1336 12.766 49.5215 13.0127C50.1425 13.0379 50.7514 13.8148 51.1751 14.2754C53.2256 16.5058 54.6453 19.1257 55.1162 22.1521C55.2381 22.9358 55.2396 24.1816 55.6641 24.8576C56.116 25.5779 57.4503 26.0889 58.1643 26.5502C60.9525 28.3514 62.068 31.8505 62.0498 35.0014C61.6367 37.1829 60.7086 39.2391 58.8478 40.5697C57.9821 41.1884 57.0106 41.442 55.9704 41.5742C52.5497 42.0103 48.7717 41.7277 45.3152 41.7361C41.1127 41.746 36.709 42.0203 32.537 41.6445C31.9175 42.06 31.2964 42.4686 30.7036 42.9224L30.6914 41.7697C31.4039 40.7569 31.6805 37.2585 31.9365 35.9302L32.3396 34.0382C32.4783 34.0687 32.6764 34.1184 32.8151 34.1168C33.2159 34.1122 33.3379 34.0183 33.6069 33.7616C33.6274 33.6203 33.6495 33.5424 33.6191 33.3904C33.5124 32.8496 33.0651 32.5242 32.6703 32.1904C33.2655 28.8609 34.0565 25.5718 34.7979 22.2735C35.2079 20.4533 35.8053 18.4612 35.8891 16.5982C36.1688 15.8091 36.4659 15.0293 36.6153 14.202L36.3364 13.8308C36.4362 13.6001 36.4309 13.5031 36.4278 13.2579C35.9638 12.8325 35.2513 13.0036 34.6714 12.821C34.6142 12.8027 34.5594 12.7775 34.5038 12.7553L32.4715 12.6606C33.6046 11.8517 34.8261 11.0359 36.088 10.4462Z" fill="#91DBF4"/>
<path d="M36.0854 10.4477C40.5456 9.53032 44.4648 9.69684 48.3665 12.2595C48.7513 12.5124 49.1316 12.7675 49.5195 13.0142C49.5545 13.0646 49.5873 13.1166 49.6254 13.1647C50.0872 13.7536 50.7456 14.1989 51.2401 14.7756C53.2154 17.0771 54.3439 19.6703 54.9909 22.6165C54.9917 23.0794 55.045 23.4017 54.8111 23.8149C54.2845 23.4185 53.9187 22.2239 53.6131 21.6166C51.8925 18.1961 49.5705 15.2339 46.0636 13.5336C43.1008 12.0976 38.8272 11.0702 35.6328 12.3206C35.3866 12.4169 35.2769 12.4994 34.9964 12.5162C34.7107 12.533 34.7213 12.5788 34.5011 12.7568L32.4688 12.6621C33.6019 11.8532 34.8235 11.0374 36.0854 10.4477Z" fill="#C1EAEC"/>
<path d="M49.5216 13.015C50.1427 13.0402 50.7515 13.8171 51.1752 14.2777C53.2258 16.5081 54.6454 19.128 55.1163 22.1544C55.2382 22.938 55.2398 24.1839 55.6642 24.8599C56.1161 25.5802 57.4504 26.0912 58.1644 26.5525C60.9526 28.3537 62.0682 31.8528 62.0499 35.0037C61.6369 37.1852 60.7087 39.2414 58.8479 40.572C57.9823 41.1907 57.0107 41.4443 55.9705 41.5765C52.5499 42.0126 48.7718 41.73 45.3153 41.7384C41.1128 41.7483 36.7091 42.0226 32.5371 41.6468C36.3693 38.7495 40.0201 35.6239 43.7067 32.5441C44.5525 33.45 45.6552 34.2459 46.7418 34.8371C49.5681 36.3747 53.1671 36.9469 56.2723 35.9707C57.9274 35.4505 59.7783 34.346 60.5731 32.7343C60.9747 31.9185 61.0135 31.0462 60.7202 30.1892C59.8675 27.6998 57.2827 26.2157 55.0851 25.1074C55.0874 24.2694 55.0729 23.4529 54.9929 22.6172C54.3459 19.6711 53.2174 17.0779 51.2422 14.7764C50.7477 14.1997 50.0893 13.7544 49.6275 13.1655C49.5894 13.1174 49.5567 13.0654 49.5216 13.015Z" fill="#58B1E7"/>
<path d="M36.6155 14.2019C38.5138 15.7036 40.1605 17.9218 41.7791 19.7275C44.1918 22.4208 46.6547 25.0706 49.1046 27.7295C47.3672 29.4016 45.5368 30.9736 43.7071 32.5417C40.0203 35.6216 36.3694 38.7472 32.5371 41.6444C31.9175 42.06 31.2965 42.4686 30.7036 42.9224L30.6914 41.7697C31.4039 40.7569 31.6805 37.2585 31.9366 35.9301L32.3397 34.0381C32.4784 34.0687 32.6765 34.1183 32.8152 34.1168C33.216 34.1122 33.338 34.0182 33.607 33.7616C33.6276 33.6203 33.6496 33.5424 33.6192 33.3904C33.5125 32.8496 33.0652 32.5242 32.6704 32.1904C33.2656 28.8608 34.0566 25.5717 34.798 22.2734C35.208 20.4532 35.8055 18.4611 35.8893 16.598C36.169 15.809 36.4662 15.0291 36.6155 14.2019Z" fill="#F2BE2A"/>
<defs>
<linearGradient id="paint0_linear_8254_108220" x1="0.99827" y1="22.4999" x2="45.6765" y2="22.4999" gradientUnits="userSpaceOnUse">
<stop stop-color="#202CD3"/>
<stop offset="1" stop-color="#0778F9"/>
</linearGradient>
</defs>
</svg>
