<svg width="78" height="76" viewBox="0 0 78 76" fill="none" xmlns="http://www.w3.org/2000/svg">
<circle opacity="0.1" cx="30.1325" cy="30" r="30" fill="#03C343"/>
<path d="M44.704 50.1837V47.939L46.9497 49.0619L44.704 50.1837ZM50.3163 47.939L43.8881 44.7767C43.0711 44.3682 42.0508 44.98 42.0508 45.8986V52.3268C42.0508 53.2454 43.0711 53.8581 43.8881 53.4496L50.3163 50.2863C51.2339 49.7762 51.2339 48.4491 50.3163 47.939Z" fill="#03C343"/>
<path d="M26.4384 33.8568C26.541 33.8568 26.541 33.8568 26.6426 33.8568C27.4586 33.8568 30.2134 33.8567 32.2549 36.1024C32.765 36.6125 33.4793 36.7142 34.091 36.204C34.6022 35.6939 34.7038 34.9796 34.1937 34.3679C32.0506 31.9189 29.2948 31.3062 27.6628 31.2035C28.3772 26.4083 33.6836 23.5508 38.1729 25.5913C38.7847 25.8982 39.499 25.5913 39.8059 24.9796C41.8463 20.8987 45.9283 18.4487 50.5203 18.4487C57.8671 18.4487 63.582 24.8769 62.3575 32.1221C62.2549 32.9381 62.8676 33.6535 63.6826 33.6535C69.1932 33.5509 73.582 37.9396 73.582 43.245C73.582 48.5514 69.5001 52.8366 64.3969 52.9392H56.8469C57.2544 51.7147 57.4586 50.4902 57.4586 49.0615C57.4586 42.7349 52.3565 37.5311 45.9283 37.5311C39.499 37.5311 34.3969 42.6333 34.3969 49.0615C34.3969 50.3886 34.6022 51.7147 35.0097 52.9392H25.3155C21.4389 51.8163 18.5814 47.7354 18.5814 43.245C18.683 38.653 21.9479 34.7754 26.4384 33.8568ZM45.9283 58.0413C41.0304 58.0413 36.9485 54.061 36.9485 49.0615C36.9485 44.061 40.9277 40.0817 45.9283 40.0817C50.9288 40.0817 54.9081 44.061 54.9081 49.0615C54.9081 54.061 50.8261 58.0413 45.9283 58.0413ZM24.8064 55.3881C25.1123 55.4897 24.6012 55.3881 36.3368 55.3881C38.3772 58.4498 41.949 60.4902 45.8266 60.4902C49.8059 60.4902 53.2751 58.4498 55.3156 55.3881C64.7039 55.3881 64.1937 55.3881 64.1937 55.3881C70.9278 55.2855 76.031 49.8775 76.031 43.245C76.031 37.021 71.1321 31.8163 65.0097 31.2035C65.6214 23.0407 58.8884 15.9998 50.5203 15.9998C45.3166 15.9998 40.6219 18.7556 38.0713 22.9391C31.8463 21.0003 25.5197 25.2854 25.0096 31.612C19.8059 33.1434 16.1325 37.837 16.1325 43.245C16.1325 48.8573 19.8059 54.061 24.8064 55.3881Z" fill="#03C343"/>
<path d="M21.7446 58.0418H24.2952V60.5923H21.7446V58.0418Z" fill="#03C343"/>
<path d="M25.5204 58.0418H28.0719V60.5923H25.5204V58.0418Z" fill="#03C343"/>
<path d="M29.3969 58.0418H31.9485V60.5923H29.3969V58.0418Z" fill="#03C343"/>
<path d="M58.6828 32.4274C59.4154 32.4274 60.0099 33.0218 60.0099 33.7545C60.0099 34.4871 59.4154 35.0806 58.6828 35.0806C57.9511 35.0806 57.3567 34.4871 57.3567 33.7545C57.3567 33.0218 57.9511 32.4274 58.6828 32.4274Z" fill="#03C343"/>
<path d="M67.6628 68.1424C68.3955 68.1424 68.9899 68.7369 68.9899 69.4685C68.9899 70.2022 68.3955 70.7957 67.6628 70.7957C66.9302 70.7957 66.3368 70.2022 66.3368 69.4685C66.3368 68.7369 66.9302 68.1424 67.6628 68.1424Z" fill="#03C343"/>
<path d="M71.4375 68.1424C72.1711 68.1424 72.7646 68.7369 72.7646 69.4685C72.7646 70.2022 72.1711 70.7957 71.4375 70.7957C70.7048 70.7957 70.1114 70.2022 70.1114 69.4685C70.1114 68.7369 70.7048 68.1424 71.4375 68.1424Z" fill="#03C343"/>
<path d="M52.6631 23.5499C52.8674 23.5499 57.2541 24.6728 57.4584 29.9782C57.4584 30.6925 58.0711 31.2026 58.7855 31.2026C59.4988 31.2026 60.0099 30.5909 60.0099 29.8766C59.9073 26.1015 58.0711 23.8568 56.5398 22.734C54.9078 21.5095 53.3775 21.101 53.2749 21.101C52.5605 20.8978 51.9478 21.4079 51.7445 22.0196C51.5403 22.734 51.9478 23.3467 52.6631 23.5499Z" fill="#03C343"/>
<path d="M75.317 73.3468H19.1935V65.6941H75.317V73.3468ZM76.5414 63.1436H17.8674C17.153 63.1436 16.5403 63.7553 16.5403 64.4696V74.6739C16.5403 75.3882 17.153 76 17.8674 76H76.5414C77.2558 76 77.8675 75.3882 77.8675 74.6739V64.4696C77.8675 63.6537 77.2558 63.1436 76.5414 63.1436Z" fill="#03C343"/>
<path d="M22.9697 70.7965H29.398C29.398 71.5108 30.0107 72.1235 30.7251 72.1235C31.4384 72.1235 32.0512 71.5108 32.0512 70.7965H63.7858C64.5001 70.7965 65.1129 70.1837 65.1129 69.4694C65.1129 68.756 64.5001 68.1432 63.7858 68.1432H31.9496C31.9496 67.4289 31.3368 66.8172 30.6224 66.8172C29.9081 66.8172 29.2953 67.4289 29.2953 68.1432H22.9697C22.2554 68.1432 21.6426 68.756 21.6426 69.4694C21.7453 70.1837 22.2554 70.7965 22.9697 70.7965Z" fill="#03C343"/>
</svg>
