<svg width="76" height="76" viewBox="0 0 76 76" fill="none" xmlns="http://www.w3.org/2000/svg">
<circle opacity="0.1" cx="30.6" cy="30" r="30" fill="#03C343"/>
<path d="M25.0209 54.6708C25.3221 54.771 25.4218 54.6708 28.2265 54.6708C28.9267 54.6708 29.5281 54.0733 29.5281 53.3756C29.5281 52.6778 28.9267 52.0803 28.2265 52.0803H25.5216C21.7166 50.9836 18.9119 46.9966 18.9119 42.6117C18.9119 38.2267 22.1165 34.339 26.6237 33.4418C26.7234 33.4418 26.7234 33.4418 26.8242 33.4418C27.6251 33.4418 30.329 33.4418 32.3327 35.6343C32.8334 36.1335 33.5336 36.2327 34.135 35.7345C34.6367 35.2362 34.7355 34.5385 34.2348 33.94C32.1323 31.548 29.4283 30.9506 27.8255 30.8503C28.5267 26.1656 33.7341 23.3756 38.1415 25.3686C38.743 25.6684 39.4431 25.3686 39.7443 24.7711C41.7471 20.7842 45.7536 18.3922 50.2608 18.3922C57.4709 18.3922 63.0802 24.6709 61.8784 31.7476C61.7786 32.5445 62.379 33.2423 63.1809 33.2423C68.5888 33.143 72.8955 37.4287 72.8955 42.6117C72.8955 47.7946 68.89 51.98 63.8821 52.0803C63.181 52.0803 62.6803 52.6778 62.6803 53.3756C62.6803 54.0733 63.2817 54.5715 63.9819 54.5715C70.3911 54.372 75.4 49.0898 75.4 42.6117C75.4 36.5315 70.5926 31.4488 64.5823 30.8503C65.1837 22.8774 58.574 16.0002 50.3605 16.0002C45.2519 16.0002 40.645 18.6919 38.1415 22.7781C32.0315 20.8834 25.8228 25.0699 25.3221 31.2493C20.2135 32.744 16.6079 37.3295 16.6079 42.6117C16.4075 48.2928 20.014 53.2763 25.0209 54.6708Z" fill="#03C343"/>
<path d="M24.4211 62.2458H26.9245V64.7371H24.4211V62.2458Z" fill="#03C343"/>
<path d="M28.225 62.2458H30.7284V64.7371H28.225V62.2458Z" fill="#03C343"/>
<path d="M31.9316 62.2458H34.4361V64.7371H31.9316V62.2458Z" fill="#03C343"/>
<path d="M35.7379 62.2458H38.2413V64.7371H35.7379V62.2458Z" fill="#03C343"/>
<path d="M58.2725 32.2452C58.9916 32.2452 59.5751 32.8258 59.5751 33.5415C59.5751 34.2561 58.9916 34.8367 58.2725 34.8367C57.5534 34.8367 56.9699 34.2561 56.9699 33.5415C56.9699 32.8258 57.5534 32.2452 58.2725 32.2452Z" fill="#03C343"/>
<path d="M58.2726 31.0493C58.9738 31.0493 59.4745 30.4508 59.4745 29.7541C59.3748 26.0659 57.5715 23.8734 56.0694 22.7777C54.4676 21.5817 52.9645 21.1827 52.8638 21.1827C52.1636 20.9832 51.5622 21.4815 51.3617 22.08C51.1612 22.7777 51.6619 23.3752 52.2633 23.5747C52.4638 23.5747 56.7705 24.6704 56.97 29.8533C56.97 30.5511 57.5714 31.0493 58.2726 31.0493Z" fill="#03C343"/>
<path d="M39.4436 46.5984C39.4436 42.8109 42.5485 39.7203 46.3555 39.7203C50.1606 39.7203 53.2664 42.8109 53.2664 46.5984C53.2664 50.3858 50.1606 53.4746 46.3555 53.4746C42.5485 53.4746 39.4436 50.3858 39.4436 46.5984ZM55.7689 46.5984C55.7689 41.4145 51.5629 37.229 46.3555 37.229C41.1462 37.229 36.9402 41.4145 36.9402 46.5984C36.9402 51.7803 41.1462 55.9668 46.3555 55.9668C51.5629 55.9668 55.7689 51.7803 55.7689 46.5984Z" fill="#03C343"/>
<path d="M50.7603 46.5989C50.7603 44.206 48.7566 42.213 46.3539 42.213C45.6528 42.213 45.0513 42.8115 45.0513 43.5082C45.0513 44.2059 45.6528 44.8044 46.3539 44.8044C47.3553 44.8044 48.2559 45.6014 48.2559 46.6982C48.2559 47.7949 47.3553 48.4916 46.3539 48.4916C45.3515 48.4916 44.4509 47.6947 44.4509 46.5989C44.4509 45.9012 43.8495 45.3027 43.1483 45.3027C42.4471 45.3027 41.8457 45.9012 41.8457 46.5989C41.8457 48.9899 43.8495 50.9839 46.2532 50.9839C48.6569 50.9839 50.7603 48.9899 50.7603 46.5989Z" fill="#03C343"/>
<path d="M46.3549 73.4085C45.3525 73.4085 44.4519 72.6115 44.4519 71.5148C44.4519 70.4191 45.2518 69.6211 46.3549 69.6211C47.456 69.6211 48.2569 70.4191 48.2569 71.5148C48.2569 72.6115 47.3563 73.4085 46.3549 73.4085ZM29.6277 46.4984C33.9354 39.7205 39.9447 35.8337 46.2541 35.8337C52.5636 35.8337 58.5739 39.7205 62.8796 46.4984C58.5739 53.2763 52.5636 57.163 46.2541 57.163C40.0444 57.2622 34.0352 53.3755 29.6277 46.4984ZM71.9948 70.3188H50.5609C50.1599 68.9234 48.9581 67.7273 47.5558 67.3283V59.6542C54.4677 59.156 60.8769 54.6708 65.4848 47.1961C65.6843 46.7971 65.6843 46.2989 65.4848 45.9009C60.6764 37.927 53.6658 33.3415 46.3549 33.3415C39.0431 33.3415 32.0314 37.927 27.224 45.9009C27.0245 46.2989 27.0245 46.7971 27.224 47.1961C31.7322 54.6708 38.2411 59.156 45.153 59.6542V67.4286C43.7497 67.8276 42.6486 68.9234 42.2487 70.3188H20.714C20.0139 70.3188 19.4125 70.9173 19.4125 71.615C19.4125 72.3118 20.0139 72.9103 20.714 72.9103H42.1479C42.6486 74.7038 44.3512 76 46.3549 76C48.3577 76 50.0602 74.7038 50.5609 72.9103H71.9948C72.6949 72.9103 73.2964 72.3118 73.2964 71.615C73.2964 70.817 72.6949 70.3188 71.9948 70.3188Z" fill="#03C343"/>
</svg>
