<svg width="38" height="48" viewBox="0 0 38 48" fill="none" xmlns="http://www.w3.org/2000/svg">
<mask id="mask0_8396_50610" style="mask-type:luminance" maskUnits="userSpaceOnUse" x="0" y="0" width="38" height="48">
<path d="M10.0048 0.2477C11.5879 -0.171814 13.7455 0.0683784 15.3996 0.0690536L24.5042 0.0778542C27.8677 0.081913 31.3685 -0.107536 34.7218 0.0968056C35.2212 0.127254 35.6496 0.209133 36.0889 0.457458C36.8609 0.893887 37.5421 1.63549 37.7689 2.50632C38.1878 4.11806 37.9104 6.43011 37.9049 8.11967L37.8762 18.0541L37.8666 35.2595C37.8728 38.3809 37.9951 41.5516 37.8557 44.6682C37.827 45.3252 37.7355 45.8293 37.3734 46.3875C36.8295 47.2272 36.3806 47.5168 35.405 47.7144C33.0233 48.1962 30.2924 47.9235 27.8574 47.9201L14.2893 47.8964L6.87707 47.8863C5.71012 47.8863 4.44206 47.9871 3.28674 47.8436C3.21568 47.8287 3.14461 47.8152 3.07424 47.799C2.06649 47.5682 1.11204 46.8862 0.58869 46.0025C0.187639 45.3252 0.137755 44.7094 0.0988118 43.9408C-0.0248513 41.4832 0.0667004 38.9783 0.0680668 36.5154L0.0619285 23.2919L0.0578185 14.8982C0.0571353 13.3873 -0.14714 11.5232 0.216334 10.0643C0.864028 8.36124 8.33027 1.15981 10.0048 0.2477Z" fill="white"/>
</mask>
<g mask="url(#mask0_8396_50610)">
<path d="M10.0048 0.2477C11.5879 -0.171814 13.7455 0.0683784 15.3996 0.0690536L24.5042 0.0778542C27.8677 0.081913 31.3685 -0.107536 34.7218 0.0968056C35.2212 0.127254 35.6496 0.209133 36.0889 0.457458C36.8609 0.893887 37.5421 1.63549 37.7689 2.50632C38.1878 4.11806 37.9104 6.43011 37.9049 8.11967L37.8762 18.0541L37.8666 35.2595C37.8728 38.3809 37.9951 41.5516 37.8557 44.6682C37.827 45.3252 37.7355 45.8293 37.3734 46.3875C36.8295 47.2272 36.3806 47.5168 35.405 47.7144C33.0233 48.1962 30.2924 47.9235 27.8574 47.9201L14.2893 47.8964L6.87707 47.8863C5.71012 47.8863 4.44206 47.9871 3.28674 47.8436C3.21568 47.8287 3.14461 47.8152 3.07424 47.799C2.06649 47.5682 1.11204 46.8862 0.58869 46.0025C0.187639 45.3252 0.137755 44.7094 0.0988118 43.9408C-0.0248513 41.4832 0.0667004 38.9783 0.0680668 36.5154L0.0619285 23.2919L0.0578185 14.8982C0.0571353 13.3873 -0.14714 11.5232 0.216334 10.0643C0.864028 8.36124 8.33027 1.15981 10.0048 0.2477Z" fill="url(#paint0_linear_8396_50610)"/>
</g>
<path d="M20.6968 36.3921C20.4563 36.1674 20.127 35.9009 19.993 35.5957C19.8482 35.2635 19.838 34.9698 19.9828 34.6362C20.0737 34.4292 20.1652 34.4508 20.362 34.3744L20.6066 34.5293L20.6708 35.1423L21.0001 35.5734C20.8648 35.8528 20.7255 36.0795 20.6968 36.3921Z" fill="#452B90"/>
<path d="M20.9987 35.5733L21.1134 35.5726C21.19 35.5943 21.2658 35.6179 21.3423 35.6376C23.4439 36.185 30.5583 35.214 31.8954 35.8764L31.9514 36.0889C31.6474 36.4556 31.3269 36.5957 30.8555 36.6478C29.5915 36.7865 21.6375 36.7831 20.6953 36.392C20.724 36.0794 20.8634 35.8527 20.9987 35.5733Z" fill="#58359A"/>
<path d="M21.0802 30.4394C23.119 30.8365 26.6744 30.5185 28.8485 30.4996C29.6198 30.4928 30.4909 30.4123 31.2452 30.5733C31.5861 30.6464 31.7337 30.6836 31.9216 30.9901C31.7481 31.2831 31.5718 31.3954 31.2486 31.5193C30.1678 31.932 21.5694 31.9137 20.5152 31.453C20.0937 31.2682 19.5737 30.6444 19.5027 30.1863C19.4521 29.8595 19.5368 29.7864 19.7254 29.5475C20.0021 29.5157 20.2105 29.4927 20.4831 29.559C20.6771 29.848 20.8616 30.1687 21.0802 30.4394Z" fill="#58359A"/>
<path d="M20.4844 29.5587C20.7419 29.2257 20.8636 29.0065 21.2988 28.926C22.2546 28.7494 31.4364 28.8218 32.177 29.0701C32.3519 29.3996 32.3369 29.4937 32.3232 29.8713C32.1538 30.1527 32.1149 30.3023 31.7623 30.3747C31.0914 30.512 30.0563 30.3774 29.3423 30.3726C26.6409 30.3551 23.7543 30.1419 21.0815 30.439C20.8629 30.1683 20.6784 29.8476 20.4844 29.5587Z" fill="white"/>
<path d="M20.668 35.142C20.7383 34.7698 20.7301 34.4396 20.987 34.1521C23.172 33.742 25.7983 34.0695 28.0488 34.0648C28.9889 34.0634 29.9475 33.9362 30.8815 33.9795C31.3344 34.0005 31.6979 34.054 32.1167 34.2258C32.2923 34.42 32.3565 34.4085 32.3511 34.69C32.3456 34.9667 32.2978 35.0608 32.155 35.2861C31.2142 35.8741 22.7866 35.5324 21.1121 35.5723L20.9973 35.573L20.668 35.142Z" fill="white"/>
<path d="M21.036 39.2552C22.6676 39.2268 30.953 39.0482 31.8439 39.3493C32.1801 39.463 32.2006 39.6112 32.3413 39.9055C32.3065 40.302 32.245 40.4644 32.0045 40.7838C30.3689 40.7608 21.5867 41.0456 20.8748 40.6281C20.7238 40.5402 20.6671 40.3392 20.648 40.1775C20.6008 39.7803 20.7867 39.5273 21.036 39.2552Z" fill="white"/>
<path d="M12.1859 0.424878C13.4253 0.0405488 15.9115 0.641407 17.0587 1.20504C17.6421 1.49194 17.94 1.92093 18.5864 2.08805L18.8426 2.153C18.9608 2.40335 18.986 2.53531 18.9635 2.8195C18.8829 3.81415 18.2946 4.89947 17.5506 5.55311L16.8981 6.9375C16.0024 6.06396 11.5287 1.80724 11.3674 1.06361C11.623 0.698905 11.7951 0.608247 12.1859 0.424878Z" fill="#7F53AF"/>
<mask id="mask1_8396_50610" style="mask-type:luminance" maskUnits="userSpaceOnUse" x="5" y="23" width="27" height="4">
<path d="M31.882 24.9821C31.8915 25.4856 31.8738 25.8056 31.5738 26.2109C31.1106 26.397 30.6242 26.4403 30.1275 26.4586C27.1773 26.5716 7.10495 26.5912 5.60596 26.0844C5.51304 25.9416 5.46658 25.8855 5.40919 25.7102C5.26913 25.2792 5.19739 24.2527 5.39484 23.8725C5.47136 24.2927 5.51577 24.5464 5.81844 24.8766C6.88153 25.3002 28.828 24.972 31.882 24.9821Z" fill="white"/>
</mask>
<g mask="url(#mask1_8396_50610)">
<path d="M31.882 24.9821C31.8915 25.4856 31.8738 25.8056 31.5738 26.2109C31.1106 26.397 30.6242 26.4403 30.1275 26.4586C27.1773 26.5716 7.10495 26.5912 5.60596 26.0844C5.51304 25.9416 5.46658 25.8855 5.40919 25.7102C5.26913 25.2792 5.19739 24.2527 5.39484 23.8725C5.47136 24.2927 5.51577 24.5464 5.81844 24.8766C6.88153 25.3002 28.828 24.972 31.882 24.9821Z" fill="url(#paint1_linear_8396_50610)"/>
</g>
<path d="M29.577 16.9762C29.0078 18.3484 27.8184 19.5305 26.4635 20.1605C24.5956 21.0286 22.5575 20.9318 20.6691 20.2031C18.5539 19.3871 16.9408 17.7625 16.0526 15.7021C15.2191 13.7676 15.1391 11.4677 15.9774 9.51765C16.7379 7.74757 18.2136 6.74954 19.9422 6.04651C19.6573 8.27738 15.765 9.33564 16.9831 14.1188C17.253 14.5627 17.3562 14.8448 17.8686 15.0207L18.1002 14.88C18.2532 14.5762 18.3673 14.3556 18.3885 14.0105C18.4077 13.7081 18.4671 13.5301 18.5791 13.2527C18.5942 13.2141 18.6106 13.1762 18.627 13.137C18.6768 13.8894 18.754 15.3124 19.345 15.8307C19.6689 16.1142 19.9189 16.2847 20.3439 16.3699C20.6363 16.4281 20.7866 16.5377 21.0258 16.7049C20.816 17.1203 20.7272 17.4282 20.8577 17.891C20.9855 18.343 21.2826 18.747 21.5662 19.1157C22.3211 19.4168 23.0296 19.657 23.8536 19.6618C26.1451 19.6746 27.9974 18.4932 29.577 16.9762Z" fill="#F14C27"/>
<path d="M16.9844 14.1183C17.2542 14.5622 17.3574 14.8443 17.8698 15.0202L18.1014 14.8795C18.2545 14.5757 18.3686 14.3551 18.3898 14.01C18.4089 13.7076 18.4683 13.5296 18.5804 13.2522C18.5954 13.2136 18.6118 13.1757 18.6282 13.1365C18.6781 13.8889 18.7553 15.3119 19.3463 15.8302C19.6701 16.1137 19.9202 16.2842 20.3451 16.3694C20.6376 16.4276 20.7879 16.5372 21.027 16.7044C20.8172 17.1198 20.7284 17.4277 20.8589 17.8905C20.9867 18.3425 21.2839 18.7465 21.5674 19.1152C21.1807 18.9948 20.8459 18.8189 20.4948 18.6165C18.6678 17.5657 17.5303 16.1583 16.9844 14.1183Z" fill="#F2BE2A"/>
<path d="M5.39453 23.8724C5.66577 23.6606 5.85707 23.5178 6.20757 23.4799C8.83729 23.193 12.7036 23.5063 15.4789 23.4935L26.2813 23.4475C28.0023 23.4468 29.8771 23.3142 31.5804 23.5361C31.7648 23.5604 31.8878 23.6065 32.0443 23.7046C32.1912 24.026 32.2766 24.275 32.1187 24.6228C32.0477 24.7797 31.9821 24.8528 31.8817 24.9821C28.8277 24.9719 6.88122 25.3001 5.81813 24.8765C5.51546 24.5463 5.47105 24.2926 5.39453 23.8724Z" fill="white"/>
<path d="M10.0073 0.247392C10.3591 1.31512 10.0489 8.50099 10.0353 10.2169C7.50872 10.2156 4.96372 10.2819 2.4399 10.2068C1.72593 10.2169 0.890357 10.3245 0.21875 10.064C0.866444 8.36093 8.33269 1.1595 10.0073 0.247392Z" fill="#2D2F87"/>
<mask id="mask2_8396_50610" style="mask-type:luminance" maskUnits="userSpaceOnUse" x="16" y="5" width="15" height="15">
<path d="M19.9405 6.04479C22.1986 5.28695 24.4013 5.1726 26.5917 6.28701C28.3804 7.19709 29.712 8.80816 30.3009 10.7082C30.9595 12.8362 30.5995 15.0352 29.5753 16.9745C27.9957 18.4915 26.1435 19.6729 23.852 19.6601C23.028 19.6553 22.3195 19.4151 21.5645 19.114C21.281 18.7452 20.9838 18.3413 20.856 17.8893C20.7255 17.4265 20.8144 17.1186 21.0241 16.7032C20.785 16.536 20.6347 16.4264 20.3423 16.3682C19.9173 16.283 19.6672 16.1125 19.3434 15.8289C18.7524 15.3106 18.6752 13.8877 18.6253 13.1352C18.6089 13.1745 18.5925 13.2124 18.5775 13.251C18.4654 13.5284 18.406 13.7063 18.3869 14.0088C18.3657 14.3539 18.2516 14.5745 18.0986 14.8783L17.8669 15.019C17.3545 14.8431 17.2514 14.5609 16.9815 14.1171C15.7633 9.33391 19.6556 8.27566 19.9405 6.04479Z" fill="white"/>
</mask>
<g mask="url(#mask2_8396_50610)">
<path d="M19.9405 6.04479C22.1986 5.28695 24.4013 5.1726 26.5917 6.28701C28.3804 7.19709 29.712 8.80816 30.3009 10.7082C30.9595 12.8362 30.5995 15.0352 29.5753 16.9745C27.9957 18.4915 26.1435 19.6729 23.852 19.6601C23.028 19.6553 22.3195 19.4151 21.5645 19.114C21.281 18.7452 20.9838 18.3413 20.856 17.8893C20.7255 17.4265 20.8144 17.1186 21.0241 16.7032C20.785 16.536 20.6347 16.4264 20.3423 16.3682C19.9173 16.283 19.6672 16.1125 19.3434 15.8289C18.7524 15.3106 18.6752 13.8877 18.6253 13.1352C18.6089 13.1745 18.5925 13.2124 18.5775 13.251C18.4654 13.5284 18.406 13.7063 18.3869 14.0088C18.3657 14.3539 18.2516 14.5745 18.0986 14.8783L17.8669 15.019C17.3545 14.8431 17.2514 14.5609 16.9815 14.1171C15.7633 9.33391 19.6556 8.27566 19.9405 6.04479Z" fill="url(#paint2_linear_8396_50610)"/>
</g>
<path d="M23.4841 8.26474C23.6283 8.00288 23.5852 7.95417 23.8906 7.85065C24.4748 7.65239 25.1143 7.88515 25.6363 8.15513C26.3373 8.51781 27.0102 8.98468 27.4803 9.62411C28.3774 10.5667 28.6554 11.8299 28.6124 13.0959C28.5748 14.2063 28.2038 16.0711 27.2439 16.7924C26.9815 16.99 26.6994 17.1361 26.3666 17.061C26.1166 17.0048 25.9854 16.9237 25.7798 16.7816C26.6181 16.4324 26.9583 16.0501 27.412 15.2747C27.604 14.8274 27.7529 14.3856 27.8622 13.9106C28.2086 12.4003 27.7946 11.2237 27.0102 9.95295C26.2403 9.17143 25.5857 8.71267 24.4755 8.52186C24.2015 8.4745 23.9467 8.43864 23.6843 8.34188C23.6174 8.31684 23.5511 8.28978 23.4841 8.26474Z" fill="#E53022"/>
<mask id="mask3_8396_50610" style="mask-type:luminance" maskUnits="userSpaceOnUse" x="18" y="7" width="10" height="11">
<path d="M22.9557 7.88997C23.2898 7.97929 23.2837 7.98538 23.4852 8.26618C23.5522 8.29121 23.6185 8.31828 23.6854 8.34332C23.9478 8.44008 24.2026 8.47594 24.4766 8.5233C25.5868 8.71411 26.2414 9.17287 27.0114 9.95439C27.7957 11.2251 28.2097 12.4018 27.8633 13.912C27.754 14.387 27.6051 14.8289 27.4131 15.2761C26.9594 16.0516 26.6192 16.4339 25.7809 16.783L25.7679 16.5814C25.0587 17.0699 24.1377 17.8785 23.2215 17.7371C22.6319 17.6457 22.3689 17.2945 22.0436 16.8513C21.5948 16.9366 21.4506 16.8507 21.0277 16.7059C20.7886 16.5387 20.6383 16.4291 20.3458 16.3709C19.9209 16.2857 19.6708 16.1152 19.347 15.8317C18.756 15.3134 18.6788 13.8904 18.6289 13.138C18.7157 12.9485 18.7355 12.8301 18.7471 12.6197C18.7662 12.2685 18.7662 11.9045 18.8598 11.5628C19.2472 10.154 20.158 9.01116 21.4533 8.34738C21.4855 8.31084 21.5141 8.27025 21.5504 8.23709C21.9391 7.88186 22.4604 7.87712 22.9557 7.88997Z" fill="white"/>
</mask>
<g mask="url(#mask3_8396_50610)">
<path d="M22.9557 7.88997C23.2898 7.97929 23.2837 7.98538 23.4852 8.26618C23.5522 8.29121 23.6185 8.31828 23.6854 8.34332C23.9478 8.44008 24.2026 8.47594 24.4766 8.5233C25.5868 8.71411 26.2414 9.17287 27.0114 9.95439C27.7957 11.2251 28.2097 12.4018 27.8633 13.912C27.754 14.387 27.6051 14.8289 27.4131 15.2761C26.9594 16.0516 26.6192 16.4339 25.7809 16.783L25.7679 16.5814C25.0587 17.0699 24.1377 17.8785 23.2215 17.7371C22.6319 17.6457 22.3689 17.2945 22.0436 16.8513C21.5948 16.9366 21.4506 16.8507 21.0277 16.7059C20.7886 16.5387 20.6383 16.4291 20.3458 16.3709C19.9209 16.2857 19.6708 16.1152 19.347 15.8317C18.756 15.3134 18.6788 13.8904 18.6289 13.138C18.7157 12.9485 18.7355 12.8301 18.7471 12.6197C18.7662 12.2685 18.7662 11.9045 18.8598 11.5628C19.2472 10.154 20.158 9.01116 21.4533 8.34738C21.4855 8.31084 21.5141 8.27025 21.5504 8.23709C21.9391 7.88186 22.4604 7.87712 22.9557 7.88997Z" fill="url(#paint3_linear_8396_50610)"/>
</g>
<path d="M21.8042 10.4579C22.471 10.5933 23.0845 10.8111 23.5115 11.3707L23.2492 11.7084C22.9424 11.9235 22.9301 11.9601 22.5557 11.9432C22.0085 11.9174 21.5924 11.8748 21.207 11.4627C21.2788 11.0026 21.5124 10.8159 21.8042 10.4579Z" fill="#DC202B"/>
<path d="M21.0336 12.9207C21.7715 13.209 22.5176 13.3206 23.1947 13.7557C23.416 14.142 23.3655 14.2374 23.3217 14.6671C22.9733 14.6874 22.6276 14.6745 22.2826 14.6231C21.8569 14.5588 21.3616 14.3707 21.1313 13.9871C20.8997 13.6014 20.9434 13.3247 21.0336 12.9207Z" fill="#DC202B"/>
<path d="M22.0415 16.8499L21.7532 16.2889L21.9226 16.1096L21.8557 16.0237L21.7204 16.086L21.9575 16.0799L21.6719 15.8478C22.2157 15.8092 22.817 17.0901 23.8432 16.9663C24.4314 16.8952 24.6589 16.5177 24.9438 16.0602C24.9725 16.0149 24.9999 15.9676 25.0279 15.9215C25.4064 16.0251 25.5232 16.2856 25.7657 16.5799C25.0566 17.0684 24.1356 17.877 23.2194 17.7356C22.6298 17.6443 22.3667 17.2931 22.0415 16.8499Z" fill="#DC202B"/>
<path d="M22.9568 7.88903C23.2909 7.97835 23.2847 7.98444 23.4863 8.26524C23.5532 8.29028 23.6195 8.31734 23.6865 8.34238C23.9488 8.43914 24.2037 8.475 24.4776 8.52236C25.5879 8.71317 26.2424 9.17193 27.0124 9.95345C27.7967 11.2242 28.2107 12.4008 27.8644 13.9111C27.755 14.3861 27.6061 14.8279 27.4141 15.2752C26.9092 15.4985 26.6065 15.9775 26.1495 16.2915L25.8605 16.2177C25.5967 15.9153 25.456 15.7421 25.3433 15.3462L25.4956 15.0878C25.7785 14.9463 26.131 14.807 26.3811 14.6182C26.6407 14.4213 26.6762 14.3563 26.6878 14.0498C26.3271 13.7839 25.967 13.5186 25.6104 13.248L25.6289 12.7067L25.3426 12.4211C24.947 12.6262 24.5473 12.6735 24.1141 12.5463C23.6625 12.413 23.4637 12.0943 23.2553 11.7086L23.5177 11.371C23.0907 10.8114 22.4772 10.5936 21.8103 10.4582L21.3642 10.1828C21.2316 9.79444 21.3758 9.68754 21.5514 9.32825C21.4284 9.03526 21.4646 8.66378 21.4544 8.34644C21.4865 8.3099 21.5152 8.26931 21.5514 8.23615C21.9401 7.88092 22.4614 7.87618 22.9568 7.88903Z" fill="#F2BE2A"/>
<path d="M21.4529 8.34632C21.485 8.30978 21.5137 8.26919 21.5499 8.23603C21.9386 7.8808 22.4599 7.87606 22.9553 7.88891L22.7865 8.46067C22.5453 8.59058 22.2994 8.71103 22.0568 8.83891C21.8204 8.96409 21.7084 9.12243 21.5499 9.32812C21.4269 9.03514 21.4631 8.66366 21.4529 8.34632Z" fill="#DC202B"/>
<path d="M24.2266 11.1993C24.3796 10.7892 24.4103 10.6018 24.7506 10.3129C25.0847 10.3014 25.3792 10.3427 25.6313 10.5795C25.938 10.8684 26.1908 11.1336 26.2202 11.5498C26.0344 11.7365 25.9934 11.8252 25.7324 11.8989C25.6224 11.7453 25.5547 11.6411 25.4215 11.4997C25.125 11.1851 24.6297 11.2209 24.2266 11.1993Z" fill="#CF1358"/>
<path d="M3.29064 47.8433C3.21959 47.8284 3.14852 47.8148 3.07815 47.7986C2.0704 47.5679 1.11594 46.8858 0.592596 46.0021C0.191545 45.3248 0.141662 44.7091 0.102718 43.9404C-0.0209451 41.4829 0.0706066 38.978 0.0719731 36.515L0.0658348 23.2915L0.0617248 14.8979C0.0610415 13.3869 -0.143234 11.5228 0.22024 10.064C0.891847 10.3245 1.72742 10.2169 2.44139 10.2067C2.39493 11.4314 2.56779 15.7809 2.30407 16.5035C1.89892 14.8674 2.23301 12.2218 2.29382 10.4767L2.08885 10.4151C1.75339 10.6154 1.65432 10.725 1.56004 11.1121C1.29904 12.1859 1.5819 13.5947 1.58395 14.7185L1.55526 25.452C2.57326 26.5732 3.57075 27.1558 5.13055 27.2417C5.94632 27.2864 6.78394 27.3419 7.59766 27.2553L8.03903 27.5036C9.94522 27.6294 14.3786 27.0644 15.7437 28.5009C15.9904 28.7608 16.0484 29.068 16.0074 29.411C15.9282 30.0647 15.3598 30.6398 14.9129 31.0749C14.5501 31.7305 14.309 32.0472 14.5419 32.8125C14.5631 32.8808 14.587 32.9485 14.6096 33.0161C15.1001 33.1826 15.467 33.3132 15.7184 33.8064C16.0245 34.408 15.9712 35.0048 15.7499 35.6253C15.6016 36.0394 15.3126 36.3147 14.9908 36.6023C15.4821 36.8364 15.7499 36.8966 15.9555 37.4528C16.1523 37.984 16.1277 38.8873 15.8729 39.3907C15.8694 39.3982 15.8626 39.4043 15.8578 39.411L15.8004 40.5133C15.9842 40.7819 16.0833 41.0086 16.1823 41.3171C16.0935 41.6953 16.0922 41.7968 15.7512 42.0303C14.751 42.7157 5.48652 42.3524 4.10368 41.9125C3.2599 41.6432 2.4332 41.3022 1.62358 40.945C1.53954 42.263 1.17675 44.1482 2.12984 45.2145C2.76524 45.9257 3.91646 46.72 4.32844 47.5516C4.01416 47.7986 3.68076 47.7824 3.29064 47.8433Z" fill="#452B90"/>
<path d="M5.759 39.3344L12.171 39.3215C13.3619 39.3208 14.6819 39.2261 15.8563 39.4115L15.7989 40.5137C15.5878 40.6775 15.4696 40.7837 15.1991 40.827C14.026 41.0151 12.7443 40.8033 11.5582 40.7945C10.2539 40.7851 8.94896 40.9109 7.64538 40.9285C6.94849 40.9373 6.17509 40.9427 5.64627 40.438C5.52534 39.9555 5.61553 39.8006 5.759 39.3344Z" fill="white"/>
<path d="M13.537 36.7136C14.0214 36.6966 14.5051 36.6452 14.9881 36.6019C15.4794 36.836 15.7472 36.8963 15.9528 37.4525C16.1496 37.9836 16.125 38.8869 15.8702 39.3903C15.8668 39.3978 15.8599 39.4039 15.8551 39.4106C14.6807 39.2252 13.3607 39.32 12.1698 39.3206L5.75781 39.3335C6.14315 38.4376 6.26545 37.6406 6.2429 36.6709C7.99263 36.8645 11.8296 36.9964 13.537 36.7136Z" fill="#58359A"/>
<path d="M1.40259 29.4509C2.66382 29.4915 4.18877 29.4198 5.35845 29.9429C5.75062 30.5992 6.09087 30.9192 6.79459 31.221C6.92986 31.9335 6.84173 32.4295 6.58005 33.1014L6.18105 33.4011C5.9754 33.6183 5.76702 33.8247 5.5928 34.0683C5.05305 34.3775 4.59597 34.9141 4.14641 35.3451C3.29443 35.4696 2.46159 35.5305 1.60005 35.563C1.30694 33.6082 1.43675 31.4308 1.40259 29.4509Z" fill="#58359A"/>
<path d="M14.6076 33.0161C15.0982 33.1825 15.4651 33.3131 15.7165 33.8064C16.0226 34.4079 15.9693 35.0047 15.7479 35.6252C15.5996 36.0393 15.3106 36.3147 14.9889 36.6022C14.5058 36.6455 14.0221 36.697 13.5377 36.7139C11.8303 36.9967 7.99334 36.8648 6.24361 36.6713C6.10014 36.5312 5.94641 36.3905 5.83026 36.2254C5.36226 35.5609 5.4825 34.8186 5.59182 34.0682C5.76604 33.8246 5.97442 33.6183 6.18007 33.4011L6.57907 33.1013C8.91842 32.7495 12.1788 33.012 14.6076 33.0161Z" fill="#F37316"/>
<path d="M14.6072 33.0165C15.0978 33.183 15.4647 33.3136 15.7161 33.8069C16.0222 34.4084 15.9689 35.0052 15.7475 35.6257C15.5993 36.0398 15.3103 36.3151 14.9885 36.6027C14.5054 36.646 14.0217 36.6974 13.5373 36.7144C13.6979 36.4261 13.6234 36.5269 13.8126 36.2962C14.2752 35.7326 14.9352 34.9964 14.847 34.2095C14.8402 34.1425 14.7978 33.8772 14.778 33.8454C14.2998 33.0571 7.27899 34.2128 6.17969 33.4015L6.57869 33.1018C8.91804 32.75 12.1784 33.0125 14.6072 33.0165Z" fill="#F3A815"/>
<path d="M8.03898 27.5037C9.94517 27.6296 14.3786 27.0646 15.7437 28.5011C15.9903 28.7609 16.0484 29.0681 16.0074 29.4112C15.9281 30.0648 15.3597 30.64 14.9129 31.075C14.5501 31.7307 14.3089 32.0474 14.5419 32.8126C14.5631 32.881 14.587 32.9486 14.6095 33.0163C12.1807 33.0122 8.92033 32.7497 6.58098 33.1016C6.84265 32.4297 6.93079 31.9337 6.79552 31.2212C6.0918 30.9194 5.75154 30.5994 5.35938 29.943C5.50353 29.2732 5.71534 28.7413 6.03782 28.1337C6.72719 27.5484 7.14737 27.5139 8.03898 27.5037Z" fill="#F06019"/>
<path d="M8.03632 27.5039C9.9425 27.6298 14.3759 27.0648 15.741 28.5013C15.9876 28.7611 16.0457 29.0683 16.0047 29.4113C15.9255 30.065 15.357 30.6401 14.9102 31.0752L14.6602 31.0725C14.4538 30.5231 14.5208 30.0826 14.7114 29.5379C14.8303 29.1975 14.9191 28.9404 14.9416 28.5825C14.9123 28.5513 14.887 28.5168 14.8535 28.4911C13.9742 27.7955 7.49452 28.1372 6.03516 28.1339C6.72453 27.5486 7.14471 27.5141 8.03632 27.5039Z" fill="#F2BE2A"/>
<path d="M14.66 31.0723L14.91 31.075C14.5472 31.7307 14.306 32.0474 14.539 32.8126C14.5602 32.881 14.5841 32.9486 14.6067 33.0163C12.1778 33.0122 8.91748 32.7497 6.57812 33.1016C6.8398 32.4297 6.92794 31.9337 6.79266 31.2212C7.87625 31.4242 13.6789 31.37 14.66 31.0723Z" fill="#842394"/>
<defs>
<linearGradient id="paint0_linear_8396_50610" x1="0.403533" y1="42.8067" x2="41.9435" y2="7.45416" gradientUnits="userSpaceOnUse">
<stop stop-color="#603B9F"/>
<stop offset="1" stop-color="#8A52AF"/>
</linearGradient>
<linearGradient id="paint1_linear_8396_50610" x1="16.2676" y1="20.3634" x2="21.1382" y2="30.7956" gradientUnits="userSpaceOnUse">
<stop stop-color="#4F3096"/>
<stop offset="1" stop-color="#6543A4"/>
</linearGradient>
<linearGradient id="paint2_linear_8396_50610" x1="17.7993" y1="15.5779" x2="29.2823" y2="9.15055" gradientUnits="userSpaceOnUse">
<stop stop-color="#EBAA2D"/>
<stop offset="1" stop-color="#F0E16F"/>
</linearGradient>
<linearGradient id="paint3_linear_8396_50610" x1="19.664" y1="14.7842" x2="24.0599" y2="12.2396" gradientUnits="userSpaceOnUse">
<stop stop-color="#EBAC4C"/>
<stop offset="1" stop-color="#EECA59"/>
</linearGradient>
</defs>
</svg>
