<svg width="47" height="44" viewBox="0 0 47 44" fill="none" xmlns="http://www.w3.org/2000/svg">
<path d="M35.7781 31.4143L37.4012 31.4623C38.6067 31.7552 39.6489 32.2696 40.2959 33.4023C41.1681 34.9287 41.1411 38.0387 40.636 39.7081C40.2247 41.0669 39.3862 41.996 38.1571 42.631C37.5763 42.9308 37.0414 43.1436 36.3837 43.2025C33.8183 43.4325 31.0874 43.2248 28.5042 43.2266C25.8081 43.2288 14.3672 43.5841 12.5714 43.0017C11.9498 42.8003 11.421 42.4805 10.8899 42.1041C10.7342 41.9685 10.5945 41.8306 10.4568 41.675C8.96887 39.9959 8.98245 37.668 9.11092 35.5271C9.24151 33.3497 10.0079 32.9126 11.4495 31.6191C12.0573 31.4257 12.6564 31.4423 13.2854 31.4377L16.4378 31.4555C18.4902 31.4515 20.5561 31.3977 22.6063 31.4881C23.1069 31.412 23.6474 31.4435 24.1547 31.4349L35.7781 31.4143Z" fill="#333494"/>
<path d="M28.2575 38.6091C30.99 38.6165 34.4578 38.394 37.0978 38.6886C37.2482 39.1005 37.1994 39.5828 37.1982 40.0176C35.5123 40.0417 29.3687 40.2413 28.1581 39.9141C28.0279 39.4981 28.0408 39.1721 28.0683 38.7395L28.2575 38.6091Z" fill="white"/>
<path d="M28.0772 34.9172L37.2784 34.94L37.2638 36.3915L28.0688 36.3858C28.0559 35.8978 28.0739 35.4052 28.0772 34.9172Z" fill="white"/>
<path d="M15.5111 37.3085C15.4186 36.7581 15.4077 36.2261 15.6415 35.7066C15.8749 35.1877 16.2634 34.7924 16.7971 34.6058C17.5349 34.349 18.129 34.5412 18.7878 34.8982C19.2638 35.4571 19.6058 35.976 19.5403 36.7495C19.4892 37.3525 19.1895 37.8972 18.7149 38.2599C18.2324 38.6283 17.6247 38.7891 17.0306 38.6598C16.4389 38.5311 15.9796 38.1649 15.6784 37.6352C15.6179 37.5293 15.5652 37.4183 15.5111 37.3085Z" fill="white"/>
<path d="M13.2854 31.4405L16.4378 31.4582C18.4902 31.4542 20.5561 31.4004 22.6063 31.4908C21.4564 32.5406 20.3769 33.682 19.1357 34.6179C19.0158 34.7083 18.9007 34.8079 18.785 34.9034C18.1262 34.5464 17.5321 34.3542 16.7943 34.6111C16.2606 34.7976 15.8721 35.1929 15.6387 35.7118C15.4049 36.2313 15.4159 36.7633 15.5083 37.3137C14.8682 37.8938 14.3038 38.5884 13.7001 39.2114C12.77 40.1719 11.7755 41.1062 10.8899 42.1068C10.7342 41.9712 10.5945 41.8333 10.4568 41.6777C8.96887 39.9986 8.98245 37.6707 9.11092 35.5299C9.24151 33.3524 10.0079 32.9153 11.4495 31.6218C12.0573 31.4284 12.6564 31.445 13.2854 31.4405Z" fill="#5C44A4"/>
<path d="M17.1047 4.97412C18.8156 2.63077 21.4992 1.22854 24.2997 0.812044C27.5739 0.325182 30.8626 1.06891 33.5144 3.1222C36.0213 5.06336 37.3509 7.84953 38.076 10.9097C40.6497 11.3337 42.9591 12.5957 44.5104 14.7749C45.9572 16.8076 46.492 19.2493 46.0919 21.7214C45.7091 24.0865 44.4716 26.0906 42.5506 27.4705C41.0819 28.5255 39.4448 29.0118 37.6741 29.204C37.7791 28.3927 37.8088 27.5586 37.8689 26.7416C37.884 24.202 38.0647 21.5664 37.5518 19.068C36.7212 16.5095 35.7211 14.3715 33.836 12.4413C31.1427 9.68313 27.6968 8.21396 23.8883 8.20995C20.0069 8.31808 16.6544 10.1431 14.0171 12.991C11.3959 15.8213 10.2742 19.7242 10.393 23.5647C10.4272 24.6729 10.5474 25.7816 10.6524 26.8847C10.7497 27.5477 10.9145 28.2755 10.9119 28.9425C7.91736 28.8069 5.11906 28.5329 2.98227 26.1289C1.52568 24.4898 0.778138 22.2895 0.900091 20.0846C1.01963 17.9226 1.96523 15.7864 3.5665 14.3475C4.46294 13.542 5.45927 13.0488 6.6091 12.7307C6.5926 10.4063 7.05465 8.2603 8.71424 6.55886C10.0836 5.15491 12.0252 4.37856 13.9618 4.38199C15.066 4.38371 16.0565 4.65088 17.1047 4.97412Z" fill="#68CCCC"/>
<path d="M24.1268 2.66576C27.4829 2.34023 30.0696 2.53761 32.764 4.80945C34.7614 6.49316 36.1061 9.0047 36.3311 11.6421C36.3586 11.9619 36.3783 12.2817 36.3901 12.6027C38.2152 12.7388 40.8529 13.4791 42.1325 14.9031C43.6652 16.5966 44.5193 18.3861 44.4172 20.7306C44.3437 22.4229 43.6708 24.0042 42.4406 25.1553C41.1161 26.395 39.6148 26.7383 37.8678 26.7457C37.8829 24.2061 38.0636 21.5705 37.5507 19.0721C36.7201 16.5136 35.72 14.3756 33.8348 12.4454C31.1415 9.68723 27.6956 8.21806 23.8872 8.21405L24.0988 8.0367C24.3743 6.5681 24.1398 4.22761 24.1268 2.66576Z" fill="#E6BEE3"/>
<path d="M17.5708 7.40619C19.2922 4.82657 21.1354 3.40545 24.1278 2.66972C24.1407 4.23157 24.3753 6.57207 24.0998 8.04066L23.8882 8.21802C20.0067 8.32615 16.6542 10.1512 14.0169 12.9991C11.3957 15.8293 10.2741 19.7322 10.3928 23.5728C10.4271 24.681 10.5473 25.7897 10.6523 26.8927C9.01838 26.9476 7.5064 26.9385 6.01732 26.161C4.57476 25.407 3.49935 24.0162 3.01148 22.452C2.48348 20.7592 2.65325 18.9485 3.49115 17.3912C4.73667 15.0764 6.65082 14.4992 8.98819 13.8487C8.52378 12.2834 8.36782 10.7193 9.10054 9.19689C9.73921 7.87017 10.9428 6.87528 12.3256 6.44964C14.261 5.8535 15.8734 6.50799 17.5708 7.40619Z" fill="white"/>
<path d="M23.8911 8.21299C27.6995 8.21699 31.1454 9.68616 33.8387 12.4443C35.7238 14.3746 36.7239 16.5125 37.5545 19.071C38.0675 21.5694 37.8868 24.2051 37.8716 26.7447C37.8116 27.5616 37.7818 28.3958 37.6769 29.207C37.5893 29.9582 37.5181 30.7168 37.4047 31.464L35.7816 31.4159L24.1582 31.4365C23.6509 31.4451 23.1104 31.4136 22.6098 31.4897C20.5596 31.3993 18.4938 31.4531 16.4413 31.4571L13.289 31.4394C12.6599 31.444 12.0608 31.4274 11.453 31.6207C11.1613 30.7797 11.0136 29.8306 10.9147 28.9456C10.9172 28.2785 10.7525 27.5508 10.6552 26.8877C10.5502 25.7847 10.43 24.6759 10.3957 23.5678C10.277 19.7272 11.3986 15.8243 14.0198 12.9941C16.6571 10.1461 20.0096 8.32111 23.8911 8.21299Z" fill="#F27718"/>
<path d="M24.1044 10.3477C27.387 10.4981 30.1218 11.5485 32.5311 13.8758C29.8221 16.7444 27.0317 19.582 24.1785 22.3013C24.0034 20.4831 24.325 18.6026 24.0713 16.7953C24.165 14.6539 24.1044 12.4914 24.1044 10.3477Z" fill="#F29822"/>
<path d="M23.8911 8.21299C27.6995 8.21699 31.1454 9.68616 33.8387 12.4443C35.7238 14.3746 36.7239 16.5125 37.5545 19.071C38.0675 21.5694 37.8868 24.2051 37.8716 26.7447C37.8116 27.5616 37.7818 28.3958 37.6769 29.207C37.5893 29.9582 37.5181 30.7168 37.4047 31.464L35.7816 31.4159C36.0073 28.2533 36.0297 24.9259 35.8967 21.7565C35.7715 18.7746 34.7226 15.9153 32.5305 13.8717C30.1212 11.5444 27.3864 10.494 24.1038 10.3435C20.8517 10.4282 17.7527 12.089 15.5268 14.4604C13.1331 17.0103 12.2828 20.1265 12.3945 23.6061C12.4429 25.109 12.6083 26.6148 12.7835 28.1069C12.8935 29.2293 13.167 30.3232 13.289 31.4394C12.6599 31.444 12.0608 31.4274 11.453 31.6207C11.1613 30.7797 11.0136 29.8306 10.9147 28.9456C10.9172 28.2785 10.7525 27.5508 10.6552 26.8877C10.5502 25.7847 10.43 24.6759 10.3957 23.5678C10.277 19.7272 11.3986 15.8243 14.0198 12.9941C16.6571 10.1461 20.0096 8.32111 23.8911 8.21299Z" fill="#F1471F"/>
<path d="M12.779 28.1059C12.6038 26.6139 12.4383 25.1081 12.39 23.6051C12.2782 20.1256 13.1286 17.0093 15.5222 14.4594C17.7481 12.0881 20.8472 10.4272 24.0992 10.3426C24.0992 12.4862 24.1598 14.6488 24.0661 16.7902C24.3198 18.5975 23.9982 20.478 24.1733 22.2962C24.1121 22.8236 24.1105 23.3403 24.111 23.87C24.1323 26.3907 24.056 28.9172 24.1537 31.4356C23.6463 31.4442 23.1059 31.4127 22.6053 31.4888C20.5551 31.3984 18.4892 31.4522 16.4367 31.4562L13.2844 31.4384C13.1624 30.3223 12.8889 29.2284 12.779 28.1059Z" fill="#F6D028"/>
<path d="M24.0667 16.7902C24.3204 18.5975 23.9988 20.478 24.1739 22.2962C24.1127 22.8236 24.111 23.3403 24.1116 23.87C24.1329 26.3907 24.0566 28.9172 24.1542 31.4356C23.6469 31.4442 23.1064 31.4127 22.6058 31.4888C20.5556 31.3984 18.4898 31.4522 16.4373 31.4562L13.285 31.4384C13.163 30.3223 12.8895 29.2284 12.7795 28.1059C14.6069 26.6619 16.1838 24.9639 17.8089 23.2945L24.0667 16.7902Z" fill="#ECB411"/>
<path d="M16.4392 31.4562C18.824 28.7793 21.4011 26.1996 24.1135 23.87C24.1348 26.3907 24.0585 28.9172 24.1562 31.4356C23.6488 31.4442 23.1084 31.4127 22.6077 31.4888C20.5576 31.3984 18.4917 31.4522 16.4392 31.4562Z" fill="#F29822"/>
</svg>
