<svg width="78" height="76" viewBox="0 0 78 76" fill="none" xmlns="http://www.w3.org/2000/svg">
<circle opacity="0.1" cx="30.5156" cy="30" r="30" fill="#03C343"/>
<path d="M68.6942 52.366C68.5919 51.9583 68.1838 51.6535 67.7737 51.5515L62.9704 50.4303C62.5613 49.31 62.1532 48.0878 61.5385 47.0685L64.1968 42.8922C64.5036 42.3825 64.4014 41.7719 63.9923 41.2623L61.3349 38.614C60.9258 38.2063 60.2109 38.1043 59.6995 38.4101L55.5089 41.0584C54.3849 40.4478 53.2598 39.9381 52.0324 39.6323L51.0116 34.8445C50.9083 34.2329 50.3979 33.8261 49.7852 33.8261H46.0018C45.3891 33.8261 44.8777 34.2329 44.7754 34.8445L43.6513 39.7343C42.4249 40.0401 41.3009 40.5497 40.1758 41.1603L35.9852 38.4101C35.4738 38.1043 34.8601 38.2063 34.3497 38.614L31.6914 41.2623C31.2833 41.67 31.182 42.3825 31.4879 42.8922L34.1451 47.0685C33.5325 48.1897 33.0211 49.31 32.7142 50.5322L27.91 51.6535C27.2973 51.7544 26.8872 52.2641 26.8872 52.8757V52.9776H26.7859C22.9022 51.8563 20.0404 47.782 20.0404 43.2999C20.0404 38.8169 23.3104 34.8445 27.91 33.9281C28.0123 33.9281 28.0123 33.9281 28.1146 33.9281C28.9328 33.9281 31.6914 33.9281 33.7361 36.1686C34.2475 36.6783 34.9634 36.7802 35.5761 36.2715C36.0875 35.7619 36.1898 35.0483 35.6784 34.4378C33.5325 31.9923 30.7719 31.3807 29.1364 31.2798C29.8523 26.492 35.167 23.6388 39.6643 25.6765C40.278 25.9823 40.994 25.6765 41.3008 25.0659C43.3445 20.9905 47.4327 18.5462 52.0324 18.5462C59.3926 18.5462 65.1163 24.9629 63.89 32.1962C63.7877 33.0117 64.4014 33.7242 65.2186 33.7242C70.7388 33.6223 75.1339 38.0024 75.1339 43.2999C74.9293 47.3743 72.3733 50.9399 68.6942 52.366ZM66.2415 55.5239L61.6418 56.5423C61.1304 56.6452 60.8235 57.0519 60.7212 57.4597C60.4154 58.8857 59.8007 60.3118 58.9845 61.6359C58.6776 62.0437 58.6776 62.5533 58.9845 62.9601L61.5385 66.9335L60.3121 68.1557L56.3262 65.6083C55.917 65.3035 55.4056 65.3035 54.9975 65.6083C53.7701 66.4238 52.3392 67.0344 50.806 67.3402C50.2956 67.4421 49.9888 67.8499 49.8865 68.2576L48.8636 72.8416H47.1269L46.1051 68.2576C46.0018 67.7479 45.5937 67.4421 45.1845 67.3402C43.7536 67.0344 42.3217 66.4238 40.994 65.6083C40.5849 65.3035 40.0745 65.3035 39.6643 65.6083L35.6784 68.1557L34.452 66.9335L37.007 62.9601C37.3139 62.5533 37.3139 62.0437 37.007 61.6359C36.1898 60.4137 35.5761 58.9877 35.2703 57.4597C35.167 56.95 34.7588 56.6452 34.3497 56.5423L29.7501 55.5239V53.7921L34.3497 52.7737C34.8601 52.6718 35.167 52.2641 35.2703 51.8563C35.5761 50.4303 36.1898 49.0042 37.007 47.6801C37.3139 47.2723 37.3139 46.7637 37.007 46.356L34.452 42.3825L35.6784 41.1603L39.6643 43.7077C40.0745 44.0125 40.5849 44.0125 40.994 43.7077C42.2204 42.8922 43.6513 42.2816 45.1845 41.9758C45.6959 41.8739 46.0018 41.4662 46.1051 41.0584L47.1269 36.4744H48.8636L49.8865 41.0584C49.9888 41.5681 50.3978 41.8739 50.806 41.9758C52.3392 42.2816 53.6689 42.8922 54.9975 43.7077C55.4056 44.0125 55.917 44.0125 56.3262 43.7077L60.3121 41.1603L61.5385 42.3825L58.9845 46.356C58.6776 46.7637 58.6776 47.2723 58.9845 47.6801C59.8007 49.0042 60.4154 50.3283 60.7212 51.8563C60.8235 52.366 61.2316 52.6718 61.6418 52.7737L66.2415 53.7921V55.5239ZM77.4844 43.198C77.4844 36.9841 72.5779 31.7885 66.446 31.1779C67.0587 23.0282 60.3121 15.9998 51.9311 15.9998C46.7178 15.9998 42.0158 18.75 39.4598 22.9263C33.2257 20.9905 26.8872 25.2698 26.3768 31.5846C21.1645 33.1136 17.4844 37.7985 17.4844 43.198C17.4844 48.9023 21.1645 53.9959 26.2745 55.422C26.4791 55.5239 26.6836 55.422 26.9905 55.422V56.5423C26.9905 57.1539 27.3986 57.6635 28.0123 57.7645L32.8165 58.8857C33.1234 60.1079 33.6338 61.2292 34.2475 62.3485L31.5901 66.5257C31.2833 67.0344 31.3856 67.646 31.7947 68.1557L34.452 70.8039C34.8601 71.2117 35.5761 71.3136 36.0875 71.0078L40.278 68.3595C41.4021 68.9701 42.5272 69.4798 43.7536 69.7856L44.8777 74.5735C44.98 75.1841 45.4914 75.5918 46.1051 75.5918H49.8865C50.5002 75.5918 51.0116 75.1841 51.1128 74.5735L52.2379 69.7856C53.4633 69.4798 54.5884 68.9701 55.7125 68.3595L59.904 71.0078C60.4154 71.3136 61.0281 71.2117 61.5385 70.8039L64.1968 68.1557C64.6049 67.7479 64.7082 67.0344 64.4014 66.5257L61.5385 62.3485C62.1532 61.2292 62.6626 60.1079 62.9704 58.8857L67.7737 57.7645C68.3873 57.6635 68.7965 57.1539 68.7965 56.5423V55.0143C71.1469 54.3017 73.2938 52.8757 74.827 50.9399C76.5648 48.6994 77.4844 46.0501 77.4844 43.198Z" fill="#03C343"/>
<path d="M60.1079 32.5021C60.8421 32.5021 61.4355 33.0945 61.4355 33.8262C61.4355 34.558 60.8421 35.1504 60.1079 35.1504C59.3737 35.1504 58.7782 34.558 58.7782 33.8262C58.7782 33.0945 59.3737 32.5021 60.1079 32.5021Z" fill="#03C343"/>
<path d="M60.2104 31.2803C60.9254 31.2803 61.4358 30.6687 61.4358 29.9551C61.3345 26.1866 59.4944 23.9451 57.9612 22.8248C56.3257 21.6026 54.7925 21.1949 54.6903 21.1949C53.9743 20.991 53.3616 21.5007 53.157 22.1113C52.9535 22.8248 53.4629 23.4364 54.0766 23.6393C54.2811 23.6393 58.6772 24.7606 58.8808 30.0571C58.8808 30.7706 59.4944 31.2803 60.2104 31.2803Z" fill="#03C343"/>
<path d="M47.8433 63.062C43.2437 63.062 39.4603 59.2935 39.4603 54.7095C39.4603 50.1255 43.2437 46.356 47.8433 46.356C52.443 46.356 56.2243 50.1255 56.2243 54.7095C56.2243 59.2935 52.443 63.062 47.8433 63.062ZM47.8433 43.8097C41.8127 43.8097 36.9062 48.6995 36.9062 54.7095C36.9062 60.7196 41.8127 65.6084 47.8433 65.6084C53.8739 65.6084 58.7794 60.7196 58.7794 54.7095C58.7794 48.6995 53.8739 43.8097 47.8433 43.8097Z" fill="#03C343"/>
<path d="M47.8425 48.9028C47.1265 48.9028 46.5128 49.5144 46.5128 50.228C46.5128 50.9405 47.1265 51.5521 47.8425 51.5521C49.6816 51.5521 51.1125 52.9782 51.1125 54.812C51.1125 56.6458 49.6816 58.0708 47.8425 58.0708C46.0014 58.0708 44.5705 56.6458 44.5705 54.812C44.5705 54.0984 43.9578 53.4868 43.2429 53.4868C42.5269 53.4868 41.9132 54.0984 41.9132 54.812C41.9132 57.9699 44.5705 60.6182 47.7392 60.6182C50.9079 60.6182 53.5662 57.9699 53.5662 54.812C53.6685 51.4502 51.1125 48.9028 47.8425 48.9028Z" fill="#03C343"/>
<path d="M75.44 69.4797C76.1732 69.4797 76.7687 70.0731 76.7687 70.8038C76.7687 71.5355 76.1732 72.1279 75.44 72.1279C74.7058 72.1279 74.1113 71.5355 74.1113 70.8038C74.1113 70.0731 74.7058 69.4797 75.44 69.4797Z" fill="#03C343"/>
<path d="M71.6586 69.4797H67.7739C67.059 69.4797 66.4463 70.0913 66.4463 70.8038C66.4463 71.5173 67.059 72.1279 67.7739 72.1279H71.6586C72.3736 72.1279 72.9873 71.5173 72.9873 70.8038C72.885 70.0913 72.3736 69.4797 71.6586 69.4797Z" fill="#03C343"/>
<path d="M75.44 65.6085C76.1732 65.6085 76.7687 66.202 76.7687 66.9337C76.7687 67.6644 76.1732 68.2578 75.44 68.2578C74.7058 68.2578 74.1113 67.6644 74.1113 66.9337C74.1113 66.202 74.7058 65.6085 75.44 65.6085Z" fill="#03C343"/>
<path d="M71.6586 65.7101H67.7739C67.059 65.7101 66.4463 66.3217 66.4463 67.0342C66.4463 67.7478 67.059 68.3594 67.7739 68.3594H71.6586C72.3736 68.3594 72.9873 67.7478 72.9873 67.0342C72.885 66.2198 72.3736 65.7101 71.6586 65.7101Z" fill="#03C343"/>
<path d="M75.44 61.84C76.1732 61.84 76.7687 62.4324 76.7687 63.1641C76.7687 63.8958 76.1732 64.4883 75.44 64.4883C74.7058 64.4883 74.1113 63.8958 74.1113 63.1641C74.1113 62.4324 74.7058 61.84 75.44 61.84Z" fill="#03C343"/>
<path d="M71.6586 61.84H67.7739C67.059 61.84 66.4463 62.4506 66.4463 63.1641C66.4463 63.8777 67.059 64.4883 67.7739 64.4883H71.6586C72.3736 64.4883 72.9873 63.8777 72.9873 63.1641C72.885 62.4506 72.3736 61.84 71.6586 61.84Z" fill="#03C343"/>
<path d="M75.44 73.2492C76.1732 73.2492 76.7687 73.8416 76.7687 74.5733C76.7687 75.304 76.1732 75.8975 75.44 75.8975C74.7058 75.8975 74.1113 75.304 74.1113 74.5733C74.1113 73.8416 74.7058 73.2492 75.44 73.2492Z" fill="#03C343"/>
<path d="M71.6586 73.3517H67.7739C67.059 73.3517 66.4463 73.9623 66.4463 74.6759C66.4463 75.3884 67.059 76 67.7739 76H71.6586C72.3736 76 72.9873 75.3884 72.9873 74.6759C72.885 73.8604 72.3736 73.3517 71.6586 73.3517Z" fill="#03C343"/>
</svg>
