<svg width="20" height="20" viewBox="0 0 20 20" fill="none" xmlns="http://www.w3.org/2000/svg">
<path d="M9.58218 1.22666C6.84546 1.23252 4.33472 2.46861 3.01578 4.75322C2.81175 5.10654 2.67085 5.47264 2.53765 5.84697C4.77503 2.77389 8.57249 1.58654 11.4123 3.226C14.4912 5.00358 15.2661 9.40775 13.1468 13.0785C12.1369 14.8278 10.6524 16.0873 9.03941 16.7395C12.7652 17.8825 16.6839 16.7275 18.4519 13.6651C20.5623 10.0099 18.7998 5.04119 14.5435 2.58389C12.9475 1.6624 11.2241 1.22307 9.58218 1.22658V1.22666ZM8.61488 3.17764C7.03843 3.18244 5.32941 3.82393 3.83933 5.10764C0.763042 7.75795 -0.23188 12.1565 1.61734 14.932C1.79613 15.2004 2.00406 15.4222 2.22023 15.6405C0.815385 12.9385 1.21984 9.56029 3.27242 7.79201C5.49781 5.87471 8.79753 6.57873 10.6544 9.36592C11.5394 10.6942 11.932 12.2531 11.8625 13.7323C13.8574 11.1101 14.3237 7.64522 12.7745 5.31998H12.7744C11.821 3.88889 10.2931 3.17248 8.61488 3.17764ZM6.13988 7.38506C5.09456 7.3883 4.06066 7.77373 3.28636 8.54326C1.37824 10.4397 1.41703 14.0976 3.33105 16.5878C5.24511 19.078 8.34367 19.5594 10.2518 17.6629C8.41163 18.821 6.93613 18.6903 5.22136 16.8459C3.68035 15.1885 4.26687 12.049 6.18308 10.1446C7.09621 9.23701 8.18027 8.74568 9.21726 8.67209C8.3782 7.81143 7.25257 7.3817 6.13992 7.3851L6.13988 7.38506Z" fill="#FA450D"/>
</svg>
