<svg width="20" height="21" viewBox="0 0 20 21" fill="none" xmlns="http://www.w3.org/2000/svg">
<path d="M9.58218 1.72688C6.84546 1.73273 4.33472 2.96883 3.01578 5.25344C2.81175 5.60676 2.67085 5.97285 2.53765 6.34719C4.77503 3.2741 8.57249 2.08676 11.4123 3.72621C14.4912 5.50379 15.2661 9.90797 13.1468 13.5787C12.1369 15.328 10.6524 16.5875 9.03941 17.2397C12.7652 18.3827 16.6839 17.2277 18.4519 14.1654C20.5623 10.5101 18.7998 5.54141 14.5435 3.0841C12.9475 2.16262 11.2241 1.72328 9.58218 1.7268V1.72688ZM8.61488 3.67785C7.03843 3.68266 5.32941 4.32414 3.83933 5.60785C0.763042 8.25816 -0.23188 12.6568 1.61734 15.4322C1.79613 15.7006 2.00406 15.9225 2.22023 16.1407C0.815385 13.4387 1.21984 10.0605 3.27242 8.29223C5.49781 6.37492 8.79753 7.07895 10.6544 9.86613C11.5394 11.1944 11.932 12.7534 11.8625 14.2325C13.8574 11.6103 14.3237 8.14543 12.7745 5.82019H12.7744C11.821 4.3891 10.2931 3.6727 8.61488 3.67785ZM6.13988 7.88527C5.09456 7.88852 4.06066 8.27394 3.28636 9.04348C1.37824 10.94 1.41703 14.5978 3.33105 17.088C5.24511 19.5782 8.34367 20.0596 10.2518 18.1632C8.41163 19.3212 6.93613 19.1905 5.22136 17.3461C3.68035 15.6887 4.26687 12.5493 6.18308 10.6448C7.09621 9.73723 8.18027 9.2459 9.21726 9.1723C8.3782 8.31164 7.25257 7.88191 6.13992 7.88531L6.13988 7.88527Z" fill="#03C343"/>
</svg>
