<svg width="20" height="20" viewBox="0 0 20 20" fill="none" xmlns="http://www.w3.org/2000/svg">
<path d="M9.58218 1.22764C6.84546 1.2335 4.33472 2.46959 3.01578 4.7542C2.81175 5.10752 2.67085 5.47361 2.53765 5.84795C4.77503 2.77486 8.57249 1.58752 11.4123 3.22697C14.4912 5.00455 15.2661 9.40873 13.1468 13.0794C12.1369 14.8287 10.6524 16.0883 9.03941 16.7405C12.7652 17.8835 16.6839 16.7285 18.4519 13.6661C20.5623 10.0109 18.7998 5.04217 14.5435 2.58486C12.9475 1.66338 11.2241 1.22404 9.58218 1.22756V1.22764ZM8.61488 3.17861C7.03843 3.18342 5.32941 3.8249 3.83933 5.10861C0.763042 7.75893 -0.23188 12.1575 1.61734 14.933C1.79613 15.2013 2.00406 15.4232 2.22023 15.6415C0.815385 12.9395 1.21984 9.56127 3.27242 7.79299C5.49781 5.87569 8.79753 6.57971 10.6544 9.3669C11.5394 10.6951 11.932 12.2541 11.8625 13.7333C13.8574 11.111 14.3237 7.64619 12.7745 5.32096H12.7744C11.821 3.88986 10.2931 3.17346 8.61488 3.17861ZM6.13988 7.38604C5.09456 7.38928 4.06066 7.77471 3.28636 8.54424C1.37824 10.4407 1.41703 14.0985 3.33105 16.5888C5.24511 19.079 8.34367 19.5604 10.2518 17.6639C8.41163 18.8219 6.93613 18.6913 5.22136 16.8469C3.68035 15.1895 4.26687 12.05 6.18308 10.1456C7.09621 9.23799 8.18027 8.74666 9.21726 8.67307C8.3782 7.8124 7.25257 7.38268 6.13992 7.38608L6.13988 7.38604Z" fill="url(#paint0_linear_8175_31417)"/>
<defs>
<linearGradient id="paint0_linear_8175_31417" x1="0.893276" y1="10.0252" x2="19.3445" y2="10.0252" gradientUnits="userSpaceOnUse">
<stop stop-color="#202CD3"/>
<stop offset="1" stop-color="#0778F9"/>
</linearGradient>
</defs>
</svg>
