<svg width="20" height="20" viewBox="0 0 20 20" fill="none" xmlns="http://www.w3.org/2000/svg">
<path d="M9.57828 1.22666C6.84156 1.23252 4.33081 2.46861 3.01187 4.75322C2.80785 5.10654 2.66695 5.47264 2.53374 5.84697C4.77113 2.77389 8.56859 1.58654 11.4084 3.226C14.4873 5.00358 15.2622 9.40775 13.1429 13.0785C12.133 14.8278 10.6485 16.0873 9.0355 16.7395C12.7613 17.8825 16.68 16.7275 18.448 13.6651C20.5584 10.0099 18.7959 5.04119 14.5396 2.58389C12.9436 1.6624 11.2202 1.22307 9.57828 1.22658V1.22666ZM8.61097 3.17764C7.03453 3.18244 5.3255 3.82393 3.83542 5.10764C0.759135 7.75795 -0.235786 12.1565 1.61343 14.932C1.79222 15.2004 2.00015 15.4222 2.21632 15.6405C0.811479 12.9385 1.21593 9.5603 3.26851 7.79201C5.4939 5.87471 8.79363 6.57873 10.6505 9.36592C11.5355 10.6942 11.9281 12.2531 11.8586 13.7323C13.8535 11.1101 14.3198 7.64522 12.7706 5.31998H12.7705C11.8171 3.88889 10.2892 3.17248 8.61097 3.17764ZM6.13597 7.38506C5.09066 7.3883 4.05675 7.77373 3.28246 8.54326C1.37433 10.4397 1.41312 14.0976 3.32714 16.5878C5.24121 19.078 8.33976 19.5594 10.2478 17.663C8.40773 18.821 6.93222 18.6903 5.21745 16.8459C3.67644 15.1885 4.26296 12.049 6.17917 10.1446C7.0923 9.23701 8.17636 8.74569 9.21335 8.67209C8.37429 7.81143 7.24867 7.3817 6.13601 7.3851L6.13597 7.38506Z" fill="#9D4EDD"/>
</svg>
