<svg width="25" height="24" viewBox="0 0 25 24" fill="none" xmlns="http://www.w3.org/2000/svg">
<path d="M8.707 11.757C8.79997 11.8498 8.87373 11.9601 8.92406 12.0815C8.97438 12.2029 9.00028 12.3331 9.00028 12.4645C9.00028 12.5959 8.97438 12.726 8.92406 12.8474C8.87373 12.9688 8.79997 13.0791 8.707 13.172L6.88 15H16.5C16.7652 15 17.0196 15.1053 17.2071 15.2929C17.3946 15.4804 17.5 15.7348 17.5 16C17.5 16.2652 17.3946 16.5195 17.2071 16.7071C17.0196 16.8946 16.7652 17 16.5 17H6.88L8.708 18.828C8.80091 18.9208 8.87462 19.0311 8.92493 19.1524C8.97524 19.2737 9.00115 19.4038 9.0012 19.5351C9.00125 19.6665 8.97542 19.7965 8.9252 19.9179C8.87498 20.0393 8.80134 20.1496 8.7085 20.2425C8.61565 20.3354 8.50542 20.4091 8.38408 20.4594C8.26275 20.5097 8.1327 20.5356 8.00135 20.5357C7.87 20.5357 7.73993 20.5099 7.61856 20.4597C7.49719 20.4095 7.38691 20.3358 7.294 20.243L3.758 16.707C3.57053 16.5194 3.46521 16.2651 3.46521 16C3.46521 15.7348 3.57053 15.4805 3.758 15.293L7.294 11.757C7.48152 11.5695 7.73583 11.4642 8.001 11.4642C8.26616 11.4642 8.52047 11.5695 8.708 11.757H8.707ZM16.293 3.75697C16.4652 3.5848 16.6943 3.48136 16.9373 3.46608C17.1803 3.4508 17.4206 3.52472 17.613 3.67397L17.707 3.75697L21.243 7.29297C21.4152 7.46517 21.5186 7.69427 21.5339 7.93729C21.5492 8.18032 21.4752 8.42057 21.326 8.61297L21.243 8.70697L17.707 12.242C17.527 12.4213 17.2856 12.5254 17.0316 12.5332C16.7777 12.541 16.5303 12.4518 16.3397 12.2837C16.1492 12.1157 16.0297 11.8814 16.0056 11.6285C15.9815 11.3756 16.0546 11.123 16.21 10.922L16.293 10.828L18.12 8.99997H8.5C8.24512 8.99969 7.99996 8.90209 7.81463 8.72712C7.62929 8.55216 7.51776 8.31302 7.50282 8.05858C7.48789 7.80414 7.57067 7.55359 7.73426 7.35814C7.89785 7.16269 8.1299 7.03708 8.383 7.00697L8.5 6.99997H18.121L16.293 5.16997C16.1055 4.98245 16.0002 4.72814 16.0002 4.46297C16.0002 4.19781 16.1055 3.9445 16.293 3.75697Z" fill="white"/>
</svg>
