<svg width="31" height="26" viewBox="0 0 31 26" fill="none" xmlns="http://www.w3.org/2000/svg">
<path d="M5.67871 19.7929L5.91326 19.8085C6.22452 20.368 5.99347 21.5122 6.04824 22.1585L6.02408 22.2634L5.699 22.3413L5.67871 19.7929Z" fill="#452B90"/>
<path d="M6.02157 22.2626C6.18754 22.3056 6.34403 22.3456 6.49564 22.4282C7.1862 22.804 7.4213 23.4355 7.63821 24.1424C7.5346 24.5022 7.43726 24.8219 7.22228 25.1345C6.96495 25.5086 6.65529 25.881 6.1779 25.9472C5.68724 26.0154 5.16155 25.7783 4.78759 25.4762C4.38009 25.1472 4.11434 24.6542 4.0748 24.1314C4.04276 23.7059 4.12625 23.2758 4.41402 22.9489C4.71198 22.6106 5.25152 22.3616 5.6965 22.3405L6.02157 22.2626Z" fill="#91DBF4"/>
<path d="M12.0011 22.2282L12.3236 22.2649C12.5147 22.264 12.6671 22.3277 12.8351 22.414C13.3037 22.655 13.6919 23.1454 13.8367 23.6509C13.9689 24.1114 13.8877 24.5929 13.6418 25.0012C13.3749 25.4448 12.9206 25.77 12.4128 25.8724C11.9413 25.9676 11.4471 25.8724 11.0528 25.5931C10.6015 25.2729 10.2758 24.6671 10.2045 24.1228C10.1522 23.7234 10.2878 23.343 10.5312 23.0295C10.9208 22.5274 11.386 22.315 12.0011 22.2282Z" fill="#62C9AF"/>
<path d="M18.6457 22.2672C19.0566 22.2748 19.4953 22.4635 19.7917 22.7521C20.1345 23.0862 20.2721 23.558 20.2641 24.0282C20.2544 24.5704 20.0153 25.1016 19.6242 25.4766C19.2469 25.838 18.7493 26.039 18.2247 25.9943C17.6542 25.9455 17.0711 25.6409 16.7275 25.1791C16.4114 24.7541 16.2653 24.1912 16.3554 23.6675C16.4248 23.2635 16.6299 22.8806 16.9747 22.648C17.3085 22.423 17.7851 22.3089 18.1788 22.3974C18.2828 22.4538 18.3468 22.4622 18.4621 22.4791L18.6457 22.2672Z" fill="#F3A815"/>
<path d="M8.98699 4.83599C9.46178 4.06461 9.93985 3.35895 10.5861 2.71774C12.3052 1.01278 14.652 -0.0210781 17.0826 0.000827789C19.3005 0.0206299 21.3345 0.94916 22.8767 2.53111C24.3848 4.07851 25.2908 6.24562 25.2656 8.414C26.7467 8.9048 27.9967 9.54433 28.939 10.8318C29.848 12.0738 30.2366 13.6367 29.9873 15.1572C29.7356 16.6966 28.9162 18.0595 27.6338 18.9551C26.9812 19.4105 26.1127 19.8078 25.3051 19.6684L25.3005 22.3027C25.9413 22.5639 26.4036 22.8563 26.6768 23.5177C26.8553 23.9495 26.8823 24.4222 26.6865 24.8536C26.4895 25.2888 26.103 25.625 25.658 25.7906C25.1729 25.9713 24.6243 25.9502 24.1574 25.7236C23.7398 25.5205 23.4489 25.1683 23.3225 24.7217C23.1861 24.2398 23.2047 23.6171 23.4741 23.1819C23.7865 22.6781 24.2846 22.4493 24.8357 22.3018C24.8395 21.439 24.834 20.5779 24.8189 19.7151C22.7466 19.7551 20.6726 19.7383 18.5999 19.7362L18.5903 21.4361C18.6054 21.7099 18.6067 21.9951 18.6446 22.2665L18.461 22.4784C18.3456 22.4615 18.2816 22.4531 18.1777 22.3966L18.2017 21.5402L18.1835 19.7332L12.341 19.7227L12.3246 22.2644L12.0021 22.2277C11.9773 21.3948 12.0004 20.5585 12.0088 19.7257L6.07322 19.7332C6.07743 20.5425 6.07932 21.3493 6.04556 22.1586C5.99078 21.5123 6.22184 20.3681 5.91058 19.8087L5.67603 19.7931C5.53423 19.7332 5.60248 19.7501 5.43723 19.7353C5.25046 19.7185 5.06314 19.7063 4.87777 19.6755C3.29456 19.4139 1.91512 18.6274 0.999017 17.2952C0.160046 16.0756 -0.182203 14.6179 0.0938194 13.1552C0.375147 11.6647 1.24249 10.429 2.48333 9.57846C2.56164 8.91577 2.63802 8.26319 2.85484 7.62915C3.2781 6.39055 4.18157 5.38071 5.36965 4.83219C6.62463 4.2525 7.73588 4.38563 8.98699 4.83599Z" fill="#58359A"/>
<path d="M18.2017 21.5393C18.4375 21.1922 18.2165 20.3268 18.3221 19.8706L18.4177 19.8997C18.5697 20.3382 18.4695 20.8101 18.5554 21.2646C18.5663 21.3215 18.579 21.3784 18.5903 21.4353C18.6055 21.7091 18.6068 21.9943 18.6446 22.2656L18.4611 22.4775C18.3457 22.4607 18.2817 22.4523 18.1777 22.3958L18.2017 21.5393Z" fill="#452B90"/>
<path d="M3.58976 7.59336C5.39805 7.40378 6.79046 7.39156 8.46697 8.16505C8.71765 11.9781 9.2251 15.4761 12.2355 18.1387C12.6232 18.4816 13.0674 18.7601 13.4459 19.1098C11.9155 19.2332 6.0162 19.3048 4.65828 19.0091C3.3361 18.7209 2.07071 17.8644 1.36609 16.7029C0.689802 15.5878 0.528973 14.1882 0.83914 12.929C1.15916 11.6297 1.9751 10.5925 3.11064 9.91888C3.10327 9.12433 3.16575 8.2847 3.58976 7.59336Z" fill="#AD33A0"/>
<path d="M9.30695 5.78855C10.5203 3.46219 12.0612 1.74627 14.6413 0.934446C16.5283 0.340425 18.6587 0.52454 20.4088 1.44801C22.2407 2.41487 23.6996 4.11267 24.3012 6.10411C24.5866 7.04906 24.6313 7.98601 24.6494 8.96678C26.1752 9.20944 27.4795 9.87255 28.4041 11.1457C29.2419 12.2992 29.5716 13.7434 29.3307 15.1492C29.1101 16.4358 28.3838 17.6037 27.3031 18.3413C26.7385 18.7264 26.0914 18.9855 25.4144 19.082C24.1509 19.2619 22.7148 19.1228 21.4328 19.1186L13.446 19.1085C13.0675 18.7588 12.6233 18.4804 12.2355 18.1374C9.22518 15.4749 8.71773 11.9769 8.46705 8.16379C6.79054 7.3903 5.39813 7.40252 3.58984 7.5921C4.11621 6.51571 4.90693 5.6112 6.06423 5.19833C6.92042 4.89332 7.80899 4.97084 8.61761 5.37654C8.85687 5.49661 9.08254 5.64321 9.30695 5.78855Z" fill="#CB7CC5"/>
<path d="M15.0822 7.13921C16.0291 7.11857 16.9751 7.39535 17.7485 7.94682C18.7194 8.63858 19.4318 9.75079 19.5935 10.938C19.7459 12.0531 19.3842 13.2163 18.7064 14.104C17.9195 15.1349 16.9086 15.5823 15.6611 15.7635C14.6473 15.8127 13.6629 15.6421 12.8125 15.0544C11.8854 14.4136 11.2717 13.3794 11.0744 12.2764C10.8661 11.1128 11.0917 9.78744 11.7974 8.82311C12.6003 7.72607 13.7968 7.31363 15.0822 7.13921Z" fill="white"/>
<path d="M15.268 8.27314C15.3855 8.29842 15.5025 8.33592 15.6183 8.36836C15.7644 8.59249 15.716 8.71297 15.6587 8.97543C15.6491 9.01882 15.6385 9.06222 15.6284 9.10519L15.7644 9.22231C16.025 9.25433 16.2924 9.28086 16.534 9.3904C16.8203 9.52016 16.9403 9.65203 17.054 9.94104C16.9096 10.3792 15.1097 9.75861 14.519 10.1361C14.4129 10.3421 14.4281 10.3956 14.4454 10.6307C14.962 11.0398 15.7602 11.1476 16.3471 11.4631C16.7176 11.6624 16.9568 11.8857 17.0814 12.2901C17.0149 13.2111 16.1673 13.2515 15.6448 13.7765C15.644 13.9821 15.6634 14.1969 15.5682 14.3852C15.5021 14.5158 15.3405 14.5382 15.2129 14.5908C14.7944 14.2673 15.1055 14.1834 15.0483 13.7529C14.6479 13.3476 13.9793 13.5035 13.5439 13.2018C13.4362 13.1273 13.4631 13.0742 13.4492 12.9562C13.4997 12.8732 13.5271 12.77 13.6012 12.7077C13.7987 12.5412 15.3783 13.0451 15.945 12.8395C16.0983 12.6815 16.1779 12.6091 16.1854 12.371C16.1981 11.9561 14.0243 11.4851 13.5991 10.8721C13.504 10.7352 13.4505 10.5426 13.4943 10.3796C13.6597 9.76451 14.4993 9.38029 15.018 9.09466C15.0702 8.79091 15.1392 8.5533 15.268 8.27314Z" fill="#EC1796"/>
</svg>
