<svg width="28" height="26" viewBox="0 0 28 26" fill="none" xmlns="http://www.w3.org/2000/svg">
<path d="M7.58752 5.2742C7.92891 4.4392 8.33217 3.66728 8.89085 2.95845C10.1888 1.31079 12.1818 0.251652 14.2476 0.040453C16.4104 -0.180542 18.5736 0.492241 20.2458 1.8954C22.2033 3.53837 23.026 5.66721 23.253 8.18396C23.6168 8.1969 23.986 8.21844 24.3471 8.26938C25.4197 8.42063 26.4659 9.12202 27.103 10.0005C27.8775 11.0679 28.1392 12.3625 27.9316 13.6602C27.7394 14.8604 27.1394 15.9282 26.1411 16.6288C25.7742 16.8862 25.3636 17.09 24.929 17.1981C24.2134 17.376 21.1551 17.4826 20.4132 17.3059C20.1418 17.2412 20.0954 17.11 19.955 16.8898L20.0436 16.8106C20.3069 16.5826 20.569 16.3608 20.8501 16.1555C21.7768 16.429 23.8492 16.0332 25.0899 16.3204C25.3883 16.2323 25.6512 16.1233 25.9056 15.9388C26.8026 15.2887 27.163 14.3017 27.3393 13.2453C27.3323 12.0855 27.0663 11.0334 26.2811 10.1518C25.2828 9.02993 24.0541 8.80385 22.6433 8.71882C22.4929 7.24121 22.2702 5.90662 21.5418 4.59358C20.5721 2.84678 18.9185 1.50239 17.0047 0.973808C15.121 0.453842 13.0997 0.726164 11.4175 1.72926C9.56977 2.8311 8.61324 4.46937 8.08897 6.52885C7.93239 8.07151 8.08512 9.56636 9.0861 10.8175C9.70239 11.5874 10.4934 12.0608 11.3429 12.5247C10.8843 12.7579 10.4602 13.0306 10.0295 13.3131C9.50559 13.0388 8.78297 12.5239 8.1605 12.73C7.49047 12.9522 6.85176 14.6606 6.51036 15.2891C6.50379 15.7135 6.55058 15.8992 6.82045 16.2385C7.11584 16.4004 7.99348 16.7275 8.1288 16.9846C7.28131 17.155 4.04986 17.1006 3.21474 16.9685C2.75271 16.8956 2.31698 16.7683 1.90174 16.5477C1.06468 16.1026 0.467339 15.3467 0.190899 14.4337C-0.129617 13.375 -0.0522884 12.1231 0.466569 11.1443C1.00476 10.1294 1.83679 9.60436 2.88533 9.26033C2.64485 8.17965 2.53311 7.14795 3.09991 6.13663C3.49157 5.43838 4.13144 4.92703 4.90277 4.73268C5.88713 4.48425 6.74351 4.78245 7.58752 5.2742Z" fill="#842394"/>
<path d="M20.8514 16.1557C21.7782 16.4292 23.8505 16.0334 25.0912 16.3207C23.6375 16.9456 21.6135 16.8046 20.0449 16.8108C20.3082 16.5828 20.5704 16.361 20.8514 16.1557Z" fill="#AD33A0"/>
<path d="M0.785156 13.5084C3.26268 14.8089 3.6957 15.0053 6.51308 15.2925C6.5065 15.7168 6.5533 15.9026 6.82316 16.2419C6.80306 16.2493 6.78373 16.2591 6.76324 16.265C5.83146 16.5413 2.98741 16.2991 2.17665 15.7968C1.33341 15.2741 0.985044 14.4457 0.785156 13.5084Z" fill="#AD33A0"/>
<path d="M0.785156 13.505C0.824592 9.60589 3.23369 10.5964 3.97061 9.63488C3.91803 9.54163 3.86621 9.44837 3.81673 9.35316C3.41347 8.5785 3.28395 7.84067 3.57045 6.9947C3.77613 6.38736 4.16624 5.91481 4.75044 5.65423C6.20687 5.00379 6.75628 6.07075 7.96179 6.4861C8.0047 6.50099 8.04839 6.5147 8.09169 6.52881C7.9351 8.07146 8.08783 9.56631 9.08881 10.8174C9.7051 11.5874 10.4961 12.0607 11.3456 12.5247C10.887 12.7578 10.4629 13.0305 10.0322 13.313C9.50831 13.0388 8.78569 12.5239 8.16321 12.73C7.49319 12.9522 6.85447 14.6606 6.51308 15.2891C3.6957 15.0018 3.26268 14.8055 0.785156 13.505Z" fill="#E133A2"/>
<path d="M11.9835 12.2247C11.987 12.202 11.9912 12.1793 11.9943 12.1565C12.0743 11.5911 11.8891 10.9387 12.0817 10.4137C12.7038 10.0865 15.2319 10.099 15.9263 10.309C16.0415 10.3439 16.0504 10.3541 16.1405 10.4054C16.3211 10.9238 16.2294 11.6754 16.2256 12.2306L17.5482 13.1408C17.9345 12.8093 18.5755 12.0186 19.1141 12.1181C19.3797 12.1671 19.5831 12.3838 19.7741 12.5605C20.2338 13.2227 21.4416 14.7219 21.2367 15.5835C21.1829 15.8081 21.0012 15.9926 20.8501 16.1564C20.569 16.3617 20.3068 16.5835 20.0435 16.8115L19.955 16.8907C19.6994 17.3166 19.8495 18.5454 19.8564 19.0689C20.4259 19.3589 21.0252 19.6288 21.5615 19.9768C21.164 20.8051 20.1673 22.818 19.5185 23.394C19.4249 23.4833 19.3418 23.5484 19.2115 23.5782C18.7398 23.6847 17.7883 22.9391 17.3553 22.7083C16.896 23.0406 16.4475 23.412 15.9101 23.6028C15.8563 24.1553 15.9329 25.0232 15.67 25.5001C15.5548 25.7097 15.4504 25.7814 15.2273 25.848C14.4556 26.0788 12.8375 26.0718 12.1405 25.6517C11.7762 25.1424 11.852 24.3571 11.8284 23.7466C11.187 23.488 10.6844 23.2807 10.1907 22.7694C9.80753 22.9802 8.78837 23.6495 8.36308 23.4966C7.83958 23.309 7.06284 21.6969 6.82623 21.2138C6.70908 20.9744 6.46395 20.5305 6.57182 20.275C6.81772 19.6935 7.5697 19.4349 8.10132 19.1986C8.09629 18.4608 8.08083 17.7222 8.12878 16.9855C7.99346 16.7285 7.11581 16.4013 6.82043 16.2395C6.55056 15.9001 6.50377 15.7144 6.51034 15.2901C6.85173 14.6615 7.49045 12.9531 8.16048 12.731C8.78295 12.5249 9.50557 13.0397 10.0295 13.314C10.4602 13.0315 10.8843 12.7588 11.3428 12.5257L11.9835 12.2247Z" fill="#452B90"/>
<path d="M14.2761 21.8617C15.2902 21.5576 15.8871 21.1274 16.6759 20.4315C17.0076 20.792 17.3776 21.1486 17.673 21.5388C16.8611 22.0604 16.1709 22.6908 15.3203 23.172C15.1224 23.7978 14.9878 24.4267 14.8788 25.074C14.3824 25.1504 13.8732 25.1766 13.3806 25.2609L12.791 25.2832C12.965 24.0489 14.0209 23.0776 14.2761 21.8617Z" fill="#58359A"/>
<path d="M11.9835 12.2247C12.0163 12.4465 12.0415 12.5597 11.9131 12.7537C11.5292 13.3321 10.6658 13.7564 10.0882 14.1181C9.57245 13.8461 9.06327 13.5519 8.62792 13.1561C8.31784 13.651 7.23218 15.0569 7.40732 15.5753C7.58208 16.0937 8.24399 16.312 8.68939 16.5286C8.70485 17.5733 8.73733 18.6206 8.73501 19.6649L7.20434 20.503C7.66907 21.3419 8.1512 22.1918 8.6631 23.0018C9.19935 22.6699 9.68379 22.2945 10.1756 21.898C11.2632 22.9018 12.7045 23.2608 12.7846 24.9551C12.7896 25.064 12.7896 25.1721 12.7888 25.2815L13.3784 25.2591C13.5157 25.274 13.6417 25.2791 13.779 25.2681L13.9186 25.2564L13.9271 25.3265C13.7299 25.4558 13.5211 25.5616 13.3123 25.6702L13.3104 25.763C13.7666 25.8978 14.843 25.8814 15.2776 25.698C15.8695 25.448 15.5787 24.1279 15.779 23.6068C16.1614 23.338 16.7715 22.78 17.1964 22.6491C17.8169 22.4575 18.5465 23.4398 19.1593 23.5053C19.2448 23.4155 19.3086 23.3713 19.4122 23.3078L19.5185 23.394C19.4249 23.4833 19.3418 23.5484 19.2115 23.5782C18.7398 23.6847 17.7883 22.9391 17.3553 22.7083C16.896 23.0406 16.4475 23.412 15.9101 23.6028C15.8563 24.1553 15.9329 25.0232 15.67 25.5001C15.5548 25.7097 15.4504 25.7814 15.2273 25.848C14.4556 26.0788 12.8375 26.0718 12.1405 25.6517C11.7762 25.1424 11.852 24.3571 11.8284 23.7466C11.187 23.488 10.6844 23.2807 10.1907 22.7694C9.80753 22.9802 8.78837 23.6495 8.36308 23.4966C7.83958 23.309 7.06284 21.6969 6.82623 21.2138C6.70908 20.9744 6.46395 20.5305 6.57182 20.275C6.81772 19.6935 7.5697 19.4349 8.10132 19.1986C8.09629 18.4608 8.08083 17.7222 8.12878 16.9855C7.99346 16.7285 7.11581 16.4013 6.82043 16.2395C6.55056 15.9001 6.50377 15.7144 6.51034 15.2901C6.85173 14.6615 7.49045 12.9531 8.16048 12.731C8.78295 12.5249 9.50557 13.0397 10.0295 13.314C10.4602 13.0315 10.8843 12.7588 11.3428 12.5257L11.9835 12.2247Z" fill="#2D2F87"/>
<path d="M12.781 15.0765C13.7514 14.8152 14.7067 14.816 15.5894 15.3567C16.4106 15.8594 16.9651 16.7328 17.1781 17.6713C17.3741 18.5349 17.2666 19.5587 16.7648 20.3028C16.7354 20.3459 16.7052 20.3879 16.6755 20.4306C15.8868 21.1265 15.2898 21.5567 14.2757 21.8608C13.8469 21.8949 13.3992 21.8796 12.9812 21.7718C12.1469 21.5567 11.4192 21.0093 10.994 20.2484C10.5033 19.371 10.4298 18.1822 10.7082 17.2218C11.0543 16.0279 11.7749 15.6137 12.781 15.0765Z" fill="#2D2F87"/>
<path d="M13.5732 15.5248C14.3685 15.4942 15.0258 15.6886 15.6251 16.2395C16.2294 16.7947 16.5921 17.6031 16.5963 18.4307C16.6002 19.1932 16.3102 19.8468 15.7956 20.3926C15.6475 20.0305 15.6177 19.5635 15.523 19.1798C15.1704 17.7563 14.6164 16.5526 13.5732 15.5248Z" fill="#62C9AF"/>
<path d="M15.796 20.3914C15.5045 20.746 15.0254 21.0058 14.5963 21.1472C13.9599 21.3569 13.2005 21.2711 12.6132 20.9513C11.9158 20.5713 11.4236 19.8969 11.2218 19.125C11.0234 18.368 11.0957 17.5294 11.5144 16.8598C11.995 16.0922 12.7312 15.7246 13.5736 15.5236C14.6168 16.5514 15.1708 17.7551 15.5234 19.1787C15.6181 19.5623 15.6479 20.0293 15.796 20.3914Z" fill="#58B1E7"/>
<path d="M12.6396 10.9573L15.6824 10.9671C15.6766 11.5753 15.6809 12.1854 15.6643 12.7931C16.3188 13.1481 16.8825 13.5525 17.4482 14.0395C17.9813 13.737 18.5013 13.3585 19.0488 13.0925C19.6315 13.7594 20.1666 14.554 20.5323 15.3655C20.0892 15.7902 19.6458 16.2146 19.2151 16.6527C19.2154 17.5413 19.2066 18.4312 19.2205 19.3195C19.7567 19.8512 20.1349 20.0648 20.8915 20.1184C20.3073 21.0381 19.7014 22.0412 19.0028 22.873C18.5334 22.4456 18.0931 22.0126 17.6716 21.5361C17.3762 21.1458 17.0063 20.7893 16.6745 20.4288C16.7043 20.3861 16.7344 20.3441 16.7638 20.301C17.2657 19.557 17.3732 18.5331 17.1771 17.6695C16.9641 16.731 16.4097 15.8576 15.5885 15.3549C14.7058 14.8142 13.7504 14.8134 12.78 15.0747C12.671 13.7053 12.6895 12.3295 12.6396 10.9573Z" fill="#7F53AF"/>
<path d="M8.08888 6.5307C8.61315 4.47121 9.56968 2.83295 11.4174 1.73111C13.0996 0.72801 15.1209 0.455689 17.0046 0.975655C18.9184 1.50424 20.572 2.84862 21.5417 4.59542C22.2701 5.90846 22.4928 7.24306 22.6432 8.72067C24.054 8.80569 25.2827 9.03178 26.281 10.1536C27.0662 11.0352 27.3322 12.0873 27.3392 13.2471C27.1629 14.3035 26.8025 15.2906 25.9056 15.9406C25.6511 16.1252 25.3882 16.2341 25.0898 16.3223C23.8491 16.0351 21.7767 16.4308 20.85 16.1573C21.0012 15.9935 21.1829 15.809 21.2366 15.5844C21.4415 14.7228 20.2337 13.2236 19.774 12.5614C19.583 12.3847 19.3796 12.168 19.114 12.119C18.5754 12.0195 17.9344 12.8102 17.5482 13.1417L16.2255 12.2315C16.2294 11.6763 16.321 10.9247 16.1404 10.4063C16.0504 10.355 16.0415 10.3448 15.9263 10.3099C15.2319 10.0999 12.7037 10.0874 12.0816 10.4146C11.8891 10.9396 12.0743 11.592 11.9942 12.1574C11.9911 12.1802 11.9869 12.2029 11.9834 12.2256L11.3428 12.5266C10.4933 12.0626 9.7023 11.5893 9.08601 10.8193C8.08503 9.5682 7.9323 8.07335 8.08888 6.5307Z" fill="#EE8ACB"/>
</svg>
