<svg width="26" height="26" viewBox="0 0 26 26" fill="none" xmlns="http://www.w3.org/2000/svg">
<path d="M12.417 0.0441532C12.485 0.0351009 12.5529 0.0260468 12.6213 0.0185032C13.2106 -0.0467434 13.8088 0.0524559 14.2757 0.446198C14.8086 0.89538 14.9314 1.45204 14.9874 2.10979C16.4472 2.46657 17.7542 2.99533 18.9504 3.91783C19.3019 3.58858 19.5885 3.35626 20.0662 3.24915C20.5447 3.14166 21.0352 3.22916 21.4404 3.509C22.1438 3.99514 22.3012 4.67552 22.4353 5.46451C22.3001 5.88427 22.1382 6.22899 21.8798 6.58728C22.5588 7.83903 23.0921 9.03534 23.4324 10.4274C23.7449 10.5028 24.0979 10.5888 24.3526 10.7955C24.7954 11.1545 25.1255 11.6769 25.1792 12.252C25.2303 12.8015 25.0436 13.3239 24.6842 13.7361C24.3285 14.1453 23.9488 14.3169 23.4185 14.3667C23.0403 15.9262 22.4909 17.2481 21.7191 18.6469C21.9887 18.9313 22.2197 19.2432 22.3297 19.6249C22.4796 20.1461 22.4342 20.6922 22.1698 21.1685C21.9125 21.6328 21.4723 21.9726 20.9623 22.1099C20.287 22.2913 19.7004 22.1257 19.1066 21.7954C17.7895 22.6945 16.5415 23.2232 15.0114 23.6532C15.0159 23.8734 15.0163 24.0907 14.966 24.3068C14.8304 24.8865 14.4537 25.4601 13.9324 25.7562C13.3642 26.079 12.838 26.0409 12.2311 25.8742C12.0204 25.7709 11.8127 25.6404 11.6328 25.4888C11.0894 25.0301 10.9695 24.464 10.9324 23.7844C9.40943 23.2523 8.02659 22.6609 6.64487 21.821C6.24226 22.0952 5.81149 22.3332 5.32137 22.389C4.75539 22.4535 4.20517 22.3049 3.76388 21.9387C3.35151 21.5959 3.08786 21.0875 3.05068 20.5508C3.00298 19.8606 3.28616 19.3794 3.71957 18.8762C3.10514 17.514 2.47117 16.191 2.09636 14.7363C1.63816 14.6439 1.20288 14.5383 0.823178 14.2486C0.371745 13.9039 0.0742942 13.4208 0.0119498 12.8513C-0.0477656 12.3018 0.117866 11.7455 0.474281 11.3231C0.912569 10.8038 1.51948 10.5669 2.18048 10.5141C2.57709 9.07984 3.09237 7.79716 3.76238 6.47338C3.39132 6.04795 3.12842 5.71155 3.07359 5.12169C3.02401 4.5933 3.20241 4.06605 3.54568 3.66439C3.90435 3.245 4.4354 2.97647 4.98711 2.95271C5.77806 2.91839 6.26442 3.30421 6.81275 3.8077C8.17982 3.0685 9.46915 2.56086 10.9838 2.20709C11.0345 1.90273 11.0773 1.57952 11.178 1.28724C11.4045 0.627981 11.8082 0.331161 12.417 0.0441532Z" fill="#452B90"/>
<path d="M20.2258 3.94384C20.4496 3.94573 20.6547 3.95817 20.8699 4.02756C21.1715 4.12449 21.4385 4.3406 21.5835 4.62459C21.7382 4.92819 21.7491 5.268 21.6248 5.58518C21.4539 6.02116 21.1587 6.22294 20.7493 6.41113C20.566 6.40849 20.3775 6.40623 20.1987 6.36098C19.8521 6.27348 19.5257 6.00042 19.3646 5.68173C19.2211 5.39849 19.205 5.08207 19.3098 4.78262C19.4671 4.33381 19.8198 4.13618 20.2258 3.94384Z" fill="#EE8ACB"/>
<path d="M20.0743 19.0022C20.3091 18.9848 20.5607 18.9562 20.7924 19.0112C21.132 19.092 21.4463 19.3382 21.6078 19.6483C21.7456 19.9141 21.7674 20.2242 21.6724 20.5078C21.5237 20.9517 21.2273 21.1697 20.83 21.3794C20.5825 21.4069 20.3403 21.4242 20.0958 21.3616C19.787 21.2828 19.4941 21.0814 19.333 20.8023C19.1767 20.5312 19.158 20.214 19.241 19.9157C19.369 19.4559 19.6864 19.2379 20.0743 19.0022Z" fill="#EE8ACB"/>
<path d="M12.8086 0.652504C12.9795 0.668344 13.1579 0.681158 13.3228 0.732073C13.6916 0.845971 13.9969 1.13639 14.1558 1.48713C14.2955 1.79451 14.3082 2.16336 14.1768 2.47601C13.9988 2.89728 13.7077 3.0885 13.2972 3.24954C13.0914 3.25105 12.8852 3.25255 12.6869 3.18995C12.3406 3.08057 12.0319 2.82336 11.8791 2.4911C11.7442 2.19843 11.7363 1.85899 11.8479 1.55727C12.0244 1.07981 12.3651 0.852015 12.8086 0.652504Z" fill="#EE8ACB"/>
<path d="M12.7347 22.6777C12.859 22.677 12.9871 22.6762 13.1095 22.6969C13.4817 22.7599 13.8847 23.0047 14.0837 23.3302C14.2625 23.6228 14.3057 23.9815 14.2017 24.3092C14.0522 24.7818 13.7052 25.0541 13.2864 25.2778C13.1313 25.2781 12.9728 25.2781 12.8211 25.2416C12.4331 25.1484 12.0579 24.8776 11.8705 24.5212C11.7049 24.2067 11.6812 23.8555 11.8097 23.5221C11.9768 23.088 12.3351 22.867 12.7347 22.6777Z" fill="#7F53AF"/>
<path d="M22.9564 11.0763C23.1254 11.0744 23.3038 11.0684 23.4698 11.1053C23.8307 11.1853 24.1717 11.4436 24.3513 11.7668C24.5218 12.0742 24.5458 12.4261 24.4406 12.7599C24.2968 13.217 23.9772 13.4444 23.5742 13.6609C23.3718 13.6711 23.0909 13.7114 22.8993 13.6352C22.5733 13.5055 22.2898 13.2634 22.1339 12.9458C21.9747 12.6211 21.9611 12.2436 22.0847 11.9045C22.2436 11.4696 22.5591 11.269 22.9564 11.0763Z" fill="#EE8ACB"/>
<path d="M5.04117 19.0854C5.23121 19.0847 5.43101 19.1024 5.61016 19.1718C5.96319 19.3095 6.30683 19.6225 6.4379 19.9827C6.55358 20.2991 6.53255 20.6434 6.3718 20.9402C6.14233 21.3638 5.70367 21.5365 5.26501 21.6515C4.97056 21.6557 4.72268 21.6202 4.46241 21.4762C4.14919 21.3027 3.90169 21.0319 3.81043 20.6796C3.72968 20.367 3.77963 20.0441 3.94225 19.7658C4.18449 19.3517 4.60213 19.2016 5.04117 19.0854Z" fill="#7F53AF"/>
<path d="M4.68755 3.63075C4.86595 3.62132 5.04998 3.60774 5.228 3.62283C5.60432 3.65451 6.02195 3.91851 6.23527 4.2274C6.42756 4.50573 6.50005 4.84516 6.42456 5.17667C6.31264 5.67036 5.96749 5.94568 5.55925 6.19874C5.35268 6.21911 5.13147 6.24966 4.92416 6.22665C4.57751 6.18781 4.2226 5.96039 4.02129 5.6779C3.81323 5.38637 3.75276 5.02167 3.82525 4.67356C3.93266 4.15762 4.26391 3.89852 4.68755 3.63075Z" fill="#CB7CC5"/>
<path d="M1.80474 11.1491C1.96211 11.1562 2.12661 11.1634 2.28097 11.1958C2.61935 11.2667 2.9352 11.5153 3.11923 11.8038C3.33932 12.1504 3.38664 12.569 3.2796 12.9624C3.13614 13.4893 2.80939 13.7265 2.35119 13.9724C2.17092 13.9724 1.97938 13.9777 1.80212 13.9411C1.46373 13.8717 1.11971 13.5979 0.945071 13.3045C0.740762 12.9616 0.709588 12.5389 0.830897 12.1617C0.998025 11.6439 1.34317 11.3912 1.80474 11.1491Z" fill="#7F53AF"/>
<path d="M11.1443 2.88594C11.1589 2.9048 11.1736 2.92328 11.1886 2.94176L11.2637 3.03303C11.4586 3.27365 11.6408 3.48485 11.8999 3.6591C12.3431 3.95704 12.8779 4.11921 13.4078 3.99702C14.0692 3.84427 14.4373 3.37888 14.7749 2.83126C16.1664 3.23367 17.3765 3.66626 18.5907 4.47637C18.5685 4.75546 18.54 5.04398 18.5629 5.32382C18.6064 5.85334 18.8449 6.39643 19.2708 6.72493C19.8841 7.19787 20.5831 7.14657 21.3 7.05153C21.8957 8.12414 22.3531 9.20919 22.6735 10.3949C21.8942 10.8596 21.5118 11.2017 21.2718 12.1042L20.6082 12.111C20.2653 12.1159 20.0392 12.1589 19.797 12.4138L19.8274 12.553C20.2867 12.8966 20.728 12.8238 21.2722 12.8128C21.5993 13.5735 21.8532 13.919 22.6269 14.272C22.4091 15.6652 21.7913 17.0071 21.0788 18.2094C20.7021 18.2494 20.3089 18.2622 19.9446 18.3724C19.3857 18.5413 18.8472 18.8728 18.5877 19.4159C18.3082 20.0013 18.4055 20.5979 18.5986 21.1885C17.3817 22.036 16.0946 22.5527 14.7178 23.069C14.3223 22.6402 13.7774 22.4274 13.4135 22.0126C13.2403 21.815 13.2989 21.4887 13.3083 21.2417C13.3192 20.9875 13.3766 20.6522 13.2422 20.432C13.0202 20.309 12.7153 20.3773 12.4689 20.3999L12.4959 21.9685C12.4107 22.0518 12.4482 22.0269 12.3551 22.0782C11.8503 22.3565 11.4733 22.6507 11.1063 23.0942C9.69044 22.6126 8.3752 21.9247 7.07836 21.1881C7.16098 20.8815 7.22784 20.5734 7.1884 20.2539C7.11592 19.663 6.79292 19.1376 6.30731 18.8C5.69326 18.3731 5.06418 18.3648 4.36112 18.481C3.75307 17.2255 3.044 15.9564 2.85059 14.5568C3.03762 14.4161 3.23516 14.2735 3.39666 14.1034C3.81241 13.6656 4.05616 13.0572 4.00846 12.4508C3.95062 11.7168 3.50895 11.2133 2.98504 10.7525C3.14653 9.35854 3.76134 8.11094 4.42722 6.89766C4.62589 6.92406 4.82532 6.94857 5.02588 6.95649C5.54679 6.97648 6.09362 6.81657 6.47219 6.4447C7.0085 5.91821 7.11667 5.24085 7.11554 4.52804C8.36581 3.74961 9.73588 3.2827 11.1443 2.88594Z" fill="white"/>
<path d="M5.5332 12.7115C5.5501 12.5188 5.56926 12.3264 5.5948 12.1344C5.85244 10.1846 6.96074 8.41501 8.5201 7.23643C10.075 6.06086 12.0846 5.64147 13.994 5.91453C13.5493 6.37804 12.5755 6.17665 11.9689 6.28489C11.0541 6.44857 10.4351 7.029 9.61225 7.35259C8.19035 8.08237 7.16054 9.53627 6.66592 11.0347C6.54611 11.3971 6.44996 11.7844 6.38424 12.1608C6.28509 12.2291 6.24904 12.2219 6.22012 12.349C6.18181 12.5187 6.19946 12.6628 6.21223 12.8348L6.385 12.8555C6.39138 13.3745 6.63437 14.2434 6.33729 14.65C6.18369 14.6715 6.03497 14.6832 5.87986 14.6885C5.72399 14.0273 5.6132 13.3866 5.5332 12.7115Z" fill="#F14C27"/>
<path d="M6.38427 12.1616C6.44999 11.7852 6.54614 11.3978 6.66594 11.0354C7.16057 9.537 8.19038 8.0831 9.61228 7.35332C9.61341 7.9115 9.73659 8.26375 10.0029 8.74726C10.2154 8.95808 10.4092 9.13006 10.6635 9.28884C10.9478 9.28394 11.2051 9.29488 11.486 9.34051C11.1867 11.043 10.6935 12.9034 11.7455 14.4614C12.1526 15.0641 12.8185 15.5329 13.5434 15.6408C13.777 15.6755 14.0076 15.6596 14.2412 15.6396C14.4541 15.686 14.6393 15.6996 14.8135 15.838C14.643 15.9708 14.4631 16.0801 14.2791 16.1918C14.3227 16.3302 14.2885 16.2729 14.3722 16.369C15.3085 16.9981 16.0293 17.953 16.9761 18.5523C15.8238 19.4929 13.8806 20.2906 12.3821 20.1341C12.3089 20.1265 12.236 20.1149 12.1631 20.1024C11.0192 20.0364 9.90448 19.6921 8.95241 19.0441C8.66961 18.8518 8.4052 18.6014 8.10775 18.4365C7.93912 18.343 7.82758 18.2759 7.68299 18.1488C7.0325 16.986 6.34671 15.9511 5.87988 14.6892C6.03499 14.6839 6.18371 14.6722 6.33732 14.6507C6.6344 14.2442 6.39141 13.3752 6.38502 12.8563L6.21226 12.8355C6.19949 12.6636 6.18184 12.5195 6.22015 12.3498C6.24907 12.2227 6.28512 12.2298 6.38427 12.1616Z" fill="#F37316"/>
<path d="M12.5111 16.5781C12.7987 16.548 13.1533 16.4804 13.4199 16.6189C13.5424 16.6826 13.5236 16.7226 13.5627 16.8436C13.4868 17.1276 13.314 17.2838 13.1161 17.4923C12.8885 17.5561 12.8115 17.5991 12.5884 17.4859C12.4254 17.4037 12.3034 17.2083 12.2793 17.0307C12.2482 16.8022 12.3698 16.7275 12.5111 16.5781Z" fill="#E53022"/>
<path d="M10.0049 8.74749C10.2175 8.95831 10.4113 9.13029 10.6655 9.28907C10.6452 9.51838 10.7095 9.76578 10.5529 9.96265C10.4364 10.1086 10.2145 10.2399 10.0263 10.2516C9.81599 10.2648 9.74651 10.1818 9.60642 10.0517C9.41563 9.52479 9.80247 9.34489 9.95945 8.88778C9.97523 8.84102 9.98987 8.79388 10.0049 8.74749Z" fill="#E53022"/>
<path d="M10.483 15.2996C10.735 15.3622 10.8947 15.4116 11.096 15.5786C11.1365 15.6986 11.1801 15.731 11.1211 15.8547C10.9581 16.1968 10.5683 16.3058 10.2419 16.4348C10.1477 16.4642 10.0511 16.468 9.95349 16.4785C9.89715 16.4302 9.82129 16.3703 9.7781 16.3111C9.65154 16.138 9.64176 16.0595 9.66317 15.8611C9.85509 15.5783 10.1878 15.4534 10.483 15.2996Z" fill="#E53022"/>
<path d="M7.68457 18.1479C7.78334 17.8564 8.05188 17.3816 8.33806 17.2334C8.35909 17.2224 8.38276 17.2171 8.40491 17.2092L8.52171 17.288C8.52547 17.316 8.52885 17.3442 8.53298 17.3721C8.61561 17.9262 8.84958 18.2641 9.29952 18.5937C10.1964 19.2511 11.3441 19.3688 11.9773 19.8047C12.1095 19.8956 12.1238 19.953 12.1647 20.1016C11.0207 20.0356 9.90606 19.6912 8.95399 19.0433C8.67119 18.8509 8.40679 18.6005 8.10934 18.4357C7.94071 18.3422 7.82916 18.275 7.68457 18.1479Z" fill="#F14C27"/>
<path d="M6.38563 12.1611C7.15066 12.1822 9.29404 11.9212 9.81307 12.4722C9.92424 12.5903 9.97419 12.7192 9.96142 12.8852C9.9479 13.0598 9.89307 13.2597 9.76875 13.3875C9.62266 13.538 9.51412 13.5309 9.32108 13.5444C9.07959 13.4373 8.97856 13.3166 8.88579 13.076C8.8565 13.0013 8.83321 12.924 8.80805 12.8475C8.77537 12.8509 8.7427 12.8546 8.70965 12.8577C7.9495 12.927 7.14879 12.8973 6.38638 12.8558L6.21362 12.835C6.20085 12.663 6.1832 12.519 6.22151 12.3493C6.25043 12.2222 6.28648 12.2293 6.38563 12.1611Z" fill="#E53022"/>
<path d="M13.997 5.91566C15.1774 5.98392 16.4855 6.67486 17.3238 7.49101L17.7827 7.9564C18.8302 9.00449 19.602 10.593 19.6102 12.0948C19.6106 12.1182 19.6102 12.1416 19.6099 12.165L19.6155 12.6602C19.8615 14.1477 19.2752 15.7264 18.4265 16.9257C18.067 17.4337 17.6547 17.9082 17.2404 18.3717L16.979 18.5527C16.0322 17.9534 15.3115 16.9985 14.3752 16.3694C14.2914 16.2733 14.3256 16.3306 14.2821 16.1922C14.4661 16.0805 14.646 15.9712 14.8165 15.8384C14.6422 15.7 14.4571 15.6864 14.2441 15.64C14.0105 15.66 13.7799 15.6759 13.5463 15.6412C12.8215 15.5333 12.1556 15.0645 11.7485 14.4618C10.6965 12.9038 11.1896 11.0434 11.4889 9.34092C11.208 9.29528 10.9508 9.28434 10.6665 9.28924C10.4122 9.13046 10.2184 8.95849 10.0058 8.74766C9.73955 8.26416 9.61636 7.9119 9.61523 7.35373C10.4381 7.03013 11.057 6.44971 11.9719 6.28602C12.5785 6.17778 13.5523 6.37918 13.997 5.91566Z" fill="#F3A815"/>
<path d="M14.4874 12.1883C15.0977 12.1551 15.7095 12.0823 16.3202 12.0789L16.316 12.4281C15.6978 12.4255 15.0594 12.4719 14.4502 12.355L14.4874 12.1883Z" fill="#F14C27"/>
<path d="M12.5299 7.96501C12.6688 7.99858 12.8683 8.05816 12.9775 8.15773C13.1278 8.29539 13.1927 8.43607 13.1841 8.64275C13.1747 8.87205 13.0016 9.03573 12.8528 9.18848C12.7372 9.17792 12.5577 9.16321 12.4532 9.10399C12.3496 9.04478 12.2508 8.97313 12.2185 8.85395C12.128 8.5198 12.3601 8.22977 12.5299 7.96501Z" fill="#E53022"/>
<path d="M15.1187 9.7763C14.9381 9.78686 15.0034 9.77555 14.8378 9.81175C14.8006 9.82005 14.7642 9.82911 14.7274 9.8374L14.5343 9.70201C14.4862 9.58094 14.4359 9.51456 14.4588 9.3803C14.5013 9.12685 14.6988 8.83381 14.9347 8.71954C15.1334 8.62336 15.2182 8.66221 15.4045 8.735C15.5446 8.99221 15.5052 9.12535 15.4913 9.41386C15.3782 9.55718 15.2866 9.69408 15.1187 9.7763Z" fill="#F14C27"/>
<path d="M14.2412 15.6397C14.9788 15.5187 14.8297 15.9026 15.2447 15.8585C15.3191 15.708 15.3105 15.7683 15.312 15.6115C15.3142 15.3821 15.2785 15.2132 15.4051 15.0088C15.7412 14.9084 16.0886 15.0563 16.3992 15.2004C16.0533 15.5639 15.7138 15.9852 15.2451 16.19C15.0866 16.1021 15.0494 16.0663 14.8624 16.1108C14.6878 16.1527 14.5229 16.2741 14.3723 16.3691C14.2885 16.273 14.3227 16.3303 14.2791 16.1919C14.4632 16.0802 14.6431 15.9709 14.8136 15.8381C14.6393 15.6997 14.4542 15.6861 14.2412 15.6397Z" fill="#E53022"/>
<path d="M13.7597 11.3824L14.3197 11.6981L14.4876 12.188L14.4504 12.3547C14.4346 12.3751 14.4196 12.3966 14.4027 12.4162C14.2532 12.5863 14.0526 12.7262 13.8164 12.7024C13.6403 12.6847 13.4746 12.5372 13.3871 12.3913C13.282 12.2159 13.2662 11.9881 13.3169 11.7924C13.3736 11.5725 13.5779 11.4812 13.7597 11.3824Z" fill="#842394"/>
<path d="M16.3983 15.1991C16.6905 15.9156 16.621 16.9049 16.7881 17.6924C16.2341 17.2341 15.7155 16.7318 15.2441 16.1887C15.7129 15.9839 16.0524 15.5626 16.3983 15.1991Z" fill="#F37316"/>
<path d="M14.3711 16.3694C14.5217 16.2744 14.6866 16.1529 14.8612 16.1111C15.0482 16.0666 15.0854 16.1024 15.2439 16.1903C15.7153 16.7334 16.2339 17.2357 16.7879 17.694C16.9374 17.9191 17.0943 18.142 17.2363 18.3717L16.9749 18.5527C16.0281 17.9534 15.3074 16.9985 14.3711 16.3694Z" fill="#E53022"/>
<path d="M17.322 7.48944L17.781 7.95483C16.966 8.88375 14.8606 10.7887 14.3197 11.6973L13.7598 11.3816C14.2717 10.9128 14.6555 10.298 15.1178 9.77608C15.2857 9.69386 15.3773 9.55696 15.4904 9.41364C16.0962 8.76118 16.7748 8.19923 17.322 7.48944Z" fill="#F14C27"/>
<path d="M17.7796 7.95615C18.8271 9.00424 19.5989 10.5928 19.6071 12.0946C19.6075 12.118 19.6071 12.1414 19.6067 12.1647L19.6124 12.6599C18.9976 12.7565 16.9582 13.0435 16.473 12.7674C16.3596 12.7029 16.3517 12.5457 16.3149 12.4284L16.319 12.0791C15.7083 12.0825 15.0965 12.1553 14.4862 12.1885L14.3184 11.6986C14.8592 10.79 16.9646 8.88506 17.7796 7.95615Z" fill="#F3A815"/>
<path d="M16.3196 12.0791C16.3845 11.834 16.43 11.6575 16.6591 11.5111C16.8187 11.4093 16.9426 11.4097 17.1199 11.4406C17.2814 11.6458 17.26 11.8543 17.2495 12.1093C17.8793 12.3699 18.9087 12.1191 19.6073 12.1647L19.6129 12.6599C18.9981 12.7565 16.9588 13.0435 16.4735 12.7674C16.3601 12.7029 16.3522 12.5457 16.3154 12.4284L16.3196 12.0791Z" fill="#F14C27"/>
</svg>
