<svg width="60" height="60" viewBox="0 0 60 60" fill="none" xmlns="http://www.w3.org/2000/svg">
<circle cx="30" cy="30" r="30" fill="#9D4EDD"/>
<path d="M29.2649 14.6457C24.4757 14.6559 20.0819 16.8191 17.7737 20.8172C17.4167 21.4355 17.1701 22.0761 16.937 22.7312C20.8524 17.3533 27.498 15.2755 32.4675 18.1445C37.8558 21.2553 39.2117 28.9626 35.503 35.3863C33.7356 38.4476 31.1378 40.6518 28.3151 41.7932C34.8352 43.7934 41.6928 41.7722 44.7869 36.413C48.4802 30.0164 45.3957 21.3211 37.9472 17.0208C35.1542 15.4082 32.1383 14.6394 29.2649 14.6455V14.6457ZM27.5721 18.0599C24.8133 18.0683 21.8226 19.1909 19.2149 21.4374C13.8314 26.0754 12.0903 33.773 15.3264 38.63C15.6393 39.0997 16.0032 39.488 16.3815 39.8699C13.923 35.1414 14.6308 29.2295 18.2228 26.135C22.1173 22.7798 27.8918 24.0118 31.1414 28.8894C32.69 31.2138 33.3771 33.942 33.2555 36.5306C36.7466 31.9416 37.5625 25.8782 34.8514 21.809H34.8513C33.1829 19.3046 30.509 18.0509 27.5721 18.0599ZM23.2409 25.4229C21.4116 25.4286 19.6022 26.1031 18.2472 27.4497C14.908 30.7686 14.9759 37.1698 18.3254 41.5277C21.675 45.8856 27.0975 46.728 30.4367 43.4092C27.2165 45.4357 24.6343 45.207 21.6335 41.9794C18.9367 39.0789 19.9631 33.5849 23.3165 30.2521C24.9145 28.6638 26.8116 27.804 28.6263 27.6752C27.1579 26.169 25.1881 25.417 23.2409 25.4229L23.2409 25.4229Z" fill="white"/>
</svg>
