<svg width="60" height="60" viewBox="0 0 60 60" fill="none" xmlns="http://www.w3.org/2000/svg">
<circle cx="30" cy="30" r="30" fill="#3A0CA3"/>
<path d="M29.2649 14.6408C24.4757 14.6511 20.0819 16.8142 17.7737 20.8123C17.4167 21.4306 17.1701 22.0713 16.937 22.7263C20.8524 17.3484 27.498 15.2706 32.4675 18.1396C37.8558 21.2504 39.2117 28.9577 35.503 35.3814C33.7356 38.4427 31.1378 40.6469 28.3151 41.7883C34.8352 43.7885 41.6928 41.7673 44.7869 36.4081C48.4802 30.0115 45.3957 21.3162 37.9472 17.0159C35.1542 15.4033 32.1383 14.6345 29.2649 14.6407V14.6408ZM27.5721 18.055C24.8133 18.0634 21.8226 19.186 19.2149 21.4325C13.8314 26.0706 12.0903 33.7681 15.3264 38.6252C15.6393 39.0948 16.0032 39.4831 16.3815 39.865C13.923 35.1365 14.6308 29.2247 18.2228 26.1302C22.1173 22.7749 27.8918 24.0069 31.1414 28.8845C32.69 31.2089 33.3771 33.9371 33.2555 36.5257C36.7466 31.9367 37.5625 25.8733 34.8514 21.8041H34.8513C33.1829 19.2997 30.509 18.046 27.5721 18.055ZM23.2409 25.418C21.4116 25.4237 19.6022 26.0982 18.2472 27.4449C14.908 30.7637 14.9759 37.1649 18.3254 41.5228C21.675 45.8807 27.0975 46.7232 30.4367 43.4043C27.2165 45.4308 24.6343 45.2022 21.6335 41.9745C18.9367 39.074 19.9631 33.58 23.3165 30.2472C24.9145 28.6589 26.8116 27.7991 28.6263 27.6703C27.1579 26.1641 25.1881 25.4121 23.2409 25.4181L23.2409 25.418Z" fill="white"/>
</svg>
