<svg width="60" height="60" viewBox="0 0 60 60" fill="none" xmlns="http://www.w3.org/2000/svg">
<circle cx="30" cy="30" r="30" fill="url(#paint0_linear_8612_15584)"/>
<path d="M29.263 14.6457C24.4737 14.6559 20.0799 16.8191 17.7717 20.8172C17.4147 21.4355 17.1681 22.0761 16.935 22.7312C20.8504 17.3533 27.496 15.2755 32.4656 18.1445C37.8538 21.2553 39.2098 28.9626 35.5011 35.3863C33.7337 38.4476 31.1359 40.6518 28.3131 41.7932C34.8332 43.7934 41.6909 41.7722 44.785 36.413C48.4782 30.0164 45.3937 21.3211 37.9453 17.0208C35.1523 15.4082 32.1364 14.6394 29.263 14.6455V14.6457ZM27.5702 18.0599C24.8114 18.0683 21.8206 19.1909 19.213 21.4374C13.8295 26.0754 12.0884 33.773 15.3245 38.63C15.6374 39.0997 16.0012 39.488 16.3795 39.8699C13.9211 35.1414 14.6289 29.2295 18.2209 26.135C22.1153 22.7798 27.8898 24.0118 31.1394 28.8894C32.688 31.2138 33.3751 33.942 33.2535 36.5306C36.7446 31.9416 37.5606 25.8782 34.8495 21.809H34.8494C33.1809 19.3046 30.507 18.0509 27.5702 18.0599ZM23.2389 25.4229C21.4096 25.4286 19.6003 26.1031 18.2453 27.4497C14.9061 30.7686 14.9739 37.1698 18.3235 41.5277C21.6731 45.8856 27.0956 46.728 30.4347 43.4092C27.2145 45.4357 24.6324 45.207 21.6315 41.9794C18.9347 39.0789 19.9612 33.5849 23.3145 30.2521C24.9125 28.6638 26.8096 27.804 28.6243 27.6752C27.156 26.169 25.1861 25.417 23.239 25.4229L23.2389 25.4229Z" fill="white"/>
<defs>
<linearGradient id="paint0_linear_8612_15584" x1="0" y1="30.3093" x2="60" y2="30.3093" gradientUnits="userSpaceOnUse">
<stop stop-color="#F7390D"/>
<stop offset="1" stop-color="#FC7327"/>
</linearGradient>
</defs>
</svg>
