<svg width="61" height="60" viewBox="0 0 61 60" fill="none" xmlns="http://www.w3.org/2000/svg">
<circle cx="30.5" cy="30" r="30" fill="url(#paint0_linear_8175_35787)"/>
<path d="M29.7688 14.6408C24.9796 14.6511 20.5858 16.8142 18.2776 20.8123C17.9206 21.4306 17.674 22.0713 17.4409 22.7263C21.3563 17.3484 28.0019 15.2706 32.9715 18.1396C38.3597 21.2504 39.7157 28.9577 36.007 35.3814C34.2395 38.4427 31.6417 40.6469 28.819 41.7883C35.3391 43.7885 42.1968 41.7673 45.2908 36.4081C48.9841 30.0115 45.8996 21.3162 38.4511 17.0159C35.6581 15.4033 32.6422 14.6345 29.7688 14.6407V14.6408ZM28.076 18.055C25.3173 18.0634 22.3265 19.186 19.7188 21.4325C14.3353 26.0706 12.5942 33.7681 15.8303 38.6252C16.1432 39.0948 16.5071 39.4831 16.8854 39.865C14.4269 35.1365 15.1347 29.2247 18.7267 26.1302C22.6212 22.7749 28.3957 24.0069 31.6453 28.8845C33.1939 31.2089 33.881 33.9371 33.7594 36.5257C37.2505 31.9367 38.0664 25.8733 35.3553 21.8041H35.3552C33.6868 19.2997 31.0129 18.046 28.076 18.055ZM23.7448 25.418C21.9155 25.4237 20.1062 26.0982 18.7511 27.4449C15.4119 30.7637 15.4798 37.1649 18.8293 41.5228C22.1789 45.8807 27.6014 46.7232 30.9406 43.4043C27.7204 45.4308 25.1382 45.2022 22.1374 41.9745C19.4406 39.074 20.467 33.58 23.8204 30.2472C25.4184 28.6589 27.3155 27.7991 29.1302 27.6703C27.6618 26.1641 25.692 25.4121 23.7449 25.4181L23.7448 25.418Z" fill="white"/>
<defs>
<linearGradient id="paint0_linear_8175_35787" x1="60.5" y1="4.28573" x2="-0.250082" y2="6.37029" gradientUnits="userSpaceOnUse">
<stop stop-color="#408BFF"/>
<stop offset="1" stop-color="#0011B7"/>
</linearGradient>
</defs>
</svg>
